<?xml version="1.0" standalone="no"?>
<!DOCTYPE svg PUBLIC "-//W3C//DTD SVG 1.1//EN" "http://www.w3.org/Graphics/SVG/1.1/DTD/svg11.dtd">
<svg xmlns="http://www.w3.org/2000/svg">
<defs >
<font id="Newsreader" horiz-adv-x="1087" ><font-face
    font-family="Newsreader 16pt 16pt Light"
    units-per-em="2000"
    panose-1="2 0 0 0 0 0 0 0 0 0"
    ascent="1470"
    descent="-530"
    alphabetic="0" />
<glyph unicode=" " horiz-adv-x="465" />
<glyph unicode="!" horiz-adv-x="512" d="M319 1332L317 1259Q317 1241 315 1193T309 1075T302 922T294 748T287 568T281 398H231Q229 478 226 567T219 747T211 921T204 1074T198 1192T196 1259L195 1332Q195 1345 202 1352T224 1363T257 1367Q276 1367 289 1364T311
1353T319 1332ZM256 183Q300 183 328 155T356 84Q356 42 328 14T256 -15Q213 -15 185 13T157 84Q157 127 185 155T256 183Z" />
<glyph unicode="&quot;" horiz-adv-x="608" d="M146 913L109 1312V1352H240V1312L200 913H146ZM406 913L369 1312V1352H500V1312L460 913H406Z" />
<glyph unicode="#" horiz-adv-x="1133" d="M869 0H806L1106 1353H1170L869 0ZM553 0H491L792 1353H854L553 0ZM1276 550V488H296V550H1276ZM1350 872V810H372V872H1350Z" />
<glyph unicode="$" horiz-adv-x="1133" d="M427 -197V1550H491V-197H427ZM664 -197V1550H728V-197H664ZM503 -20Q405 -20 334 -9T218 22T150 68T128 124Q128 154 148 176T201 198Q229 198 253 174T310 118T392 62T517 37Q620 37 703 71T835 175T885 351Q885 427
857 484T755 587T540 669Q401 707 322 757T209 874T176 1030Q176 1131 228 1208T378 1328T611 1372Q730 1372 807 1350T921 1292T959 1220Q959 1192 940 1171T888 1150Q860 1150 836 1174T783 1231T708 1287T588 1312Q434 1312 351 1240T267 1057Q267 990 292 938T390
843T606 761Q749 722 830 671T945 548T979 380Q979 253 918 164T750 27T503 -20Z" />
<glyph unicode="%" horiz-adv-x="1547" d="M261 0L1204 1352H1286L343 0H261ZM619 646Q706 646 753 730T800 963Q800 1073 779 1151T716 1270T616 1312Q528 1312 481 1228T433 994Q433 885 455 807T518 688T619 646ZM616 594Q530 594 466 641T366 775T330 977Q330
1094 365 1180T466 1315T618 1363Q705 1363 769 1316T868 1182T904 980Q904 864 869 777T769 642T616 594ZM1188 42Q1275 42 1322 126T1369 359Q1369 469 1348 547T1285 666T1185 708Q1097 708 1050 624T1002 390Q1002 281 1024 203T1087 84T1188 42ZM1185 -10Q1099
-10 1035 37T935 171T899 373Q899 490 934 576T1035 711T1187 759Q1274 759 1338 712T1437 578T1473 376Q1473 260 1438 173T1338 38T1185 -10Z" />
<glyph unicode="&amp;" horiz-adv-x="1417" d="M552 739L498 715Q398 663 340 608T258 490T234 349Q234 258 271 195T379 98T553 65Q665 65 760 111T931 258L953 288Q1005 367 1047 481T1116 754L954 786V822H1368V786L1205 754Q1159 580 1105 454T990 239L970
212Q910 131 841 80T692 5T518 -20Q390 -20 303 25T172 148T127 325Q127 418 162 494T275 637T479 763L525 784Q668 862 728 939T789 1111Q789 1204 737 1260T581 1316Q484 1316 423 1263T361 1119Q361 1071 374 1029T421 938T514 824L1190 74L1388 35V0H1117L451
742Q376 826 337 886T283 994T268 1092Q268 1175 306 1238T415 1336T587 1372Q686 1372 751 1338T848 1246T881 1118Q881 1068 864 1021T808 927T706 834T552 739Z" />
<glyph unicode="&apos;" horiz-adv-x="348" d="M146 913L109 1312V1352H240V1312L200 913H146Z" />
<glyph unicode="(" horiz-adv-x="544" d="M198 580Q198 480 213 384T261 189T350 -15T485 -239L446 -269Q348 -143 280 -37T171 167T110 365T91 580Q91 695 110 795T170 993T280 1197T446 1430L485 1400Q405 1282 350 1176T262 972T213 777T198 580Z" />
<glyph unicode=")" horiz-adv-x="544" d="M345 580Q345 680 331 776T283 971T194 1176T59 1400L98 1430Q196 1303 264 1197T373 993T434 795T453 580Q453 466 434 366T374 167T264 -37T98 -269L59 -239Q139 -121 194 -16T282 189T330 384T345 580Z" />
<glyph unicode="*" horiz-adv-x="808" d="M547 773L503 754L395 985L187 836L158 872L343 1047L137 1198L162 1237L386 1115L466 1358L511 1346L463 1095L719 1094L722 1048L469 1015L547 773Z" />
<glyph unicode="+" horiz-adv-x="1023" d="M479 816H545V82H479V816ZM879 480V414H144V480H879Z" />
<glyph unicode="," horiz-adv-x="404" d="M47 -280Q134 -212 170 -156T207 -48Q207 -16 191 4T154 37T116 62T100 90Q99 133 125 158T195 183Q242 183 273 148T305 45Q305 -2 292 -47T252 -136T182 -226T80 -318L47 -280Z" />
<glyph unicode="-" horiz-adv-x="655" d="M126 499H529V402H126V499Z" />
<glyph unicode="." horiz-adv-x="419" d="M209 183Q253 183 281 155T309 84Q309 42 281 14T209 -15Q166 -15 138 13T110 84Q110 127 138 155T209 183Z" />
<glyph unicode="/" horiz-adv-x="773" d="M61 0L626 1352H712L147 0H61Z" />
<glyph unicode="0" horiz-adv-x="1133" d="M570 43Q684 43 765 114T890 320T933 646Q933 803 908 926T835 1135T719 1264T564 1309Q449 1309 368 1238T243 1032T200 706Q200 549 225 426T298 218T414 88T570 43ZM568 1372Q715 1372 823 1286T990 1045T1049 680Q1049
469 990 312T823 67T565 -20Q420 -20 312 66T144 308T84 672Q84 883 143 1040T312 1285T568 1372Z" />
<glyph unicode="1" horiz-adv-x="1133" d="M591 73V1281L625 1241L216 1103L202 1141L666 1372H699V73L974 36V0H299V36L591 73Z" />
<glyph unicode="2" horiz-adv-x="1133" d="M832 78L977 343H1014L945 -28H917L835 0H134V31L528 491Q637 620 697 711T782 871T806 1003Q806 1126 732 1200T523 1275Q442 1275 372 1246T247 1147T160 955L112 963Q160 1168 274 1270T561 1372Q671 1372 752 1329T878
1209T923 1031Q923 970 910 915T861 797T759 654T589 457L219 53L223 101H878L832 78Z" />
<glyph unicode="3" horiz-adv-x="1133" d="M386 658L372 708Q522 757 606 809T725 924T760 1062Q760 1157 703 1222T530 1288Q414 1288 333 1225T214 1011L167 1020Q192 1135 244 1213T375 1332T558 1372Q659 1372 728 1338T833 1241T869 1095Q869 1021 836 957T738
841T579 752L582 758Q707 774 793 739T924 630T969 454Q969 316 894 209T684 41T371 -20Q289 -20 241 -6T171 33T149 86Q149 117 169 136T223 156Q242 156 262 146T304 121T352 90T410 64T483 53Q593 53 677 100T810 231T858 429Q858 528 813 597T680 690T469 681L386
658Z" />
<glyph unicode="4" horiz-adv-x="1133" d="M757 1371V71L940 34V0H455V34L650 71V1250L695 1257L132 486L124 530H915L1074 558L1021 436H51V476L695 1371H757Z" />
<glyph unicode="5" horiz-adv-x="1133" d="M357 -20Q276 -20 228 -5T158 34T137 85Q137 119 157 138T209 158Q228 158 248 148T289 123T335 92T392 66T462 56Q559 56 642 100T776 229T827 436Q827 508 800 570T707 682T526 760T233 797L385 1352H786L993 1384L950
1251H394L431 1278L297 836L284 906Q434 897 543 870T725 802T843 709T906 595T925 465Q925 363 885 275T769 121T590 17T357 -20Z" />
<glyph unicode="6" horiz-adv-x="1133" d="M894 1400L921 1356Q781 1310 673 1253T485 1125T355 967T279 774T254 539Q254 383 295 271T411 100T592 40Q688 40 760 80T873 197T914 379Q914 533 837 618T611 703Q571 703 525 694T430 664T335 611T243 532L214 555Q290
624 348 669T455 741T551 778T650 789Q768 789 850 744T975 616T1018 422Q1018 295 964 195T814 38T590 -20Q445 -20 345 52T193 249T141 528Q141 643 165 748T242 948T382 1124T596 1275T894 1400Z" />
<glyph unicode="7" horiz-adv-x="1133" d="M228 1248L278 1285L179 1008H144L162 1380H183L268 1352H1028V1333L545 0H413L954 1290L964 1248H228Z" />
<glyph unicode="8" horiz-adv-x="1133" d="M588 1372Q708 1372 793 1332T923 1223T968 1064Q968 941 879 849T609 713L575 738Q725 783 795 860T866 1055Q866 1135 833 1192T736 1281T583 1313Q440 1313 358 1244T276 1063Q276 977 315 922T420 832T564 769T721
712T865 639T970 528T1010 353Q1010 237 952 154T794 25T567 -20Q428 -20 328 19T173 135T119 318Q119 389 143 449T216 560T341 648T520 716L543 686Q429 651 360 600T261 482T230 330Q230 239 270 174T387 74T568 39Q679 39 755 77T871 180T911 326Q911 414 872
471T767 567T623 633T467 692T324 764T219 870T179 1034Q179 1130 228 1206T369 1327T588 1372Z" />
<glyph unicode="9" horiz-adv-x="1133" d="M257 -48L231 -4Q366 49 471 108T653 239T779 395T852 583T876 813Q876 971 837 1083T723 1254T543 1314Q449 1314 376 1274T261 1160T219 984Q219 882 254 812T357 706T518 670Q559 670 606 679T703 708T800 759T890
836L920 813Q838 744 777 699T666 629T571 595T476 585Q359 585 278 631T155 762T112 958Q112 1079 168 1172T322 1319T547 1372Q692 1372 790 1301T938 1105T989 825Q989 712 966 609T890 414T753 239T546 86T257 -48Z" />
<glyph unicode=":" horiz-adv-x="457" d="M228 183Q272 183 300 155T328 84Q328 42 300 14T228 -15Q185 -15 157 13T129 84Q129 127 157 155T228 183ZM228 892Q272 892 300 864T328 793Q328 751 300 723T228 695Q185 695 157 723T129 793Q129 836 157 864T228 892Z" />
<glyph unicode=";" horiz-adv-x="504" d="M107 -280Q193 -212 230 -156T267 -48Q267 -16 251 4T213 37T176 62T159 90Q159 133 184 158T255 183Q302 183 333 148T364 45Q364 -2 351 -47T311 -136T242 -226T140 -318L107 -280ZM253 892Q296 892 324 864T352 793Q352
751 324 723T253 695Q209 695 181 723T153 793Q153 836 181 864T253 892Z" />
<glyph unicode="&lt;" horiz-adv-x="1023" d="M126 438V461L951 74V-2L59 419V478L951 900V825L126 438Z" />
<glyph unicode="=" horiz-adv-x="1023" d="M144 655H879V589H144V655ZM144 312H879V246H144V312Z" />
<glyph unicode="&gt;" horiz-adv-x="1023" d="M898 438L72 824V900L965 479V420L72 -2V73L898 461V438Z" />
<glyph unicode="?" horiz-adv-x="878" d="M303 1372Q407 1372 495 1342T649 1257T751 1127T787 962Q787 866 747 793T610 679T345 643L390 719L389 398H349L300 741Q448 733 537 762T667 849T707 989Q707 1082 666 1151T551 1257T375 1295Q320 1295 285 1281T227
1248T184 1215T138 1201Q114 1201 97 1210T69 1236T59 1272Q59 1302 83 1324T162 1359T303 1372ZM372 183Q416 183 444 155T472 84Q472 42 444 14T372 -14Q329 -14 301 14T273 84Q273 127 301 155T372 183Z" />
<glyph unicode="@" horiz-adv-x="1805" d="M1249 203Q1149 203 1094 252T1039 390Q1039 413 1042 439T1054 492L1072 557H1085Q1020 451 964 382T859 273T766 217T685 201Q596 201 554 251T511 391Q511 465 539 549T616 716T729 865T869 972T1025 1012Q1086 1012
1127 986T1200 909L1178 879Q1152 922 1117 941T1037 961Q975 961 915 923T802 822T711 685T649 535T627 398Q627 339 652 308T729 277Q766 277 817 307T926 396T1035 542T1125 743L1181 913L1211 999H1312L1166 556Q1148 501 1141 461T1133 389Q1133 318 1170
287T1267 255Q1360 255 1444 315T1582 488T1635 757Q1635 894 1590 1005T1460 1195T1259 1318T998 1361Q813 1361 664 1301T409 1128T246 858T189 507Q189 338 240 209T388 -10T622 -144T928 -190Q1022 -190 1120 -171T1314 -112T1499 -13L1529 -59Q1441 -120 1342
-163T1133 -230T904 -253Q726 -253 577 -205T319 -63T149 173T88 499Q88 699 155 867T345 1160T635 1353T1001 1422Q1168 1422 1301 1377T1529 1248T1673 1047T1723 787Q1723 663 1687 557T1585 371T1434 248T1249 203Z" />
<glyph unicode="A" horiz-adv-x="1405" d="M379 528V597H999V528H379ZM1245 72L1414 36V0H948V36L1127 72L653 1259H694L241 72L414 36V0H-5V36L164 72L669 1370H721L1245 72Z" />
<glyph unicode="B" horiz-adv-x="1215" d="M323 1282L320 1352H612Q766 1352 859 1311T995 1197T1037 1034Q1037 915 965 830T740 723V736Q930 718 1024 625T1118 386Q1118 275 1070 188T916 50T632 0H321V70H601Q744 70 832 105T961 209T1002 380Q1002 474 964
542T840 647T611 684H321L323 755H590Q765 755 846 823T927 1022Q927 1103 892 1161T779 1251T573 1282H323ZM82 0V36L255 72V1280L82 1317V1352H367V0H82Z" />
<glyph unicode="C" horiz-adv-x="1377" d="M844 45Q929 45 1016 63T1178 118L1113 56L1242 348H1286L1244 55Q1172 22 1065 1T844 -20Q681 -20 545 25T310 159T157 376T103 672Q103 887 194 1044T454 1287T854 1372Q937 1372 1014 1359T1181 1316L1124 1318L1202
1404H1224L1281 956L1238 951L1105 1270L1173 1197Q1070 1255 987 1278T809 1302Q673 1302 565 1264T380 1149T263 962T222 705Q222 545 269 422T401 215T599 88T844 45Z" />
<glyph unicode="D" horiz-adv-x="1476" d="M1252 691Q1252 990 1069 1136T553 1282H284L294 1352H602Q855 1352 1026 1279T1284 1060T1372 700Q1372 470 1273 314T1000 79T607 0H294L284 70H579Q786 70 937 133T1170 334T1252 691ZM81 0V36L255 72V1280L81 1317V1352H367V0H81Z"
/>
<glyph unicode="E" horiz-adv-x="1245" d="M866 971L859 707L866 444H817L779 671L315 674V741L779 745L817 971H866ZM1129 1001L1087 996L963 1310L1020 1282H282V1352H978L1061 1399H1083L1129 1001ZM980 39L1135 365L1174 358L1099 -54H1075L997 0H282V70H1034L980
39ZM81 0V36L255 72V1280L81 1317V1352H367V0H81Z" />
<glyph unicode="F" horiz-adv-x="1133" d="M862 936L855 672L862 408H813L775 636L317 639V706L775 710L813 936H862ZM1017 1399H1038L1083 999L1041 995L917 1310L999 1282H273V1352H934L1017 1399ZM367 1352V72L541 36V0H81V36L255 72V1280L81 1317V1352H367Z" />
<glyph unicode="G" horiz-adv-x="1459" d="M1259 141L1317 93V82Q1253 51 1177 28T1015 -7T842 -20Q683 -20 549 25T314 159T159 376T103 672Q103 888 192 1045T448 1287T844 1372Q930 1372 1008 1358T1173 1315L1113 1317L1193 1404H1215L1271 958L1228 952L1092
1277L1178 1188Q1076 1249 989 1275T799 1302Q662 1302 556 1264T375 1151T263 966T224 711Q223 494 304 346T524 121T840 44Q904 44 970 55T1094 89T1186 140L1148 63V538L936 576V612H1394V576L1259 540V141Z" />
<glyph unicode="H" horiz-adv-x="1538" d="M367 72L541 36V0H81V36L255 72V1280L81 1317V1352H541V1317L367 1280V72ZM1282 72L1456 36V0H997V36L1171 72V1280L997 1317V1352H1456V1317L1282 1280V72ZM291 658V728H1246V658H291Z" />
<glyph unicode="I" horiz-adv-x="622" d="M541 36V0H81V36L255 72V1280L81 1317V1352H541V1317L367 1280V72L541 36Z" />
<glyph unicode="J" horiz-adv-x="771" d="M538 398Q538 297 510 220T431 89T310 10T156 -17Q113 -17 83 -7T38 22T22 66Q22 93 38 111T85 130Q96 130 111 121T146 98T190 75T245 65Q325 65 375 124T426 326V1280L252 1317V1352H711V1317L537 1280L538 398Z" />
<glyph unicode="K" horiz-adv-x="1397" d="M1239 72L1401 36V0H933V33L1093 69L511 670H333V739H520L1039 1282L871 1317V1352H1300V1317L1132 1280L561 697L574 752L1239 72ZM367 1280V72L541 36V0H81V36L255 72V1280L81 1317V1352H541V1317L367 1280Z" />
<glyph unicode="L" horiz-adv-x="1164" d="M1048 -54H1022L943 0H303V70H1010L926 38L1087 376L1126 369L1048 -54ZM367 1280V0H81V36L255 72V1280L81 1317V1352H541V1317L367 1280Z" />
<glyph unicode="M" horiz-adv-x="1894" d="M1671 72L1844 36V0H1388V36L1561 72L1480 1260L1494 1258L945 -16H893L360 1250L373 1253L294 72L467 36V0H50V36L223 72L310 1274L127 1317V1352H436L954 112L931 113L1466 1352H1769V1317L1585 1280L1671 72Z" />
<glyph unicode="N" horiz-adv-x="1520" d="M259 72V1272L76 1317V1352H374L1248 126L1205 73V1280L1026 1317V1352H1451V1317L1277 1280V-18H1220L301 1264L331 1284V72L510 36V0H85V36L259 72Z" />
<glyph unicode="O" horiz-adv-x="1525" d="M755 1372Q902 1372 1023 1322T1234 1178T1373 958T1422 677Q1422 524 1374 397T1239 175T1032 31T770 -20Q624 -20 502 31T291 174T152 394T103 675Q103 829 151 956T286 1177T493 1321T755 1372ZM771 49Q939 49 1058
125T1239 339T1302 659Q1302 862 1233 1006T1041 1227T754 1304Q586 1304 467 1227T286 1013T223 693Q223 491 292 347T485 126T771 49Z" />
<glyph unicode="P" horiz-adv-x="1174" d="M997 973Q997 1071 956 1140T819 1245T557 1282H286L290 1352H612Q795 1352 905 1304T1064 1170T1113 977Q1113 867 1064 780T906 642T623 591H291L287 661H609Q742 661 828 697T955 803T997 973ZM367 1352V72L552 36V0H81V36L255
72V1280L81 1317V1352H367Z" />
<glyph unicode="Q" horiz-adv-x="1525" d="M952 -279L424 66Q321 134 249 224T140 427T103 675Q103 829 151 956T286 1177T493 1321T755 1372Q902 1372 1023 1322T1234 1178T1373 958T1422 677Q1422 515 1366 379T1207 147T959 14T639 8L609 42L1068 -226Q1135
-265 1184 -290T1277 -327T1369 -343T1482 -340V-375Q1452 -383 1419 -389T1350 -400T1279 -404Q1234 -404 1198 -398T1125 -377T1048 -339T952 -279ZM771 49Q939 49 1058 125T1239 339T1302 659Q1302 862 1233 1006T1041 1227T754 1304Q586 1304 467 1227T286
1013T223 693Q223 491 292 347T485 126T771 49Z" />
<glyph unicode="R" horiz-adv-x="1242" d="M617 722Q752 722 837 793T922 1006Q922 1093 883 1155T753 1249T502 1282H271L256 1352H572Q743 1352 845 1308T994 1188T1040 1015Q1040 930 1004 862T896 747T718 683V691Q784 688 826 667T900 600T959 477L1062 194Q1087
127 1109 95T1162 53T1246 43V0Q1169 -5 1122 -3T1044 17T992 74T946 180L851 448Q823 527 797 571T736 634T643 652H285L276 722H617ZM367 1352V72L552 36V0H81V36L255 72V1280L81 1317V1352H367Z" />
<glyph unicode="S" horiz-adv-x="1060" d="M839 1296L757 1316L833 1404H856L909 968L866 964L740 1273L809 1195Q731 1261 666 1286T523 1312Q377 1312 304 1245T231 1076Q231 1005 258 957T335 874T445 815T574 766Q642 742 709 713T832 641T921 533T955 369Q955
239 896 153T732 24T484 -20Q390 -20 316 -9T166 31L93 376H141L315 26L195 114Q268 74 336 59T479 43Q593 43 678 73T811 167T859 332Q859 415 825 470T735 562T612 624T477 675Q411 701 350 730T242 799T168 899T140 1041Q140 1141 187 1215T324 1331T539 1372Q628
1372 699 1352T839 1296Z" />
<glyph unicode="T" horiz-adv-x="1287" d="M588 1322H699V72L875 36V0H412V36L588 72V1322ZM1147 1282H140L205 1301L90 985L48 990L96 1420H121L214 1339L155 1352H1134L1073 1339L1166 1420H1191L1239 990L1196 985L1082 1301L1147 1282Z" />
<glyph unicode="U" horiz-adv-x="1498" d="M1196 512V1280L1022 1317V1352H1443V1317L1269 1280V512Q1269 331 1208 213T1033 38T760 -20Q587 -20 469 41T289 226T227 542V1280L53 1317V1352H513V1317L339 1280V546Q339 387 386 280T530 119T772 65Q908 65 1003
111T1147 257T1196 512Z" />
<glyph unicode="V" horiz-adv-x="1374" d="M157 1280L-11 1317V1352H454V1317L276 1280L745 94H705L1133 1281L960 1317V1352H1375V1317L1207 1280L729 -18H677L157 1280Z" />
<glyph unicode="W" horiz-adv-x="1902" d="M982 1231L534 -17H480L171 1280L1 1317V1352H463V1317L285 1280L555 127L518 122L959 1369H1012L1432 112L1382 96L1663 1281L1487 1317V1352H1901V1317L1735 1280L1417 -17H1363L948 1220L982 1231Z" />
<glyph unicode="X" horiz-adv-x="1423" d="M712 670L258 72L432 36V0H15V36L177 72L673 717L702 740L1111 1281L938 1317V1352H1355V1317L1192 1280L740 691L712 670ZM1112 72L682 656L667 674L221 1280L54 1317V1352H537V1317L358 1280L738 760L755 741L1248
72L1416 36V0H933V36L1112 72Z" />
<glyph unicode="Y" horiz-adv-x="1359" d="M167 1280L-1 1317V1352H482V1317L306 1280L750 622H708L1094 1281L920 1317V1352H1340V1317L1173 1280L755 589V72L929 36V0H469V36L643 72V585L167 1280Z" />
<glyph unicode="Z" horiz-adv-x="1226" d="M1109 1352V1324L245 45L230 70H991L1118 351L1160 346L1099 -47H1074L993 0H113V28L973 1306L1002 1282H253L120 982L81 988L137 1410H161L248 1352H1109Z" />
<glyph unicode="[" horiz-adv-x="586" d="M197 -251V1410H549V1353H296V-194H549V-251H197Z" />
<glyph unicode="\" horiz-adv-x="773" d="M712 0H626L61 1352H147L712 0Z" />
<glyph unicode="]" horiz-adv-x="587" d="M389 1411V-250H38V-193H290V1354H38V1411H389Z" />
<glyph unicode="^" horiz-adv-x="1023" d="M501 1295H520L220 601H147L480 1352H541L877 601H803L501 1295Z" />
<glyph unicode="_" horiz-adv-x="820" d="M0 -214H820V-286H0V-214Z" />
<glyph unicode="`" horiz-adv-x="1000" d="M544 1031H494L213 1343V1361H357L544 1031Z" />
<glyph unicode="a" horiz-adv-x="903" d="M662 551L663 498Q512 462 421 430T283 365T219 297T203 216Q203 140 249 100T378 60Q443 60 496 90T580 169T612 272V634Q612 726 567 775T413 825Q372 825 324 814T218 777L274 815Q268 786 263 761T250 717T233 686Q221
671 202 664T161 657Q133 657 118 670T102 701Q102 727 133 760T215 823T328 872T452 892Q550 892 607 864T689 784T714 656V175Q714 133 724 108T756 71T807 59Q832 59 857 67T913 94V58Q874 20 835 3T755 -14Q704 -14 672 6T625 74T613 206L619 210Q600 134 560
83T464 6T340 -20Q230 -20 163 35T95 198Q95 253 116 299T196 386T367 468T662 551Z" />
<glyph unicode="b" horiz-adv-x="1060" d="M203 105L263 108L158 -18L123 -12L157 198V1285Q144 1293 119 1303T59 1325T-14 1349V1372L250 1430H265L259 1299V249Q259 187 291 141T382 69T516 44Q626 44 703 91T822 229T863 447Q863 565 823 647T710 773T535
816Q479 816 425 804T315 768T202 703V757Q280 802 335 830T431 873T505 894T571 901Q704 901 794 850T930 704T976 475Q976 356 938 264T834 108T684 13T506 -20Q442 -20 385 -5T282 38T203 105Z" />
<glyph unicode="c" horiz-adv-x="882" d="M552 901Q646 901 703 884T787 841T813 788Q813 766 804 749T779 722T740 712Q717 712 698 724T659 755T617 793T564 824T492 837Q410 837 341 797T229 675T187 469Q187 343 230 253T352 116T544 68Q613 68 675 90T808
168L824 136Q766 82 714 48T607 -3T487 -20Q365 -20 274 35T134 191T84 427Q84 526 114 611T204 762T351 864T552 901Z" />
<glyph unicode="d" horiz-adv-x="1086" d="M793 677Q793 743 727 790T553 837Q437 837 358 788T238 646T197 428Q197 313 236 232T349 108T522 65Q601 65 681 92T850 184V135Q766 85 710 54T616 7T548 -14T485 -20Q354 -20 265 30T130 176T84 405Q84 522 122 614T227
770T382 867T573 901Q625 901 670 894T762 873T863 831L793 767V1294Q781 1301 754 1311T693 1332T630 1352V1374L891 1430H906L895 1305V113Q904 109 925 104T974 92T1026 81T1067 74V48L819 -18H804L793 132V677Z" />
<glyph unicode="e" horiz-adv-x="914" d="M493 901Q604 901 676 853T787 720T832 518H174L173 570L760 591L717 551Q712 642 684 706T603 805T474 840Q387 840 323 797T223 670T188 462Q188 337 232 249T358 115T554 68Q601 68 644 78T731 110T821 168L837 136Q778
82 725 48T616 -3T495 -20Q371 -20 279 35T135 191T84 429Q84 561 134 668T276 838T493 901Z" />
<glyph unicode="f" horiz-adv-x="658" d="M269 807L225 794L36 816V843L239 886L268 881H639L626 807H269ZM326 67L498 35V0H69V35L224 67V945Q224 1079 264 1172T372 1321T524 1404T695 1430Q746 1430 781 1423T838 1404T870 1376T880 1341Q880 1309 858 1287T800
1264Q778 1264 760 1277T722 1309T672 1341T598 1355Q520 1355 458 1320T361 1208T326 1004V67Z" />
<glyph unicode="g" horiz-adv-x="941" d="M420 -519Q319 -519 243 -503T116 -457T40 -383T15 -285Q15 -240 38 -200T108 -127T226 -70T396 -32L455 -23L434 -51Q318 -66 249 -98T151 -175T121 -272Q121 -330 153 -373T254 -441T429 -465Q548 -465 634 -436T768
-355T815 -239Q815 -201 798 -172T741 -121T633 -86T464 -66Q361 -60 295 -44T192 -3T141 52T126 117Q126 179 180 226T340 293L358 279Q290 266 260 237T229 166Q229 140 239 119T279 82T370 53T533 32Q638 23 712 5T832 -42T899 -112T921 -207Q921 -292 861 -363T688
-476T420 -519ZM434 257Q333 257 254 298T130 411T85 575Q85 671 130 744T254 859T435 901Q511 901 574 878T685 811T758 710T784 582Q784 487 739 414T615 299T434 257ZM438 309Q541 309 605 375T669 570Q669 698 605 773T431 848Q329 848 264 782T199 587Q199
459 264 384T438 309ZM564 843L523 888Q598 882 655 882T756 886T832 894T893 899Q916 899 928 886T941 847Q941 817 924 796T880 775Q858 775 834 784T776 807T691 830T564 843Z" />
<glyph unicode="h" horiz-adv-x="1091" d="M651 35L806 67V567Q806 653 784 704T713 778T579 801Q512 801 436 776T288 691L261 711Q327 770 379 807T475 865T560 893T647 901Q787 901 847 828T908 596V67L1064 35V0H651V35ZM450 0H39V35L193 67V1285Q180 1293
155 1303T95 1325T22 1349V1372L286 1430H301L295 1299V67L450 35V0Z" />
<glyph unicode="i" horiz-adv-x="516" d="M255 1236Q211 1236 184 1263T156 1334Q156 1376 183 1403T255 1430Q300 1430 327 1403T355 1334Q355 1291 328 1264T255 1236ZM328 901L319 776V67L474 35V0H63V35L217 67V761Q206 766 179 775T119 793T55 810V839L313 901H328Z" />
<glyph unicode="j" horiz-adv-x="452" d="M235 1236Q191 1236 164 1263T136 1334Q136 1376 163 1403T235 1430Q281 1430 308 1403T335 1334Q335 1291 308 1264T235 1236ZM197 761Q186 766 160 775T100 793T36 810V839L293 901H308L300 776V-109Q300 -162 296 -200T277
-271T237 -338T168 -415T60 -519L25 -484Q84 -415 119 -369T171 -286T192 -216T197 -135V761Z" />
<glyph unicode="k" horiz-adv-x="1068" d="M501 489L508 527L934 67L1071 34V0H675V34L808 63L441 458H271V520H455L768 815L619 845V881H1001V845L854 815L501 489ZM295 67L450 35V0H39V35L193 67V1285Q180 1293 155 1303T95 1325T22 1349V1372L286 1430H301L295
1299V67Z" />
<glyph unicode="l" horiz-adv-x="496" d="M299 67L454 35V0H42V35L197 67V1285Q184 1293 159 1303T99 1325T25 1349V1372L290 1430H304L299 1299V67Z" />
<glyph unicode="m" horiz-adv-x="1630" d="M316 728V67L468 35V0H59V35L214 67V756Q198 763 159 775T52 804V830L288 901H302L316 728ZM881 639V67L1032 35V0H627V35L779 67V588Q779 668 758 714T692 781T572 801Q512 801 442 778T306 700L281 725Q342 780 390
814T479 867T558 893T638 901Q726 901 779 871T857 782T881 639ZM1446 619V67L1601 35V0H1192V35L1344 67V587Q1344 668 1323 714T1257 781T1136 801Q1075 801 1005 778T869 700L843 724Q905 780 953 814T1042 867T1122 893T1202 901Q1334 901 1390 832T1446 619Z"
/>
<glyph unicode="n" horiz-adv-x="1112" d="M316 728V67L471 35V0H59V35L214 67V756Q198 763 159 775T52 804V830L288 901H302L316 728ZM672 35L827 67V567Q827 653 805 704T734 778T600 801Q532 801 456 776T309 691L281 711Q348 770 400 807T496 865T581 893T667
901Q807 901 868 828T929 596V67L1084 35V0H672V35Z" />
<glyph unicode="o" horiz-adv-x="1039" d="M521 39Q614 39 686 80T799 207T841 423Q841 553 801 647T689 791T518 842Q426 842 354 800T241 673T199 457Q199 328 238 234T350 90T521 39ZM517 -20Q391 -20 293 36T140 194T84 433Q84 575 140 680T294 843T522 901Q649
901 747 845T900 688T956 448Q956 305 900 200T745 38T517 -20Z" />
<glyph unicode="p" horiz-adv-x="1099" d="M902 446Q902 623 814 719T574 816Q519 816 465 804T355 767T241 701V754Q318 800 374 828T470 873T544 895T609 901Q742 901 832 850T968 704T1015 476Q1015 316 948 205T775 37T548 -20Q483 -20 426 -5T322 39T244
107H298V-432L472 -465V-499H41V-465L196 -432V756Q183 762 159 769T103 786T34 804V830L269 901H284L298 760V247Q298 185 331 139T422 69T554 44Q665 44 742 92T861 230T902 446Z" />
<glyph unicode="q" horiz-adv-x="1050" d="M197 428Q197 313 236 232T349 108T522 65Q604 65 685 92T854 181V132Q775 85 720 55T624 9T551 -13T485 -20Q354 -20 265 30T130 176T84 405Q84 560 149 671T325 841T576 901Q629 901 674 894T765 870T862 826L790 812L902
912L928 903L895 712V-432L1050 -465V-499H619V-465L793 -432V675Q793 742 726 789T550 837Q435 837 357 787T238 646T197 428Z" />
<glyph unicode="r" horiz-adv-x="713" d="M611 895Q650 895 667 876T685 826Q685 792 666 770T612 748Q592 748 573 752T532 761T484 766Q460 766 432 759T371 737T302 694L283 718Q355 773 407 807T497 861T562 887T611 895ZM316 728V67L485 35V0H59V35L214 67V756Q201
762 177 769T121 786T52 804V830L294 901H309L316 728Z" />
<glyph unicode="s" horiz-adv-x="755" d="M403 901Q467 901 516 890T618 853L640 620H602L510 856L584 784Q533 818 491 831T401 845Q301 845 251 805T200 693Q200 636 231 603T312 549T421 508Q464 493 507 474T585 427T642 355T664 246Q664 165 624 105T510
13T340 -19Q275 -19 219 -10T116 18L86 266H125L227 15L142 75Q171 61 201 52T262 38T326 34Q443 34 507 84T571 225Q571 274 550 306T493 358T414 394T327 425Q269 447 221 474T142 547T112 666Q112 735 149 788T253 871T403 901Z" />
<glyph unicode="t" horiz-adv-x="639" d="M277 224Q277 149 317 112T443 75Q479 75 524 82T623 102V65Q557 32 517 15T447 -7T384 -12Q326 -12 279 9T203 75T175 188V785L54 837V855Q78 867 100 879T142 904T182 931T218 959T253 990H277V849V224ZM221 807L222
881H596L584 807H221Z" />
<glyph unicode="u" horiz-adv-x="1069" d="M289 298Q289 214 309 167T378 100T512 80Q573 80 644 103T783 183L806 159Q744 103 696 68T607 14T528 -12T448 -20Q309 -20 248 50T187 268V798L9 845V881L300 896L289 800V298ZM784 -18L773 151V798L595 845V881L887
896L876 800V113Q885 109 906 104T955 92T1006 81T1047 74V48L800 -18H784Z" />
<glyph unicode="v" horiz-adv-x="1062" d="M901 816L569 -20H519L142 812L-2 846V881H400V845L254 814L580 85H557L836 815L689 845V881H1027V845L901 816Z" />
<glyph unicode="w" horiz-adv-x="1488" d="M1272 815L1125 845V881H1461V845L1334 816L1087 -20H1035L731 775H755L458 -20H406L154 812L9 846V881H407V845L261 814L475 94L442 83L743 901H790L1093 101H1068L1272 815Z" />
<glyph unicode="x" horiz-adv-x="1033" d="M879 69L1017 36V0H617V36L760 67L492 414L476 432L183 812L45 845V881H445V845L302 814L539 505L556 485L879 69ZM521 428L221 65L361 36V0H21V36L148 65L486 468L513 489L783 816L645 845V881H981V845L856 816L546
448L521 428Z" />
<glyph unicode="y" horiz-adv-x="1060" d="M599 78L538 -29L155 812L11 846V881H413V845L267 814L599 78ZM233 -519Q179 -519 149 -495T118 -429Q118 -409 125 -394T145 -371T172 -362Q188 -362 206 -369T244 -383T287 -390Q317 -390 343 -376T397 -322T455 -210L549
20L572 82L844 815L697 845V881H1037V845L911 816L504 -238Q463 -344 423 -405T336 -493T233 -519Z" />
<glyph unicode="z" horiz-adv-x="846" d="M70 0V25L646 845L684 821H160L242 854L120 606H83L121 901H149L217 881H767V856L188 34L157 60H660L615 32L760 282H800L733 0H70Z" />
<glyph unicode="{" horiz-adv-x="602" d="M43 551V603L135 607Q207 609 237 645T268 747Q268 828 256 893T230 1016T216 1133Q216 1201 243 1261T326 1363T472 1414L548 1422L553 1374L489 1367Q397 1356 361 1304T324 1168Q324 1085 342 994T360 797Q360 715
319 649T174 565V590Q277 571 318 506T360 358Q360 253 342 162T324 -12Q324 -95 360 -148T489 -211L553 -219L548 -267L472 -259Q383 -250 327 -209T243 -106T216 22Q216 81 229 139T255 262T268 409Q268 473 238 509T135 548L43 551Z" />
<glyph unicode="|" horiz-adv-x="475" d="M198 -519V1481H277V-519H198Z" />
<glyph unicode="}" horiz-adv-x="602" d="M559 604V552L467 549Q395 547 364 510T333 409Q333 327 346 262T373 140T386 22Q386 -45 359 -105T275 -207T129 -259L54 -267L48 -219L113 -211Q205 -200 241 -147T278 -12Q278 70 260 162T241 358Q241 440 282 506T428
590V565Q324 584 283 649T241 797Q241 902 259 993T278 1168Q278 1251 242 1303T113 1367L48 1375L54 1422L129 1415Q218 1406 274 1364T358 1262T386 1134Q386 1074 373 1017T347 894T333 747Q333 682 364 646T467 607L559 604Z" />
<glyph unicode="~" horiz-adv-x="1023" d="M143 343Q147 428 176 475T250 542T346 561Q406 561 447 538T523 483T594 427T678 403Q748 403 777 439T816 555H882Q878 469 849 422T776 355T679 336Q619 336 578 360T503 415T432 471T347 495Q277 495 248 458T210 343H143Z" />
<glyph unicode="&#xa0;" horiz-adv-x="465" />
<glyph unicode="&#xa1;" horiz-adv-x="442" d="M158 -455L159 -382Q160 -363 162 -315T167 -198T175 -44T183 130T190 309T196 479H246Q248 399 251 310T258 130T266 -43T273 -197T279 -315T281 -382L282 -455Q283 -467 275 -475T253 -486T220 -490Q201 -490 188
-487T166 -475T158 -455ZM221 777Q213 777 209 781T204 793Q204 801 208 804T221 808Q229 808 233 805T237 793Q237 785 233 781T221 777Z" />
<glyph unicode="&#xa2;" horiz-adv-x="1133" d="M356 0L814 1352H880L421 0H356ZM671 1133Q760 1133 818 1118T905 1076T933 1019Q932 999 923 982T897 954T857 944Q835 945 816 958T777 989T735 1025T682 1055T611 1067Q530 1067 462 1027T352 905T310 700Q310
575 352 486T475 350T669 303Q735 303 796 325T929 400L945 369Q886 315 834 280T726 229T606 213Q485 213 395 268T254 423T204 660Q204 758 234 844T324 995T471 1096T671 1133Z" />
<glyph unicode="&#xa3;" horiz-adv-x="1133" d="M938 944Q904 1115 820 1203T586 1291Q432 1291 357 1213T281 1015Q281 948 304 893T361 790T429 699T486 609T509 510Q509 455 479 387T392 237T250 60L247 104H901L851 76L1005 343H1040L964 -28H936L856 0H162V29Q243
126 293 194T371 311T408 398T418 471Q418 525 394 569T333 656T261 747T200 855T175 998Q175 1072 201 1139T277 1259T403 1342T575 1372Q696 1372 782 1327T919 1189T989 952L938 944ZM812 712V648H82V712H812Z" />
<glyph unicode="&#xa4;" horiz-adv-x="900" d="M181 762L296 647L249 601L135 716L181 762ZM135 179L251 295L297 249L181 133L135 179ZM451 724Q532 724 594 689T691 592T727 449Q727 369 692 307T594 210T451 174Q371 174 309 209T211 307T175 449Q175 529 210
591T308 689T451 724ZM451 234Q544 234 603 293T662 449Q662 545 603 604T451 664Q359 664 300 605T241 449Q241 352 300 293T451 234ZM764 716L652 604L606 650L718 762L764 716ZM764 179L718 133L606 245L652 291L764 179Z" />
<glyph unicode="&#xa5;" horiz-adv-x="1133" d="M1250 570V505H434V570H1250ZM1250 854V789H434V854H1250ZM898 842V69L1081 34V0H608V34L791 69V839L373 1285L203 1318V1352H679V1318L509 1285L895 864L851 868L1190 1285L1022 1318V1352H1436V1318L1268 1285L898 842Z" />
<glyph unicode="&#xa6;" horiz-adv-x="475" d="M277 679H198V1481H277V679ZM198 -519V283H277V-519H198Z" />
<glyph unicode="&#xa7;" horiz-adv-x="1024" d="M456 -270Q341 -270 273 -249T174 -197T143 -135Q143 -104 163 -85T216 -65Q246 -65 269 -87T317 -139T380 -191T475 -214Q597 -214 667 -158T738 -5Q738 63 703 106T610 177T482 227T343 273T215 332T122 422T86
561Q86 676 163 757T406 874L433 837Q303 813 242 745T180 585Q180 515 215 472T308 400T435 352T574 308T701 251T794 162T830 21Q830 -63 784 -129T654 -232T456 -270ZM844 545Q844 615 809 658T716 729T589 777T452 819T325 873T232 958T197 1093Q197 1178 241
1240T368 1337T564 1372Q680 1372 748 1352T846 1300T877 1237Q877 1207 857 1187T804 1167Q774 1167 751 1189T703 1241T640 1293T545 1316Q421 1316 355 1262T289 1118Q289 1054 324 1015T417 949T544 903T682 860T809 801T902 711T937 572Q937 450 848 366T599
255L563 292Q701 311 772 380T844 545Z" />
<glyph unicode="&#xa8;" horiz-adv-x="1000" d="M318 1106Q276 1106 252 1132T228 1196Q228 1234 252 1260T318 1286Q360 1286 384 1260T409 1196Q409 1159 385 1133T318 1106ZM682 1106Q640 1106 616 1132T591 1196Q591 1234 615 1260T682 1286Q724 1286 748
1260T772 1196Q772 1159 748 1133T682 1106Z" />
<glyph unicode="&#xa9;" horiz-adv-x="1632" d="M815 1372Q970 1372 1098 1322T1319 1180T1463 960T1514 676Q1514 522 1463 394T1319 173T1098 30T815 -20Q661 -20 533 30T312 173T169 394T118 676Q118 832 168 959T312 1179T533 1322T815 1372ZM815 1310Q632
1310 491 1231T271 1009T191 676Q191 487 270 344T491 122T815 42Q1000 42 1140 121T1360 344T1440 676Q1440 866 1361 1008T1141 1230T815 1310ZM877 352Q921 352 968 361T1057 391L1003 332L1088 515H1123L1094 328Q1047 309 987 299T867 289Q744 289 650 334T502
467T448 679Q448 800 499 888T647 1026T874 1075Q922 1075 965 1068T1059 1044H1014L1067 1095H1085L1119 831L1085 824L1000 1018L1052 959Q999 987 955 998T859 1009Q718 1009 637 928T556 695Q556 586 598 509T713 392T877 352Z" />
<glyph unicode="&#xaa;" horiz-adv-x="873" d="M135 486V555H748V486H135ZM586 1073Q476 1048 410 1025T309 979T263 929T251 870Q251 817 286 789T380 760Q449 760 495 806T542 911V1179Q542 1245 509 1280T396 1316Q366 1316 329 1308T247 1280L297 1318Q291
1274 284 1248T264 1208Q252 1194 237 1189T202 1183Q179 1183 167 1193T154 1220Q154 1250 197 1285T305 1346T435 1372Q509 1372 553 1351T616 1290T636 1191V839Q636 795 650 777T693 759Q710 759 727 763T764 778V744Q732 717 707 708T652 698Q598 698 571
734T546 858L551 861Q527 778 472 736T342 694Q256 694 204 735T152 858Q152 899 168 933T229 999T359 1060T583 1121L586 1073Z" />
<glyph unicode="&#xab;" horiz-adv-x="929" d="M177 501L484 88L448 58L75 428V470L448 839L484 809L177 397V501ZM534 501L841 88L804 58L431 428V470L804 839L841 809L534 397V501Z" />
<glyph unicode="&#xac;" horiz-adv-x="1023" d="M142 667H878V601H142V667ZM878 645V229H812V645H878Z" />
<glyph unicode="&#xad;" horiz-adv-x="655" d="M126 499H529V402H126V499Z" />
<glyph unicode="&#xae;" horiz-adv-x="1098" d="M546 1372Q675 1372 773 1319T926 1169T982 946Q982 820 927 724T773 573T546 518Q419 518 322 573T171 724T116 946Q116 1073 170 1169T322 1318T546 1372ZM546 1319Q436 1319 353 1273T223 1143T176 946Q176 835
222 751T352 620T546 573Q658 573 742 619T874 750T922 946Q922 1059 875 1142T743 1272T546 1319ZM439 977H553Q595 977 620 996T646 1059Q646 1096 619 1116T519 1136H434L431 1178H562Q650 1178 685 1147T721 1066Q721 1024 691 993T596 956L597 960Q642 959
661 945T694 895L730 805Q741 775 752 767T788 760V730Q741 728 717 731T681 748T657 794L626 879Q613 916 599 925T558 934H436L439 977ZM412 1139L349 1153V1178H483V771L546 756V730H349V756L412 771V1139Z" />
<glyph unicode="&#xaf;" horiz-adv-x="1000" d="M255 1158V1234H745V1158H255Z" />
<glyph unicode="&#xb0;" horiz-adv-x="778" d="M389 1364Q521 1364 605 1281T690 1065Q690 933 606 850T389 766Q258 766 173 849T88 1065Q88 1197 173 1280T389 1364ZM389 826Q492 826 558 892T624 1065Q624 1173 558 1238T389 1304Q287 1304 221 1239T154 1065Q154
958 220 892T389 826Z" />
<glyph unicode="&#xb1;" horiz-adv-x="1023" d="M479 881H545V146H479V881ZM144 545H879V479H144V545ZM144 66H879V0H144V66Z" />
<glyph unicode="&#xb2;" horiz-adv-x="683" d="M487 650L587 818H617L573 585H553L504 604H88V627L307 869Q364 932 397 980T444 1067T458 1144Q458 1207 418 1246T308 1286Q237 1286 186 1247T107 1104L69 1113Q97 1243 166 1304T340 1366Q439 1366 499 1313T559
1170Q559 1118 539 1073T471 971T342 833L161 648L163 695H553L487 650Z" />
<glyph unicode="&#xb3;" horiz-adv-x="641" d="M213 590Q134 590 103 611T72 663Q72 684 86 698T125 712Q141 712 156 703T188 681T228 659T284 649Q368 649 422 699T476 839Q476 892 452 928T381 976T264 969L218 957L207 999Q334 1038 377 1081T421 1182Q421
1231 390 1264T298 1297Q233 1297 188 1262T122 1150L83 1161Q108 1258 168 1312T324 1367Q416 1367 464 1325T513 1212Q513 1146 466 1098T335 1023L336 1032Q413 1044 465 1026T545 966T572 866Q572 786 528 724T404 626T213 590Z" />
<glyph unicode="&#xb4;" horiz-adv-x="1000" d="M456 1031L643 1361H787V1343L506 1031H456Z" />
<glyph unicode="&#xb5;" horiz-adv-x="1116" d="M196 881H298V298Q298 214 317 167T386 100T520 80Q581 80 652 103T791 183L815 159Q752 103 704 68T616 14T540 -12T465 -20Q409 -20 360 -3T278 54T237 165L246 177L319 -499L208 -509H196V881ZM884 175Q884 134
894 109T926 73T977 62Q1002 62 1027 69T1083 94V58Q1045 20 1005 3T925 -14Q852 -14 817 28T782 174V881H884V175Z" />
<glyph unicode="&#xb6;" horiz-adv-x="1202" d="M676 1352V687H434Q300 687 218 729T97 847T58 1019Q58 1114 96 1189T219 1308T445 1352H676ZM703 -250H624V1352H885V1278H703V-250ZM943 -250H864V1352H1123V1314L943 1281V-250Z" />
<glyph unicode="&#xb7;" horiz-adv-x="452" d="M225 549Q269 549 297 521T325 450Q325 408 297 380T225 351Q182 351 154 379T126 450Q126 493 154 521T225 549Z" />
<glyph unicode="&#xb8;" horiz-adv-x="1000" d="M403 -519Q324 -519 295 -498T266 -448Q266 -429 279 -415T314 -401Q333 -401 348 -416T384 -447T440 -463Q498 -463 531 -434T564 -356Q564 -323 545 -298T476 -253T336 -214V-205L499 17H559L413 -183L404 -135Q497
-156 549 -184T622 -247T643 -319Q643 -375 612 -421T526 -493T403 -519Z" />
<glyph unicode="&#xb9;" horiz-adv-x="531" d="M257 661V1285L280 1257L58 1178L46 1212L314 1358H354V661L485 634V604H117V634L257 661Z" />
<glyph unicode="&#xba;" horiz-adv-x="906" d="M156 485V557H750V485H156ZM455 752Q551 752 614 818T678 1021Q678 1156 617 1235T452 1314Q355 1314 292 1247T229 1043Q229 909 290 831T455 752ZM452 694Q358 694 285 735T171 851T129 1026Q129 1132 170 1209T285
1329T455 1372Q550 1372 622 1331T736 1215T778 1038Q778 933 736 856T621 737T452 694Z" />
<glyph unicode="&#xbb;" horiz-adv-x="957" d="M404 398L97 810L134 840L507 471V429L134 59L97 89L404 501V398ZM761 398L454 810L491 840L864 471V429L491 59L454 89L761 501V398Z" />
<glyph unicode="&#xbc;" horiz-adv-x="1474" d="M276 661V1285L299 1257L77 1178L65 1212L333 1358H373V661L504 634V604H136V634L276 661ZM269 0L1212 1352H1294L351 0H269ZM1124 672L1170 689L837 272L831 311H1315L1412 330L1376 236H783V270L1161 757H1221V57L1350
30V0H986V30L1124 57V672Z" />
<glyph unicode="&#xbd;" horiz-adv-x="1564" d="M267 0L1210 1352H1292L349 0H267ZM1364 46L1464 214H1494L1450 -19H1430L1381 0H965V23L1184 265Q1241 328 1274 376T1321 463T1335 540Q1335 603 1295 642T1185 682Q1114 682 1063 643T984 500L946 509Q974 639
1043 700T1217 762Q1316 762 1376 709T1436 566Q1436 514 1416 469T1348 367T1219 229L1038 44L1040 91H1430L1364 46ZM274 661V1285L297 1257L75 1178L63 1212L331 1358H371V661L502 634V604H134V634L274 661Z" />
<glyph unicode="&#xbe;" horiz-adv-x="1449" d="M244 0L1187 1352H1269L326 0H244ZM230 590Q151 590 120 611T89 663Q89 684 103 698T142 712Q158 712 173 703T205 681T245 659T301 649Q385 649 439 699T493 839Q493 892 469 928T398 976T281 969L235 957L224
999Q351 1038 394 1081T438 1182Q438 1231 407 1264T315 1297Q250 1297 205 1262T139 1150L100 1161Q125 1258 185 1312T341 1367Q433 1367 481 1325T530 1212Q530 1146 483 1098T352 1023L353 1032Q430 1044 482 1026T562 966T589 866Q589 786 545 724T421 626T230
590ZM1100 672L1146 689L813 272L807 311H1291L1388 330L1352 236H759V270L1137 757H1197V57L1326 30V0H962V30L1100 57V672Z" />
<glyph unicode="&#xbf;" horiz-adv-x="873" d="M590 -495Q486 -495 398 -465T244 -380T142 -249T106 -85Q106 12 146 85T283 198T548 234L503 158L504 479H545L593 136Q445 144 356 115T227 28T186 -112Q186 -205 227 -273T342 -379T518 -417Q573 -417 608 -403T666
-371T709 -338T755 -324Q779 -324 797 -333T824 -359T834 -394Q834 -424 810 -447T732 -482T590 -495ZM521 694Q478 694 450 722T421 793Q421 836 449 863T521 891Q565 891 592 864T620 793Q620 751 593 723T521 694Z" />
<glyph unicode="&#xc0;" horiz-adv-x="1405" d="M379 528V597H999V528H379ZM1245 72L1414 36V0H948V36L1127 72L653 1259H694L241 72L414 36V0H-5V36L164 72L669 1370H721L1245 72ZM721 1485H672L406 1722V1740H556L721 1485Z" />
<glyph unicode="&#xc1;" horiz-adv-x="1405" d="M379 528V597H999V528H379ZM1245 72L1414 36V0H948V36L1127 72L653 1259H694L241 72L414 36V0H-5V36L164 72L669 1370H721L1245 72ZM655 1485L820 1740H970V1722L704 1485H655Z" />
<glyph unicode="&#xc2;" horiz-adv-x="1405" d="M379 528V597H999V528H379ZM1245 72L1414 36V0H948V36L1127 72L653 1259H694L241 72L414 36V0H-5V36L164 72L669 1370H721L1245 72ZM672 1667H705L480 1485H416L639 1740H737L960 1485H896L672 1667Z" />
<glyph unicode="&#xc3;" horiz-adv-x="1405" d="M379 528V597H999V528H379ZM1245 72L1414 36V0H948V36L1127 72L653 1259H694L241 72L414 36V0H-5V36L164 72L669 1370H721L1245 72ZM947 1727Q928 1628 906 1577T857 1508T794 1490Q756 1490 725 1513T665 1568T611
1622T560 1646Q539 1646 524 1635T495 1592T467 1498H416Q435 1598 457 1648T507 1717T571 1735Q608 1735 639 1712T698 1657T752 1603T803 1579Q824 1579 839 1590T868 1634T896 1727H947Z" />
<glyph unicode="&#xc4;" horiz-adv-x="1405" d="M379 528V597H999V528H379ZM1245 72L1414 36V0H948V36L1127 72L653 1259H694L241 72L414 36V0H-5V36L164 72L669 1370H721L1245 72ZM490 1523Q449 1523 425 1549T400 1613Q400 1651 424 1677T490 1703Q532 1703
556 1677T581 1613Q581 1576 557 1550T490 1523ZM886 1523Q844 1523 820 1549T795 1613Q795 1651 819 1677T886 1703Q927 1703 951 1677T976 1613Q976 1576 952 1550T886 1523Z" />
<glyph unicode="&#xc5;" horiz-adv-x="1405" d="M379 528V597H999V528H379ZM1245 72L1414 36V0H948V36L1127 72L653 1259H694L241 72L414 36V0H-5V36L164 72L669 1370H721L1245 72ZM688 1789Q766 1789 815 1740T865 1613Q865 1535 816 1486T688 1437Q611 1437
561 1486T511 1613Q511 1690 561 1739T688 1789ZM688 1485Q743 1485 777 1520T811 1613Q811 1669 777 1704T688 1740Q632 1740 598 1705T564 1613Q564 1556 598 1521T688 1485Z" />
<glyph unicode="&#xc6;" horiz-adv-x="1966" d="M483 514V583H1023V514H483ZM944 1352H997L1001 1313L230 72L404 36V0H-21V36L148 72L944 1352ZM732 1317V1352H978L923 1277L732 1317ZM1588 971L1581 707L1588 444H1539L1500 671L1036 674V741L1500 745L1539
971H1588ZM1851 1001L1809 996L1685 1310L1742 1282H1004V1352H1700L1783 1399H1805L1851 1001ZM1701 39L1857 365L1896 358L1821 -54H1797L1718 0H1004V70H1755L1701 39ZM803 0V36L977 72V1352H1088V0H803Z" />
<glyph unicode="&#xc7;" horiz-adv-x="1377" d="M844 45Q929 45 1016 63T1178 118L1113 56L1242 348H1286L1244 55Q1172 22 1065 1T844 -20Q681 -20 545 25T310 159T157 376T103 672Q103 887 194 1044T454 1287T854 1372Q937 1372 1014 1359T1181 1316L1124 1318L1202
1404H1224L1281 956L1238 951L1105 1270L1173 1197Q1070 1255 987 1278T809 1302Q673 1302 565 1264T380 1149T263 962T222 705Q222 545 269 422T401 215T599 88T844 45ZM684 -519Q605 -519 576 -498T547 -448Q547 -429 560 -415T594 -401Q614 -401 629 -416T664
-447T721 -463Q779 -463 812 -434T845 -356Q845 -323 825 -298T756 -253T617 -214V-205L779 17H840L694 -183L685 -135Q778 -156 830 -184T903 -247T924 -319Q924 -375 893 -421T807 -493T684 -519Z" />
<glyph unicode="&#xc8;" horiz-adv-x="1245" d="M866 971L859 707L866 444H817L779 671L315 674V741L779 745L817 971H866ZM1129 1001L1087 996L963 1310L1020 1282H282V1352H978L1061 1399H1083L1129 1001ZM980 39L1135 365L1174 358L1099 -54H1075L997 0H282V70H1034L980
39ZM81 0V36L255 72V1280L81 1317V1352H367V0H81ZM678 1485H629L363 1722V1740H513L678 1485Z" />
<glyph unicode="&#xc9;" horiz-adv-x="1245" d="M866 971L859 707L866 444H817L779 671L315 674V741L779 745L817 971H866ZM1129 1001L1087 996L963 1310L1020 1282H282V1352H978L1061 1399H1083L1129 1001ZM980 39L1135 365L1174 358L1099 -54H1075L997 0H282V70H1034L980
39ZM81 0V36L255 72V1280L81 1317V1352H367V0H81ZM612 1485L777 1740H927V1722L661 1485H612Z" />
<glyph unicode="&#xca;" horiz-adv-x="1245" d="M866 971L859 707L866 444H817L779 671L315 674V741L779 745L817 971H866ZM1129 1001L1087 996L963 1310L1020 1282H282V1352H978L1061 1399H1083L1129 1001ZM980 39L1135 365L1174 358L1099 -54H1075L997 0H282V70H1034L980
39ZM81 0V36L255 72V1280L81 1317V1352H367V0H81ZM629 1667H662L437 1485H373L596 1740H694L917 1485H853L629 1667Z" />
<glyph unicode="&#xcb;" horiz-adv-x="1245" d="M866 971L859 707L866 444H817L779 671L315 674V741L779 745L817 971H866ZM1129 1001L1087 996L963 1310L1020 1282H282V1352H978L1061 1399H1083L1129 1001ZM980 39L1135 365L1174 358L1099 -54H1075L997 0H282V70H1034L980
39ZM81 0V36L255 72V1280L81 1317V1352H367V0H81ZM447 1523Q406 1523 382 1549T357 1613Q357 1651 381 1677T447 1703Q489 1703 513 1677T538 1613Q538 1576 514 1550T447 1523ZM843 1523Q801 1523 777 1549T752 1613Q752 1651 776 1677T843 1703Q884 1703 908
1677T933 1613Q933 1576 909 1550T843 1523Z" />
<glyph unicode="&#xcc;" horiz-adv-x="622" d="M541 36V0H81V36L255 72V1280L81 1317V1352H541V1317L367 1280V72L541 36ZM344 1485H295L29 1722V1740H179L344 1485Z" />
<glyph unicode="&#xcd;" horiz-adv-x="622" d="M541 36V0H81V36L255 72V1280L81 1317V1352H541V1317L367 1280V72L541 36ZM278 1485L443 1740H593V1722L327 1485H278Z" />
<glyph unicode="&#xce;" horiz-adv-x="622" d="M541 36V0H81V36L255 72V1280L81 1317V1352H541V1317L367 1280V72L541 36ZM295 1667H328L103 1485H39L262 1740H360L583 1485H519L295 1667Z" />
<glyph unicode="&#xcf;" horiz-adv-x="622" d="M541 36V0H81V36L255 72V1280L81 1317V1352H541V1317L367 1280V72L541 36ZM113 1523Q72 1523 48 1549T23 1613Q23 1651 47 1677T113 1703Q155 1703 179 1677T204 1613Q204 1576 180 1550T113 1523ZM509 1523Q467
1523 443 1549T418 1613Q418 1651 442 1677T509 1703Q550 1703 574 1677T599 1613Q599 1576 575 1550T509 1523Z" />
<glyph unicode="&#xd0;" horiz-adv-x="1481" d="M86 650V722H700V650H86ZM1256 691Q1256 990 1073 1136T558 1282H289L298 1352H607Q860 1352 1031 1279T1289 1060T1376 700Q1376 470 1277 314T1005 79T611 0H298L289 70H584Q790 70 941 133T1174 334T1256 691ZM86
0V36L260 72V1280L86 1317V1352H372V0H86Z" />
<glyph unicode="&#xd1;" horiz-adv-x="1520" d="M259 72V1272L76 1317V1352H374L1248 126L1205 73V1280L1026 1317V1352H1451V1317L1277 1280V-18H1220L301 1264L331 1284V72L510 36V0H85V36L259 72ZM1033 1727Q1014 1628 992 1577T943 1508T880 1490Q842 1490
811 1513T751 1568T697 1622T646 1646Q625 1646 610 1635T581 1592T553 1498H502Q521 1598 543 1648T593 1717T657 1735Q694 1735 725 1712T784 1657T838 1603T889 1579Q910 1579 925 1590T954 1634T982 1727H1033Z" />
<glyph unicode="&#xd2;" horiz-adv-x="1525" d="M755 1372Q902 1372 1023 1322T1234 1178T1373 958T1422 677Q1422 524 1374 397T1239 175T1032 31T770 -20Q624 -20 502 31T291 174T152 394T103 675Q103 829 151 956T286 1177T493 1321T755 1372ZM771 49Q939 49
1058 125T1239 339T1302 659Q1302 862 1233 1006T1041 1227T754 1304Q586 1304 467 1227T286 1013T223 693Q223 491 292 347T485 126T771 49ZM795 1485H746L480 1722V1740H630L795 1485Z" />
<glyph unicode="&#xd3;" horiz-adv-x="1525" d="M755 1372Q902 1372 1023 1322T1234 1178T1373 958T1422 677Q1422 524 1374 397T1239 175T1032 31T770 -20Q624 -20 502 31T291 174T152 394T103 675Q103 829 151 956T286 1177T493 1321T755 1372ZM771 49Q939 49
1058 125T1239 339T1302 659Q1302 862 1233 1006T1041 1227T754 1304Q586 1304 467 1227T286 1013T223 693Q223 491 292 347T485 126T771 49ZM729 1485L894 1740H1044V1722L778 1485H729Z" />
<glyph unicode="&#xd4;" horiz-adv-x="1525" d="M755 1372Q902 1372 1023 1322T1234 1178T1373 958T1422 677Q1422 524 1374 397T1239 175T1032 31T770 -20Q624 -20 502 31T291 174T152 394T103 675Q103 829 151 956T286 1177T493 1321T755 1372ZM771 49Q939 49
1058 125T1239 339T1302 659Q1302 862 1233 1006T1041 1227T754 1304Q586 1304 467 1227T286 1013T223 693Q223 491 292 347T485 126T771 49ZM746 1667H779L554 1485H490L713 1740H811L1034 1485H970L746 1667Z" />
<glyph unicode="&#xd5;" horiz-adv-x="1525" d="M755 1372Q902 1372 1023 1322T1234 1178T1373 958T1422 677Q1422 524 1374 397T1239 175T1032 31T770 -20Q624 -20 502 31T291 174T152 394T103 675Q103 829 151 956T286 1177T493 1321T755 1372ZM771 49Q939 49
1058 125T1239 339T1302 659Q1302 862 1233 1006T1041 1227T754 1304Q586 1304 467 1227T286 1013T223 693Q223 491 292 347T485 126T771 49ZM1021 1727Q1002 1628 980 1577T931 1508T868 1490Q830 1490 799 1513T739 1568T685 1622T634 1646Q613 1646 598 1635T569
1592T541 1498H490Q509 1598 531 1648T581 1717T645 1735Q682 1735 713 1712T772 1657T826 1603T877 1579Q898 1579 913 1590T942 1634T970 1727H1021Z" />
<glyph unicode="&#xd6;" horiz-adv-x="1525" d="M755 1372Q902 1372 1023 1322T1234 1178T1373 958T1422 677Q1422 524 1374 397T1239 175T1032 31T770 -20Q624 -20 502 31T291 174T152 394T103 675Q103 829 151 956T286 1177T493 1321T755 1372ZM771 49Q939 49
1058 125T1239 339T1302 659Q1302 862 1233 1006T1041 1227T754 1304Q586 1304 467 1227T286 1013T223 693Q223 491 292 347T485 126T771 49ZM564 1523Q523 1523 499 1549T474 1613Q474 1651 498 1677T564 1703Q606 1703 630 1677T655 1613Q655 1576 631 1550T564
1523ZM960 1523Q918 1523 894 1549T869 1613Q869 1651 893 1677T960 1703Q1001 1703 1025 1677T1050 1613Q1050 1576 1026 1550T960 1523Z" />
<glyph unicode="&#xd7;" horiz-adv-x="1023" d="M198 180L779 761L825 715L245 134L198 180ZM198 715L245 761L825 180L779 134L198 715Z" />
<glyph unicode="&#xd8;" horiz-adv-x="1558" d="M344 243L1173 1167L1196 1195L1338 1352H1438L1247 1140L1217 1109L388 185L365 157L223 0H122L313 212L344 243ZM772 1372Q918 1372 1040 1322T1251 1178T1389 958T1438 677Q1438 524 1391 397T1256 175T1049
31T786 -20Q640 -20 518 31T307 174T169 394T120 675Q120 829 168 956T303 1177T509 1321T772 1372ZM787 49Q956 49 1074 125T1256 339T1319 659Q1319 862 1250 1006T1057 1227T771 1304Q603 1304 484 1227T302 1013T239 693Q239 491 308 347T501 126T787 49Z"
/>
<glyph unicode="&#xd9;" horiz-adv-x="1498" d="M1196 512V1280L1022 1317V1352H1443V1317L1269 1280V512Q1269 331 1208 213T1033 38T760 -20Q587 -20 469 41T289 226T227 542V1280L53 1317V1352H513V1317L339 1280V546Q339 387 386 280T530 119T772 65Q908 65
1003 111T1147 257T1196 512ZM809 1485H760L494 1722V1740H644L809 1485Z" />
<glyph unicode="&#xda;" horiz-adv-x="1498" d="M1196 512V1280L1022 1317V1352H1443V1317L1269 1280V512Q1269 331 1208 213T1033 38T760 -20Q587 -20 469 41T289 226T227 542V1280L53 1317V1352H513V1317L339 1280V546Q339 387 386 280T530 119T772 65Q908 65
1003 111T1147 257T1196 512ZM743 1485L908 1740H1058V1722L792 1485H743Z" />
<glyph unicode="&#xdb;" horiz-adv-x="1498" d="M1196 512V1280L1022 1317V1352H1443V1317L1269 1280V512Q1269 331 1208 213T1033 38T760 -20Q587 -20 469 41T289 226T227 542V1280L53 1317V1352H513V1317L339 1280V546Q339 387 386 280T530 119T772 65Q908 65
1003 111T1147 257T1196 512ZM760 1667H793L568 1485H504L727 1740H825L1048 1485H984L760 1667Z" />
<glyph unicode="&#xdc;" horiz-adv-x="1498" d="M1196 512V1280L1022 1317V1352H1443V1317L1269 1280V512Q1269 331 1208 213T1033 38T760 -20Q587 -20 469 41T289 226T227 542V1280L53 1317V1352H513V1317L339 1280V546Q339 387 386 280T530 119T772 65Q908 65
1003 111T1147 257T1196 512ZM578 1523Q537 1523 513 1549T488 1613Q488 1651 512 1677T578 1703Q620 1703 644 1677T669 1613Q669 1576 645 1550T578 1523ZM974 1523Q932 1523 908 1549T883 1613Q883 1651 907 1677T974 1703Q1015 1703 1039 1677T1064 1613Q1064
1576 1040 1550T974 1523Z" />
<glyph unicode="&#xdd;" horiz-adv-x="1359" d="M167 1280L-1 1317V1352H482V1317L306 1280L750 622H708L1094 1281L920 1317V1352H1340V1317L1173 1280L755 589V72L929 36V0H469V36L643 72V585L167 1280ZM666 1485L831 1740H981V1722L715 1485H666Z" />
<glyph unicode="&#xde;" horiz-adv-x="1200" d="M997 697Q997 795 956 864T819 969T557 1006H289L293 1076H612Q795 1076 905 1028T1064 894T1113 701Q1113 592 1064 505T906 366T623 315H294L290 385H609Q742 385 828 421T955 527T997 697ZM541 36V0H81V36L255
72V1280L81 1317V1352H541V1317L367 1280V72L541 36Z" />
<glyph unicode="&#xdf;" horiz-adv-x="1215" d="M224 939Q224 1074 263 1168T368 1319T518 1403T689 1430Q767 1430 825 1412T922 1362T980 1289T999 1202Q999 1136 969 1089T895 1006T805 934T730 856T700 755Q700 704 732 671T814 615T921 566T1027 506T1109
415T1141 274Q1141 184 1102 118T991 17T826 -19Q756 -19 700 -10T598 18L568 266H607L708 15L645 65Q689 46 731 40T817 34Q925 34 988 88T1052 246Q1052 317 1020 360T938 432T830 484T722 536T639 610T607 729Q607 793 635 837T706 918T791 992T862 1076T891
1190Q891 1238 866 1278T790 1342T657 1367Q557 1367 483 1327T367 1202T326 986V67L463 35V0H69V35L224 67V939ZM239 886L225 794L36 816V843L239 886Z" />
<glyph unicode="&#xe0;" horiz-adv-x="903" d="M662 551L663 498Q512 462 421 430T283 365T219 297T203 216Q203 140 249 100T378 60Q443 60 496 90T580 169T612 272V634Q612 726 567 775T413 825Q372 825 324 814T218 777L274 815Q268 786 263 761T250 717T233
686Q221 671 202 664T161 657Q133 657 118 670T102 701Q102 727 133 760T215 823T328 872T452 892Q550 892 607 864T689 784T714 656V175Q714 133 724 108T756 71T807 59Q832 59 857 67T913 94V58Q874 20 835 3T755 -14Q704 -14 672 6T625 74T613 206L619 210Q600
134 560 83T464 6T340 -20Q230 -20 163 35T95 198Q95 253 116 299T196 386T367 468T662 551ZM456 1031H406L125 1343V1361H269L456 1031Z" />
<glyph unicode="&#xe1;" horiz-adv-x="903" d="M662 551L663 498Q512 462 421 430T283 365T219 297T203 216Q203 140 249 100T378 60Q443 60 496 90T580 169T612 272V634Q612 726 567 775T413 825Q372 825 324 814T218 777L274 815Q268 786 263 761T250 717T233
686Q221 671 202 664T161 657Q133 657 118 670T102 701Q102 727 133 760T215 823T328 872T452 892Q550 892 607 864T689 784T714 656V175Q714 133 724 108T756 71T807 59Q832 59 857 67T913 94V58Q874 20 835 3T755 -14Q704 -14 672 6T625 74T613 206L619 210Q600
134 560 83T464 6T340 -20Q230 -20 163 35T95 198Q95 253 116 299T196 386T367 468T662 551ZM368 1031L555 1361H699V1343L418 1031H368Z" />
<glyph unicode="&#xe2;" horiz-adv-x="903" d="M662 551L663 498Q512 462 421 430T283 365T219 297T203 216Q203 140 249 100T378 60Q443 60 496 90T580 169T612 272V634Q612 726 567 775T413 825Q372 825 324 814T218 777L274 815Q268 786 263 761T250 717T233
686Q221 671 202 664T161 657Q133 657 118 670T102 701Q102 727 133 760T215 823T328 872T452 892Q550 892 607 864T689 784T714 656V175Q714 133 724 108T756 71T807 59Q832 59 857 67T913 94V58Q874 20 835 3T755 -14Q704 -14 672 6T625 74T613 206L619 210Q600
134 560 83T464 6T340 -20Q230 -20 163 35T95 198Q95 253 116 299T196 386T367 468T662 551ZM141 1031L363 1361H460L683 1031H623L393 1279H432L201 1031H141Z" />
<glyph unicode="&#xe3;" horiz-adv-x="903" d="M662 551L663 498Q512 462 421 430T283 365T219 297T203 216Q203 140 249 100T378 60Q443 60 496 90T580 169T612 272V634Q612 726 567 775T413 825Q372 825 324 814T218 777L274 815Q268 786 263 761T250 717T233
686Q221 671 202 664T161 657Q133 657 118 670T102 701Q102 727 133 760T215 823T328 872T452 892Q550 892 607 864T689 784T714 656V175Q714 133 724 108T756 71T807 59Q832 59 857 67T913 94V58Q874 20 835 3T755 -14Q704 -14 672 6T625 74T613 206L619 210Q600
134 560 83T464 6T340 -20Q230 -20 163 35T95 198Q95 253 116 299T196 386T367 468T662 551ZM675 1340Q657 1220 636 1155T587 1066T523 1041Q483 1041 452 1072T393 1144T341 1217T287 1248Q267 1248 252 1232T224 1173T194 1051H143Q162 1172 183 1236T233 1325T298
1350Q337 1350 368 1319T426 1247T478 1174T532 1143Q552 1143 567 1159T596 1218T625 1340H675Z" />
<glyph unicode="&#xe4;" horiz-adv-x="903" d="M662 551L663 498Q512 462 421 430T283 365T219 297T203 216Q203 140 249 100T378 60Q443 60 496 90T580 169T612 272V634Q612 726 567 775T413 825Q372 825 324 814T218 777L274 815Q268 786 263 761T250 717T233
686Q221 671 202 664T161 657Q133 657 118 670T102 701Q102 727 133 760T215 823T328 872T452 892Q550 892 607 864T689 784T714 656V175Q714 133 724 108T756 71T807 59Q832 59 857 67T913 94V58Q874 20 835 3T755 -14Q704 -14 672 6T625 74T613 206L619 210Q600
134 560 83T464 6T340 -20Q230 -20 163 35T95 198Q95 253 116 299T196 386T367 468T662 551ZM230 1106Q188 1106 164 1132T140 1196Q140 1234 164 1260T230 1286Q272 1286 296 1260T321 1196Q321 1159 297 1133T230 1106ZM594 1106Q552 1106 528 1132T503 1196Q503
1234 527 1260T594 1286Q636 1286 660 1260T684 1196Q684 1159 660 1133T594 1106Z" />
<glyph unicode="&#xe5;" horiz-adv-x="903" d="M662 551L663 498Q512 462 421 430T283 365T219 297T203 216Q203 140 249 100T378 60Q443 60 496 90T580 169T612 272V634Q612 726 567 775T413 825Q372 825 324 814T218 777L274 815Q268 786 263 761T250 717T233
686Q221 671 202 664T161 657Q133 657 118 670T102 701Q102 727 133 760T215 823T328 872T452 892Q550 892 607 864T689 784T714 656V175Q714 133 724 108T756 71T807 59Q832 59 857 67T913 94V58Q874 20 835 3T755 -14Q704 -14 672 6T625 74T613 206L619 210Q600
134 560 83T464 6T340 -20Q230 -20 163 35T95 198Q95 253 116 299T196 386T367 468T662 551ZM412 1372Q490 1372 539 1323T589 1196Q589 1119 540 1070T412 1020Q335 1020 285 1069T235 1196Q235 1274 285 1323T412 1372ZM412 1069Q467 1069 501 1104T535 1196Q535
1253 501 1288T412 1324Q356 1324 322 1289T288 1196Q288 1140 322 1105T412 1069Z" />
<glyph unicode="&#xe6;" horiz-adv-x="1437" d="M422 825Q378 825 328 815T218 777L273 815Q268 786 262 761T249 717T233 686Q220 671 201 664T161 657Q133 657 118 670T102 701Q102 727 133 760T217 823T333 872T461 892Q549 892 602 869T681 801T713 694H675Q723
789 812 845T1016 901Q1129 901 1201 851T1311 710T1355 500H707L706 551L1283 573L1238 539Q1232 633 1205 700T1128 802T1005 838Q918 838 855 796T757 669T723 460Q723 337 765 250T888 116T1081 70Q1127 70 1169 79T1254 111T1344 168L1360 136Q1301 81 1247
47T1136 -4T1012 -20Q918 -20 839 15T704 114T624 268H643Q634 174 594 110T489 13T343 -20Q232 -20 163 36T94 201Q94 254 114 299T193 385T366 467T670 552L672 502Q514 464 421 431T280 365T217 297T202 218Q202 141 249 101T378 60Q445 60 500 91T588 176T621
300V634Q621 726 576 775T422 825Z" />
<glyph unicode="&#xe7;" horiz-adv-x="882" d="M552 901Q646 901 703 884T787 841T813 788Q813 766 804 749T779 722T740 712Q717 712 698 724T659 755T617 793T564 824T492 837Q411 837 341 797T229 675T187 469Q187 343 230 253T352 116T544 68Q613 68 675 90T808
168L824 136Q766 82 714 48T607 -3T487 -20Q365 -20 274 35T134 191T84 427Q84 526 114 611T204 762T351 864T552 901ZM394 -519Q314 -519 285 -498T256 -448Q256 -429 269 -415T304 -401Q324 -401 339 -416T374 -447T431 -463Q489 -463 522 -434T555 -356Q555
-323 535 -298T466 -253T327 -214V-205L489 17H549L404 -183L394 -135Q487 -156 539 -184T612 -247T634 -319Q634 -375 603 -421T517 -493T394 -519Z" />
<glyph unicode="&#xe8;" horiz-adv-x="914" d="M493 901Q604 901 676 853T787 720T832 518H174L173 570L760 591L717 551Q712 642 684 706T603 805T474 840Q387 840 323 797T223 670T188 462Q188 337 232 249T358 115T554 68Q601 68 644 78T731 110T821 168L837
136Q778 82 725 48T616 -3T495 -20Q371 -20 279 35T135 191T84 429Q84 561 134 668T276 838T493 901ZM525 1031H475L194 1343V1361H338L525 1031Z" />
<glyph unicode="&#xe9;" horiz-adv-x="914" d="M493 901Q604 901 676 853T787 720T832 518H174L173 570L760 591L717 551Q712 642 684 706T603 805T474 840Q387 840 323 797T223 670T188 462Q188 337 232 249T358 115T554 68Q601 68 644 78T731 110T821 168L837
136Q778 82 725 48T616 -3T495 -20Q371 -20 279 35T135 191T84 429Q84 561 134 668T276 838T493 901ZM437 1031L624 1361H768V1343L487 1031H437Z" />
<glyph unicode="&#xea;" horiz-adv-x="914" d="M493 901Q604 901 676 853T787 720T832 518H174L173 570L760 591L717 551Q712 642 684 706T603 805T474 840Q387 840 323 797T223 670T188 462Q188 337 232 249T358 115T554 68Q601 68 644 78T731 110T821 168L837
136Q778 82 725 48T616 -3T495 -20Q371 -20 279 35T135 191T84 429Q84 561 134 668T276 838T493 901ZM210 1031L432 1361H529L752 1031H692L462 1279H501L270 1031H210Z" />
<glyph unicode="&#xeb;" horiz-adv-x="914" d="M493 901Q604 901 676 853T787 720T832 518H174L173 570L760 591L717 551Q712 642 684 706T603 805T474 840Q387 840 323 797T223 670T188 462Q188 337 232 249T358 115T554 68Q601 68 644 78T731 110T821 168L837
136Q778 82 725 48T616 -3T495 -20Q371 -20 279 35T135 191T84 429Q84 561 134 668T276 838T493 901ZM299 1106Q257 1106 233 1132T209 1196Q209 1234 233 1260T299 1286Q341 1286 365 1260T390 1196Q390 1159 366 1133T299 1106ZM663 1106Q621 1106 597 1132T572
1196Q572 1234 596 1260T663 1286Q705 1286 729 1260T753 1196Q753 1159 729 1133T663 1106Z" />
<glyph unicode="&#xec;" horiz-adv-x="516" d="M328 901L319 776V67L474 35V0H63V35L217 67V761Q206 766 179 775T119 793T55 810V839L313 901H328ZM291 1031H241L-40 1343V1361H104L291 1031Z" />
<glyph unicode="&#xed;" horiz-adv-x="516" d="M328 901L319 776V67L474 35V0H63V35L217 67V761Q206 766 179 775T119 793T55 810V839L313 901H328ZM203 1031L390 1361H534V1343L253 1031H203Z" />
<glyph unicode="&#xee;" horiz-adv-x="516" d="M328 901L319 776V67L474 35V0H63V35L217 67V761Q206 766 179 775T119 793T55 810V839L313 901H328ZM-24 1031L198 1361H295L518 1031H458L228 1279H267L36 1031H-24Z" />
<glyph unicode="&#xef;" horiz-adv-x="516" d="M328 901L319 776V67L474 35V0H63V35L217 67V761Q206 766 179 775T119 793T55 810V839L313 901H328ZM65 1106Q23 1106 -1 1132T-25 1196Q-25 1234 -1 1260T65 1286Q107 1286 131 1260T156 1196Q156 1159 132 1133T65
1106ZM429 1106Q387 1106 363 1132T338 1196Q338 1234 362 1260T429 1286Q471 1286 495 1260T519 1196Q519 1159 495 1133T429 1106Z" />
<glyph unicode="&#xf0;" horiz-adv-x="1061" d="M517 -20Q391 -20 293 35T140 192T84 430Q84 572 139 676T292 838T515 895Q579 895 634 877T733 825T808 747T852 649L836 635Q823 793 777 912T651 1119T457 1270T191 1379L210 1426Q383 1379 509 1315T722 1168T859
984T933 764T956 507Q956 335 902 218T749 40T517 -20ZM521 39Q614 39 686 80T799 206T841 421Q841 550 801 643T689 786T518 837Q426 837 354 795T241 669T199 455Q199 326 238 233T350 89T521 39ZM352 999L313 1053L813 1421L852 1368L352 999Z" />
<glyph unicode="&#xf1;" horiz-adv-x="1112" d="M316 728V67L471 35V0H59V35L214 67V756Q198 763 159 775T52 804V830L288 901H302L316 728ZM672 35L827 67V567Q827 653 805 704T734 778T600 801Q532 801 456 776T309 691L281 711Q348 770 400 807T496 865T581
893T667 901Q807 901 868 828T929 596V67L1084 35V0H672V35ZM820 1340Q802 1220 781 1155T732 1066T668 1041Q628 1041 597 1072T538 1144T486 1217T432 1248Q412 1248 397 1232T369 1173T339 1051H288Q307 1172 328 1236T378 1325T443 1350Q482 1350 513 1319T571
1247T623 1174T677 1143Q697 1143 712 1159T741 1218T770 1340H820Z" />
<glyph unicode="&#xf2;" horiz-adv-x="1039" d="M521 39Q614 39 686 80T799 207T841 423Q841 553 801 647T689 791T518 842Q426 842 354 800T241 673T199 457Q199 328 238 234T350 90T521 39ZM517 -20Q391 -20 293 36T140 194T84 433Q84 575 140 680T294 843T522
901Q649 901 747 845T900 688T956 448Q956 305 900 200T745 38T517 -20ZM564 1031H514L233 1343V1361H377L564 1031Z" />
<glyph unicode="&#xf3;" horiz-adv-x="1039" d="M521 39Q614 39 686 80T799 207T841 423Q841 553 801 647T689 791T518 842Q426 842 354 800T241 673T199 457Q199 328 238 234T350 90T521 39ZM517 -20Q391 -20 293 36T140 194T84 433Q84 575 140 680T294 843T522
901Q649 901 747 845T900 688T956 448Q956 305 900 200T745 38T517 -20ZM476 1031L663 1361H807V1343L526 1031H476Z" />
<glyph unicode="&#xf4;" horiz-adv-x="1039" d="M521 39Q614 39 686 80T799 207T841 423Q841 553 801 647T689 791T518 842Q426 842 354 800T241 673T199 457Q199 328 238 234T350 90T521 39ZM517 -20Q391 -20 293 36T140 194T84 433Q84 575 140 680T294 843T522
901Q649 901 747 845T900 688T956 448Q956 305 900 200T745 38T517 -20ZM249 1031L471 1361H568L791 1031H731L501 1279H540L309 1031H249Z" />
<glyph unicode="&#xf5;" horiz-adv-x="1039" d="M521 39Q614 39 686 80T799 207T841 423Q841 553 801 647T689 791T518 842Q426 842 354 800T241 673T199 457Q199 328 238 234T350 90T521 39ZM517 -20Q391 -20 293 36T140 194T84 433Q84 575 140 680T294 843T522
901Q649 901 747 845T900 688T956 448Q956 305 900 200T745 38T517 -20ZM783 1340Q765 1220 744 1155T695 1066T631 1041Q591 1041 560 1072T501 1144T449 1217T395 1248Q375 1248 360 1232T332 1173T302 1051H251Q270 1172 291 1236T341 1325T406 1350Q445 1350
476 1319T534 1247T586 1174T640 1143Q660 1143 675 1159T704 1218T733 1340H783Z" />
<glyph unicode="&#xf6;" horiz-adv-x="1039" d="M521 39Q614 39 686 80T799 207T841 423Q841 553 801 647T689 791T518 842Q426 842 354 800T241 673T199 457Q199 328 238 234T350 90T521 39ZM517 -20Q391 -20 293 36T140 194T84 433Q84 575 140 680T294 843T522
901Q649 901 747 845T900 688T956 448Q956 305 900 200T745 38T517 -20ZM338 1106Q296 1106 272 1132T248 1196Q248 1234 272 1260T338 1286Q380 1286 404 1260T429 1196Q429 1159 405 1133T338 1106ZM702 1106Q660 1106 636 1132T611 1196Q611 1234 635 1260T702
1286Q744 1286 768 1260T792 1196Q792 1159 768 1133T702 1106Z" />
<glyph unicode="&#xf7;" horiz-adv-x="1023" d="M512 220Q554 220 580 194T607 126Q607 85 581 59T512 32Q470 32 444 58T417 126Q417 167 443 193T512 220ZM512 860Q554 860 580 833T607 766Q607 725 581 698T512 671Q470 671 444 698T417 766Q417 806 443 833T512
860ZM144 481H879V415H144V481Z" />
<glyph unicode="&#xf8;" horiz-adv-x="1074" d="M90 0L224 147L250 171L780 757L804 786L890 881H985L852 736L827 712L295 124L271 96L184 0H90ZM539 39Q631 39 703 80T816 207T858 423Q858 553 819 647T707 791T536 842Q444 842 372 800T258 673T216 457Q216
328 256 234T368 90T539 39ZM535 -20Q408 -20 310 36T157 194T101 433Q101 575 157 680T312 843T539 901Q667 901 764 845T917 688T973 448Q973 305 917 200T763 38T535 -20Z" />
<glyph unicode="&#xf9;" horiz-adv-x="1069" d="M289 298Q289 214 309 167T378 100T512 80Q573 80 644 103T783 183L806 159Q744 103 696 68T607 14T528 -12T448 -20Q309 -20 248 50T187 268V798L9 845V881L300 896L289 800V298ZM784 -18L773 151V798L595 845V881L887
896L876 800V113Q885 109 906 104T955 92T1006 81T1047 74V48L800 -18H784ZM544 1031H494L213 1343V1361H357L544 1031Z" />
<glyph unicode="&#xfa;" horiz-adv-x="1069" d="M289 298Q289 214 309 167T378 100T512 80Q573 80 644 103T783 183L806 159Q744 103 696 68T607 14T528 -12T448 -20Q309 -20 248 50T187 268V798L9 845V881L300 896L289 800V298ZM784 -18L773 151V798L595 845V881L887
896L876 800V113Q885 109 906 104T955 92T1006 81T1047 74V48L800 -18H784ZM456 1031L643 1361H787V1343L506 1031H456Z" />
<glyph unicode="&#xfb;" horiz-adv-x="1069" d="M289 298Q289 214 309 167T378 100T512 80Q573 80 644 103T783 183L806 159Q744 103 696 68T607 14T528 -12T448 -20Q309 -20 248 50T187 268V798L9 845V881L300 896L289 800V298ZM784 -18L773 151V798L595 845V881L887
896L876 800V113Q885 109 906 104T955 92T1006 81T1047 74V48L800 -18H784ZM229 1031L451 1361H548L771 1031H711L481 1279H520L289 1031H229Z" />
<glyph unicode="&#xfc;" horiz-adv-x="1069" d="M289 298Q289 214 309 167T378 100T512 80Q573 80 644 103T783 183L806 159Q744 103 696 68T607 14T528 -12T448 -20Q309 -20 248 50T187 268V798L9 845V881L300 896L289 800V298ZM784 -18L773 151V798L595 845V881L887
896L876 800V113Q885 109 906 104T955 92T1006 81T1047 74V48L800 -18H784ZM318 1106Q276 1106 252 1132T228 1196Q228 1234 252 1260T318 1286Q360 1286 384 1260T409 1196Q409 1159 385 1133T318 1106ZM682 1106Q640 1106 616 1132T591 1196Q591 1234 615 1260T682
1286Q724 1286 748 1260T772 1196Q772 1159 748 1133T682 1106Z" />
<glyph unicode="&#xfd;" horiz-adv-x="1060" d="M599 78L538 -29L155 812L11 846V881H413V845L267 814L599 78ZM233 -519Q179 -519 149 -495T118 -429Q118 -409 125 -394T145 -371T172 -362Q188 -362 206 -369T244 -383T287 -390Q317 -390 343 -376T397 -322T455
-210L549 20L572 82L844 815L697 845V881H1037V845L911 816L504 -238Q463 -344 423 -405T336 -493T233 -519ZM501 1031L688 1361H832V1343L551 1031H501Z" />
<glyph unicode="&#xfe;" horiz-adv-x="1055" d="M152 1285Q139 1293 114 1303T54 1325T-20 1349V1372L245 1430H259L254 1299V247Q254 185 287 139T378 69T511 44Q621 44 698 92T817 230T858 446Q858 623 770 719T530 816Q475 816 421 804T311 767T197 701V754Q275
800 330 828T426 873T500 895T565 901Q698 901 788 850T925 704T971 476Q971 316 904 205T731 37T504 -20Q439 -20 382 -5T278 39T201 107H254V-432L428 -465V-499H-3V-465L152 -432V1285Z" />
<glyph unicode="&#xff;" horiz-adv-x="1060" d="M599 78L538 -29L155 812L11 846V881H413V845L267 814L599 78ZM233 -519Q179 -519 149 -495T118 -429Q118 -409 125 -394T145 -371T172 -362Q188 -362 206 -369T244 -383T287 -390Q317 -390 343 -376T397 -322T455
-210L549 20L572 82L844 815L697 845V881H1037V845L911 816L504 -238Q463 -344 423 -405T336 -493T233 -519ZM363 1106Q321 1106 297 1132T273 1196Q273 1234 297 1260T363 1286Q405 1286 429 1260T454 1196Q454 1159 430 1133T363 1106ZM727 1106Q685 1106 661
1132T636 1196Q636 1234 660 1260T727 1286Q769 1286 793 1260T817 1196Q817 1159 793 1133T727 1106Z" />
<glyph unicode="&#x2013;" horiz-adv-x="1021" d="M101 486H921V414H101V486Z" />
<glyph unicode="&#x2014;" horiz-adv-x="1351" d="M101 486H1251V414H101V486Z" />
<glyph unicode="&#x2018;" horiz-adv-x="429" d="M345 1319Q257 1274 224 1231T191 1139Q191 1110 209 1091T252 1059T295 1035T314 1015Q314 974 287 948T212 922Q159 922 127 958T94 1060Q94 1123 116 1176T188 1275T320 1365L345 1319Z" />
<glyph unicode="&#x2019;" horiz-adv-x="431" d="M98 966Q187 1011 220 1054T253 1146Q253 1175 235 1194T192 1226T149 1249T130 1269Q130 1311 157 1337T232 1363Q286 1363 318 1327T350 1225Q350 1162 328 1109T257 1010T123 919L98 966Z" />
<glyph unicode="&#x201a;" horiz-adv-x="419" d="M67 -214Q156 -169 189 -126T222 -34Q222 -6 204 13T161 46T118 69T99 89Q99 131 126 157T201 183Q255 183 286 147T318 44Q318 -19 296 -71T225 -170T92 -261L67 -214Z" />
<glyph unicode="&#x201c;" horiz-adv-x="734" d="M345 1319Q257 1274 224 1231T191 1139Q191 1110 209 1091T252 1059T295 1035T314 1015Q314 974 287 948T212 922Q159 922 127 958T94 1060Q94 1123 116 1176T188 1275T320 1365L345 1319ZM650 1319Q562 1274 529
1231T496 1139Q496 1110 514 1091T557 1059T600 1035T619 1015Q619 974 592 948T517 922Q464 922 432 958T399 1060Q399 1123 421 1176T493 1275T625 1365L650 1319Z" />
<glyph unicode="&#x201d;" horiz-adv-x="736" d="M98 966Q187 1011 220 1054T253 1146Q253 1175 235 1194T192 1226T149 1249T130 1269Q130 1311 157 1337T232 1363Q286 1363 318 1327T350 1225Q350 1162 328 1109T257 1010T123 919L98 966ZM403 966Q492 1011
525 1054T558 1146Q558 1175 540 1194T497 1226T454 1249T435 1269Q435 1311 462 1337T537 1363Q591 1363 623 1327T655 1225Q655 1162 633 1109T562 1010T428 919L403 966Z" />
<glyph unicode="&#x201e;" horiz-adv-x="724" d="M67 -214Q156 -169 189 -126T222 -34Q222 -6 204 13T161 46T118 69T99 89Q99 131 126 157T201 183Q255 183 286 147T318 44Q318 -19 296 -71T225 -170T92 -261L67 -214ZM372 -214Q461 -169 494 -126T527 -34Q527
-6 509 13T466 46T423 69T404 89Q404 131 431 157T506 183Q560 183 591 147T623 44Q623 -19 601 -71T530 -170T397 -261L372 -214Z" />
<glyph unicode="&#x2022;" horiz-adv-x="768" d="M384 653Q444 653 490 627T563 555T589 451Q589 393 563 347T490 275T384 248Q324 248 278 274T205 346T179 451Q179 509 205 554T277 626T384 653Z" />
<glyph unicode="&#x2039;" horiz-adv-x="572" d="M177 501L484 88L448 58L75 428V470L448 839L484 809L177 397V501Z" />
<glyph unicode="&#x203a;" horiz-adv-x="600" d="M404 397L97 810L134 840L507 470V428L134 58L97 89L404 501V397Z" />
</font>
</defs>
</svg>
