<?xml version="1.0" standalone="no"?>
<!DOCTYPE svg PUBLIC "-//W3C//DTD SVG 1.1//EN" "http://www.w3.org/Graphics/SVG/1.1/DTD/svg11.dtd">
<svg xmlns="http://www.w3.org/2000/svg">
<defs >
<font id="Newsreader" horiz-adv-x="1087" ><font-face
    font-family="Newsreader 16pt 16pt ExtraBold"
    units-per-em="2000"
    panose-1="2 0 0 0 0 0 0 0 0 0"
    ascent="1470"
    descent="-530"
    alphabetic="0" />
<glyph unicode=" " horiz-adv-x="410" />
<glyph unicode="!" horiz-adv-x="608" d="M535 1237L534 1210Q534 1189 529 1161T513 1095T487 1004T453 882T410 721T358 511H250Q223 629 199 720T156 882T121 1004T96 1094T80 1161T73 1210L72 1237Q72 1285 101 1316T183 1364T304 1380Q371 1380 423 1364T505
1317T535 1237ZM305 359Q395 359 451 305T507 168Q507 85 451 30T305 -25Q216 -25 160 30T103 168Q103 250 159 304T305 359Z" />
<glyph unicode="&quot;" horiz-adv-x="886" d="M159 786L63 1291V1352H395V1291L296 786H159ZM589 786L493 1291V1352H825V1291L726 786H589Z" />
<glyph unicode="#" horiz-adv-x="1342" d="M779 0H639L940 1352H1080L779 0ZM398 0H260L560 1352H699L398 0ZM1162 573V446H75V573H1162ZM1265 911V784H178V911H1265Z" />
<glyph unicode="$" horiz-adv-x="1342" d="M505 -202V1554H619V-202H505ZM734 -202V1554H848V-202H734ZM562 -30Q457 -30 384 -16T264 24T196 86T174 167Q174 227 211 262T299 297Q338 297 372 269T444 204T529 139T644 111Q728 111 785 134T872 199T902 294Q902
356 872 398T765 470T551 528Q414 556 334 612T220 749T185 934Q185 1068 248 1169T437 1326T753 1382Q886 1382 969 1358T1091 1290T1130 1191Q1130 1131 1095 1094T1009 1057Q967 1057 930 1086T855 1152T772 1219T670 1248Q557 1248 503 1206T448 1086Q448 1034
471 995T563 925T770 865Q909 837 997 779T1126 637T1168 448Q1168 294 1098 187T893 25T562 -30Z" />
<glyph unicode="%" horiz-adv-x="1831" d="M369 0L1313 1352H1464L520 0H369ZM441 714Q498 714 523 775T548 957Q548 1063 534 1125T493 1215T427 1243Q370 1243 346 1182T321 1000Q321 894 335 831T376 741T441 714ZM434 584Q321 584 236 632T104 768T57 977Q57
1099 104 1187T236 1324T434 1373Q548 1373 632 1325T763 1189T810 979Q810 859 763 770T632 633T434 584ZM1406 110Q1463 110 1488 171T1513 353Q1513 459 1499 521T1458 611T1392 639Q1335 639 1311 578T1286 396Q1286 290 1300 227T1341 137T1406 110ZM1399
-20Q1286 -20 1201 28T1069 164T1022 373Q1022 495 1069 583T1201 720T1399 769Q1513 769 1597 721T1728 585T1775 375Q1775 255 1728 166T1597 29T1399 -20Z" />
<glyph unicode="&amp;" horiz-adv-x="1553" d="M731 814L490 697Q465 668 448 633T422 558T413 476Q413 381 446 314T545 211T713 175Q786 175 846 197T954 264L1019 326Q1056 381 1078 476T1111 715L983 760V822H1494V760L1370 715Q1293 530 1225 414T1080 212L1020
168Q948 100 869 57T700 -8T510 -30Q348 -30 248 15T102 142T55 329Q55 422 92 500T217 638T454 740L675 864Q740 919 765 978T790 1110Q790 1188 765 1224T685 1260Q634 1260 606 1231T577 1141Q577 1102 590 1065T634 984T719 878L1392 123L1537 63V0H992L365
726Q316 782 287 833T244 933T231 1031Q231 1130 281 1209T435 1335T703 1382Q836 1382 921 1349T1049 1257T1091 1124Q1091 1069 1074 1024T1017 941T907 872T731 814Z" />
<glyph unicode="&apos;" horiz-adv-x="456" d="M159 786L63 1291V1352H395V1291L296 786H159Z" />
<glyph unicode="(" horiz-adv-x="625" d="M332 582Q332 480 344 388T384 204T463 13T589 -205L507 -275Q365 -128 277 -14T143 196T79 385T62 582Q62 687 79 779T142 968T277 1178T507 1440L589 1369Q513 1252 463 1152T385 961T344 777T332 582Z" />
<glyph unicode=")" horiz-adv-x="625" d="M293 582Q293 685 281 777T241 960T162 1152T36 1369L118 1440Q260 1292 348 1178T482 968T546 780T563 582Q563 478 546 385T483 196T348 -14T118 -275L36 -205Q112 -87 162 12T240 203T281 387T293 582Z" />
<glyph unicode="*" horiz-adv-x="859" d="M605 723L514 684L395 900L190 765L126 839L296 1018L104 1169L154 1253L377 1148L461 1378L556 1356L524 1111L769 1105L778 1006L536 958L605 723Z" />
<glyph unicode="+" horiz-adv-x="1023" d="M429 850H594V51H429V850ZM911 533V368H112V533H911Z" />
<glyph unicode="," horiz-adv-x="545" d="M66 -303Q159 -221 195 -162T231 -54Q231 -7 206 25T148 82T90 127T65 170Q65 252 121 308T266 364Q363 364 414 307T466 145Q466 85 453 25T404 -99T306 -233T141 -384L66 -303Z" />
<glyph unicode="-" horiz-adv-x="745" d="M103 567H642V352H103V567Z" />
<glyph unicode="." horiz-adv-x="540" d="M270 368Q358 368 414 312T471 172Q471 88 415 32T270 -25Q182 -25 126 31T70 172Q70 255 126 311T270 368Z" />
<glyph unicode="/" horiz-adv-x="821" d="M42 0L611 1352H779L210 0H42Z" />
<glyph unicode="0" horiz-adv-x="1342" d="M676 128Q734 128 771 180T827 342T845 627Q845 788 835 901T803 1086T748 1190T665 1224Q608 1224 571 1172T515 1010T496 726Q496 565 506 451T538 266T594 162T676 128ZM674 1382Q861 1382 993 1301T1193 1063T1262
682Q1262 455 1193 296T991 54T668 -30Q481 -30 349 51T149 290T80 670Q80 898 149 1056T351 1298T674 1382Z" />
<glyph unicode="1" horiz-adv-x="1342" d="M551 136V1174L635 1097L185 949L144 1055L708 1352H955V136L1210 66V0H279V66L551 136Z" />
<glyph unicode="2" horiz-adv-x="1342" d="M816 181L1140 534H1220L1117 -62H1059L936 0H138V63L477 429Q567 525 618 599T691 735T713 854Q713 950 659 1008T507 1067Q440 1067 387 1044T295 970T228 839L107 868Q163 1131 310 1256T679 1382Q811 1382 911 1334T1068
1198T1125 995Q1125 922 1102 858T1024 728T876 585T640 407L427 261L437 353H1155L816 181Z" />
<glyph unicode="3" horiz-adv-x="1342" d="M442 598L411 732Q540 766 608 803T702 884T728 982Q728 1050 683 1092T556 1135Q459 1135 395 1088T296 937L168 985Q202 1106 268 1195T437 1333T679 1382Q811 1382 895 1345T1021 1242T1062 1093Q1062 999 1009 928T866
818T670 774L701 790Q852 806 962 772T1132 660T1193 468Q1193 335 1112 222T872 40T479 -30Q347 -30 270 -7T159 58T126 154Q126 213 161 249T256 285Q290 285 319 267T375 224T432 173T493 129T566 111Q637 111 690 144T775 242T806 398Q806 485 768 539T661
612T496 609L442 598Z" />
<glyph unicode="4" horiz-adv-x="1342" d="M997 1352V119L1183 59V0H393V59L593 119V1149L718 1185L196 530L160 612H1101L1292 640L1238 362H50V557L659 1352H997Z" />
<glyph unicode="5" horiz-adv-x="1342" d="M477 -30Q345 -30 268 -7T157 58T124 154Q124 213 159 249T254 285Q288 285 317 267T373 224T430 173T491 129T564 111Q637 111 695 135T787 208T821 326Q821 372 798 410T713 478T533 532T225 569L446 1352H914L1204
1391L1080 1010H472L610 1220L436 811L398 893Q585 874 714 843T925 770T1051 678T1112 572T1129 456Q1129 353 1085 265T956 110T751 7T477 -30Z" />
<glyph unicode="6" horiz-adv-x="1342" d="M1082 1400L1137 1292Q985 1244 879 1191T703 1076T596 935T542 761T527 543Q527 386 547 293T607 161T699 121Q753 121 787 149T838 231T854 365Q854 509 812 569T689 630Q658 630 627 626T565 614T505 589T449 549L369
563Q477 650 547 704T667 787T761 827T859 838Q976 838 1064 791T1200 657T1249 448Q1249 292 1174 186T970 25T684 -30Q490 -30 365 41T178 240T117 532Q117 642 142 746T229 945T401 1123T678 1276T1082 1400Z" />
<glyph unicode="7" horiz-adv-x="1342" d="M196 1004L543 1176L217 803H133L236 1418H288L430 1352H1238V1316L782 0H377L1098 1228L1056 1004H196Z" />
<glyph unicode="8" horiz-adv-x="1342" d="M693 1382Q849 1382 951 1346T1105 1240T1156 1076Q1156 944 1045 877T721 786L664 805Q772 849 825 909T878 1056Q878 1110 856 1149T786 1211T664 1234Q557 1234 511 1189T464 1085Q464 1020 505 981T614 918T764 872T927
822T1076 745T1185 619T1227 420Q1227 276 1157 176T956 23T647 -30Q488 -30 369 9T183 124T117 312Q117 392 148 450T241 551T395 623T610 679L650 653Q548 615 493 572T418 477T398 358Q398 275 430 223T522 146T665 121Q749 121 804 142T887 204T915 305Q915
373 874 412T766 477T619 524T459 574T311 650T203 773T162 968Q162 1096 227 1189T412 1332T693 1382Z" />
<glyph unicode="9" horiz-adv-x="1342" d="M338 -48L283 60Q417 103 509 154T661 268T752 411T796 590T809 810Q809 968 789 1060T731 1191T638 1231Q585 1231 550 1204T499 1125T482 999Q482 898 501 837T557 750T649 723Q679 723 710 726T772 737T833 760T894
798L969 784Q861 700 791 647T670 565T575 525T476 514Q360 514 273 561T136 695T87 904Q87 1061 163 1167T367 1328T652 1382Q846 1382 972 1311T1159 1113T1220 821Q1220 710 1197 605T1118 404T961 224T708 71T338 -48Z" />
<glyph unicode=":" horiz-adv-x="580" d="M290 364Q378 364 434 308T491 170Q491 87 435 31T290 -25Q202 -25 146 31T90 170Q90 252 146 308T290 364ZM290 926Q378 926 434 870T491 732Q491 649 435 593T290 537Q202 537 146 593T90 732Q90 814 146 870T290 926Z" />
<glyph unicode=";" horiz-adv-x="581" d="M88 -303Q180 -221 216 -162T253 -54Q253 -7 228 25T170 82T111 127T86 170Q86 252 142 308T287 364Q384 364 435 307T487 145Q487 85 474 25T425 -99T327 -233T162 -384L88 -303ZM287 926Q375 926 431 870T487 732Q487
649 431 593T287 537Q199 537 143 593T86 732Q86 814 142 870T287 926Z" />
<glyph unicode="&lt;" horiz-adv-x="1023" d="M153 391V511L957 156V-28L50 382V518L957 928V746L153 391Z" />
<glyph unicode="=" horiz-adv-x="1023" d="M112 711H911V546H112V711ZM112 355H911V190H112V355Z" />
<glyph unicode="&gt;" horiz-adv-x="1023" d="M870 391L66 746V928L974 518V382L66 -28V156L870 511V391Z" />
<glyph unicode="?" horiz-adv-x="1082" d="M397 1382Q556 1382 670 1351T857 1262T964 1126T999 955Q999 843 952 768T797 654T512 614L593 780L550 506H444L346 886Q487 885 569 907T687 974T723 1080Q723 1123 706 1154T652 1202T556 1219Q503 1219 457 1198T368
1147T280 1097T186 1075Q148 1075 117 1093T68 1143T49 1216Q49 1263 82 1300T192 1360T397 1382ZM497 367Q586 367 642 313T699 176Q699 93 643 38T497 -17Q407 -17 351 38T295 176Q295 258 351 312T497 367Z" />
<glyph unicode="@" horiz-adv-x="1802" d="M1251 167Q1133 167 1061 208T986 353Q986 374 988 398T998 446L1034 569H1049Q984 446 929 369T827 251T732 193T635 177Q524 177 473 240T421 393Q420 474 445 560T517 727T626 872T763 974T919 1012Q992 1012 1047
979T1152 866L1102 789Q1090 821 1074 842T1014 863Q982 863 947 833T879 754T820 649T778 538T764 443Q764 411 774 400T809 388Q827 388 850 403T899 447T950 521T997 622L1097 878L1188 989H1447L1300 452Q1292 421 1288 399T1284 357Q1284 318 1301 303T1348
287Q1408 287 1470 343T1574 496T1616 719Q1616 845 1577 947T1463 1124T1276 1237T1018 1277Q847 1277 704 1221T456 1060T292 807T234 475Q234 346 273 234T395 36T613 -96T936 -144Q1030 -144 1127 -129T1322 -79T1519 12L1568 -81Q1475 -140 1371 -181T1150
-245T903 -267Q682 -267 523 -211T261 -54T109 181T60 474Q60 663 130 828T328 1118T631 1312T1016 1382Q1194 1382 1334 1338T1571 1209T1720 1007T1771 742Q1771 614 1735 509T1630 327T1466 209T1251 167Z" />
<glyph unicode="A" horiz-adv-x="1635" d="M355 406V562H1054V406H355ZM1506 124L1660 61V0H902V61L1062 119L666 1081H695L317 120L469 61V0H-22V61L133 119L641 1352H978L1506 124Z" />
<glyph unicode="B" horiz-adv-x="1502" d="M430 1194L447 1352H904Q1067 1352 1167 1311T1314 1197T1360 1034Q1360 907 1272 822T1031 723L1033 739Q1224 729 1333 631T1443 381Q1443 271 1388 185T1214 49T905 0H448L428 158H754Q835 158 892 183T979 264T1009
407Q1009 476 983 528T903 610T761 640H427L430 791H755Q842 791 892 843T942 1000Q942 1059 921 1103T854 1170T737 1194H430ZM65 0V61L208 121V1231L65 1291V1352H623V0H65Z" />
<glyph unicode="C" horiz-adv-x="1463" d="M981 140Q1038 140 1091 151T1215 192L1111 119L1317 452H1394L1343 46Q1236 7 1121 -11T870 -30Q675 -30 526 14T274 146T121 363T69 662Q69 874 168 1036T453 1290T902 1382Q972 1382 1043 1374T1205 1343L1107 1321L1244
1434H1312L1376 893L1282 879L1060 1241L1184 1105Q1106 1165 1030 1188T871 1212Q780 1212 710 1186T592 1105T519 965T494 763Q494 601 528 484T627 290T781 177T981 140Z" />
<glyph unicode="D" horiz-adv-x="1630" d="M1131 693Q1131 952 1028 1070T734 1188H441L399 1352H784Q1044 1352 1216 1282T1474 1070T1560 714Q1560 487 1460 328T1184 84T784 0H399L441 164H754Q870 164 954 218T1085 388T1131 693ZM65 0V61L208 121V1231L65
1291V1352H623V0H65Z" />
<glyph unicode="E" horiz-adv-x="1425" d="M1030 969V708V448H907L886 633H420V784H886L907 969H1030ZM1335 946L1249 932L1019 1273L1125 1194H420V1352H1076L1206 1432H1261L1335 946ZM1049 84L1304 471L1386 459L1293 -85H1230L1092 0H420V158H1132L1049 84ZM65
0V61L208 121V1231L65 1291V1352H623V0H65Z" />
<glyph unicode="F" horiz-adv-x="1319" d="M1014 924V660V396H891L869 585H420V736H869L891 924H1014ZM1179 1432H1234L1308 940L1222 927L992 1273L1099 1194H420V1352H1050L1179 1432ZM623 1352V121L766 61V0H65V61L208 121V1231L65 1291V1352H623Z" />
<glyph unicode="G" horiz-adv-x="1592" d="M1437 192L1491 111V75Q1396 40 1296 17T1087 -18T861 -30Q660 -30 511 16T264 152T117 370T68 662Q68 874 168 1036T458 1290T917 1382Q990 1382 1062 1374T1229 1343L1130 1321L1268 1434H1335L1399 893L1306 879L1083
1241L1208 1105Q1134 1161 1057 1186T886 1212Q790 1212 717 1186T594 1103T519 957T493 743Q493 536 549 403T704 206T933 142Q985 142 1029 150T1115 177T1194 222L1023 33V493L885 554V612H1572V554L1437 491V192Z" />
<glyph unicode="H" horiz-adv-x="1765" d="M623 121L766 61V0H65V61L208 121V1231L65 1291V1352H766V1291L623 1231V121ZM1557 121L1700 61V0H1000V61L1143 121V1231L1000 1291V1352H1700V1291L1557 1231V121ZM402 609V773H1364V609H402Z" />
<glyph unicode="I" horiz-adv-x="830" d="M766 61V0H65V61L208 121V1231L65 1291V1352H766V1291L623 1231V121L766 61Z" />
<glyph unicode="J" horiz-adv-x="1033" d="M860 479Q860 371 817 279T694 117T505 10T265 -28Q175 -28 116 -7T27 53T-2 146Q-2 196 29 232T110 268Q130 268 156 248T212 203T271 158T326 138Q388 138 416 183T445 338V1231L290 1291V1352H1003V1291L860 1231V479Z" />
<glyph unicode="K" horiz-adv-x="1663" d="M1560 126L1698 61V0H967V58L1069 102L723 619H478V782H767L1226 1239L1075 1292V1352H1584V1291L1442 1241L903 715L1014 912L1560 126ZM623 1231V121L756 61V0H65V61L208 121V1231L65 1291V1352H766V1291L623 1231Z" />
<glyph unicode="L" horiz-adv-x="1369" d="M1242 -94H1172L1024 0H420L423 164H1056L978 98L1263 510L1352 496L1242 -94ZM623 1231V0H65V61L208 121V1231L65 1291V1352H766V1291L623 1231Z" />
<glyph unicode="M" horiz-adv-x="2169" d="M1996 127L2149 61V0H1420V61L1572 112L1498 1109L1511 1107L1123 0H802L398 1108L411 1110L356 127L506 61V0H26V61L185 127L254 1216L87 1291V1352H753L1099 371H1079L1418 1352H2055V1291L1907 1229L1996 127Z" />
<glyph unicode="N" horiz-adv-x="1590" d="M212 121V1211L45 1297V1352H684L1333 369L1242 319V1232L1084 1291V1352H1540V1291L1397 1232V0H1072L296 1205L368 1241V121L525 61V0H69V61L212 121Z" />
<glyph unicode="O" horiz-adv-x="1614" d="M831 1382Q995 1382 1127 1334T1352 1193T1495 971T1545 678Q1545 518 1490 388T1334 164T1093 20T783 -30Q619 -30 487 19T262 160T119 382T69 674Q69 835 124 965T280 1189T520 1332T831 1382ZM815 149Q903 149 971
195T1078 342T1118 605Q1118 809 1079 941T968 1138T798 1203Q712 1203 644 1157T536 1011T496 748Q496 544 535 412T646 214T815 149Z" />
<glyph unicode="P" horiz-adv-x="1415" d="M989 940Q989 1019 963 1074T882 1159T738 1188H411L384 1352H850Q1044 1352 1163 1298T1338 1152T1393 943Q1393 829 1338 735T1164 586T856 531H378L411 692H754Q827 692 879 720T960 804T989 940ZM623 1352V121L766
61V0H65V61L208 121V1231L65 1291V1352H623Z" />
<glyph unicode="Q" horiz-adv-x="1613" d="M657 -201L321 103Q242 174 186 256T99 442T69 674Q69 835 124 965T280 1189T520 1332T831 1382Q995 1382 1127 1334T1352 1193T1495 971T1545 678Q1545 524 1488 397T1329 178T1090 41T792 3L765 80L1133 -130Q1208
-172 1263 -200T1365 -243T1464 -263T1580 -263V-372Q1538 -382 1490 -391T1379 -405T1226 -411Q1121 -411 1044 -402T906 -370T785 -306T657 -201ZM815 152Q903 152 971 198T1078 344T1118 605Q1118 809 1079 941T968 1138T798 1203Q712 1203 644 1157T536 1011T496
748Q496 545 535 413T646 217T815 152Z" />
<glyph unicode="R" horiz-adv-x="1548" d="M789 747Q887 747 944 802T1002 966Q1002 1037 979 1086T906 1162T775 1188H314L384 1352H938Q1107 1352 1209 1307T1358 1186T1405 1013Q1405 919 1360 844T1223 723T992 666V669Q1114 664 1178 640T1274 571T1322 455L1382
243Q1399 179 1418 150T1466 114T1537 106V-4Q1368 -17 1261 -13T1093 14T1001 84T957 199L909 430Q895 497 876 533T825 582T736 595H371L300 747H789ZM623 1352V121L761 61V0H65V61L208 121V1231L65 1291V1352H623Z" />
<glyph unicode="S" horiz-adv-x="1258" d="M1031 1304L865 1318L993 1434H1058L1132 946L1039 931L820 1244L911 1143Q859 1180 796 1200T663 1221Q541 1221 490 1185T438 1080Q438 1031 467 1000T548 946T663 905T796 866Q866 845 935 815T1063 737T1156 617T1191
438Q1191 283 1112 179T893 23T573 -30Q454 -30 359 -18T160 28L82 439H164L488 31L211 212Q294 171 361 155T508 138Q621 138 687 158T783 218T812 315Q812 374 777 411T684 472T558 513T423 552Q357 572 296 602T186 677T110 792T82 959Q82 1090 152 1185T352
1331T658 1382Q762 1382 849 1365T1031 1304Z" />
<glyph unicode="T" horiz-adv-x="1480" d="M526 1287H941V121L1084 61V0H383V61L526 121V1287ZM1260 1188H174L316 1248L123 905L29 917L78 1432H141L317 1321L181 1352H1253L1163 1321L1339 1432H1402L1451 917L1357 905L1164 1248L1260 1188Z" />
<glyph unicode="U" horiz-adv-x="1611" d="M1282 566V1232L1124 1291V1352H1580V1291L1437 1232V561Q1437 363 1368 232T1164 35T831 -30Q614 -30 468 32T248 221T174 544V1232L31 1291V1352H732V1291L589 1232V553Q589 445 626 373T739 263T928 226Q1041 226
1119 264T1240 377T1282 566Z" />
<glyph unicode="V" horiz-adv-x="1558" d="M126 1228L-28 1291V1352H741V1291L576 1233L948 272H912L1245 1232L1089 1291V1352H1572V1291L1425 1233L966 0H629L126 1228Z" />
<glyph unicode="W" horiz-adv-x="2224" d="M1167 1022L821 0H485L132 1229L-22 1291V1352H730V1291L574 1234L833 263L742 260L1092 1352H1410L1786 262L1692 255L1908 1233L1756 1291V1352H2236V1291L2089 1234L1768 0H1437L1077 1022H1167Z" />
<glyph unicode="X" horiz-adv-x="1625" d="M760 610L353 120L495 61V0H5V61L152 122L670 727L841 793L1200 1232L1060 1291V1352H1542V1291L1395 1230L930 680L760 610ZM994 122L671 566L628 611L162 1227L11 1291V1352H833V1291L676 1230L938 870L986 819L1509
125L1660 61V0H837V61L994 122Z" />
<glyph unicode="Y" horiz-adv-x="1552" d="M117 1231L-23 1291V1352H759V1291L602 1232L992 684L892 686L1226 1232L1079 1291V1352H1549V1291L1416 1232L1009 597V121L1152 61V0H451V61L594 121V596L117 1231Z" />
<glyph unicode="Z" horiz-adv-x="1362" d="M1256 1352V1253L515 80L305 164H1054L1264 448L1339 437L1259 -77H1203L1060 0H76V99L811 1273L1065 1188H353L136 901L61 914L141 1429H194L346 1352H1256Z" />
<glyph unicode="[" horiz-adv-x="655" d="M159 -244V1410H622V1290H406V-125H622V-244H159Z" />
<glyph unicode="\" horiz-adv-x="821" d="M779 0H610L42 1352H209L779 0Z" />
<glyph unicode="]" horiz-adv-x="655" d="M496 1410V-244H32V-125H249V1290H32V1410H496Z" />
<glyph unicode="^" horiz-adv-x="1023" d="M457 1246H565L272 602H94L437 1352H585L929 602H751L457 1246Z" />
<glyph unicode="_" horiz-adv-x="823" d="M0 -176H824V-312H0V-176Z" />
<glyph unicode="`" horiz-adv-x="1000" d="M562 1031H444L107 1311V1361H437L562 1031Z" />
<glyph unicode="a" horiz-adv-x="1064" d="M602 559V452Q536 439 495 423T433 387T404 344T396 294Q396 233 416 208T479 183Q505 183 525 196T556 231T567 281V671Q567 728 536 760T438 792Q405 792 378 789T330 778L360 860Q351 792 343 752T325 689T304 651Q288
627 255 613T176 599Q121 599 93 618T64 672Q64 720 106 766T223 849T391 908T589 931Q726 931 801 891T906 780T936 618V199Q936 176 942 161T960 140T992 133Q1009 133 1028 137T1071 155V71Q1012 29 943 0T809 -30Q729 -30 680 -1T608 81T581 207L594 210Q570
124 531 71T437 -6T312 -30Q192 -30 120 30T48 216Q48 274 71 321T153 409T322 487T602 559Z" />
<glyph unicode="b" horiz-adv-x="1197" d="M285 87H372L181 -25L84 -5L122 217V1134Q106 1154 85 1172T34 1209T-34 1247V1316L460 1440H513L491 1187V294Q491 237 504 195T545 131T613 108Q661 108 696 138T750 241T769 441Q769 542 749 607T688 704T590 735Q569
735 544 732T492 721T441 700L376 774Q434 812 485 840T584 889T674 920T759 931Q885 931 970 876T1099 723T1142 494Q1142 358 1097 259T978 96T813 1T632 -30Q565 -30 508 -20T397 16T285 87Z" />
<glyph unicode="c" horiz-adv-x="988" d="M639 931Q754 931 823 908T924 848T956 762Q956 720 935 688T879 639T807 621Q773 621 742 639T682 685T626 740T575 786T528 805Q489 805 457 783T407 708T389 566Q389 441 422 365T517 253T670 217Q742 217 799 231T917
280L953 204Q873 120 800 69T658 -6T523 -30Q377 -30 271 29T109 191T52 427Q52 533 91 625T205 785T390 892T639 931Z" />
<glyph unicode="d" horiz-adv-x="1219" d="M706 617Q706 698 677 747T588 796Q539 796 503 767T447 667T428 478Q428 368 449 299T510 198T607 166Q638 166 678 173T753 200V104Q693 64 647 38T565 -3T498 -24T438 -30Q312 -30 227 25T98 178T55 407Q55 537 100
635T222 798T395 897T593 931Q653 931 705 923T813 897T935 849H706V1142Q689 1162 667 1179T616 1213T550 1247V1316L1044 1440H1097L1075 1187V205Q1087 193 1102 180T1135 154T1172 131T1212 111V60L796 -30H753L706 146V617Z" />
<glyph unicode="e" horiz-adv-x="1018" d="M539 931Q674 931 765 879T906 725T967 477H296V582L785 607L632 543Q631 638 618 695T579 779T511 806Q477 806 450 785T406 706T390 533Q390 425 424 355T524 250T680 215Q729 215 770 220T850 239T931 277L964 202Q897
136 828 83T686 0T531 -30Q382 -30 275 30T111 195T53 435Q53 573 108 685T271 864T539 931Z" />
<glyph unicode="f" horiz-adv-x="846" d="M259 733L188 696L6 772V829L204 925L384 901H843L825 733H259ZM557 113L688 55V0H79V55L188 106V853Q188 1000 233 1110T361 1294T559 1403T813 1440Q891 1440 945 1429T1032 1397T1080 1350T1095 1289Q1095 1231 1055
1193T960 1155Q924 1155 893 1178T830 1231T764 1284T683 1307Q642 1307 615 1290T572 1237T557 1149V113Z" />
<glyph unicode="g" horiz-adv-x="1104" d="M502 -519Q372 -519 282 -504T135 -462T52 -397T26 -316Q26 -279 42 -249T102 -194T229 -147T447 -106H558L559 -124Q447 -138 391 -158T316 -204T297 -263Q297 -304 325 -334T413 -382T563 -399Q655 -399 716 -383T809
-338T840 -277Q840 -252 825 -234T770 -203T655 -181T458 -162Q337 -152 262 -130T146 -74T92 1T79 90Q83 188 155 246T378 320L416 274Q353 268 333 253T312 213Q312 192 324 179T370 158T469 144T643 134Q765 128 849 110T984 59T1059 -25T1082 -144Q1083 -254
1017 -338T821 -471T502 -519ZM505 257Q360 257 261 299T112 417T61 593Q61 700 116 775T273 891T507 931Q624 931 707 900T845 818T925 708T951 595Q951 488 895 413T739 297T505 257ZM513 375Q555 375 578 416T602 570Q602 709 574 762T500 815Q458 815 434 775T410
621Q410 481 438 428T513 375ZM654 844L640 914Q728 904 792 906T905 915T989 930T1055 937Q1089 937 1106 918T1124 851Q1124 778 1096 750T1034 722Q1000 722 969 746T899 798T801 843T654 844Z" />
<glyph unicode="h" horiz-adv-x="1250" d="M672 55L748 96V571Q748 610 737 633T700 666T632 677Q584 677 543 667T468 639L430 696Q507 775 563 822T664 892T749 923T833 931Q978 931 1048 849T1118 601V106L1228 55V0H672V55ZM606 0H30V55L139 106V1134Q123
1154 102 1172T51 1209T-17 1247V1316L478 1440H531L508 1187V104L606 55V0Z" />
<glyph unicode="i" horiz-adv-x="671" d="M345 1072Q251 1072 197 1124T143 1258Q143 1338 197 1389T345 1440Q440 1440 493 1389T547 1258Q547 1176 494 1124T345 1072ZM547 931L530 675V106L639 55V0H52V55L161 106V660Q146 681 126 700T83 736T34 770V823L474
931H547Z" />
<glyph unicode="j" horiz-adv-x="635" d="M331 1072Q238 1072 184 1124T130 1258Q130 1338 184 1389T331 1440Q426 1440 480 1389T534 1258Q534 1176 480 1124T331 1072ZM147 660Q132 681 113 700T70 736T21 770V823L461 931H534L517 675V58Q517 -19 508 -77T472
-185T391 -282T249 -387T29 -519L-28 -442Q34 -375 69 -330T121 -247T142 -169T147 -70V660Z" />
<glyph unicode="k" horiz-adv-x="1264" d="M642 466L818 687L1187 107L1286 52V0H727V52L783 87L576 432H365V571H599L874 800L753 843V901H1213V843L1069 797L642 466ZM508 102L600 55V0H30V55L139 106V1134Q123 1154 102 1172T51 1209T-17 1247V1316L478 1440H531L508
1187V102Z" />
<glyph unicode="l" horiz-adv-x="647" d="M508 106L617 55V0H30V55L139 106V1134Q123 1154 102 1172T51 1209T-17 1247V1316L478 1440H531L508 1187V106Z" />
<glyph unicode="m" horiz-adv-x="1831" d="M531 712V96L597 55V0H53V55L162 106V643Q137 679 107 704T34 753V806L409 931H457L531 712ZM1115 614V96L1181 55V0H680V55L746 96V588Q746 623 736 644T702 674T639 684Q595 684 558 676T489 650L453 705Q527 781 581
826T678 893T759 923T840 931Q934 931 994 896T1085 790T1115 614ZM1699 613V106L1809 55V0H1265V55L1330 96V588Q1330 623 1320 644T1286 674T1223 684Q1179 684 1142 676T1073 650L1037 705Q1111 781 1165 826T1262 893T1343 923T1424 931Q1564 931 1631 852T1699
613Z" />
<glyph unicode="n" horiz-adv-x="1273" d="M531 712V96L608 55V0H53V55L162 106V643Q137 679 107 704T34 753V806L409 931H457L531 712ZM694 55L771 96V571Q771 610 760 633T722 666T654 677Q607 677 566 667T491 639L453 696Q530 775 586 822T687 892T771 923T855
931Q1000 931 1070 849T1140 601V106L1251 55V0H694V55Z" />
<glyph unicode="o" horiz-adv-x="1126" d="M569 110Q609 110 637 136T680 226T695 402Q695 532 681 618T636 748T557 791Q518 791 490 765T446 675T431 499Q431 369 445 283T489 153T569 110ZM551 -30Q393 -30 282 28T112 191T53 437Q53 584 117 695T299 868T575
931Q733 931 844 873T1014 711T1073 464Q1073 318 1008 206T826 32T551 -30Z" />
<glyph unicode="p" horiz-adv-x="1221" d="M794 435Q794 588 747 658T614 729Q593 729 568 726T516 715T466 693L433 774Q490 811 538 839T629 888T712 920T791 931Q913 931 996 875T1123 721T1166 502Q1166 332 1098 213T916 32T667 -30Q605 -30 553 -17T451
23T348 86H516V-376L647 -434V-489H38V-434L146 -383V652Q132 671 113 689T70 726T19 762V815L419 939H467L516 790V295Q516 237 529 195T569 131T638 108Q686 108 721 138T775 239T794 435Z" />
<glyph unicode="q" horiz-adv-x="1195" d="M428 478Q428 368 449 299T510 198T607 166Q638 166 678 173T753 199V104Q693 64 647 38T565 -3T498 -24T438 -30Q312 -30 227 25T98 178T55 407Q55 576 130 693T331 870T604 931Q667 931 721 923T833 896T958 845L851
849L1072 932L1114 905L1075 695V-383L1184 -434V-489H574V-434L706 -376V614Q706 697 677 746T588 796Q539 796 503 767T447 668T428 478Z" />
<glyph unicode="r" horiz-adv-x="959" d="M810 920Q885 920 916 877T947 776Q947 692 899 651T802 609Q747 609 713 616T650 631T580 639Q556 639 537 635T499 620T460 593L435 655Q493 728 542 778T635 860T723 905T810 920ZM531 712V114L661 55V0H53V55L162
106V643Q145 668 126 687T84 722T35 753V806L433 931H481L531 712Z" />
<glyph unicode="s" horiz-adv-x="898" d="M481 931Q576 931 641 919T776 882L786 635H696L558 873L655 781Q615 801 573 811T496 821Q420 821 384 799T347 735Q347 707 361 686T422 643T569 596Q644 577 696 549T782 484T830 400T846 296Q846 187 790 115T635
7T403 -30Q316 -30 235 -18T92 19L67 287H147L305 23L153 116Q186 105 221 98T292 88T360 85Q449 85 497 111T545 195Q545 218 536 236T501 270T431 301T313 336Q217 360 164 402T89 500T67 620Q67 722 123 791T273 895T481 931Z" />
<glyph unicode="t" horiz-adv-x="868" d="M520 300Q520 248 559 220T679 191Q718 191 766 199T872 226V143Q786 83 715 45T585 -12T479 -30Q381 -30 308 0T193 96T152 265V688L-2 812V874Q28 892 69 916T157 968T253 1024T346 1079T426 1126H520V881V300ZM367
733L368 901H834L815 733H367Z" />
<glyph unicode="u" horiz-adv-x="1237" d="M507 321Q507 285 518 264T554 234T615 224Q659 224 697 232T767 259L804 197Q729 122 675 76T578 8T496 -22T414 -30Q275 -30 207 50T139 289V741L15 814V877L523 919L507 769V321ZM755 -22L716 194V758L642 817V881L1101
917L1086 758V205Q1098 193 1113 180T1146 154T1183 131T1223 111V60L798 -22H755Z" />
<glyph unicode="v" horiz-adv-x="1165" d="M1060 801L729 0H454L96 793L-19 843V901H599V841L497 807L764 162L660 159L895 802L798 841V901H1154V841L1060 801Z" />
<glyph unicode="w" horiz-adv-x="1671" d="M1410 808L1319 841V901H1662V841L1571 806L1339 0H1060L797 649L882 694L625 0H344L101 793L-14 843V901H577V841L478 807L638 213L569 216L811 901H1087L1344 205L1271 206L1410 808Z" />
<glyph unicode="x" horiz-adv-x="1137" d="M1069 101L1158 55V0H584V55L653 86L457 346L438 373L95 800L6 845V901H589V845L511 815L690 577L715 548L1069 101ZM566 437L292 91L404 55V0H3V55L115 95L458 490L569 492L814 810L705 845V901H1096V845L988 806L677
439L566 437Z" />
<glyph unicode="y" horiz-adv-x="1187" d="M788 207L599 -170L100 792L-18 843V901H607V841L506 807L788 207ZM282 -519Q198 -519 149 -479T99 -366Q99 -327 115 -299T152 -254T189 -238Q207 -238 229 -245T282 -259T357 -267Q400 -267 431 -256T490 -213T547
-124L652 81L704 188L923 809L834 841V901H1189V841L1095 806L678 -171Q618 -313 561 -388T438 -491T282 -519Z" />
<glyph unicode="z" horiz-adv-x="999" d="M62 0V71L562 857L752 783L130 756L293 871L128 580H39L98 931H138L234 901H928V829L422 42L226 116L812 147L687 45L903 342H985L900 0H62Z" />
<glyph unicode="{" horiz-adv-x="647" d="M40 528V636L90 639Q159 644 183 672T207 768Q207 821 192 885T162 1016T146 1139Q146 1214 183 1275T295 1376T479 1428L595 1440L607 1333L551 1325Q481 1316 451 1275T420 1159Q420 1088 428 1002T437 815Q437 717
387 656T224 571V594Q337 571 387 509T437 349Q437 250 429 163T420 5Q420 -69 450 -109T551 -161L607 -169L595 -275L479 -264Q370 -252 296 -212T184 -110T146 25Q146 82 161 148T192 279T207 396Q207 466 183 494T90 525L40 528Z" />
<glyph unicode="|" horiz-adv-x="477" d="M160 -519V1481H317V-519H160Z" />
<glyph unicode="}" horiz-adv-x="647" d="M607 636V528L557 525Q489 522 465 494T441 396Q441 344 456 279T486 148T501 25Q501 -49 464 -110T352 -211T168 -264L52 -275L40 -169L96 -161Q166 -150 196 -110T227 5Q227 76 219 163T210 349Q210 447 260 509T423
594V571Q311 594 261 655T210 815Q210 915 218 1001T227 1159Q227 1234 197 1275T96 1325L40 1333L52 1440L168 1428Q278 1417 352 1377T463 1275T501 1139Q501 1083 486 1017T456 886T441 768Q441 700 465 672T557 639L607 636Z" />
<glyph unicode="~" horiz-adv-x="1023" d="M111 309Q111 410 136 474T213 568T343 599Q404 599 449 579T530 533T598 486T663 466Q706 466 725 491T747 591H913Q913 491 888 427T811 332T680 301Q620 301 575 321T494 368T426 415T361 435Q319 435 299 410T277 309H111Z" />
<glyph unicode="&#xa0;" horiz-adv-x="410" />
<glyph unicode="&#xa1;" horiz-adv-x="589" d="M64 -346V-319Q65 -298 70 -270T86 -204T112 -114T146 8T190 170T241 380H349Q377 263 400 171T443 9T478 -113T503 -204T519 -270T525 -319L526 -346Q527 -394 497 -426T415 -474T295 -490Q227 -490 175 -474T93
-426T64 -346ZM293 532Q203 532 147 586T91 723Q91 806 147 861T293 916Q383 916 439 861T495 723Q495 641 439 587T293 532Z" />
<glyph unicode="&#xa2;" horiz-adv-x="1342" d="M461 0L915 1352H1030L576 0H461ZM808 1148Q922 1148 991 1126T1092 1065T1124 980Q1124 937 1103 905T1048 856T975 838Q942 838 911 856T850 902T794 957T743 1003T696 1022Q656 1022 625 1000T576 925T558 783Q558
658 590 582T686 470T838 435Q910 435 967 448T1086 497L1122 421Q1041 338 968 286T827 211T692 187Q545 187 440 246T277 408T220 644Q220 750 259 842T374 1003T558 1110T808 1148Z" />
<glyph unicode="&#xa3;" horiz-adv-x="1342" d="M1063 889Q1032 994 971 1040T827 1087Q731 1087 675 1040T619 907Q619 876 626 846T645 786T667 727T685 671T693 616Q693 560 670 507T587 395T415 260L445 353H1213L873 181L1198 534H1278L1174 -62H1115L992
0H149V57Q234 139 287 197T368 296T407 369T418 431Q418 496 394 545T333 637T261 729T200 838T177 986Q177 1065 212 1136T314 1263T482 1350T714 1382Q848 1382 946 1329T1108 1174T1194 920L1063 889ZM1026 740V616H63V740H1026Z" />
<glyph unicode="&#xa4;" horiz-adv-x="945" d="M210 826L358 678L244 565L97 712L210 826ZM97 188L245 336L358 222L210 74L97 188ZM472 765Q566 765 637 725T749 614T789 450Q789 358 749 287T638 176T472 136Q379 136 308 176T196 287T156 450Q156 543 196 614T307
725T472 765ZM472 280Q547 280 593 327T640 450Q640 527 594 574T472 621Q398 621 352 574T305 450Q305 374 351 327T472 280ZM848 712L699 564L586 677L735 826L848 712ZM848 188L735 74L589 220L703 333L848 188Z" />
<glyph unicode="&#xa5;" horiz-adv-x="1342" d="M1460 589V465H445V589H1460ZM1460 896V772H445V896H1460ZM1155 876V119L1341 59V0H561V59L750 119V877L327 1231L188 1291V1352H933V1291L813 1246L1117 961L1064 960L1359 1249L1234 1291V1352H1657V1291L1528
1241L1155 876Z" />
<glyph unicode="&#xa6;" horiz-adv-x="477" d="M317 725H160V1481H317V725ZM160 -519V345H317V-519H160Z" />
<glyph unicode="&#xa7;" horiz-adv-x="1292" d="M561 -279Q423 -279 342 -254T224 -188T187 -95Q187 -40 222 -9T313 22Q354 22 384 -4T447 -64T524 -124T636 -150Q729 -150 765 -124T802 -54Q802 -5 763 24T660 73T519 108T365 148T224 210T120 309T81 463Q81
595 168 675T414 785L511 723Q447 704 418 677T388 606Q388 558 426 529T528 480T668 442T820 400T959 338T1061 239T1100 87Q1100 -16 1045 -99T870 -230T561 -279ZM904 498Q904 546 866 575T764 624T624 662T472 704T333 766T231 865T192 1017Q192 1121 247 1203T422
1334T731 1382Q869 1382 950 1358T1068 1292T1105 1199Q1105 1145 1070 1114T979 1082Q939 1082 908 1108T845 1168T768 1228T656 1254Q563 1254 527 1227T490 1158Q490 1108 529 1079T632 1031T774 996T927 956T1068 894T1172 795T1211 641Q1211 509 1125 429T878
319L782 381Q845 400 874 427T904 498Z" />
<glyph unicode="&#xa8;" horiz-adv-x="1000" d="M281 1053Q212 1053 172 1094T131 1196Q131 1258 171 1298T281 1339Q349 1339 389 1299T429 1196Q429 1135 389 1094T281 1053ZM720 1053Q652 1053 612 1094T571 1196Q571 1258 611 1298T720 1339Q789 1339 829
1299T869 1196Q869 1135 829 1094T720 1053Z" />
<glyph unicode="&#xa9;" horiz-adv-x="1627" d="M812 1382Q971 1382 1102 1331T1328 1186T1475 963T1527 675Q1527 517 1476 388T1329 165T1102 21T812 -30Q654 -30 524 20T298 164T152 387T100 675Q100 833 151 962T298 1186T523 1331T812 1382ZM812 1275Q639
1275 506 1200T297 990T221 675Q221 496 296 362T505 153T812 77Q987 77 1121 152T1330 362T1405 675Q1405 855 1330 989T1121 1199T812 1275ZM937 380Q967 380 993 388T1047 412L964 344L1112 544H1169L1117 317Q1057 302 1004 295T881 288Q737 288 635 332T479
465T424 683Q424 800 478 888T636 1025T884 1075Q928 1075 966 1070T1058 1050L989 1033L1067 1099H1113L1146 790L1088 780L962 1003L1023 931Q991 957 957 968T885 980Q817 980 776 923T734 718Q734 612 760 537T832 421T937 380Z" />
<glyph unicode="&#xaa;" horiz-adv-x="950" d="M129 438V581H857V438H129ZM509 1020Q464 1011 436 1001T392 979T371 953T365 920Q365 878 379 862T419 845Q448 845 465 865T482 913V1176Q482 1216 459 1238T387 1260Q363 1260 343 1258T306 1250L328 1323Q321
1263 310 1228T281 1171Q265 1151 244 1143T190 1135Q150 1135 129 1148T107 1188Q107 1236 164 1278T312 1347T501 1374Q612 1374 671 1346T751 1266T773 1149V845Q773 826 782 816T810 806Q821 806 833 808T861 814V747Q815 715 763 698T665 680Q574 680 535
735T493 868L502 869Q483 776 427 728T292 680Q202 680 148 723T94 858Q94 901 112 936T176 1002T302 1058T509 1110V1020Z" />
<glyph unicode="&#xab;" horiz-adv-x="1119" d="M336 510L570 66L485 -5L45 387V514L485 906L570 835L336 391V510ZM824 510L1058 66L973 -5L533 387V514L973 906L1058 835L824 391V510Z" />
<glyph unicode="&#xac;" horiz-adv-x="1023" d="M102 706H906V542H102V706ZM906 653V195H741V653H906Z" />
<glyph unicode="&#xad;" horiz-adv-x="745" d="M103 567H642V352H103V567Z" />
<glyph unicode="&#xae;" horiz-adv-x="1111" d="M553 1382Q687 1382 790 1326T953 1170T1013 937Q1013 805 954 705T791 548T553 491Q420 491 318 547T157 704T98 937Q98 1070 156 1170T317 1326T553 1382ZM553 1292Q447 1292 367 1248T243 1125T198 937Q198 832
242 752T367 627T553 582Q660 582 741 627T867 752T913 937Q913 1045 868 1124T741 1248T553 1292ZM469 972H575Q607 972 622 990T637 1044Q637 1078 623 1092T583 1106H484L469 1173H626Q712 1173 747 1143T782 1066Q782 1019 748 986T645 952V953Q699 951 726
930T760 862L767 803Q772 775 780 767T807 759V721Q730 714 691 718T636 744T614 810L607 864Q605 886 594 897T550 908H470L469 972ZM374 1119L327 1138V1173H525V776L568 756V721H327V756L374 776V1119Z" />
<glyph unicode="&#xaf;" horiz-adv-x="1000" d="M206 1120V1272H794V1120H206Z" />
<glyph unicode="&#xb0;" horiz-adv-x="736" d="M368 1372Q504 1372 590 1286T677 1065Q677 930 590 844T368 758Q233 758 146 844T59 1065Q59 1201 146 1286T368 1372ZM368 867Q453 867 507 922T562 1065Q562 1155 508 1209T368 1263Q283 1263 228 1209T173 1065Q173
976 228 922T368 867Z" />
<glyph unicode="&#xb1;" horiz-adv-x="1023" d="M429 901H594V102H429V901ZM112 584H911V419H112V584ZM112 165H911V0H112V165Z" />
<glyph unicode="&#xb2;" horiz-adv-x="769" d="M487 700L685 919H733L670 571H639L562 604H62V685L237 846Q296 899 328 938T374 1012T388 1079Q388 1123 358 1150T275 1177Q220 1177 185 1146T126 1046L41 1074Q82 1231 166 1302T385 1373Q514 1373 588 1317T662
1159Q662 1105 637 1057T547 954T364 826L254 757L251 817H693L487 700Z" />
<glyph unicode="&#xb3;" horiz-adv-x="732" d="M280 584Q138 584 86 621T33 703Q33 737 54 759T115 782Q141 782 162 767T203 731T249 696T313 680Q367 680 401 715T436 823Q436 872 418 899T362 934T264 928L228 920L209 998Q313 1027 345 1057T377 1136Q377
1169 355 1191T290 1214Q236 1214 199 1184T140 1100L61 1128Q102 1252 175 1315T389 1379Q504 1379 559 1335T614 1222Q614 1147 550 1097T380 1041L390 1046Q491 1068 559 1048T661 980T695 870Q695 791 649 726T510 623T280 584Z" />
<glyph unicode="&#xb4;" horiz-adv-x="1000" d="M438 1031L563 1361H893V1311L556 1031H438Z" />
<glyph unicode="&#xb5;" horiz-adv-x="1277" d="M152 901H520V321Q520 285 531 264T567 234T628 224Q672 224 710 232T779 259L817 197Q748 124 697 79T606 12T534 -19T473 -27Q414 -27 369 -9T296 54T254 177H269L420 -478L209 -510H152V901ZM1098 199Q1098 176
1104 161T1123 140T1155 133Q1171 133 1191 137T1234 155V71Q1174 29 1104 0T970 -30Q841 -30 785 40T729 226V901H1098V199Z" />
<glyph unicode="&#xb6;" horiz-adv-x="1342" d="M733 1352V594H477Q329 594 235 641T95 772T50 966Q50 1073 94 1161T233 1300T477 1352H733ZM803 -244H656V1352H995V1225H803V-244ZM1104 -244H957V1352H1281V1288L1104 1233V-244Z" />
<glyph unicode="&#xb7;" horiz-adv-x="556" d="M278 655Q366 655 422 599T479 459Q479 375 423 319T278 262Q190 262 134 318T78 459Q78 542 134 598T278 655Z" />
<glyph unicode="&#xb8;" horiz-adv-x="1000" d="M389 -519Q306 -519 268 -491T229 -425Q229 -397 244 -378T289 -359Q315 -359 337 -376T383 -411T443 -429Q481 -429 504 -412T527 -363Q527 -341 511 -322T447 -284T298 -246V-230L492 49H602L415 -216L421 -89Q529
-112 586 -141T664 -206T685 -286Q685 -347 650 -400T548 -486T389 -519Z" />
<glyph unicode="&#xb9;" horiz-adv-x="611" d="M217 687V1290L275 1194L40 1126L15 1198L309 1352H476V687L582 654V604H102V654L217 687Z" />
<glyph unicode="&#xba;" horiz-adv-x="976" d="M124 438V581H852V438H124ZM492 800Q539 800 565 840T591 994Q591 1124 566 1189T483 1254Q437 1254 410 1214T383 1059Q383 930 408 865T492 800ZM479 680Q354 680 268 721T136 838T91 1017Q91 1124 141 1204T282
1329T497 1374Q621 1374 707 1333T839 1216T885 1037Q885 930 835 850T694 725T479 680Z" />
<glyph unicode="&#xbb;" horiz-adv-x="1163" d="M310 392L76 835L161 907L601 515V388L161 -4L76 67L310 510V392ZM799 392L565 835L650 907L1089 515V388L650 -4L565 67L799 510V392Z" />
<glyph unicode="&#xbc;" horiz-adv-x="1693" d="M254 687V1290L312 1194L77 1126L52 1198L346 1352H513V687L619 654V604H139V654L254 687ZM298 0L1242 1352H1393L449 0H298ZM1183 635L1238 655L937 295L917 357H1519L1644 373L1609 202H845V310L1205 748H1442V83L1548
50V0H1068V50L1183 83V635Z" />
<glyph unicode="&#xbd;" horiz-adv-x="1702" d="M296 0L1240 1352H1391L447 0H296ZM1397 96L1595 315H1643L1580 -33H1549L1472 0H972V81L1147 242Q1206 295 1238 334T1284 408T1298 475Q1298 519 1268 546T1185 573Q1130 573 1095 542T1036 442L951 470Q992 627
1076 698T1295 769Q1424 769 1498 713T1572 555Q1572 501 1547 453T1457 350T1274 222L1164 153L1161 213H1603L1397 96ZM252 687V1290L310 1194L75 1126L50 1198L344 1352H511V687L617 654V604H137V654L252 687Z" />
<glyph unicode="&#xbe;" horiz-adv-x="1709" d="M314 0L1258 1352H1409L465 0H314ZM313 584Q171 584 119 621T66 703Q66 737 87 759T148 782Q174 782 195 767T236 731T282 696T346 680Q400 680 434 715T469 823Q469 872 451 899T395 934T297 928L261 920L242 998Q346
1027 378 1057T410 1136Q410 1169 388 1191T323 1214Q269 1214 232 1184T173 1100L94 1128Q135 1252 208 1315T422 1379Q537 1379 592 1335T647 1222Q647 1147 583 1097T413 1041L423 1046Q524 1068 592 1048T694 980T728 870Q728 791 682 726T543 623T313 584ZM1199
635L1254 655L953 295L933 357H1535L1660 373L1625 202H861V310L1221 748H1458V83L1564 50V0H1084V50L1199 83V635Z" />
<glyph unicode="&#xbf;" horiz-adv-x="1101" d="M722 -483Q563 -483 449 -452T262 -363T154 -227T119 -56Q119 56 166 131T321 245T607 285L525 119L568 393H675L772 13Q632 15 550 -8T431 -74T395 -181Q395 -223 412 -254T467 -303T562 -320Q615 -320 661 -299T751
-248T839 -198T933 -176Q972 -176 1002 -194T1051 -243T1069 -317Q1069 -364 1036 -401T927 -461T722 -483ZM622 532Q532 532 476 586T420 723Q420 806 476 861T622 916Q712 916 768 861T824 723Q824 641 768 587T622 532Z" />
<glyph unicode="&#xc0;" horiz-adv-x="1635" d="M355 406V562H1054V406H355ZM1506 124L1660 61V0H902V61L1062 119L666 1081H695L317 120L469 61V0H-22V61L133 119L641 1352H978L1506 124ZM853 1487H719L398 1694V1742H736L853 1487Z" />
<glyph unicode="&#xc1;" horiz-adv-x="1635" d="M355 406V562H1054V406H355ZM1506 124L1660 61V0H902V61L1062 119L666 1081H695L317 120L469 61V0H-22V61L133 119L641 1352H978L1506 124ZM729 1487L846 1742H1184V1694L863 1487H729Z" />
<glyph unicode="&#xc2;" horiz-adv-x="1635" d="M355 406V562H1054V406H355ZM1506 124L1660 61V0H902V61L1062 119L666 1081H695L317 120L469 61V0H-22V61L133 119L641 1352H978L1506 124ZM758 1614H824L611 1487H436L654 1742H928L1146 1487H971L758 1614Z" />
<glyph unicode="&#xc3;" horiz-adv-x="1635" d="M355 406V562H1054V406H355ZM1506 124L1660 61V0H902V61L1062 119L666 1081H695L317 120L469 61V0H-22V61L133 119L641 1352H978L1506 124ZM1122 1742Q1100 1634 1072 1578T1006 1502T916 1481Q876 1481 844 1493T784
1522T730 1551T677 1564Q653 1564 637 1558T610 1536T588 1487H460Q483 1595 511 1651T577 1728T666 1748Q706 1748 738 1736T798 1707T852 1678T905 1665Q929 1665 945 1671T973 1694T994 1742H1122Z" />
<glyph unicode="&#xc4;" horiz-adv-x="1635" d="M355 406V562H1054V406H355ZM1506 124L1660 61V0H902V61L1062 119L666 1081H695L317 120L469 61V0H-22V61L133 119L641 1352H978L1506 124ZM546 1472Q478 1472 438 1512T397 1614Q397 1677 437 1717T546 1758Q615
1758 655 1718T695 1614Q695 1553 655 1513T546 1472ZM1036 1472Q968 1472 928 1512T887 1614Q887 1677 927 1717T1036 1758Q1105 1758 1145 1718T1185 1614Q1185 1553 1145 1513T1036 1472Z" />
<glyph unicode="&#xc5;" horiz-adv-x="1635" d="M355 406V562H1054V406H355ZM1506 124L1660 61V0H902V61L1062 119L666 1081H695L317 120L469 61V0H-22V61L133 119L641 1352H978L1506 124ZM790 1806Q874 1806 929 1753T984 1616Q984 1534 929 1480T790 1425Q707
1425 652 1479T597 1616Q597 1699 652 1752T790 1806ZM790 1499Q840 1499 873 1531T906 1616Q906 1670 873 1703T790 1736Q740 1736 708 1703T675 1616Q675 1564 707 1532T790 1499Z" />
<glyph unicode="&#xc6;" horiz-adv-x="2204" d="M462 410V566H1088V410H462ZM896 1352H1014V1235L317 120L469 61V0H-33V61L131 119L896 1352ZM624 1291V1352H978L875 1186L624 1291ZM1810 969V708V448H1687L1665 633H1200V784H1665L1687 969H1810ZM2114 946L2028
932L1798 1273L1905 1194H1200V1352H1856L1985 1432H2040L2114 946ZM1829 84L2083 471L2166 459L2073 -85H2010L1871 0H1200V158H1912L1829 84ZM844 0V61L987 121V1352H1402V0H844Z" />
<glyph unicode="&#xc7;" horiz-adv-x="1463" d="M981 140Q1038 140 1091 151T1215 192L1111 119L1317 452H1394L1343 46Q1236 7 1121 -11T870 -30Q675 -30 526 14T274 146T121 363T69 662Q69 874 168 1036T453 1290T902 1382Q972 1382 1043 1374T1205 1343L1107
1321L1244 1434H1312L1376 893L1282 879L1060 1241L1184 1105Q1106 1165 1030 1188T871 1212Q780 1212 710 1186T592 1105T519 965T494 763Q494 601 528 484T627 290T781 177T981 140ZM729 -519Q647 -519 609 -491T570 -425Q570 -397 585 -378T630 -359Q656 -359
678 -376T724 -411T784 -429Q822 -429 845 -412T868 -363Q868 -341 852 -322T788 -284T639 -246V-230L833 49H943L756 -216L762 -89Q870 -112 927 -141T1005 -206T1026 -286Q1026 -347 991 -400T889 -486T729 -519Z" />
<glyph unicode="&#xc8;" horiz-adv-x="1425" d="M1030 969V708V448H907L886 633H420V784H886L907 969H1030ZM1335 946L1249 932L1019 1273L1125 1194H420V1352H1076L1206 1432H1261L1335 946ZM1049 84L1304 471L1386 459L1293 -85H1230L1092 0H420V158H1132L1049
84ZM65 0V61L208 121V1231L65 1291V1352H623V0H65ZM771 1487H637L316 1694V1742H654L771 1487Z" />
<glyph unicode="&#xc9;" horiz-adv-x="1425" d="M1030 969V708V448H907L886 633H420V784H886L907 969H1030ZM1335 946L1249 932L1019 1273L1125 1194H420V1352H1076L1206 1432H1261L1335 946ZM1049 84L1304 471L1386 459L1293 -85H1230L1092 0H420V158H1132L1049
84ZM65 0V61L208 121V1231L65 1291V1352H623V0H65ZM647 1487L764 1742H1102V1694L781 1487H647Z" />
<glyph unicode="&#xca;" horiz-adv-x="1425" d="M1030 969V708V448H907L886 633H420V784H886L907 969H1030ZM1335 946L1249 932L1019 1273L1125 1194H420V1352H1076L1206 1432H1261L1335 946ZM1049 84L1304 471L1386 459L1293 -85H1230L1092 0H420V158H1132L1049
84ZM65 0V61L208 121V1231L65 1291V1352H623V0H65ZM676 1614H742L529 1487H354L572 1742H846L1064 1487H889L676 1614Z" />
<glyph unicode="&#xcb;" horiz-adv-x="1425" d="M1030 969V708V448H907L886 633H420V784H886L907 969H1030ZM1335 946L1249 932L1019 1273L1125 1194H420V1352H1076L1206 1432H1261L1335 946ZM1049 84L1304 471L1386 459L1293 -85H1230L1092 0H420V158H1132L1049
84ZM65 0V61L208 121V1231L65 1291V1352H623V0H65ZM464 1472Q396 1472 356 1512T315 1614Q315 1677 355 1717T464 1758Q533 1758 573 1718T613 1614Q613 1553 573 1513T464 1472ZM954 1472Q886 1472 846 1512T805 1614Q805 1677 845 1717T954 1758Q1023 1758 1063
1718T1103 1614Q1103 1553 1063 1513T954 1472Z" />
<glyph unicode="&#xcc;" horiz-adv-x="830" d="M766 61V0H65V61L208 121V1231L65 1291V1352H766V1291L623 1231V121L766 61ZM477 1487H343L22 1694V1742H360L477 1487Z" />
<glyph unicode="&#xcd;" horiz-adv-x="830" d="M766 61V0H65V61L208 121V1231L65 1291V1352H766V1291L623 1231V121L766 61ZM353 1487L470 1742H808V1694L487 1487H353Z" />
<glyph unicode="&#xce;" horiz-adv-x="830" d="M766 61V0H65V61L208 121V1231L65 1291V1352H766V1291L623 1231V121L766 61ZM382 1614H448L235 1487H60L278 1742H552L770 1487H595L382 1614Z" />
<glyph unicode="&#xcf;" horiz-adv-x="830" d="M766 61V0H65V61L208 121V1231L65 1291V1352H766V1291L623 1231V121L766 61ZM170 1472Q102 1472 62 1512T21 1614Q21 1677 61 1717T170 1758Q239 1758 279 1718T319 1614Q319 1553 279 1513T170 1472ZM660 1472Q592
1472 552 1512T511 1614Q511 1677 551 1717T660 1758Q729 1758 769 1718T809 1614Q809 1553 769 1513T660 1472Z" />
<glyph unicode="&#xd0;" horiz-adv-x="1634" d="M69 613V758H866V613H69ZM1135 693Q1135 952 1032 1070T738 1188H445L403 1352H788Q1048 1352 1220 1282T1478 1070T1564 714Q1564 487 1464 328T1188 84T788 0H403L445 164H758Q874 164 958 218T1089 388T1135
693ZM69 0V61L212 121V1231L69 1291V1352H627V0H69Z" />
<glyph unicode="&#xd1;" horiz-adv-x="1590" d="M212 121V1211L45 1297V1352H684L1333 369L1242 319V1232L1084 1291V1352H1540V1291L1397 1232V0H1072L296 1205L368 1241V121L525 61V0H69V61L212 121ZM1162 1742Q1140 1634 1112 1578T1046 1502T956 1481Q916
1481 884 1493T824 1522T770 1551T717 1564Q693 1564 677 1558T650 1536T628 1487H500Q523 1595 551 1651T617 1728T706 1748Q746 1748 778 1736T838 1707T892 1678T945 1665Q969 1665 985 1671T1013 1694T1034 1742H1162Z" />
<glyph unicode="&#xd2;" horiz-adv-x="1614" d="M831 1382Q995 1382 1127 1334T1352 1193T1495 971T1545 678Q1545 518 1490 388T1334 164T1093 20T783 -30Q619 -30 487 19T262 160T119 382T69 674Q69 835 124 965T280 1189T520 1332T831 1382ZM815 149Q903 149
971 195T1078 342T1118 605Q1118 809 1079 941T968 1138T798 1203Q712 1203 644 1157T536 1011T496 748Q496 544 535 412T646 214T815 149ZM869 1487H735L414 1694V1742H752L869 1487Z" />
<glyph unicode="&#xd3;" horiz-adv-x="1614" d="M831 1382Q995 1382 1127 1334T1352 1193T1495 971T1545 678Q1545 518 1490 388T1334 164T1093 20T783 -30Q619 -30 487 19T262 160T119 382T69 674Q69 835 124 965T280 1189T520 1332T831 1382ZM815 149Q903 149
971 195T1078 342T1118 605Q1118 809 1079 941T968 1138T798 1203Q712 1203 644 1157T536 1011T496 748Q496 544 535 412T646 214T815 149ZM745 1487L862 1742H1200V1694L879 1487H745Z" />
<glyph unicode="&#xd4;" horiz-adv-x="1614" d="M831 1382Q995 1382 1127 1334T1352 1193T1495 971T1545 678Q1545 518 1490 388T1334 164T1093 20T783 -30Q619 -30 487 19T262 160T119 382T69 674Q69 835 124 965T280 1189T520 1332T831 1382ZM815 149Q903 149
971 195T1078 342T1118 605Q1118 809 1079 941T968 1138T798 1203Q712 1203 644 1157T536 1011T496 748Q496 544 535 412T646 214T815 149ZM774 1614H840L627 1487H452L670 1742H944L1162 1487H987L774 1614Z" />
<glyph unicode="&#xd5;" horiz-adv-x="1614" d="M831 1382Q995 1382 1127 1334T1352 1193T1495 971T1545 678Q1545 518 1490 388T1334 164T1093 20T783 -30Q619 -30 487 19T262 160T119 382T69 674Q69 835 124 965T280 1189T520 1332T831 1382ZM815 149Q903 149
971 195T1078 342T1118 605Q1118 809 1079 941T968 1138T798 1203Q712 1203 644 1157T536 1011T496 748Q496 544 535 412T646 214T815 149ZM1138 1742Q1116 1634 1088 1578T1022 1502T932 1481Q892 1481 860 1493T800 1522T746 1551T693 1564Q669 1564 653 1558T626
1536T604 1487H476Q499 1595 527 1651T593 1728T682 1748Q722 1748 754 1736T814 1707T868 1678T921 1665Q945 1665 961 1671T989 1694T1010 1742H1138Z" />
<glyph unicode="&#xd6;" horiz-adv-x="1614" d="M831 1382Q995 1382 1127 1334T1352 1193T1495 971T1545 678Q1545 518 1490 388T1334 164T1093 20T783 -30Q619 -30 487 19T262 160T119 382T69 674Q69 835 124 965T280 1189T520 1332T831 1382ZM815 149Q903 149
971 195T1078 342T1118 605Q1118 809 1079 941T968 1138T798 1203Q712 1203 644 1157T536 1011T496 748Q496 544 535 412T646 214T815 149ZM562 1472Q494 1472 454 1512T413 1614Q413 1677 453 1717T562 1758Q631 1758 671 1718T711 1614Q711 1553 671 1513T562
1472ZM1052 1472Q984 1472 944 1512T903 1614Q903 1677 943 1717T1052 1758Q1121 1758 1161 1718T1201 1614Q1201 1553 1161 1513T1052 1472Z" />
<glyph unicode="&#xd7;" horiz-adv-x="1023" d="M142 197L765 820L881 704L258 81L142 197ZM142 704L258 820L881 197L765 81L142 704Z" />
<glyph unicode="&#xd8;" horiz-adv-x="1636" d="M424 354L1109 1104L1207 1186L1369 1352H1578L1314 1080L1210 997L525 247L428 167L267 0H58L322 273L424 354ZM842 1382Q1006 1382 1138 1334T1363 1193T1506 971T1556 678Q1556 518 1501 388T1345 164T1104 20T794
-30Q630 -30 498 19T273 160T130 382T80 674Q80 835 135 965T291 1189T531 1332T842 1382ZM826 149Q914 149 982 195T1089 342T1129 605Q1129 809 1090 941T979 1138T809 1203Q723 1203 655 1157T547 1011T507 748Q507 544 546 412T657 214T826 149Z" />
<glyph unicode="&#xd9;" horiz-adv-x="1611" d="M1282 566V1232L1124 1291V1352H1580V1291L1437 1232V561Q1437 363 1368 232T1164 35T831 -30Q614 -30 468 32T248 221T174 544V1232L31 1291V1352H732V1291L589 1232V553Q589 445 626 373T739 263T928 226Q1041
226 1119 264T1240 377T1282 566ZM951 1487H817L496 1694V1742H834L951 1487Z" />
<glyph unicode="&#xda;" horiz-adv-x="1611" d="M1282 566V1232L1124 1291V1352H1580V1291L1437 1232V561Q1437 363 1368 232T1164 35T831 -30Q614 -30 468 32T248 221T174 544V1232L31 1291V1352H732V1291L589 1232V553Q589 445 626 373T739 263T928 226Q1041
226 1119 264T1240 377T1282 566ZM827 1487L944 1742H1282V1694L961 1487H827Z" />
<glyph unicode="&#xdb;" horiz-adv-x="1611" d="M1282 566V1232L1124 1291V1352H1580V1291L1437 1232V561Q1437 363 1368 232T1164 35T831 -30Q614 -30 468 32T248 221T174 544V1232L31 1291V1352H732V1291L589 1232V553Q589 445 626 373T739 263T928 226Q1041
226 1119 264T1240 377T1282 566ZM856 1614H922L709 1487H534L752 1742H1026L1244 1487H1069L856 1614Z" />
<glyph unicode="&#xdc;" horiz-adv-x="1611" d="M1282 566V1232L1124 1291V1352H1580V1291L1437 1232V561Q1437 363 1368 232T1164 35T831 -30Q614 -30 468 32T248 221T174 544V1232L31 1291V1352H732V1291L589 1232V553Q589 445 626 373T739 263T928 226Q1041
226 1119 264T1240 377T1282 566ZM644 1472Q576 1472 536 1512T495 1614Q495 1677 535 1717T644 1758Q713 1758 753 1718T793 1614Q793 1553 753 1513T644 1472ZM1134 1472Q1066 1472 1026 1512T985 1614Q985 1677 1025 1717T1134 1758Q1203 1758 1243 1718T1283
1614Q1283 1553 1243 1513T1134 1472Z" />
<glyph unicode="&#xdd;" horiz-adv-x="1552" d="M117 1231L-23 1291V1352H759V1291L602 1232L992 684L892 686L1226 1232L1079 1291V1352H1549V1291L1416 1232L1009 597V121L1152 61V0H451V61L594 121V596L117 1231ZM808 1487L925 1742H1263V1694L942 1487H808Z" />
<glyph unicode="&#xde;" horiz-adv-x="1447" d="M989 693Q989 772 963 827T882 912T738 942H411L384 1106H850Q1044 1106 1163 1052T1338 905T1393 697Q1393 582 1338 488T1164 339T856 284H378L411 446H754Q827 446 879 474T960 557T989 693ZM766 61V0H65V61L208
121V1231L65 1291V1352H766V1291L623 1231V121L766 61Z" />
<glyph unicode="&#xdf;" horiz-adv-x="1458" d="M188 853Q188 1000 232 1110T359 1294T557 1404T815 1440Q945 1440 1035 1420T1179 1364T1257 1281T1282 1179Q1282 1108 1253 1064T1181 991T1094 939T1021 888T992 814Q992 774 1022 750T1099 706T1200 663T1301
601T1379 500T1410 337Q1410 223 1355 141T1205 14T985 -30Q918 -30 847 -20T719 11L698 287H778L933 23L756 116Q803 99 853 92T947 85Q1037 85 1079 116T1122 215Q1122 271 1094 302T1021 354T926 393T832 441T759 519T730 651Q730 729 757 781T825 873T905 947T973
1025T1000 1130Q1000 1182 974 1223T899 1290T781 1315Q704 1315 655 1292T581 1217T557 1080V108L635 55V0H79V55L188 106V853ZM204 925L188 696L6 772V829L204 925Z" />
<glyph unicode="&#xe0;" horiz-adv-x="1064" d="M602 559V452Q536 439 495 423T433 387T404 344T396 294Q396 233 416 208T479 183Q505 183 525 196T556 231T567 281V671Q567 728 536 760T438 792Q405 792 378 789T330 778L360 860Q351 792 343 752T325 689T304
651Q288 627 255 613T176 599Q121 599 93 618T64 672Q64 720 106 766T223 849T391 908T589 931Q726 931 801 891T906 780T936 618V199Q936 176 942 161T960 140T992 133Q1009 133 1028 137T1071 155V71Q1012 29 943 0T809 -30Q729 -30 680 -1T608 81T581 207L594
210Q570 124 531 71T437 -6T312 -30Q192 -30 120 30T48 216Q48 274 71 321T153 409T322 487T602 559ZM570 1031H452L115 1311V1361H445L570 1031Z" />
<glyph unicode="&#xe1;" horiz-adv-x="1064" d="M602 559V452Q536 439 495 423T433 387T404 344T396 294Q396 233 416 208T479 183Q505 183 525 196T556 231T567 281V671Q567 728 536 760T438 792Q405 792 378 789T330 778L360 860Q351 792 343 752T325 689T304
651Q288 627 255 613T176 599Q121 599 93 618T64 672Q64 720 106 766T223 849T391 908T589 931Q726 931 801 891T906 780T936 618V199Q936 176 942 161T960 140T992 133Q1009 133 1028 137T1071 155V71Q1012 29 943 0T809 -30Q729 -30 680 -1T608 81T581 207L594
210Q570 124 531 71T437 -6T312 -30Q192 -30 120 30T48 216Q48 274 71 321T153 409T322 487T602 559ZM446 1031L571 1361H901V1311L564 1031H446Z" />
<glyph unicode="&#xe2;" horiz-adv-x="1064" d="M602 559V452Q536 439 495 423T433 387T404 344T396 294Q396 233 416 208T479 183Q505 183 525 196T556 231T567 281V671Q567 728 536 760T438 792Q405 792 378 789T330 778L360 860Q351 792 343 752T325 689T304
651Q288 627 255 613T176 599Q121 599 93 618T64 672Q64 720 106 766T223 849T391 908T589 931Q726 931 801 891T906 780T936 618V199Q936 176 942 161T960 140T992 133Q1009 133 1028 137T1071 155V71Q1012 29 943 0T809 -30Q729 -30 680 -1T608 81T581 207L594
210Q570 124 531 71T437 -6T312 -30Q192 -30 120 30T48 216Q48 274 71 321T153 409T322 487T602 559ZM161 1031L388 1361H628L855 1031H707L447 1233H569L309 1031H161Z" />
<glyph unicode="&#xe3;" horiz-adv-x="1064" d="M602 559V452Q536 439 495 423T433 387T404 344T396 294Q396 233 416 208T479 183Q505 183 525 196T556 231T567 281V671Q567 728 536 760T438 792Q405 792 378 789T330 778L360 860Q351 792 343 752T325 689T304
651Q288 627 255 613T176 599Q121 599 93 618T64 672Q64 720 106 766T223 849T391 908T589 931Q726 931 801 891T906 780T936 618V199Q936 176 942 161T960 140T992 133Q1009 133 1028 137T1071 155V71Q1012 29 943 0T809 -30Q729 -30 680 -1T608 81T581 207L594
210Q570 124 531 71T437 -6T312 -30Q192 -30 120 30T48 216Q48 274 71 321T153 409T322 487T602 559ZM839 1349Q817 1219 788 1151T720 1059T629 1034Q591 1034 558 1052T494 1093T436 1134T382 1152Q358 1152 342 1143T315 1110T291 1042H177Q200 1172 228 1240T296
1332T387 1357Q425 1357 458 1340T522 1299T580 1258T634 1240Q659 1240 675 1249T702 1282T725 1349H839Z" />
<glyph unicode="&#xe4;" horiz-adv-x="1064" d="M602 559V452Q536 439 495 423T433 387T404 344T396 294Q396 233 416 208T479 183Q505 183 525 196T556 231T567 281V671Q567 728 536 760T438 792Q405 792 378 789T330 778L360 860Q351 792 343 752T325 689T304
651Q288 627 255 613T176 599Q121 599 93 618T64 672Q64 720 106 766T223 849T391 908T589 931Q726 931 801 891T906 780T936 618V199Q936 176 942 161T960 140T992 133Q1009 133 1028 137T1071 155V71Q1012 29 943 0T809 -30Q729 -30 680 -1T608 81T581 207L594
210Q570 124 531 71T437 -6T312 -30Q192 -30 120 30T48 216Q48 274 71 321T153 409T322 487T602 559ZM289 1053Q220 1053 180 1094T139 1196Q139 1258 179 1298T289 1339Q357 1339 397 1299T437 1196Q437 1135 397 1094T289 1053ZM728 1053Q660 1053 620 1094T579
1196Q579 1258 619 1298T728 1339Q797 1339 837 1299T877 1196Q877 1135 837 1094T728 1053Z" />
<glyph unicode="&#xe5;" horiz-adv-x="1064" d="M602 559V452Q536 439 495 423T433 387T404 344T396 294Q396 233 416 208T479 183Q505 183 525 196T556 231T567 281V671Q567 728 536 760T438 792Q405 792 378 789T330 778L360 860Q351 792 343 752T325 689T304
651Q288 627 255 613T176 599Q121 599 93 618T64 672Q64 720 106 766T223 849T391 908T589 931Q726 931 801 891T906 780T936 618V199Q936 176 942 161T960 140T992 133Q1009 133 1028 137T1071 155V71Q1012 29 943 0T809 -30Q729 -30 680 -1T608 81T581 207L594
210Q570 124 531 71T437 -6T312 -30Q192 -30 120 30T48 216Q48 274 71 321T153 409T322 487T602 559ZM507 1387Q591 1387 646 1334T701 1196Q701 1114 646 1060T507 1006Q424 1006 369 1060T314 1196Q314 1280 369 1333T507 1387ZM507 1080Q557 1080 590 1112T623
1196Q623 1250 590 1283T507 1317Q457 1317 425 1284T392 1196Q392 1145 424 1113T507 1080Z" />
<glyph unicode="&#xe6;" horiz-adv-x="1543" d="M438 792Q405 792 378 789T330 778L360 860Q351 792 343 752T325 689T304 651Q288 627 255 613T176 599Q121 599 93 618T64 672Q64 720 106 766T223 849T391 908T589 931Q684 931 749 910T852 853T908 772H732Q778
843 860 887T1065 931Q1199 931 1290 879T1431 725T1492 477H821V582L1327 607L1158 543Q1157 638 1144 695T1104 779T1037 806Q1002 806 975 785T932 706T916 533Q916 425 950 355T1049 250T1205 215Q1254 215 1295 220T1375 239T1456 277L1489 202Q1423 136 1354
83T1211 0T1056 -30Q916 -30 814 9T651 124T570 312H619Q610 185 566 110T455 3T312 -30Q192 -30 120 30T48 216Q48 274 71 321T153 409T322 487T602 559V452Q536 439 495 423T433 387T404 344T396 294Q396 233 416 208T479 183Q506 183 525 195T556 234T567 306V671Q567
728 536 760T438 792Z" />
<glyph unicode="&#xe7;" horiz-adv-x="988" d="M639 931Q754 931 823 908T924 848T956 762Q956 720 935 688T879 639T807 621Q773 621 742 639T682 685T626 740T575 786T528 805Q489 805 457 783T407 708T389 566Q389 441 422 365T517 253T670 217Q742 217 799
231T917 280L953 204Q873 120 800 69T658 -6T523 -30Q377 -30 271 29T109 191T52 427Q52 533 91 625T205 785T390 892T639 931ZM422 -519Q340 -519 301 -491T262 -425Q262 -397 277 -378T322 -359Q348 -359 370 -376T417 -411T476 -429Q514 -429 537 -412T560 -363Q560
-341 545 -322T480 -284T332 -246V-230L525 49H635L448 -216L454 -89Q563 -112 619 -141T697 -206T718 -286Q718 -347 683 -400T581 -486T422 -519Z" />
<glyph unicode="&#xe8;" horiz-adv-x="1018" d="M539 931Q674 931 765 879T906 725T967 477H296V582L785 607L632 543Q631 638 618 695T579 779T511 806Q477 806 450 785T406 706T390 533Q390 425 424 355T524 250T680 215Q729 215 770 220T850 239T931 277L964
202Q897 136 828 83T686 0T531 -30Q382 -30 275 30T111 195T53 435Q53 573 108 685T271 864T539 931ZM568 1031H450L113 1311V1361H443L568 1031Z" />
<glyph unicode="&#xe9;" horiz-adv-x="1018" d="M539 931Q674 931 765 879T906 725T967 477H296V582L785 607L632 543Q631 638 618 695T579 779T511 806Q477 806 450 785T406 706T390 533Q390 425 424 355T524 250T680 215Q729 215 770 220T850 239T931 277L964
202Q897 136 828 83T686 0T531 -30Q382 -30 275 30T111 195T53 435Q53 573 108 685T271 864T539 931ZM444 1031L569 1361H899V1311L562 1031H444Z" />
<glyph unicode="&#xea;" horiz-adv-x="1018" d="M539 931Q674 931 765 879T906 725T967 477H296V582L785 607L632 543Q631 638 618 695T579 779T511 806Q477 806 450 785T406 706T390 533Q390 425 424 355T524 250T680 215Q729 215 770 220T850 239T931 277L964
202Q897 136 828 83T686 0T531 -30Q382 -30 275 30T111 195T53 435Q53 573 108 685T271 864T539 931ZM159 1031L386 1361H626L853 1031H705L445 1233H567L307 1031H159Z" />
<glyph unicode="&#xeb;" horiz-adv-x="1018" d="M539 931Q674 931 765 879T906 725T967 477H296V582L785 607L632 543Q631 638 618 695T579 779T511 806Q477 806 450 785T406 706T390 533Q390 425 424 355T524 250T680 215Q729 215 770 220T850 239T931 277L964
202Q897 136 828 83T686 0T531 -30Q382 -30 275 30T111 195T53 435Q53 573 108 685T271 864T539 931ZM287 1053Q218 1053 178 1094T137 1196Q137 1258 177 1298T287 1339Q355 1339 395 1299T435 1196Q435 1135 395 1094T287 1053ZM726 1053Q658 1053 618 1094T577
1196Q577 1258 617 1298T726 1339Q795 1339 835 1299T875 1196Q875 1135 835 1094T726 1053Z" />
<glyph unicode="&#xec;" horiz-adv-x="671" d="M547 931L530 675V106L639 55V0H52V55L161 106V660Q146 681 126 700T83 736T34 770V823L474 931H547ZM392 1031H274L-63 1311V1361H267L392 1031Z" />
<glyph unicode="&#xed;" horiz-adv-x="671" d="M547 931L530 675V106L639 55V0H52V55L161 106V660Q146 681 126 700T83 736T34 770V823L474 931H547ZM268 1031L393 1361H723V1311L386 1031H268Z" />
<glyph unicode="&#xee;" horiz-adv-x="671" d="M547 931L530 675V106L639 55V0H52V55L161 106V660Q146 681 126 700T83 736T34 770V823L474 931H547ZM-17 1031L210 1361H450L677 1031H529L269 1233H391L131 1031H-17Z" />
<glyph unicode="&#xef;" horiz-adv-x="671" d="M547 931L530 675V106L639 55V0H52V55L161 106V660Q146 681 126 700T83 736T34 770V823L474 931H547ZM111 1053Q42 1053 2 1094T-39 1196Q-39 1258 1 1298T111 1339Q179 1339 219 1299T259 1196Q259 1135 219 1094T111
1053ZM550 1053Q482 1053 442 1094T401 1196Q401 1258 441 1298T550 1339Q619 1339 659 1299T699 1196Q699 1135 659 1094T550 1053Z" />
<glyph unicode="&#xf0;" horiz-adv-x="1146" d="M552 -30Q394 -30 283 27T113 188T54 432Q54 577 115 685T287 853T542 913Q597 913 642 898T721 856T776 792T801 709L729 703Q719 837 684 935T581 1106T404 1231T138 1325L178 1440Q400 1402 556 1338T813 1188T971
999T1051 780T1074 537Q1074 335 1011 210T831 27T552 -30ZM570 108Q610 108 638 134T681 222T696 397Q696 526 682 611T637 740T558 783Q519 783 491 757T447 668T432 494Q432 365 446 279T490 151T570 108ZM331 953L265 1048L849 1444L913 1349L331 953Z" />
<glyph unicode="&#xf1;" horiz-adv-x="1273" d="M531 712V96L608 55V0H53V55L162 106V643Q137 679 107 704T34 753V806L409 931H457L531 712ZM694 55L771 96V571Q771 610 760 633T722 666T654 677Q607 677 566 667T491 639L453 696Q530 775 586 822T687 892T771
923T855 931Q1000 931 1070 849T1140 601V106L1251 55V0H694V55ZM969 1349Q947 1219 918 1151T850 1059T759 1034Q721 1034 688 1052T624 1093T566 1134T512 1152Q488 1152 472 1143T445 1110T421 1042H307Q330 1172 358 1240T426 1332T517 1357Q555 1357 588 1340T652
1299T710 1258T764 1240Q789 1240 805 1249T832 1282T855 1349H969Z" />
<glyph unicode="&#xf2;" horiz-adv-x="1126" d="M569 110Q609 110 637 136T680 226T695 402Q695 532 681 618T636 748T557 791Q518 791 490 765T446 675T431 499Q431 369 445 283T489 153T569 110ZM551 -30Q393 -30 282 28T112 191T53 437Q53 584 117 695T299
868T575 931Q733 931 844 873T1014 711T1073 464Q1073 318 1008 206T826 32T551 -30ZM625 1031H507L170 1311V1361H500L625 1031Z" />
<glyph unicode="&#xf3;" horiz-adv-x="1126" d="M569 110Q609 110 637 136T680 226T695 402Q695 532 681 618T636 748T557 791Q518 791 490 765T446 675T431 499Q431 369 445 283T489 153T569 110ZM551 -30Q393 -30 282 28T112 191T53 437Q53 584 117 695T299
868T575 931Q733 931 844 873T1014 711T1073 464Q1073 318 1008 206T826 32T551 -30ZM501 1031L626 1361H956V1311L619 1031H501Z" />
<glyph unicode="&#xf4;" horiz-adv-x="1126" d="M569 110Q609 110 637 136T680 226T695 402Q695 532 681 618T636 748T557 791Q518 791 490 765T446 675T431 499Q431 369 445 283T489 153T569 110ZM551 -30Q393 -30 282 28T112 191T53 437Q53 584 117 695T299
868T575 931Q733 931 844 873T1014 711T1073 464Q1073 318 1008 206T826 32T551 -30ZM216 1031L443 1361H683L910 1031H762L502 1233H624L364 1031H216Z" />
<glyph unicode="&#xf5;" horiz-adv-x="1126" d="M569 110Q609 110 637 136T680 226T695 402Q695 532 681 618T636 748T557 791Q518 791 490 765T446 675T431 499Q431 369 445 283T489 153T569 110ZM551 -30Q393 -30 282 28T112 191T53 437Q53 584 117 695T299
868T575 931Q733 931 844 873T1014 711T1073 464Q1073 318 1008 206T826 32T551 -30ZM894 1349Q872 1219 843 1151T775 1059T684 1034Q646 1034 613 1052T549 1093T491 1134T437 1152Q413 1152 397 1143T370 1110T346 1042H232Q255 1172 283 1240T351 1332T442
1357Q480 1357 513 1340T577 1299T635 1258T689 1240Q714 1240 730 1249T757 1282T780 1349H894Z" />
<glyph unicode="&#xf6;" horiz-adv-x="1126" d="M569 110Q609 110 637 136T680 226T695 402Q695 532 681 618T636 748T557 791Q518 791 490 765T446 675T431 499Q431 369 445 283T489 153T569 110ZM551 -30Q393 -30 282 28T112 191T53 437Q53 584 117 695T299
868T575 931Q733 931 844 873T1014 711T1073 464Q1073 318 1008 206T826 32T551 -30ZM344 1053Q275 1053 235 1094T194 1196Q194 1258 234 1298T344 1339Q412 1339 452 1299T492 1196Q492 1135 452 1094T344 1053ZM783 1053Q715 1053 675 1094T634 1196Q634 1258
674 1298T783 1339Q852 1339 892 1299T932 1196Q932 1135 892 1094T783 1053Z" />
<glyph unicode="&#xf7;" horiz-adv-x="1023" d="M512 273Q577 273 618 231T659 128Q659 67 618 25T512 -17Q447 -17 406 25T365 128Q365 189 406 231T512 273ZM512 917Q577 917 618 876T659 773Q659 711 618 670T512 628Q447 628 406 669T365 773Q365 834 406
875T512 917ZM112 533H911V368H112V533Z" />
<glyph unicode="&#xf8;" horiz-adv-x="1151" d="M45 0L240 197L308 219L759 750L824 787L937 901H1105L910 704L843 682L391 151L326 114L214 0H45ZM581 110Q621 110 649 136T693 226T708 402Q708 532 694 618T649 748T569 791Q529 791 501 765T458 675T443 499Q443
369 457 283T501 153T581 110ZM564 -30Q406 -30 294 28T124 191T65 437Q65 584 130 695T312 868T587 931Q746 931 857 873T1026 711T1085 464Q1085 318 1021 206T839 32T564 -30Z" />
<glyph unicode="&#xf9;" horiz-adv-x="1237" d="M507 321Q507 285 518 264T554 234T615 224Q659 224 697 232T767 259L804 197Q729 122 675 76T578 8T496 -22T414 -30Q275 -30 207 50T139 289V741L15 814V877L523 919L507 769V321ZM755 -22L716 194V758L642 817V881L1101
917L1086 758V205Q1098 193 1113 180T1146 154T1183 131T1223 111V60L798 -22H755ZM646 1031H528L191 1311V1361H521L646 1031Z" />
<glyph unicode="&#xfa;" horiz-adv-x="1237" d="M507 321Q507 285 518 264T554 234T615 224Q659 224 697 232T767 259L804 197Q729 122 675 76T578 8T496 -22T414 -30Q275 -30 207 50T139 289V741L15 814V877L523 919L507 769V321ZM755 -22L716 194V758L642 817V881L1101
917L1086 758V205Q1098 193 1113 180T1146 154T1183 131T1223 111V60L798 -22H755ZM522 1031L647 1361H977V1311L640 1031H522Z" />
<glyph unicode="&#xfb;" horiz-adv-x="1237" d="M507 321Q507 285 518 264T554 234T615 224Q659 224 697 232T767 259L804 197Q729 122 675 76T578 8T496 -22T414 -30Q275 -30 207 50T139 289V741L15 814V877L523 919L507 769V321ZM755 -22L716 194V758L642 817V881L1101
917L1086 758V205Q1098 193 1113 180T1146 154T1183 131T1223 111V60L798 -22H755ZM237 1031L464 1361H704L931 1031H783L523 1233H645L385 1031H237Z" />
<glyph unicode="&#xfc;" horiz-adv-x="1237" d="M507 321Q507 285 518 264T554 234T615 224Q659 224 697 232T767 259L804 197Q729 122 675 76T578 8T496 -22T414 -30Q275 -30 207 50T139 289V741L15 814V877L523 919L507 769V321ZM755 -22L716 194V758L642 817V881L1101
917L1086 758V205Q1098 193 1113 180T1146 154T1183 131T1223 111V60L798 -22H755ZM365 1053Q296 1053 256 1094T215 1196Q215 1258 255 1298T365 1339Q433 1339 473 1299T513 1196Q513 1135 473 1094T365 1053ZM804 1053Q736 1053 696 1094T655 1196Q655 1258
695 1298T804 1339Q873 1339 913 1299T953 1196Q953 1135 913 1094T804 1053Z" />
<glyph unicode="&#xfd;" horiz-adv-x="1187" d="M788 207L599 -170L100 792L-18 843V901H607V841L506 807L788 207ZM282 -519Q198 -519 149 -479T99 -366Q99 -327 115 -299T152 -254T189 -238Q207 -238 229 -245T282 -259T357 -267Q400 -267 431 -256T490 -213T547
-124L652 81L704 188L923 809L834 841V901H1189V841L1095 806L678 -171Q618 -313 561 -388T438 -491T282 -519ZM600 1031L725 1361H1055V1311L718 1031H600Z" />
<glyph unicode="&#xfe;" horiz-adv-x="1191" d="M115 1134Q99 1154 78 1172T28 1209T-40 1247V1316L455 1440H507L485 1187V295Q485 237 498 195T539 131T607 108Q655 108 690 138T744 239T763 435Q763 588 716 658T583 729Q563 729 537 726T485 715T435 693L402
774Q459 811 507 839T599 888T681 920T761 931Q883 931 966 875T1092 721T1136 502Q1136 332 1068 213T886 32T636 -30Q574 -30 522 -17T420 23T317 86H485V-376L616 -434V-489H7V-434L115 -383V1134Z" />
<glyph unicode="&#xff;" horiz-adv-x="1187" d="M788 207L599 -170L100 792L-18 843V901H607V841L506 807L788 207ZM282 -519Q198 -519 149 -479T99 -366Q99 -327 115 -299T152 -254T189 -238Q207 -238 229 -245T282 -259T357 -267Q400 -267 431 -256T490 -213T547
-124L652 81L704 188L923 809L834 841V901H1189V841L1095 806L678 -171Q618 -313 561 -388T438 -491T282 -519ZM443 1053Q374 1053 334 1094T293 1196Q293 1258 333 1298T443 1339Q511 1339 551 1299T591 1196Q591 1135 551 1094T443 1053ZM882 1053Q814 1053 774
1094T733 1196Q733 1258 773 1298T882 1339Q951 1339 991 1299T1031 1196Q1031 1135 991 1094T882 1053Z" />
<glyph unicode="&#x2013;" horiz-adv-x="988" d="M82 527H906V391H82V527Z" />
<glyph unicode="&#x2014;" horiz-adv-x="1318" d="M82 527H1236V391H82V527Z" />
<glyph unicode="&#x2018;" horiz-adv-x="539" d="M466 1282Q363 1235 331 1191T299 1110Q299 1076 324 1052T382 1010T441 976T466 942Q466 862 412 805T265 747Q170 747 115 802T60 956Q60 1046 94 1120T206 1257T420 1377L466 1282Z" />
<glyph unicode="&#x2019;" horiz-adv-x="536" d="M80 842Q184 890 216 934T248 1015Q248 1048 223 1072T164 1114T106 1148T80 1182Q80 1263 135 1320T282 1377Q377 1377 431 1322T486 1168Q486 1078 453 1004T341 867T126 747L80 842Z" />
<glyph unicode="&#x201a;" horiz-adv-x="548" d="M65 -171Q168 -124 200 -80T232 1Q232 35 207 58T149 100T90 134T65 169Q65 249 120 306T266 364Q362 364 416 308T471 155Q471 64 438 -10T326 -147T111 -267L65 -171Z" />
<glyph unicode="&#x201c;" horiz-adv-x="1028" d="M466 1282Q363 1235 331 1191T299 1110Q299 1076 324 1052T382 1010T441 976T466 942Q466 862 412 805T265 747Q170 747 115 802T60 956Q60 1046 94 1120T206 1257T420 1377L466 1282ZM954 1282Q851 1235 819
1191T787 1110Q787 1076 812 1052T870 1010T929 976T954 942Q954 862 900 805T753 747Q658 747 603 802T548 956Q548 1046 582 1120T694 1257T908 1377L954 1282Z" />
<glyph unicode="&#x201d;" horiz-adv-x="1025" d="M80 842Q184 890 216 934T248 1015Q248 1048 223 1072T164 1114T106 1148T80 1182Q80 1263 135 1320T282 1377Q377 1377 431 1322T486 1168Q486 1078 453 1004T341 867T126 747L80 842ZM568 842Q672 890 704 934T736
1015Q736 1048 711 1072T652 1114T594 1148T568 1182Q568 1263 623 1320T770 1377Q865 1377 919 1322T974 1168Q974 1078 941 1004T829 867T614 747L568 842Z" />
<glyph unicode="&#x201e;" horiz-adv-x="1036" d="M65 -171Q168 -124 200 -80T232 1Q232 35 207 58T149 100T90 134T65 169Q65 249 120 306T266 364Q362 364 416 308T471 155Q471 64 438 -10T326 -147T111 -267L65 -171ZM553 -171Q656 -124 688 -80T720 1Q720
35 695 58T637 100T578 134T553 169Q553 249 608 306T754 364Q850 364 904 308T959 155Q959 64 926 -10T814 -147T599 -267L553 -171Z" />
<glyph unicode="&#x2022;" horiz-adv-x="857" d="M428 743Q514 743 579 705T682 603T720 459Q720 379 683 315T580 212T428 174Q343 174 278 212T175 314T137 459Q137 539 174 603T277 705T428 743Z" />
<glyph unicode="&#x2039;" horiz-adv-x="631" d="M336 510L570 66L485 -5L45 387V514L485 906L570 835L336 391V510Z" />
<glyph unicode="&#x203a;" horiz-adv-x="675" d="M310 392L76 835L161 907L601 515V388L161 -4L76 67L310 510V392Z" />
</font>
</defs>
</svg>
