<?xml version="1.0" standalone="no"?>
<!DOCTYPE svg PUBLIC "-//W3C//DTD SVG 1.1//EN" "http://www.w3.org/Graphics/SVG/1.1/DTD/svg11.dtd">
<svg xmlns="http://www.w3.org/2000/svg">
<defs >
<font id="Newsreader" horiz-adv-x="1042" ><font-face
    font-family="Newsreader 16pt 16pt ExtraBold"
    units-per-em="2000"
    panose-1="2 0 0 0 0 0 0 0 0 0"
    ascent="1470"
    descent="-530"
    alphabetic="0" />
<glyph unicode=" " horiz-adv-x="418" />
<glyph unicode="!" horiz-adv-x="591" d="M756 1237L747 1210Q740 1189 727 1161T692 1095T640 1004T570 882T479 721T366 511H262Q272 629 278 720T286 882T290 1004T294 1094T299 1161T309 1210L316 1237Q331 1285 366 1316T455 1364T572 1380Q636 1380 683
1364T750 1317T756 1237ZM246 359Q326 359 367 315T408 201Q408 137 379 86T298 5T176 -25Q97 -25 56 19T15 132Q15 198 44 248T125 329T246 359Z" />
<glyph unicode="&quot;" horiz-adv-x="873" d="M251 786L315 1291L334 1352H649L630 1291L382 786H251ZM681 786L745 1291L764 1352H1079L1060 1291L812 786H681Z" />
<glyph unicode="#" horiz-adv-x="1342" d="M974 1352L273 0H128L830 1352H974ZM1350 1352L648 0H504L1206 1352H1350ZM1344 784H301L340 911H1383L1344 784ZM1142 446H99L138 573H1181L1142 446Z" />
<glyph unicode="$" horiz-adv-x="1342" d="M526 -202L1063 1554H1180L643 -202H526ZM300 -202L837 1554H954L417 -202H300ZM556 111Q657 111 721 137T815 214T846 331Q846 390 810 428T718 496T599 557T480 631T388 738T352 899Q352 998 385 1085T490 1240T674
1344T945 1382Q1081 1382 1165 1357T1289 1289T1328 1194Q1328 1131 1288 1094T1187 1057Q1157 1057 1133 1076T1086 1124T1035 1181T971 1228T882 1248Q792 1248 740 1223T665 1154T642 1056Q642 994 678 952T770 877T889 812T1009 735T1101 627T1137 464Q1137
354 1097 264T980 107T790 6T531 -30Q377 -30 288 -5T160 65T122 163Q122 203 138 233T183 280T252 297Q281 297 305 278T353 232T406 177T470 130T556 111Z" />
<glyph unicode="%" horiz-adv-x="1835" d="M252 0L1554 1352H1708L407 0H252ZM491 712Q530 712 566 743T632 824T686 933T721 1049T734 1150Q734 1201 719 1222T673 1244Q634 1244 599 1214T533 1133T479 1024T444 908T431 807Q431 756 446 734T491 712ZM686 1373Q774
1373 835 1341T928 1248T960 1099Q960 1008 927 917T830 750T678 630T478 584Q391 584 330 616T236 709T204 858Q204 949 238 1040T334 1207T486 1327T686 1373ZM1301 108Q1340 108 1376 139T1442 220T1496 329T1531 445T1544 546Q1544 597 1529 618T1483 640Q1444
640 1409 610T1343 529T1289 420T1254 304T1241 203Q1241 152 1256 130T1301 108ZM1496 769Q1584 769 1645 737T1738 644T1770 495Q1770 404 1737 313T1640 146T1488 26T1288 -20Q1201 -20 1140 12T1046 105T1014 254Q1014 345 1048 436T1144 603T1296 723T1496
769Z" />
<glyph unicode="&amp;" horiz-adv-x="1478" d="M1060 243L895 135Q805 73 728 37T583 -14T448 -30Q300 -30 208 13T72 133T29 312Q29 394 56 460T140 579T290 675T514 751L768 859Q821 901 856 951T908 1055T925 1158Q925 1211 902 1235T835 1260Q795 1260 767
1243T725 1197T711 1128Q711 1078 729 1025T798 878L1213 114L1365 60L1346 0H865L480 716Q445 781 424 835T393 940T383 1042Q383 1135 432 1212T588 1335T863 1382Q984 1382 1061 1352T1177 1268T1215 1147Q1215 1074 1178 1014T1052 904T805 816L535 698Q488
666 456 623T407 526T390 413Q390 296 455 231T646 166Q704 166 760 178T859 213L1026 323Q1053 357 1076 412T1118 544T1146 721L1030 764L1048 822H1534L1516 764L1392 721Q1311 563 1229 446T1060 243Z" />
<glyph unicode="&apos;" horiz-adv-x="443" d="M251 786L315 1291L334 1352H649L630 1291L382 786H251Z" />
<glyph unicode="(" horiz-adv-x="611" d="M850 1361Q681 1201 574 1047T409 746T328 460T305 191Q305 124 311 58T332 -79T369 -230L269 -270Q210 -168 167 -65T101 142T77 353Q77 449 93 546T154 744T277 954T480 1184T782 1440L850 1361Z" />
<glyph unicode=")" horiz-adv-x="611" d="M-156 -191Q13 -32 120 122T285 423T366 710T389 979Q389 1046 383 1112T362 1250T325 1399L425 1440Q484 1338 527 1235T593 1027T617 817Q617 721 600 624T540 425T417 215T214 -14T-89 -270L-156 -191Z" />
<glyph unicode="*" horiz-adv-x="872" d="M786 723L695 684L576 900L371 765L307 839L477 1018L285 1169L335 1253L558 1148L642 1378L737 1356L705 1111L950 1105L959 1006L717 958L786 723Z" />
<glyph unicode="+" horiz-adv-x="1033" d="M310 51L553 850H724L481 51H310ZM147 533H937L887 368H96L147 533Z" />
<glyph unicode="," horiz-adv-x="534" d="M-142 -303Q-45 -234 8 -182T83 -88T104 -12Q104 23 89 48T54 92T19 130T3 167Q3 219 32 264T110 336T217 364Q299 364 344 318T389 189Q389 130 370 71T301 -56T157 -203T-86 -384L-142 -303Z" />
<glyph unicode="-" horiz-adv-x="723" d="M141 567H653L587 352H75L141 567Z" />
<glyph unicode="." horiz-adv-x="530" d="M234 368Q314 368 355 323T396 208Q396 142 366 89T284 6T163 -25Q83 -25 42 20T0 135Q0 202 30 254T114 337T234 368Z" />
<glyph unicode="/" horiz-adv-x="836" d="M-70 0L875 1352H1045L101 0H-70Z" />
<glyph unicode="0" horiz-adv-x="1342" d="M455 293Q455 194 480 155T559 115Q618 115 675 162T785 291T880 471T956 677T1007 882T1025 1059Q1025 1159 1000 1198T921 1237Q862 1237 805 1190T695 1062T600 881T524 675T473 470T455 293ZM924 1382Q1066 1382
1162 1327T1308 1168T1357 919Q1357 790 1322 657T1219 400T1053 180T830 27T556 -30Q413 -30 317 25T172 185T123 434Q123 562 158 695T261 952T426 1172T649 1325T924 1382Z" />
<glyph unicode="1" horiz-adv-x="1342" d="M458 118L802 1240L850 1100L372 964L338 1062L984 1352H1221L842 117L1095 55L1074 2H138L157 55L458 118Z" />
<glyph unicode="2" horiz-adv-x="1342" d="M343 862L243 896Q326 1152 477 1267T824 1383Q945 1383 1035 1341T1177 1223T1229 1043Q1229 982 1214 930T1161 824T1052 710T872 569L443 262L455 333H1140L750 190L1166 517H1246L992 -62H931L850 0H48L62 55L456
401Q576 506 651 578T767 703T823 799T839 890Q839 972 787 1026T624 1080Q527 1080 463 1031T343 862Z" />
<glyph unicode="3" horiz-adv-x="1342" d="M501 96Q568 96 621 125T710 205T766 321T785 457Q785 536 740 583T598 619L540 613L538 728Q673 756 747 790T851 870T881 978Q881 1056 831 1095T708 1135Q619 1135 555 1092T446 938L341 975Q383 1099 454 1190T626
1332T860 1382Q984 1382 1065 1346T1187 1244T1228 1094Q1228 994 1171 923T1018 811T804 759L831 774Q941 774 1019 734T1137 625T1178 465Q1178 370 1134 282T1002 123T785 11T483 -30Q337 -30 246 0T112 81T68 189Q68 239 98 273T194 308Q229 308 253 287T298
234T344 171T407 118T501 96Z" />
<glyph unicode="4" horiz-adv-x="1342" d="M827 1149L952 1180L237 531L219 612H1145L1334 640L1200 362H40L99 561L942 1352H1274L894 113L1055 52L1039 0H284L299 52L502 115L827 1149Z" />
<glyph unicode="5" horiz-adv-x="1342" d="M494 1018L745 1221L535 819L557 925Q726 891 837 842T1013 734T1105 609T1132 475Q1132 382 1092 292T973 129T782 13T528 -30Q337 -30 226 29T115 190Q115 233 145 270T246 308Q283 308 307 287T350 234T394 171T454
118T547 96Q606 96 656 110T743 152T802 225T823 330Q823 374 799 415T718 494T560 565T309 626L620 1352H1054L1329 1390L1168 1018H494Z" />
<glyph unicode="6" horiz-adv-x="1342" d="M1327 1399L1345 1288Q1159 1254 1022 1189T789 1034T637 830T553 586T527 310Q527 200 558 153T644 106Q696 106 743 145T820 266T850 473Q850 558 818 595T723 632Q688 632 648 626T566 604T485 555L420 568Q532 651
607 703T736 785T835 826T934 837Q1025 837 1092 800T1196 697T1233 540Q1233 417 1186 313T1053 132T857 13T616 -30Q467 -30 368 24T217 177T166 411Q166 524 201 648T315 893T529 1116T860 1294T1327 1399Z" />
<glyph unicode="7" horiz-adv-x="1342" d="M387 1021L766 1152L354 811H267L525 1418H575L661 1352H1479L1467 1316L638 0H251L1315 1228L1203 1021H387Z" />
<glyph unicode="8" horiz-adv-x="1342" d="M817 776L795 819Q944 853 1013 931T1082 1089Q1082 1159 1033 1205T865 1252Q782 1252 730 1229T654 1166T629 1074Q629 1012 666 969T763 889T893 815Q945 786 997 752T1092 674T1161 570T1187 431Q1187 295 1117 191T913
29T591 -30Q420 -30 314 15T159 136T110 300Q110 409 171 496T366 641T718 717L732 678Q597 648 516 594T397 468T359 317Q359 252 387 205T470 132T600 106Q685 106 745 133T838 210T871 325Q871 392 832 438T732 520T605 597Q557 627 511 661T429 737T372 836T350
968Q350 1091 411 1184T589 1329T875 1382Q1035 1382 1134 1345T1280 1243T1327 1098Q1327 998 1265 929T1088 823T817 776Z" />
<glyph unicode="9" horiz-adv-x="1342" d="M161 -47L142 65Q329 99 466 163T698 319T851 523T935 767T961 1042Q961 1117 943 1161T893 1226T826 1247Q771 1247 725 1209T652 1095T625 905Q625 804 660 762T758 720Q794 720 834 726T915 749T995 797L1059 784Q950
701 877 649T751 567T653 527T554 515Q458 515 389 555T283 667T245 833Q245 955 289 1055T413 1229T602 1342T843 1382Q993 1382 1100 1330T1264 1178T1321 941Q1321 828 1287 704T1172 460T959 236T628 58T161 -47Z" />
<glyph unicode=":" horiz-adv-x="572" d="M233 364Q314 364 356 318T398 202Q398 139 369 87T288 5T169 -25Q88 -25 46 21T3 136Q3 201 32 252T114 333T233 364ZM405 926Q486 926 528 880T570 764Q570 701 541 649T460 567T340 537Q260 537 218 583T175 698Q175
763 204 814T286 895T405 926Z" />
<glyph unicode=";" horiz-adv-x="573" d="M-140 -303Q-42 -234 11 -182T85 -88T106 -12Q106 23 91 48T56 92T21 130T5 167Q5 219 35 264T113 336T219 364Q302 364 346 318T391 189Q391 130 372 71T303 -56T160 -203T-84 -384L-140 -303ZM402 926Q484 926 525 880T567
764Q567 701 538 649T458 567T338 537Q257 537 215 583T173 698Q173 763 202 814T283 895T402 926Z" />
<glyph unicode="&lt;" horiz-adv-x="1033" d="M137 372L174 492L863 137L812 -28L38 382L79 518L1105 928L1043 727L137 372Z" />
<glyph unicode="=" horiz-adv-x="1033" d="M201 711H991L941 546H150L201 711ZM92 355H882L832 190H41L92 355Z" />
<glyph unicode="&gt;" horiz-adv-x="1033" d="M897 529L860 409L171 764L222 928L996 518L954 382L-71 -28L-9 174L897 529Z" />
<glyph unicode="?" horiz-adv-x="1086" d="M448 359Q528 359 569 315T610 201Q610 137 581 86T500 5T378 -25Q299 -25 258 19T217 132Q217 198 246 248T327 329T448 359ZM612 1382Q747 1382 844 1349T1005 1258T1099 1126T1130 970Q1130 844 1075 759T896 637T562
615L721 780L555 506H454L535 886Q683 879 765 898T882 960T916 1069Q916 1113 893 1146T831 1199T740 1219Q687 1219 646 1198T568 1147T495 1097T413 1075Q363 1075 325 1111T287 1202Q287 1252 320 1293T424 1358T612 1382Z" />
<glyph unicode="@" horiz-adv-x="1819" d="M1405 287Q1463 287 1515 322T1608 422T1672 576T1696 772Q1696 882 1662 974T1558 1134T1382 1239T1129 1277Q971 1277 838 1234T598 1111T418 922T305 682T265 406Q265 231 333 108T541 -79T889 -144Q983 -144 1080
-129T1278 -81T1484 10L1530 -81Q1429 -140 1319 -181T1089 -245T839 -267Q593 -267 427 -191T175 30T89 385Q89 558 140 710T285 986T511 1198T804 1334T1150 1382Q1376 1382 1533 1306T1772 1098T1854 798Q1854 665 1818 550T1712 349T1537 215T1297 167Q1159
167 1096 221T1033 362Q1033 382 1036 403T1046 446L1082 569H1097Q1032 446 977 369T875 251T780 193T683 177Q570 177 520 241T469 398Q469 479 494 564T567 730T676 873T812 974T966 1012Q1040 1012 1095 979T1200 866L1150 789Q1138 821 1122 842T1062 863Q1030
863 995 833T928 755T869 651T827 540T812 445Q812 412 822 400T857 388Q875 388 898 403T947 447T998 521T1045 622L1145 878L1236 989H1495L1348 452Q1339 420 1335 397T1331 355Q1331 316 1349 302T1405 287Z" />
<glyph unicode="A" horiz-adv-x="1558" d="M329 410L376 550H1040L993 410H329ZM1337 120L1472 55L1455 0H771L789 55L955 116L852 1166L914 1174L200 112L336 55L318 0H-142L-125 55L29 112L881 1352H1195L1337 120Z" />
<glyph unicode="B" horiz-adv-x="1440" d="M644 1206L711 1352H1067Q1211 1352 1299 1317T1427 1218T1468 1073Q1468 960 1413 886T1256 771T1016 721L1019 737Q1198 727 1280 654T1363 464Q1363 323 1294 219T1087 58T740 0H299L328 150H675Q760 150 826 190T930
303T968 475Q968 550 926 597T786 644H475L524 787H850Q920 787 971 823T1052 922T1081 1061Q1081 1106 1064 1138T1012 1188T921 1206H644ZM446 1244L323 1298L339 1352H872L459 0H-68L-52 55L99 114L446 1244Z" />
<glyph unicode="C" horiz-adv-x="1428" d="M1081 160L971 83L1274 422H1369L1214 31Q1124 9 1011 -10T784 -30Q572 -30 426 39T205 232T129 520Q129 672 174 803T304 1041T508 1224T778 1341T1103 1382Q1171 1382 1232 1377T1352 1360T1470 1324L1271 1312L1427
1434H1489L1468 891H1376L1235 1287L1341 1130Q1292 1174 1238 1199T1110 1224Q1008 1224 920 1193T759 1101T634 957T553 766T525 534Q525 402 572 312T703 176T897 129Q932 129 979 136T1081 160Z" />
<glyph unicode="D" horiz-adv-x="1556" d="M612 146Q715 146 803 186T962 297T1083 464T1160 673T1187 906Q1187 1002 1150 1069T1040 1171T861 1207H654L661 1352H960Q1184 1352 1318 1288T1513 1114T1574 864Q1574 679 1505 522T1305 247T994 65T590 0H247L334
146H612ZM446 1244L323 1298L339 1352H872L459 0H-68L-52 55L99 114L446 1244Z" />
<glyph unicode="E" horiz-adv-x="1375" d="M446 1244L323 1298L339 1352H872L459 0H-68L-52 55L99 114L446 1244ZM1260 1273L1306 1207H635L681 1352H1293L1444 1432H1497L1427 944H1340L1260 1273ZM1017 -85L923 0H267L314 146H1006L874 84L1265 464L1342 441L1077
-85H1017ZM988 448H872L911 638H463L505 779H953L1032 969H1148L1068 708L988 448Z" />
<glyph unicode="F" horiz-adv-x="1266" d="M1113 921L1033 660L953 399H837L876 590H428L470 731H918L997 921H1113ZM1403 938H1317L1240 1273L1285 1207H618L664 1352H1273L1424 1432H1476L1403 938ZM491 108L614 55L598 0H-68L-52 55L99 114L446 1244L323 1298L339
1352H873L491 108Z" />
<glyph unicode="G" horiz-adv-x="1551" d="M896 129Q916 129 938 130T983 135T1028 143L903 66L1037 503L894 556L910 611H1577L1561 556L1429 497L1325 159L1368 86L1352 42Q1278 18 1194 2T1011 -22T794 -30Q583 -30 435 38T207 230T128 519Q128 671 175 803T308
1042T516 1225T789 1341T1113 1382Q1182 1382 1244 1378T1367 1361T1489 1324L1296 1312L1451 1434H1513L1492 891H1401L1259 1287L1359 1130Q1309 1175 1252 1199T1119 1224Q1017 1224 927 1192T763 1101T636 956T553 765T524 534Q524 402 572 312T704 176T896
129Z" />
<glyph unicode="H" horiz-adv-x="1687" d="M439 618L481 764H1394L1353 618H439ZM446 1244L323 1298L339 1352H1005L989 1298L838 1238L491 108L614 55L598 0H-68L-52 55L99 114L446 1244ZM1335 1244L1212 1298L1228 1352H1894L1878 1298L1727 1238L1380 108L1503
55L1487 0H821L837 55L988 114L1335 1244Z" />
<glyph unicode="I" horiz-adv-x="798" d="M446 1244L323 1298L339 1352H1005L989 1298L838 1238L491 108L614 55L598 0H-68L-52 55L99 114L446 1244Z" />
<glyph unicode="J" horiz-adv-x="992" d="M824 463Q792 360 728 271T574 114T373 10T138 -28Q19 -28 -37 14T-93 127Q-93 187 -59 224T30 262Q52 262 73 243T116 198T163 154T218 134Q274 134 312 167T376 284L671 1244L548 1298L564 1352H1230L1214 1298L1063
1238L824 463Z" />
<glyph unicode="K" horiz-adv-x="1586" d="M1405 109L1510 56L1493 0H835L852 55L964 95L752 629H513L559 773H848L1433 1247L1304 1298L1321 1352H1794L1776 1298L1617 1248L991 734L1069 872L1405 109ZM446 1244L323 1298L339 1352H1005L989 1298L838 1238L491
108L614 55L598 0H-68L-52 55L99 114L446 1244Z" />
<glyph unicode="L" horiz-adv-x="1299" d="M837 1234L459 0H-69L-52 56L101 118L444 1235L324 1296L342 1352H1008L990 1296L837 1234ZM817 88L1213 500L1291 477L1020 -94H960L863 0H194L242 146H937L817 88Z" />
<glyph unicode="M" horiz-adv-x="2067" d="M636 1242L231 124L364 56L347 0H-108L-91 56L80 123L485 1222L348 1298L364 1352H974L1010 210L885 156L1631 1352H1777L1766 1315L934 0H630L580 1204L636 1242ZM1679 1352H2217L2201 1298L2049 1238L1797 108L1917
55L1901 0H1240L1257 55L1406 114L1679 1352Z" />
<glyph unicode="N" horiz-adv-x="1515" d="M1197 227L1093 130L1433 1242L1297 1298L1313 1352H1741L1726 1298L1573 1243L1193 0H884L527 1200L589 1240L243 110L380 55L364 0H-65L-49 55L103 110L441 1214L311 1305L325 1352H853L1197 227Z" />
<glyph unicode="O" horiz-adv-x="1577" d="M499 395Q499 250 553 190T706 129Q782 129 849 163T974 259T1076 401T1152 575T1200 765T1217 957Q1217 1102 1163 1162T1009 1223Q934 1223 867 1189T742 1093T640 951T564 778T516 587T499 395ZM1589 845Q1589 704
1548 574T1431 334T1246 142T1004 15T714 -30Q521 -30 390 33T193 216T127 508Q127 649 167 779T284 1019T469 1210T711 1337T1002 1382Q1195 1382 1326 1319T1523 1136T1589 845Z" />
<glyph unicode="P" horiz-adv-x="1357" d="M816 684Q893 684 948 712T1039 789T1091 901T1108 1037Q1108 1090 1088 1128T1023 1186T907 1207H612L646 1352H1007Q1186 1352 1290 1309T1440 1192T1485 1026Q1485 927 1447 838T1332 682T1133 577T846 538H395L451
684H816ZM491 108L614 55L598 0H-68L-52 55L99 114L446 1244L323 1298L339 1352H873L491 108Z" />
<glyph unicode="Q" horiz-adv-x="1566" d="M566 -192L282 97Q230 154 195 216T143 349T125 503Q125 645 167 775T286 1016T471 1209T710 1337T991 1382Q1181 1382 1312 1319T1512 1137T1581 850Q1581 707 1538 576T1418 337T1234 151T1002 36T736 13L683 98L1028
-127Q1090 -167 1135 -195T1220 -241T1308 -264T1421 -268L1390 -372Q1349 -382 1303 -391T1201 -405T1075 -411Q945 -411 859 -388T706 -317T566 -192ZM512 424Q512 270 567 200T716 130Q787 130 850 162T966 253T1061 388T1133 554T1178 738T1194 929Q1194 1083
1139 1152T990 1222Q919 1222 856 1190T740 1100T645 965T573 799T528 614T512 424Z" />
<glyph unicode="R" horiz-adv-x="1488" d="M863 742Q954 742 1014 788T1103 907T1132 1062Q1132 1132 1092 1169T962 1207H531L646 1352H1077Q1236 1352 1332 1314T1472 1210T1516 1062Q1516 950 1461 864T1294 728T1011 674V679Q1099 671 1148 639T1223 553T1261
422L1296 240Q1309 170 1324 141T1361 105T1416 98L1393 0Q1243 -12 1153 -8T1016 20T948 91T916 208L881 429Q870 503 856 539T816 588T742 601H401L375 742H863ZM491 108L614 55L598 0H-68L-52 55L99 114L446 1244L323 1298L339 1352H873L491 108Z" />
<glyph unicode="S" horiz-adv-x="1202" d="M1099 1132Q1051 1182 977 1209T823 1237Q739 1237 685 1217T604 1159T578 1066Q578 1029 598 1000T674 937T834 857Q940 811 1004 758T1097 638T1126 489Q1126 325 1041 209T797 32T423 -30Q321 -30 227 -11T59 37L73
451H155L329 36L126 199Q205 164 283 144T444 124Q558 124 633 148T747 216T786 322Q786 357 772 386T728 441T647 496T520 556Q420 600 361 652T275 768T249 909Q249 1057 324 1163T535 1325T851 1382Q929 1382 1002 1369T1133 1333L1069 1334L1200 1434H1263L1216
931H1127L1005 1286L1099 1132Z" />
<glyph unicode="T" horiz-adv-x="1412" d="M1424 1198H395L554 1241L255 898L172 917L375 1432H439L565 1322L448 1352H1500L1364 1322L1559 1432H1625L1525 906H1444L1367 1249L1424 1198ZM756 1253H1150L798 108L921 55L905 0H238L255 55L407 114L756 1253Z" />
<glyph unicode="U" horiz-adv-x="1544" d="M595 552Q560 434 578 359T666 249T852 214Q959 214 1037 248T1170 359T1264 558L1473 1242L1336 1298L1352 1352H1781L1765 1298L1613 1243L1381 486Q1328 314 1238 199T1018 27T712 -30Q506 -30 372 38T190 231T192
522L413 1244L290 1298L306 1352H972L956 1298L805 1238L595 552Z" />
<glyph unicode="V" horiz-adv-x="1489" d="M361 1232L225 1298L243 1352H932L914 1298L748 1236L813 187L745 178L1428 1240L1290 1298L1308 1352H1768L1751 1298L1599 1240L778 0H465L361 1232Z" />
<glyph unicode="W" horiz-adv-x="2124" d="M2060 1240L1923 1298L1940 1352H2400L2382 1298L2230 1240L1543 0H1218L1219 1029L1274 1033L654 0H333L366 1230L230 1297L247 1352H931L912 1297L750 1234L714 260L667 262L1302 1352H1626L1600 253L1549 258L2060 1240Z" />
<glyph unicode="X" horiz-adv-x="1531" d="M781 610L239 117L355 55L338 0H-133L-116 55L47 118L728 723L879 787L1364 1236L1246 1298L1264 1352H1728L1711 1298L1547 1235L931 679L781 610ZM886 118L682 573L661 619L386 1232L261 1298L278 1352H1013L996 1297L828
1236L999 856L1017 817L1329 123L1454 55L1436 0H696L713 55L886 118Z" />
<glyph unicode="Y" horiz-adv-x="1482" d="M1403 1239L1266 1298L1284 1352H1741L1723 1298L1571 1240L1008 597L857 108L980 55L964 0H298L314 55L466 114L614 596L365 1229L230 1298L247 1352H933L915 1298L750 1233L955 654L894 653L1403 1239Z" />
<glyph unicode="Z" horiz-adv-x="1335" d="M1490 1352L1461 1261L442 77L237 146H943L1221 437L1294 422L1081 -77H1028L915 0H-18L9 92L1023 1275L1271 1207H563L272 913L198 940L411 1429H461L588 1352H1490Z" />
<glyph unicode="[" horiz-adv-x="639" d="M-50 -244L456 1410H896L859 1290H654L221 -125H426L390 -244H-50Z" />
<glyph unicode="\" horiz-adv-x="784" d="M604 0H455L318 1352H467L604 0Z" />
<glyph unicode="]" horiz-adv-x="639" d="M771 1410L265 -244H-175L-139 -125H67L500 1290H293L330 1410H771Z" />
<glyph unicode="^" horiz-adv-x="1033" d="M724 1246H830L342 602H153L722 1352H867L980 602H818L724 1246Z" />
<glyph unicode="_" horiz-adv-x="783" d="M-191 -176H591L550 -312H-232L-191 -176Z" />
<glyph unicode="`" horiz-adv-x="1000" d="M737 1031H635L388 1311L403 1361H685L737 1031Z" />
<glyph unicode="a" horiz-adv-x="1234" d="M614 104L723 420H740Q656 276 588 188T462 52T350 -13T239 -30Q174 -30 121 -4T37 72T6 197Q6 291 38 392T129 589T264 760T430 882T614 927Q698 927 761 889T874 758L821 684Q808 723 780 747T702 771Q659 771 613
734T523 636T444 505T389 367T368 250Q368 218 378 206T419 193Q448 193 483 214T554 274T624 367T686 483L815 775L924 901H1203L930 73L872 171Q926 174 973 189T1070 238T1176 327L1224 278Q1105 120 986 45T754 -30Q655 -30 622 0T614 104Z" />
<glyph unicode="b" horiz-adv-x="1126" d="M390 322Q378 282 372 249T366 191Q366 138 389 113T453 88Q488 88 526 117T600 196T666 312T713 450T731 598Q731 648 716 670T667 692Q641 692 612 676T554 630T496 559T445 470T405 368L390 322ZM318 1167Q301 1190
279 1211T231 1252T177 1294L196 1360L721 1440H764L454 585L439 580Q517 711 590 788T734 898T868 931Q979 931 1044 860T1109 671Q1109 567 1076 466T982 275T838 117T652 9T435 -30Q271 -30 172 58T73 290Q73 321 77 354T93 422L318 1167Z" />
<glyph unicode="c" horiz-adv-x="934" d="M605 812Q565 812 529 780T463 690T418 554T401 385Q401 281 437 238T558 194Q606 194 647 210T726 263T803 364H875Q818 212 751 127T600 6T410 -30Q228 -30 136 65T44 330Q44 463 94 573T230 763T429 887T668 931Q824
931 891 880T958 754Q958 692 913 656T797 620Q785 620 770 640T724 711Q694 762 665 787T605 812Z" />
<glyph unicode="d" horiz-adv-x="1227" d="M811 684Q798 723 770 747T693 771Q650 771 605 734T517 636T442 505T390 367T370 250Q370 218 380 206T421 193Q444 193 474 208T539 255T609 334T676 444T736 587L930 1152Q914 1180 891 1205T842 1254T795 1294L814
1360L1334 1440H1377L921 73L864 171Q917 174 964 189T1061 238T1167 327L1216 278Q1096 120 978 45T745 -30Q647 -30 613 0T604 104L713 420H730Q646 276 580 188T459 52T351 -13T241 -30Q177 -30 124 -4T40 72T8 197Q8 291 39 392T127 589T259 760T422 882T605
927Q688 927 751 889T865 758L811 684Z" />
<glyph unicode="e" horiz-adv-x="978" d="M625 814Q593 814 561 793T500 733T449 641T413 523T400 385Q400 281 442 238T566 194Q622 194 667 209T754 260T835 358H909Q847 207 775 123T615 4T420 -30Q297 -30 213 13T86 135T43 323Q43 429 74 521T164 689T300
818T472 902T669 931Q779 931 846 904T943 831T973 727Q973 677 956 629T906 539Q842 515 769 493T617 452T459 415T301 384L305 478Q403 510 470 536T580 585T645 631T675 681T683 741Q683 765 677 781T658 805T625 814Z" />
<glyph unicode="f" horiz-adv-x="808" d="M94 780L111 901H938L921 780H94ZM561 355Q501 106 426 -62T262 -331T73 -475T-133 -519Q-266 -519 -325 -469T-384 -338Q-384 -274 -345 -239T-244 -203Q-229 -216 -210 -240T-156 -311Q-122 -358 -96 -374T-42 -391Q-16
-391 5 -383T44 -356T75 -305T99 -225L310 803Q354 1016 462 1158T717 1370T1022 1440Q1123 1440 1184 1416T1274 1352T1302 1261Q1302 1195 1258 1157T1148 1119Q1137 1127 1117 1151T1062 1215Q1029 1255 990 1276T908 1298Q864 1298 833 1281T778 1216T733 1080L561
355Z" />
<glyph unicode="g" horiz-adv-x="1058" d="M1082 733Q1054 733 1031 749T982 788T921 830T836 856T712 848L721 915Q850 903 935 911T1076 931T1171 944Q1194 944 1209 932T1225 895Q1225 868 1214 839T1184 787T1139 748T1082 733ZM456 352Q489 352 517 380T568
455T606 554T630 659T638 747Q638 796 625 815T587 835Q554 835 526 807T475 733T437 634T413 529T405 441Q405 392 418 372T456 352ZM594 931Q712 931 789 896T904 798T943 654Q943 569 908 497T807 371T651 287T449 257Q332 257 254 292T138 390T100 534Q100
619 135 691T236 817T392 901T594 931ZM257 -519Q133 -519 49 -504T-87 -462T-160 -400T-182 -324Q-182 -275 -149 -231T-22 -153T253 -102H342L333 -113Q264 -118 212 -131T126 -165T73 -215T55 -282Q55 -315 84 -346T177 -397T347 -417Q426 -417 480 -402T562
-359T589 -297Q589 -280 578 -266T535 -238T444 -209T289 -176Q169 -154 102 -121T7 -43T-21 58Q-21 134 23 189T150 277T354 311L365 283Q289 284 259 262T228 209Q228 196 238 185T278 163T361 140T503 115Q649 91 732 51T850 -41T885 -155Q885 -234 846 -301T729
-416T533 -492T257 -519Z" />
<glyph unicode="h" horiz-adv-x="1228" d="M398 183L341 0H-9L346 1167Q328 1190 306 1211T258 1252T205 1294L224 1360L746 1440H790L404 366L400 390Q470 552 536 657T667 822T794 906T923 931Q1038 931 1089 880T1141 749Q1141 709 1130 656T1092 534L917 76L851
171Q906 171 954 185T1054 234T1171 324L1217 273Q1130 165 1046 99T879 1T712 -30Q615 -30 581 8T576 123L730 519Q750 572 757 598T765 641Q765 662 754 674T720 686Q688 686 650 660T571 576T486 421T398 183Z" />
<glyph unicode="i" horiz-adv-x="733" d="M77 136L335 808L406 733Q342 735 291 721T191 673T81 579L32 628Q116 737 201 803T370 900T536 931Q645 931 677 891T676 764L418 76L344 169Q409 167 459 180T559 225T665 307L712 255Q627 156 543 93T375 0T209 -30Q108
-30 75 9T77 136ZM444 1252Q444 1307 468 1349T538 1414T646 1437Q733 1437 787 1390T841 1261Q841 1207 817 1165T747 1100T638 1076Q552 1076 498 1124T444 1252Z" />
<glyph unicode="j" horiz-adv-x="689" d="M428 1252Q428 1307 452 1349T522 1414T630 1437Q716 1437 770 1390T824 1261Q824 1207 800 1165T730 1100T622 1076Q536 1076 482 1124T428 1252ZM452 59Q392 -143 291 -271T64 -459T-201 -519Q-333 -519 -391 -470T-449
-345Q-449 -292 -416 -256T-315 -219Q-302 -219 -284 -239T-239 -305Q-210 -351 -186 -372T-142 -394Q-116 -394 -94 -382T-53 -344T-16 -275T22 -171L318 808L390 733Q328 735 278 721T179 673T72 581L22 630Q106 737 189 803T356 900T520 931Q593 931 629 914T671
861T660 764L452 59Z" />
<glyph unicode="k" horiz-adv-x="1231" d="M781 1440L343 0H-9L346 1167Q328 1190 306 1211T258 1252T205 1294L224 1360L738 1440H781ZM472 483L500 534Q627 661 717 739T873 858T992 915T1094 931Q1175 931 1218 884T1262 774Q1262 717 1238 677T1172 616T1084
594Q1069 594 1053 610T1018 661Q999 697 980 713T937 730Q908 730 873 717T796 678T704 611T600 517L729 688Q787 526 826 429T892 281T938 215T976 198Q992 198 1012 207T1062 241T1136 315L1184 268Q1116 170 1047 104T908 4T772 -30Q738 -30 707 -10T640 64T565
220T472 483Z" />
<glyph unicode="l" horiz-adv-x="694" d="M368 1172Q352 1194 331 1214T284 1254T232 1294L251 1360L773 1440H817L369 73L302 175Q369 170 423 181T531 223T644 308L691 257Q602 152 514 89T337 -2T163 -30Q66 -30 34 10T29 136L368 1172Z" />
<glyph unicode="m" horiz-adv-x="1845" d="M1533 76L1467 171Q1522 171 1570 185T1670 234T1787 324L1833 273Q1745 165 1661 99T1494 1T1328 -30Q1231 -30 1197 8T1192 123L1347 521Q1367 573 1375 599T1383 641Q1383 662 1373 675T1341 688Q1317 688 1285 666T1214
587T1131 433T1038 183L980 0H621L798 535Q810 569 816 591T824 626T826 648Q826 669 816 678T785 687Q758 687 726 661T658 577T582 421T497 183L440 0H90L306 710Q302 710 299 710T291 710Q246 710 215 699T155 651T86 536L29 558Q73 701 132 782T268 896T441
929Q482 929 513 928T576 922T648 911L495 369V392Q560 555 621 660T741 824T858 907T973 931Q1061 931 1105 889T1150 768Q1150 744 1146 717T1132 658L1045 356H1031Q1099 528 1163 639T1289 814T1413 904T1542 931Q1656 931 1706 880T1757 749Q1757 709 1747
656T1709 534L1533 76Z" />
<glyph unicode="n" horiz-adv-x="1328" d="M86 536L29 558Q73 701 132 782T268 896T441 929Q483 929 514 928T578 922T652 911L499 369V390Q569 552 636 657T766 822T893 906T1022 931Q1138 931 1189 880T1240 749Q1240 709 1229 656T1192 534L1016 76L951 171Q1006
171 1054 185T1153 234T1271 324L1316 273Q1229 165 1145 99T978 1T811 -30Q715 -30 681 8T676 123L830 519Q850 572 857 598T864 641Q864 662 854 674T819 686Q787 686 750 660T671 576T585 421T497 183L440 0H90L306 710Q302 710 299 710T291 710Q246 710 215
699T155 651T86 536Z" />
<glyph unicode="o" horiz-adv-x="1092" d="M643 931Q779 931 868 884T1000 752T1044 557Q1044 434 1000 328T874 141T685 15T449 -30Q313 -30 224 17T91 149T47 343Q47 467 92 573T217 760T406 886T643 931ZM451 102Q485 102 521 137T591 233T651 370T692 527T708
684Q708 751 691 774T641 798Q607 798 571 763T501 667T441 531T400 374T384 217Q384 149 401 126T451 102Z" />
<glyph unicode="p" horiz-adv-x="1254" d="M513 317Q503 279 499 249T494 195Q494 140 516 114T579 87Q611 87 647 114T717 188T778 298T821 432T837 576Q837 633 822 662T765 691Q740 691 712 673T656 622T603 549T557 461T526 369L513 317ZM315 103H480L337
-386L459 -436L442 -489H-159L-143 -437L-22 -386L306 710Q302 710 299 710T290 710Q245 710 214 699T153 651T83 537L27 558Q71 702 131 782T269 896T443 929Q506 929 549 925T652 911L539 522L520 514Q589 661 658 752T801 887T960 931Q1073 931 1148 853T1224
637Q1224 538 1196 442T1116 260T990 110T825 7T628 -30Q504 -30 423 3T315 103Z" />
<glyph unicode="q" horiz-adv-x="1167" d="M449 -386L702 426H738Q654 282 587 193T461 55T350 -12T239 -30Q174 -30 121 -4T37 72T6 197Q6 291 38 392T129 589T264 760T430 882T614 927Q698 927 761 889T874 758L821 684Q808 723 780 747T702 771Q659 771 613
734T523 636T444 505T389 367T368 250Q368 218 378 206T419 193Q448 193 483 214T556 275T628 370T690 494L802 775L912 901H1187L812 -385L902 -437L884 -489H283L300 -436L449 -386Z" />
<glyph unicode="r" horiz-adv-x="1053" d="M306 710Q302 710 299 710T291 710Q246 710 215 699T155 651T86 536L29 558Q73 701 132 782T268 896T441 929Q484 929 516 928T581 922T652 911L499 369L495 392Q580 595 661 712T819 880T968 931Q1051 931 1093 887T1136
770Q1136 717 1110 674T1042 604T949 578Q934 578 920 591T887 630Q867 656 848 668T807 680Q781 680 751 662T690 604T625 503T558 358T491 164L442 0H90L306 710Z" />
<glyph unicode="s" horiz-adv-x="845" d="M135 250Q143 240 158 222T207 159Q242 114 276 96T349 77Q388 77 415 87T456 116T471 162Q471 188 460 211T416 261T320 326Q258 364 218 404T160 492T141 602Q141 694 192 768T338 887T565 931Q671 931 734 910T826
851T855 767Q855 729 838 703T789 663T710 649Q701 658 686 677T641 736Q613 776 580 800T513 824Q465 824 444 803T422 747Q422 724 433 702T477 651T575 576Q640 531 677 490T731 405T747 314Q747 219 691 141T532 17T291 -30Q180 -30 113 -9T14 48T-17 128Q-17
166 1 193T53 235T135 250Z" />
<glyph unicode="t" horiz-adv-x="822" d="M102 780L118 901H912L894 780H102ZM549 456Q526 385 515 345T501 284T498 250Q498 227 507 219T535 211Q553 211 577 224T637 269T724 358L781 308Q709 205 643 139T517 36T400 -15T294 -30Q218 -30 174 10T129 155Q129
199 143 268T186 426L421 1148H780L549 456Z" />
<glyph unicode="u" horiz-adv-x="1263" d="M686 106L804 513L824 490Q764 355 707 257T591 95T466 1T322 -30Q212 -30 163 21T113 152Q113 191 125 244T162 367L323 825L390 734Q326 735 275 720T177 670T74 579L24 626Q101 734 183 801T349 899T517 931Q621 931
652 890T653 764L517 380Q499 327 491 301T483 257Q483 238 496 226T533 213Q560 213 589 233T647 295T707 405T767 567L871 901H1221L966 72L904 172Q956 174 1004 190T1101 239T1210 329L1259 280Q1144 125 1021 48T803 -30Q722 -30 693 0T686 106Z" />
<glyph unicode="v" horiz-adv-x="1153" d="M1127 723Q1127 600 1088 488T981 281T823 117T631 9T422 -30Q291 -30 225 27T158 190Q158 254 182 330L300 710Q296 710 293 710T285 710Q242 710 213 698T157 648T89 536L29 563Q67 666 109 736T206 848T332 909T499
928Q548 928 586 926T656 920T719 911L549 370Q540 340 535 314T530 267Q530 217 554 192T624 167Q663 167 705 185T788 238T860 320T912 428T931 556Q931 607 912 637T865 685T819 720T799 758Q799 831 843 881T961 931Q1033 931 1080 882T1127 723Z" />
<glyph unicode="w" horiz-adv-x="1678" d="M913 901H1261L1113 372Q1104 339 1100 311T1095 261Q1095 212 1115 190T1177 167Q1210 167 1249 185T1325 237T1394 319T1443 427T1461 556Q1461 606 1441 635T1393 684T1346 718T1325 757Q1325 827 1372 879T1490 931Q1536
931 1572 910T1629 843T1651 723Q1651 595 1613 482T1510 274T1359 112T1178 7T986 -30Q881 -30 826 6T771 135Q771 163 777 197T795 274L859 497L877 486Q827 335 769 235T649 77T522 -6T392 -30Q276 -30 216 27T155 186Q155 249 180 330L298 710Q294 710 291
710T283 710Q240 710 211 698T154 648T87 536L27 563Q65 666 107 736T204 848T330 909T497 928Q550 928 589 926T660 920T717 911L544 359Q530 316 524 286T518 234Q518 200 532 187T573 174Q608 174 645 206T721 309T793 497L913 901Z" />
<glyph unicode="x" horiz-adv-x="1144" d="M621 382L557 423L394 197Q330 109 279 60T180 -10T81 -30Q6 -30 -35 12T-77 116Q-77 166 -55 202T0 260T69 281Q86 281 99 272T128 240Q146 219 163 209T202 199Q223 199 249 213T313 264T400 366L523 528L594 490L749
697Q816 786 869 837T972 909T1071 931Q1147 931 1188 889T1229 785Q1229 737 1208 700T1153 641T1083 620Q1069 620 1056 628T1024 660Q1007 683 990 692T950 702Q925 702 891 683T818 627T739 538L621 382ZM1097 340Q1034 200 965 119T816 4T638 -30Q587 -30
555 -15T504 31T474 113L352 670Q345 699 341 705T329 712Q298 712 259 676T171 541L90 555Q143 695 207 777T347 895T515 931Q566 931 598 916T649 870T679 787L800 222Q807 192 810 186T822 179Q851 179 881 195T947 250T1023 355L1097 340Z" />
<glyph unicode="y" horiz-adv-x="1102" d="M103 473L20 481Q52 601 89 686T172 826T272 906T395 931Q435 931 464 915T517 862T564 760Q587 697 612 600T664 369T721 59L474 -294Q448 -150 425 -34T382 175T344 345T308 489Q285 577 272 618T250 670T231 682Q212
682 191 663T147 598T103 473ZM571 -27L607 -39Q673 62 720 167T798 387T843 628T858 901Q889 909 945 915T1053 921Q1087 921 1102 909T1117 869Q1117 819 1102 748T1057 590T984 404T884 202T758 -5Q640 -182 528 -295T311 -464T108 -519Q1 -519 -47 -472T-95
-352Q-95 -285 -50 -242T58 -199Q70 -199 87 -213T130 -261Q155 -294 181 -311T229 -328Q278 -328 336 -295T454 -196T571 -27Z" />
<glyph unicode="z" horiz-adv-x="975" d="M-19 63L948 940L1023 855L55 -22L-19 63ZM115 529L58 562Q110 678 158 754T258 869T366 917T491 907L865 801L605 541L380 609Q326 625 289 629T224 625T171 593T115 529ZM477 10L161 164L418 397L625 293Q667 272 700
264T765 265T833 301T917 378L965 340Q875 197 808 117T686 5T582 -22T477 10Z" />
<glyph unicode="{" horiz-adv-x="627" d="M64 528L97 636L152 639Q196 642 224 654T270 694T301 763Q314 807 319 880T332 1034T360 1180Q389 1279 483 1349T757 1432L870 1440L848 1329L793 1324Q723 1320 682 1282T618 1169Q603 1118 589 1056T559 928T524 797Q493
697 428 642T252 571L259 594Q311 583 340 561T382 507T395 437Q395 384 376 318T331 183T286 49T266 -70Q266 -112 283 -135T337 -164L388 -172L346 -275L252 -264Q146 -251 92 -185T37 -34Q37 23 62 88T120 220T178 347T203 454Q203 489 183 506T118 525L64 528Z"
/>
<glyph unicode="|" horiz-adv-x="482" d="M-124 -519L468 1481H626L34 -519H-124Z" />
<glyph unicode="}" horiz-adv-x="627" d="M644 636L611 528L556 525Q512 523 484 510T439 471T408 401Q394 357 389 284T377 131T348 -15Q319 -114 225 -183T-49 -267L-162 -275L-139 -165L-85 -160Q-14 -154 26 -117T90 -4Q106 47 120 109T149 237T184 367Q216
467 280 522T456 594L449 571Q398 583 368 604T326 657T314 728Q314 781 333 846T378 981T422 1116T442 1235Q442 1277 426 1300T371 1329L320 1337L363 1440L456 1429Q562 1416 616 1349T671 1199Q671 1141 646 1075T588 944T531 818T506 710Q506 676 526 659T590
639L644 636Z" />
<glyph unicode="~" horiz-adv-x="1033" d="M957 591Q928 488 888 424T796 331T673 301Q618 301 575 321T495 368T426 415T361 435Q319 435 292 410T240 309H77Q107 413 146 477T238 570T364 599Q418 599 461 579T539 533T607 486T673 466Q715 466 742 490T793 591H957Z" />
<glyph unicode="&#xa0;" horiz-adv-x="418" />
<glyph unicode="&#xa1;" horiz-adv-x="571" d="M-177 -346L-168 -319Q-161 -298 -148 -270T-113 -204T-61 -114T9 8T100 170T213 380H316Q307 263 301 171T293 9T288 -113T284 -204T279 -270T270 -319L263 -346Q249 -394 213 -426T124 -474T7 -490Q-57 -490 -104
-474T-171 -426T-177 -346ZM333 532Q254 532 213 576T171 689Q171 754 200 805T281 886T402 916Q482 916 523 872T564 758Q564 694 535 643T454 562T333 532Z" />
<glyph unicode="&#xa2;" horiz-adv-x="1342" d="M312 0L1157 1352H1276L431 0H312ZM867 1028Q828 1028 791 996T726 906T680 770T663 601Q663 498 699 455T821 411Q869 411 910 427T989 480T1065 580H1138Q1080 429 1013 343T862 222T672 186Q490 186 398 281T306
547Q306 679 356 789T493 979T692 1103T931 1147Q1086 1147 1153 1097T1220 971Q1220 908 1176 872T1060 836Q1048 836 1033 856T987 928Q957 978 928 1003T867 1028Z" />
<glyph unicode="&#xa3;" horiz-adv-x="1342" d="M1105 740L1067 616H152L190 740H1105ZM444 333H1145L776 188L1190 517H1269L1007 -62H949L864 0H45L62 63Q192 164 269 232T385 348T435 437T448 524Q448 574 432 618T394 708T356 811T340 947Q340 1064 397 1163T571
1322T872 1382Q1015 1382 1109 1327T1255 1167T1317 918L1203 897Q1183 1000 1131 1046T989 1092Q900 1092 850 1062T778 986T755 890Q754 841 756 806T759 736T755 658Q752 625 735 583T677 491T564 382T377 260L444 333Z" />
<glyph unicode="&#xa4;" horiz-adv-x="960" d="M180 740L321 841L434 676L290 571L180 740ZM830 805L915 680L750 558L665 678L830 805ZM781 161L641 59L528 225L671 329L781 161ZM46 221L211 343L297 223L131 95L46 221ZM533 765Q613 765 675 730T774 633T810
497Q810 401 766 319T637 187T428 136Q349 136 286 171T187 268T151 404Q151 500 195 582T324 714T533 765ZM448 280Q519 280 564 308T631 381T653 478Q653 541 615 581T513 621Q443 621 398 593T330 520T308 423Q308 360 346 320T448 280Z" />
<glyph unicode="&#xa5;" horiz-adv-x="1342" d="M593 1235L477 1292L496 1352H1186L1168 1292L1042 1251L1254 925L1193 939L1578 1253L1471 1292L1490 1352H1892L1873 1292L1743 1252L1269 876L1034 113L1196 52L1180 0H439L454 52L651 113L883 868L593 1235ZM1471
589L1432 465H468L506 589H1471ZM1565 896L1527 772H562L600 896H1565Z" />
<glyph unicode="&#xa6;" horiz-adv-x="482" d="M402 725H244L468 1481H626L402 725ZM-124 -519L132 345H289L34 -519H-124Z" />
<glyph unicode="&#xa7;" horiz-adv-x="1233" d="M582 731Q524 717 490 695T442 647T427 591Q427 544 464 516T560 467T685 424T810 368T906 278T944 134Q944 28 886 -66T704 -220T386 -279Q258 -279 178 -255T60 -191T22 -102Q22 -45 55 -11T142 23Q186 23 213
-3T266 -63T334 -124T447 -150Q509 -150 546 -132T600 -85T617 -25Q617 26 579 55T480 103T352 143T223 196T124 281T85 421Q85 551 181 648T501 785L582 731ZM869 513Q869 560 832 588T735 637T610 680T486 736T390 826T352 970Q352 1076 410 1170T591 1323T910
1382Q1038 1382 1118 1359T1236 1295T1274 1205Q1274 1150 1241 1116T1154 1081Q1110 1081 1083 1107T1029 1167T962 1228T848 1254Q787 1254 750 1236T696 1189T679 1129Q679 1079 717 1050T816 1000T944 960T1073 908T1172 823T1211 683Q1211 553 1115 456T794
319L714 373Q772 388 806 409T854 457T869 513Z" />
<glyph unicode="&#xa8;" horiz-adv-x="1000" d="M502 1053Q439 1053 400 1092T361 1188Q361 1229 380 1263T433 1318T516 1339Q580 1339 618 1300T657 1202Q657 1162 639 1128T587 1074T502 1053ZM938 1053Q875 1053 836 1092T797 1188Q797 1229 816 1263T869
1318T952 1339Q1016 1339 1054 1300T1093 1202Q1093 1162 1075 1128T1023 1074T938 1053Z" />
<glyph unicode="&#xa9;" horiz-adv-x="1682" d="M936 380Q966 380 994 388T1055 412L952 344L1150 544H1206L1096 317Q1039 302 986 295T861 288Q744 288 663 326T540 433T498 595Q498 692 532 778T637 931T815 1036T1069 1075Q1113 1075 1150 1070T1237 1050L1172
1033L1270 1099H1316L1255 790L1193 780L1136 1003L1183 931Q1159 957 1128 968T1060 980Q1003 980 956 945T873 851T819 715T800 556Q800 469 836 425T936 380ZM832 78Q983 78 1109 129T1327 275T1470 496T1521 776Q1521 923 1459 1035T1279 1211T990 1274Q839
1274 713 1223T494 1077T351 856T300 577Q300 430 362 318T543 142T832 78ZM999 1382Q1200 1382 1344 1309T1566 1103T1644 792Q1644 616 1585 467T1415 206T1155 32T823 -30Q623 -30 478 43T255 250T177 560Q177 736 237 886T406 1147T666 1320T999 1382Z" />
<glyph unicode="&#xaa;" horiz-adv-x="1015" d="M144 438L188 581H913L869 438H144ZM663 780L738 1009H751Q671 869 611 799T498 704T392 680Q320 680 272 721T224 845Q224 932 258 1024T353 1195T492 1323T661 1372Q720 1372 765 1345T846 1251L807 1196Q799
1225 779 1242T724 1259Q695 1259 663 1233T602 1165T549 1074T512 977T498 896Q498 872 505 864T533 855Q552 855 573 868T617 907T661 969T703 1051L795 1262L881 1352H1096L903 755L845 836Q899 838 949 849T1068 894L1094 844Q1026 786 971 750T867 697T765
680Q695 680 670 702T663 780Z" />
<glyph unicode="&#xab;" horiz-adv-x="1074" d="M334 480L425 43L329 -5L31 387L70 514L594 906L666 830L298 362L334 480ZM798 480L889 43L793 -5L496 387L534 514L1058 906L1130 830L762 362L798 480Z" />
<glyph unicode="&#xac;" horiz-adv-x="1033" d="M187 706H982L826 195H655L761 542H137L187 706Z" />
<glyph unicode="&#xad;" horiz-adv-x="723" d="M141 567H653L587 352H75L141 567Z" />
<glyph unicode="&#xae;" horiz-adv-x="1150" d="M922 759L911 721Q833 714 797 718T753 744T749 810L755 864Q757 886 751 897T711 908H631L649 972H762Q800 972 820 1000T841 1067Q841 1086 832 1096T803 1106H705L710 1173H865Q934 1173 962 1146T991 1081Q991
1024 948 988T817 950L810 954Q864 952 883 931T898 862L892 803Q890 774 895 767T922 759ZM767 1173L645 776L682 756L672 721H431L441 756L494 776L599 1119L558 1138L569 1173H767ZM677 582Q804 582 896 637T1038 787T1089 995Q1089 1089 1050 1155T939 1256T764
1291Q639 1291 546 1236T403 1087T353 878Q353 784 391 718T503 617T677 582ZM775 1382Q965 1382 1079 1281T1193 1010Q1193 865 1128 747T945 560T667 491Q476 491 362 592T248 863Q248 1009 313 1126T496 1313T775 1382Z" />
<glyph unicode="&#xaf;" horiz-adv-x="1000" d="M425 1120L472 1272H1031L985 1120H425Z" />
<glyph unicode="&#xb0;" horiz-adv-x="744" d="M592 1372Q719 1372 794 1303T870 1113Q870 1017 827 937T704 807T517 758Q390 758 315 827T239 1017Q239 1113 282 1193T405 1323T592 1372ZM529 866Q602 867 652 900T727 987T752 1102Q752 1182 708 1222T581 1263Q508
1263 458 1230T382 1144T357 1029Q357 948 401 907T529 866Z" />
<glyph unicode="&#xb1;" horiz-adv-x="1033" d="M568 901H739L496 102H325L568 901ZM162 584H953L902 419H112L162 584ZM35 165H826L775 0H-15L35 165Z" />
<glyph unicode="&#xb2;" horiz-adv-x="755" d="M566 700L821 919H866L701 571H671L608 604H134L158 685L370 846Q446 902 488 946T547 1027T564 1094Q564 1132 539 1154T466 1177Q415 1177 375 1148T299 1046L228 1078Q266 1177 316 1242T435 1340T598 1373Q712
1373 775 1324T838 1185Q838 1139 822 1098T766 1016T657 931T481 833L345 766L378 817H798L566 700Z" />
<glyph unicode="&#xb3;" horiz-adv-x="702" d="M368 928L359 1002Q446 1019 491 1039T552 1084T569 1142Q569 1177 546 1195T485 1214Q434 1214 400 1188T337 1104L271 1134Q318 1258 397 1318T610 1379Q710 1379 755 1334T800 1228Q800 1183 778 1145T707 1080T582
1044L581 1048Q676 1053 732 1006T789 881Q789 799 737 732T588 624T358 584Q217 584 167 620T116 699Q116 733 137 757T199 782Q224 782 241 767T274 731T313 696T371 680Q408 680 438 693T491 731T526 790T538 867Q538 910 509 926T410 933L368 928Z" />
<glyph unicode="&#xb4;" horiz-adv-x="1000" d="M618 1031L818 1361H1152L1137 1311L744 1031H618Z" />
<glyph unicode="&#xb5;" horiz-adv-x="1303" d="M735 567L839 901H1188L934 72L871 172Q924 174 971 190T1069 239T1177 329L1226 280Q1112 125 989 48T770 -30Q689 -30 661 0T654 106L771 513L792 490Q734 354 679 256T567 94T447 1T310 -30Q236 -30 191 -7T127
58T108 152L162 142L141 -478L-73 -510H-129L302 901H652L482 388Q464 335 457 305T450 257Q450 238 463 226T500 213Q527 213 556 233T615 295T675 405T735 567Z" />
<glyph unicode="&#xb6;" horiz-adv-x="1294" d="M558 -244H418L907 1352H1229L1190 1225H1007L558 -244ZM844 -244H704L1193 1352H1500L1480 1288L1296 1233L844 -244ZM979 1352L748 594H524Q348 594 274 666T199 855Q199 947 230 1036T327 1196T494 1310T737 1352H979Z" />
<glyph unicode="&#xb7;" horiz-adv-x="546" d="M311 655Q391 655 432 610T473 495Q473 429 443 376T361 293T240 262Q160 262 119 307T77 422Q77 489 107 541T191 624T311 655Z" />
<glyph unicode="&#xb8;" horiz-adv-x="1000" d="M156 -519Q78 -519 38 -493T-2 -427Q-2 -400 15 -380T64 -359Q89 -359 107 -376T148 -411T208 -429Q252 -429 275 -408T298 -353Q298 -323 259 -297T94 -246L99 -230L361 49H466L216 -219L246 -89Q371 -118 419
-166T467 -273Q467 -335 431 -391T326 -483T156 -519Z" />
<glyph unicode="&#xb9;" horiz-adv-x="581" d="M274 685L459 1290L503 1202L257 1134L238 1198L568 1352H726L522 685L612 651L598 604H139L154 651L274 685Z" />
<glyph unicode="&#xba;" horiz-adv-x="965" d="M118 438L162 581H887L843 438H118ZM740 1374Q899 1374 979 1301T1059 1108Q1059 1017 1023 939T922 803T771 713T582 680Q423 680 343 753T262 946Q262 1037 298 1115T399 1251T550 1341T740 1374ZM592 796Q630
796 665 830T729 921T775 1043T792 1173Q792 1223 775 1241T729 1259Q692 1259 656 1224T592 1134T546 1012T529 882Q529 832 546 814T592 796Z" />
<glyph unicode="&#xbb;" horiz-adv-x="1117" d="M292 421L201 858L297 906L595 514L556 387L32 -5L-40 71L328 539L292 421ZM756 421L665 858L761 906L1059 514L1021 387L497 -5L424 71L793 539L756 421Z" />
<glyph unicode="&#xbc;" horiz-adv-x="1753" d="M315 685L500 1290L544 1202L298 1134L279 1198L609 1352H767L563 685L653 651L639 604H180L195 651L315 685ZM187 0L1489 1352H1643L342 0H187ZM1336 686L1376 652L1004 292L985 357H1558L1681 373L1595 202H870L903
310L1354 748H1604L1399 81L1489 47L1475 0H1017L1032 47L1151 81L1336 686Z" />
<glyph unicode="&#xbd;" horiz-adv-x="1782" d="M186 0L1488 1352H1642L341 0H186ZM1388 96L1643 315H1688L1523 -33H1493L1430 0H956L980 81L1192 242Q1268 298 1310 342T1369 423T1386 490Q1386 528 1361 550T1288 573Q1237 573 1197 544T1121 442L1050 474Q1088
573 1138 638T1257 736T1420 769Q1534 769 1597 720T1660 581Q1660 535 1644 494T1588 412T1479 327T1303 229L1167 162L1200 213H1620L1388 96ZM314 685L499 1290L543 1202L297 1134L278 1198L608 1352H766L562 685L652 651L638 604H179L194 651L314 685Z" />
<glyph unicode="&#xbe;" horiz-adv-x="1794" d="M229 0L1531 1352H1685L384 0H229ZM401 928L392 1002Q479 1019 524 1039T585 1084T602 1142Q602 1177 579 1195T518 1214Q467 1214 433 1188T370 1104L304 1134Q351 1258 430 1318T643 1379Q743 1379 788 1334T833
1228Q833 1183 811 1145T740 1080T615 1044L614 1048Q709 1053 765 1006T822 881Q822 799 770 732T621 624T391 584Q250 584 200 620T149 699Q149 733 170 757T232 782Q257 782 274 767T307 731T346 696T404 680Q441 680 471 693T524 731T559 790T571 867Q571 910
542 926T443 933L401 928ZM1377 686L1417 652L1045 292L1026 357H1599L1722 373L1636 202H911L944 310L1395 748H1645L1440 81L1530 47L1516 0H1058L1073 47L1192 81L1377 686Z" />
<glyph unicode="&#xbf;" horiz-adv-x="1102" d="M670 532Q591 532 550 576T508 689Q508 754 537 805T619 886T740 916Q820 916 860 872T901 758Q901 694 872 643T791 562T670 532ZM506 -492Q371 -492 274 -459T113 -367T18 -235T-13 -79Q-13 48 42 132T222 254T556
276L397 110L563 385H664L583 4Q436 13 353 -6T236 -69T202 -178Q202 -221 225 -255T288 -308T378 -328Q431 -328 472 -307T550 -257T623 -207T705 -185Q756 -185 793 -220T831 -311Q831 -361 798 -402T694 -467T506 -492Z" />
<glyph unicode="&#xc0;" horiz-adv-x="1558" d="M329 410L376 550H1040L993 410H329ZM1337 120L1472 55L1455 0H771L789 55L955 116L852 1166L914 1174L200 112L336 55L318 0H-142L-125 55L29 112L881 1352H1195L1337 120ZM1111 1487H993L740 1694L755 1742H1053L1111
1487Z" />
<glyph unicode="&#xc1;" horiz-adv-x="1558" d="M329 410L376 550H1040L993 410H329ZM1337 120L1472 55L1455 0H771L789 55L955 116L852 1166L914 1174L200 112L336 55L318 0H-142L-125 55L29 112L881 1352H1195L1337 120ZM993 1487L1172 1742H1504L1489 1694L1140
1487H993Z" />
<glyph unicode="&#xc2;" horiz-adv-x="1558" d="M329 410L376 550H1040L993 410H329ZM1337 120L1472 55L1455 0H771L789 55L955 116L852 1166L914 1174L200 112L336 55L318 0H-142L-125 55L29 112L881 1352H1195L1337 120ZM715 1487L1001 1742H1261L1391 1487H1240L1076
1614H1139L897 1487H715Z" />
<glyph unicode="&#xc3;" horiz-adv-x="1558" d="M329 410L376 550H1040L993 410H329ZM1337 120L1472 55L1455 0H771L789 55L955 116L852 1166L914 1174L200 112L336 55L318 0H-142L-125 55L29 112L881 1352H1195L1337 120ZM1444 1742Q1391 1635 1350 1579T1269
1502T1181 1481Q1146 1481 1117 1493T1062 1522T1012 1551T962 1564Q944 1564 929 1558T898 1536T863 1487H739Q792 1594 833 1650T914 1727T1002 1748Q1037 1748 1066 1736T1120 1707T1170 1678T1221 1665Q1239 1665 1254 1671T1286 1693T1320 1742H1444Z" />
<glyph unicode="&#xc4;" horiz-adv-x="1558" d="M329 410L376 550H1040L993 410H329ZM1337 120L1472 55L1455 0H771L789 55L955 116L852 1166L914 1174L200 112L336 55L318 0H-142L-125 55L29 112L881 1352H1195L1337 120ZM852 1472Q789 1472 750 1511T711 1607Q711
1647 730 1681T783 1737T866 1758Q930 1758 969 1719T1008 1621Q1008 1581 990 1547T937 1493T852 1472ZM1316 1472Q1253 1472 1214 1511T1175 1607Q1175 1647 1194 1681T1247 1737T1331 1758Q1395 1758 1433 1719T1472 1621Q1472 1581 1454 1547T1401 1493T1316
1472Z" />
<glyph unicode="&#xc5;" horiz-adv-x="1558" d="M329 410L376 550H1040L993 410H329ZM1337 120L1472 55L1455 0H771L789 55L955 116L852 1166L914 1174L200 112L336 55L318 0H-142L-125 55L29 112L881 1352H1195L1337 120ZM1092 1806Q1176 1806 1230 1753T1285
1616Q1285 1534 1231 1480T1092 1425Q1008 1425 953 1479T898 1616Q898 1699 953 1752T1092 1806ZM1092 1499Q1142 1499 1174 1532T1207 1616Q1207 1670 1175 1703T1092 1736Q1042 1736 1009 1703T976 1616Q976 1565 1009 1532T1092 1499Z" />
<glyph unicode="&#xc6;" horiz-adv-x="2107" d="M180 112L316 55L299 0H-162L-145 55L9 112L1006 1220L817 1298L834 1352H1605L1191 0H664L681 55L832 114L1179 1243L1190 1236L180 112ZM1750 -85L1656 0H1000L1047 146H1738L1607 84L1997 464L2075 441L1810
-85H1750ZM412 417L459 558H1053L1006 417H412ZM1605 448L1644 638H1196L1238 779H1686L1764 969H1881L1801 708L1721 448H1605ZM2073 944L1993 1273L2039 1207H1368L1414 1352H2026L2177 1432H2229L2160 944H2073Z" />
<glyph unicode="&#xc7;" horiz-adv-x="1428" d="M1081 160L971 83L1274 422H1369L1214 31Q1124 9 1011 -10T784 -30Q572 -30 426 39T205 232T129 520Q129 672 174 803T304 1041T508 1224T778 1341T1103 1382Q1171 1382 1232 1377T1352 1360T1470 1324L1271 1312L1427
1434H1489L1468 891H1376L1235 1287L1341 1130Q1292 1174 1238 1199T1110 1224Q1008 1224 920 1193T759 1101T634 957T553 766T525 534Q525 402 572 312T703 176T897 129Q932 129 979 136T1081 160ZM589 -429Q632 -429 655 -408T678 -353Q678 -323 640 -297T475
-246L479 -230L742 49H846L596 -219L626 -89Q751 -118 799 -166T847 -273Q847 -335 811 -391T706 -483T537 -519Q459 -519 419 -493T378 -427Q378 -400 396 -380T444 -359Q469 -359 487 -376T528 -411T589 -429Z" />
<glyph unicode="&#xc8;" horiz-adv-x="1375" d="M446 1244L323 1298L339 1352H872L459 0H-68L-52 55L99 114L446 1244ZM1260 1273L1306 1207H635L681 1352H1293L1444 1432H1497L1427 944H1340L1260 1273ZM1017 -85L923 0H267L314 146H1006L874 84L1265 464L1342
441L1077 -85H1017ZM988 448H872L911 638H463L505 779H953L1032 969H1148L1068 708L988 448ZM1012 1487H894L641 1694L656 1742H954L1012 1487Z" />
<glyph unicode="&#xc9;" horiz-adv-x="1375" d="M446 1244L323 1298L339 1352H872L459 0H-68L-52 55L99 114L446 1244ZM1260 1273L1306 1207H635L681 1352H1293L1444 1432H1497L1427 944H1340L1260 1273ZM1017 -85L923 0H267L314 146H1006L874 84L1265 464L1342
441L1077 -85H1017ZM988 448H872L911 638H463L505 779H953L1032 969H1148L1068 708L988 448ZM894 1487L1073 1742H1405L1390 1694L1041 1487H894Z" />
<glyph unicode="&#xca;" horiz-adv-x="1375" d="M446 1244L323 1298L339 1352H872L459 0H-68L-52 55L99 114L446 1244ZM1260 1273L1306 1207H635L681 1352H1293L1444 1432H1497L1427 944H1340L1260 1273ZM1017 -85L923 0H267L314 146H1006L874 84L1265 464L1342
441L1077 -85H1017ZM988 448H872L911 638H463L505 779H953L1032 969H1148L1068 708L988 448ZM616 1487L902 1742H1162L1292 1487H1141L977 1614H1040L798 1487H616Z" />
<glyph unicode="&#xcb;" horiz-adv-x="1375" d="M446 1244L323 1298L339 1352H872L459 0H-68L-52 55L99 114L446 1244ZM1260 1273L1306 1207H635L681 1352H1293L1444 1432H1497L1427 944H1340L1260 1273ZM1017 -85L923 0H267L314 146H1006L874 84L1265 464L1342
441L1077 -85H1017ZM988 448H872L911 638H463L505 779H953L1032 969H1148L1068 708L988 448ZM753 1472Q690 1472 651 1511T612 1607Q612 1647 631 1681T684 1737T767 1758Q831 1758 870 1719T909 1621Q909 1581 891 1547T838 1493T753 1472ZM1217 1472Q1154 1472
1115 1511T1076 1607Q1076 1647 1095 1681T1148 1737T1232 1758Q1296 1758 1334 1719T1373 1621Q1373 1581 1355 1547T1302 1493T1217 1472Z" />
<glyph unicode="&#xcc;" horiz-adv-x="798" d="M446 1244L323 1298L339 1352H1005L989 1298L838 1238L491 108L614 55L598 0H-68L-52 55L99 114L446 1244ZM775 1487H657L404 1694L419 1742H717L775 1487Z" />
<glyph unicode="&#xcd;" horiz-adv-x="798" d="M446 1244L323 1298L339 1352H1005L989 1298L838 1238L491 108L614 55L598 0H-68L-52 55L99 114L446 1244ZM657 1487L836 1742H1168L1153 1694L804 1487H657Z" />
<glyph unicode="&#xce;" horiz-adv-x="798" d="M446 1244L323 1298L339 1352H1005L989 1298L838 1238L491 108L614 55L598 0H-68L-52 55L99 114L446 1244ZM379 1487L665 1742H925L1055 1487H904L740 1614H803L561 1487H379Z" />
<glyph unicode="&#xcf;" horiz-adv-x="798" d="M446 1244L323 1298L339 1352H1005L989 1298L838 1238L491 108L614 55L598 0H-68L-52 55L99 114L446 1244ZM516 1472Q453 1472 414 1511T375 1607Q375 1647 394 1681T447 1737T530 1758Q594 1758 633 1719T672 1621Q672
1581 654 1547T601 1493T516 1472ZM980 1472Q917 1472 878 1511T839 1607Q839 1647 858 1681T911 1737T995 1758Q1059 1758 1097 1719T1136 1621Q1136 1581 1118 1547T1065 1493T980 1472Z" />
<glyph unicode="&#xd0;" horiz-adv-x="1561" d="M123 613L168 758H926L881 613H123ZM617 146Q720 146 808 186T967 297T1088 464T1165 673T1192 906Q1192 1002 1155 1069T1045 1171T866 1207H659L666 1352H965Q1189 1352 1323 1288T1518 1114T1579 864Q1579 679
1510 522T1310 247T999 65T595 0H252L339 146H617ZM451 1244L328 1298L344 1352H877L464 0H-63L-47 55L104 114L451 1244Z" />
<glyph unicode="&#xd1;" horiz-adv-x="1515" d="M1197 227L1093 130L1433 1242L1297 1298L1313 1352H1741L1726 1298L1573 1243L1193 0H884L527 1200L589 1240L243 110L380 55L364 0H-65L-49 55L103 110L441 1214L311 1305L325 1352H853L1197 227ZM1469 1742Q1416
1635 1375 1579T1294 1502T1206 1481Q1171 1481 1142 1493T1087 1522T1037 1551T987 1564Q969 1564 954 1558T923 1536T888 1487H764Q817 1594 858 1650T939 1727T1027 1748Q1062 1748 1091 1736T1145 1707T1195 1678T1246 1665Q1264 1665 1279 1671T1311 1693T1345
1742H1469Z" />
<glyph unicode="&#xd2;" horiz-adv-x="1577" d="M499 395Q499 250 553 190T706 129Q782 129 849 163T974 259T1076 401T1152 575T1200 765T1217 957Q1217 1102 1163 1162T1009 1223Q934 1223 867 1189T742 1093T640 951T564 778T516 587T499 395ZM1589 845Q1589
704 1548 574T1431 334T1246 142T1004 15T714 -30Q521 -30 390 33T193 216T127 508Q127 649 167 779T284 1019T469 1210T711 1337T1002 1382Q1195 1382 1326 1319T1523 1136T1589 845ZM1154 1487H1036L783 1694L798 1742H1096L1154 1487Z" />
<glyph unicode="&#xd3;" horiz-adv-x="1577" d="M499 395Q499 250 553 190T706 129Q782 129 849 163T974 259T1076 401T1152 575T1200 765T1217 957Q1217 1102 1163 1162T1009 1223Q934 1223 867 1189T742 1093T640 951T564 778T516 587T499 395ZM1589 845Q1589
704 1548 574T1431 334T1246 142T1004 15T714 -30Q521 -30 390 33T193 216T127 508Q127 649 167 779T284 1019T469 1210T711 1337T1002 1382Q1195 1382 1326 1319T1523 1136T1589 845ZM1036 1487L1215 1742H1547L1532 1694L1183 1487H1036Z" />
<glyph unicode="&#xd4;" horiz-adv-x="1577" d="M499 395Q499 250 553 190T706 129Q782 129 849 163T974 259T1076 401T1152 575T1200 765T1217 957Q1217 1102 1163 1162T1009 1223Q934 1223 867 1189T742 1093T640 951T564 778T516 587T499 395ZM1589 845Q1589
704 1548 574T1431 334T1246 142T1004 15T714 -30Q521 -30 390 33T193 216T127 508Q127 649 167 779T284 1019T469 1210T711 1337T1002 1382Q1195 1382 1326 1319T1523 1136T1589 845ZM758 1487L1044 1742H1304L1434 1487H1283L1119 1614H1182L940 1487H758Z" />
<glyph unicode="&#xd5;" horiz-adv-x="1577" d="M499 395Q499 250 553 190T706 129Q782 129 849 163T974 259T1076 401T1152 575T1200 765T1217 957Q1217 1102 1163 1162T1009 1223Q934 1223 867 1189T742 1093T640 951T564 778T516 587T499 395ZM1589 845Q1589
704 1548 574T1431 334T1246 142T1004 15T714 -30Q521 -30 390 33T193 216T127 508Q127 649 167 779T284 1019T469 1210T711 1337T1002 1382Q1195 1382 1326 1319T1523 1136T1589 845ZM1487 1742Q1434 1635 1393 1579T1312 1502T1224 1481Q1189 1481 1160 1493T1105
1522T1055 1551T1005 1564Q987 1564 972 1558T941 1536T906 1487H782Q835 1594 876 1650T957 1727T1045 1748Q1080 1748 1109 1736T1163 1707T1213 1678T1264 1665Q1282 1665 1297 1671T1329 1693T1363 1742H1487Z" />
<glyph unicode="&#xd6;" horiz-adv-x="1577" d="M499 395Q499 250 553 190T706 129Q782 129 849 163T974 259T1076 401T1152 575T1200 765T1217 957Q1217 1102 1163 1162T1009 1223Q934 1223 867 1189T742 1093T640 951T564 778T516 587T499 395ZM1589 845Q1589
704 1548 574T1431 334T1246 142T1004 15T714 -30Q521 -30 390 33T193 216T127 508Q127 649 167 779T284 1019T469 1210T711 1337T1002 1382Q1195 1382 1326 1319T1523 1136T1589 845ZM895 1472Q832 1472 793 1511T754 1607Q754 1647 773 1681T826 1737T909 1758Q973
1758 1012 1719T1051 1621Q1051 1581 1033 1547T980 1493T895 1472ZM1359 1472Q1296 1472 1257 1511T1218 1607Q1218 1647 1237 1681T1290 1737T1374 1758Q1438 1758 1476 1719T1515 1621Q1515 1581 1497 1547T1444 1493T1359 1472Z" />
<glyph unicode="&#xd7;" horiz-adv-x="1033" d="M70 206L881 820L965 695L154 81L70 206ZM235 715L379 820L801 185L656 81L235 715Z" />
<glyph unicode="&#xd8;" horiz-adv-x="1591" d="M1798 1352L1458 1075L1341 995L458 244L354 168L149 0H-68L272 278L387 355L1271 1107L1376 1184L1582 1352H1798ZM506 395Q506 250 560 190T714 129Q789 129 856 163T981 259T1083 401T1159 575T1207 765T1224
957Q1224 1102 1170 1162T1017 1223Q941 1223 874 1189T749 1093T647 951T571 778T523 587T506 395ZM1596 845Q1596 704 1556 574T1439 334T1254 142T1012 15T721 -30Q529 -30 398 33T200 216T134 508Q134 649 175 779T292 1019T477 1210T719 1337T1009 1382Q1203
1382 1333 1319T1530 1136T1596 845Z" />
<glyph unicode="&#xd9;" horiz-adv-x="1544" d="M595 552Q560 434 578 359T666 249T852 214Q959 214 1037 248T1170 359T1264 558L1473 1242L1336 1298L1352 1352H1781L1765 1298L1613 1243L1381 486Q1328 314 1238 199T1018 27T712 -30Q506 -30 372 38T190 231T192
522L413 1244L290 1298L306 1352H972L956 1298L805 1238L595 552ZM1175 1487H1057L804 1694L819 1742H1117L1175 1487Z" />
<glyph unicode="&#xda;" horiz-adv-x="1544" d="M595 552Q560 434 578 359T666 249T852 214Q959 214 1037 248T1170 359T1264 558L1473 1242L1336 1298L1352 1352H1781L1765 1298L1613 1243L1381 486Q1328 314 1238 199T1018 27T712 -30Q506 -30 372 38T190 231T192
522L413 1244L290 1298L306 1352H972L956 1298L805 1238L595 552ZM1057 1487L1236 1742H1568L1553 1694L1204 1487H1057Z" />
<glyph unicode="&#xdb;" horiz-adv-x="1544" d="M595 552Q560 434 578 359T666 249T852 214Q959 214 1037 248T1170 359T1264 558L1473 1242L1336 1298L1352 1352H1781L1765 1298L1613 1243L1381 486Q1328 314 1238 199T1018 27T712 -30Q506 -30 372 38T190 231T192
522L413 1244L290 1298L306 1352H972L956 1298L805 1238L595 552ZM779 1487L1065 1742H1325L1455 1487H1304L1140 1614H1203L961 1487H779Z" />
<glyph unicode="&#xdc;" horiz-adv-x="1544" d="M595 552Q560 434 578 359T666 249T852 214Q959 214 1037 248T1170 359T1264 558L1473 1242L1336 1298L1352 1352H1781L1765 1298L1613 1243L1381 486Q1328 314 1238 199T1018 27T712 -30Q506 -30 372 38T190 231T192
522L413 1244L290 1298L306 1352H972L956 1298L805 1238L595 552ZM916 1472Q853 1472 814 1511T775 1607Q775 1647 794 1681T847 1737T930 1758Q994 1758 1033 1719T1072 1621Q1072 1581 1054 1547T1001 1493T916 1472ZM1380 1472Q1317 1472 1278 1511T1239 1607Q1239
1647 1258 1681T1311 1737T1395 1758Q1459 1758 1497 1719T1536 1621Q1536 1581 1518 1547T1465 1493T1380 1472Z" />
<glyph unicode="&#xdd;" horiz-adv-x="1482" d="M1403 1239L1266 1298L1284 1352H1741L1723 1298L1571 1240L1008 597L857 108L980 55L964 0H298L314 55L466 114L614 596L365 1229L230 1298L247 1352H933L915 1298L750 1233L955 654L894 653L1403 1239ZM979 1487L1158
1742H1490L1475 1694L1126 1487H979Z" />
<glyph unicode="&#xde;" horiz-adv-x="1389" d="M745 433Q822 433 877 461T968 538T1020 650T1037 786Q1037 839 1017 877T952 935T836 956H541L575 1102H935Q1115 1102 1219 1059T1368 941T1413 776Q1413 676 1376 588T1261 432T1062 326T774 287H323L380 433H745ZM446
1244L323 1298L339 1352H1005L989 1298L838 1238L491 108L614 55L598 0H-68L-52 55L99 114L446 1244Z" />
<glyph unicode="&#xdf;" horiz-adv-x="1431" d="M94 780L111 901H514L496 780H94ZM561 355Q501 106 426 -62T262 -331T73 -475T-133 -519Q-266 -519 -325 -469T-384 -338Q-384 -274 -345 -239T-244 -203Q-229 -216 -210 -240T-156 -311Q-122 -358 -96 -374T-42
-391Q-16 -391 5 -383T44 -356T75 -305T99 -225L310 803Q355 1022 460 1163T712 1372T1024 1440Q1149 1440 1229 1410T1346 1326T1384 1200Q1384 1138 1347 1086T1208 972Q1141 931 1105 903T1056 851T1043 801Q1043 777 1053 753T1093 699T1181 625Q1268 560 1303
494T1339 347Q1339 240 1283 155T1123 20T880 -30Q720 -30 651 16T582 128Q582 166 599 193T651 235T733 250Q741 240 756 222T805 158Q840 114 874 96T942 77Q987 77 1019 90T1068 130T1085 195Q1085 242 1053 281T933 376Q847 431 812 492T776 622Q776 672 794
720T852 818T957 924Q1022 979 1058 1023T1108 1104T1123 1177Q1123 1241 1084 1280T972 1320Q908 1320 863 1300T787 1227T733 1080L561 355Z" />
<glyph unicode="&#xe0;" horiz-adv-x="1234" d="M614 104L723 420H740Q656 276 588 188T462 52T350 -13T239 -30Q174 -30 121 -4T37 72T6 197Q6 291 38 392T129 589T264 760T430 882T614 927Q698 927 761 889T874 758L821 684Q808 723 780 747T702 771Q659 771
613 734T523 636T444 505T389 367T368 250Q368 218 378 206T419 193Q448 193 483 214T554 274T624 367T686 483L815 775L924 901H1203L930 73L872 171Q926 174 973 189T1070 238T1176 327L1224 278Q1105 120 986 45T754 -30Q655 -30 622 0T614 104ZM876 1031H774L527
1311L542 1361H824L876 1031Z" />
<glyph unicode="&#xe1;" horiz-adv-x="1234" d="M614 104L723 420H740Q656 276 588 188T462 52T350 -13T239 -30Q174 -30 121 -4T37 72T6 197Q6 291 38 392T129 589T264 760T430 882T614 927Q698 927 761 889T874 758L821 684Q808 723 780 747T702 771Q659 771
613 734T523 636T444 505T389 367T368 250Q368 218 378 206T419 193Q448 193 483 214T554 274T624 367T686 483L815 775L924 901H1203L930 73L872 171Q926 174 973 189T1070 238T1176 327L1224 278Q1105 120 986 45T754 -30Q655 -30 622 0T614 104ZM757 1031L957
1361H1291L1276 1311L883 1031H757Z" />
<glyph unicode="&#xe2;" horiz-adv-x="1234" d="M614 104L723 420H740Q656 276 588 188T462 52T350 -13T239 -30Q174 -30 121 -4T37 72T6 197Q6 291 38 392T129 589T264 760T430 882T614 927Q698 927 761 889T874 758L821 684Q808 723 780 747T702 771Q659 771
613 734T523 636T444 505T389 367T368 250Q368 218 378 206T419 193Q448 193 483 214T554 274T624 367T686 483L815 775L924 901H1203L930 73L872 171Q926 174 973 189T1070 238T1176 327L1224 278Q1105 120 986 45T754 -30Q655 -30 622 0T614 104ZM487 1031L803
1361H1032L1146 1031H1018L837 1233H953L640 1031H487Z" />
<glyph unicode="&#xe3;" horiz-adv-x="1234" d="M614 104L723 420H740Q656 276 588 188T462 52T350 -13T239 -30Q174 -30 121 -4T37 72T6 197Q6 291 38 392T129 589T264 760T430 882T614 927Q698 927 761 889T874 758L821 684Q808 723 780 747T702 771Q659 771
613 734T523 636T444 505T389 367T368 250Q368 218 378 206T419 193Q448 193 483 214T554 274T624 367T686 483L815 775L924 901H1203L930 73L872 171Q926 174 973 189T1070 238T1176 327L1224 278Q1105 120 986 45T754 -30Q655 -30 622 0T614 104ZM1219 1349Q1166
1220 1124 1152T1041 1059T954 1034Q920 1034 892 1053T839 1097T792 1141T746 1160Q725 1160 707 1150T670 1115T626 1042H515Q568 1171 610 1239T693 1332T781 1357Q815 1357 843 1338T895 1295T942 1251T988 1231Q1010 1231 1027 1241T1064 1277T1108 1349H1219Z"
/>
<glyph unicode="&#xe4;" horiz-adv-x="1234" d="M614 104L723 420H740Q656 276 588 188T462 52T350 -13T239 -30Q174 -30 121 -4T37 72T6 197Q6 291 38 392T129 589T264 760T430 882T614 927Q698 927 761 889T874 758L821 684Q808 723 780 747T702 771Q659 771
613 734T523 636T444 505T389 367T368 250Q368 218 378 206T419 193Q448 193 483 214T554 274T624 367T686 483L815 775L924 901H1203L930 73L872 171Q926 174 973 189T1070 238T1176 327L1224 278Q1105 120 986 45T754 -30Q655 -30 622 0T614 104ZM641 1053Q578
1053 539 1092T500 1188Q500 1229 519 1263T572 1318T655 1339Q719 1339 757 1300T796 1202Q796 1162 778 1128T726 1074T641 1053ZM1077 1053Q1014 1053 975 1092T936 1188Q936 1229 955 1263T1008 1318T1091 1339Q1155 1339 1193 1300T1232 1202Q1232 1162 1214
1128T1162 1074T1077 1053Z" />
<glyph unicode="&#xe5;" horiz-adv-x="1234" d="M614 104L723 420H740Q656 276 588 188T462 52T350 -13T239 -30Q174 -30 121 -4T37 72T6 197Q6 291 38 392T129 589T264 760T430 882T614 927Q698 927 761 889T874 758L821 684Q808 723 780 747T702 771Q659 771
613 734T523 636T444 505T389 367T368 250Q368 218 378 206T419 193Q448 193 483 214T554 274T624 367T686 483L815 775L924 901H1203L930 73L872 171Q926 174 973 189T1070 238T1176 327L1224 278Q1105 120 986 45T754 -30Q655 -30 622 0T614 104ZM867 1387Q951
1387 1005 1334T1060 1196Q1060 1114 1006 1060T867 1006Q783 1006 729 1060T674 1196Q674 1280 728 1333T867 1387ZM867 1080Q917 1080 949 1112T982 1196Q982 1250 950 1283T867 1317Q817 1317 785 1284T752 1196Q752 1145 784 1113T867 1080Z" />
<glyph unicode="&#xe6;" horiz-adv-x="1647" d="M1116 774H1105Q1148 849 1233 890T1419 931Q1498 931 1547 904T1619 831T1642 727Q1642 670 1622 622T1575 539Q1508 515 1433 493T1280 451T1123 414T970 384L974 478Q1073 510 1140 536T1250 585T1314 631T1344
681T1353 741Q1353 765 1347 781T1327 805T1294 814Q1259 814 1226 791T1165 727T1115 632T1081 514T1069 385Q1069 281 1111 238T1235 194Q1291 194 1336 209T1423 260T1505 358H1578Q1515 205 1442 121T1281 3T1089 -30Q961 -30 876 22T751 174T720 420H740Q658
281 592 193T469 56T356 -11T239 -30Q174 -30 121 -4T37 72T6 197Q6 291 38 392T129 589T264 760T430 882T614 927Q698 927 761 889T874 758L821 684Q808 723 780 747T702 771Q659 771 613 734T523 636T444 505T389 367T368 250Q368 218 378 206T419 193Q448 193
483 214T554 274T624 367T686 483L815 775L924 901H1154L1116 774Z" />
<glyph unicode="&#xe7;" horiz-adv-x="934" d="M222 -519Q144 -519 104 -493T64 -427Q64 -400 81 -380T130 -359Q155 -359 173 -376T214 -411T274 -429Q318 -429 341 -408T364 -353Q364 -323 325 -297T160 -246L165 -230L427 49H532L282 -219L312 -89Q436 -118
484 -166T533 -273Q533 -335 497 -391T392 -483T222 -519ZM605 812Q565 812 529 780T463 690T418 554T401 385Q401 281 437 238T558 194Q606 194 647 210T726 263T803 364H875Q818 212 751 127T600 6T410 -30Q228 -30 136 65T44 330Q44 463 94 573T230 763T429
887T668 931Q824 931 891 880T958 754Q958 692 913 656T797 620Q785 620 770 640T724 711Q694 762 665 787T605 812Z" />
<glyph unicode="&#xe8;" horiz-adv-x="978" d="M625 814Q593 814 561 793T500 733T449 641T413 523T400 385Q400 281 442 238T566 194Q622 194 667 209T754 260T835 358H909Q847 207 775 123T615 4T420 -30Q297 -30 213 13T86 135T43 323Q43 429 74 521T164 689T300
818T472 902T669 931Q779 931 846 904T943 831T973 727Q973 677 956 629T906 539Q842 515 769 493T617 452T459 415T301 384L305 478Q403 510 470 536T580 585T645 631T675 681T683 741Q683 765 677 781T658 805T625 814ZM717 1031H615L368 1311L383 1361H665L717
1031Z" />
<glyph unicode="&#xe9;" horiz-adv-x="978" d="M625 814Q593 814 561 793T500 733T449 641T413 523T400 385Q400 281 442 238T566 194Q622 194 667 209T754 260T835 358H909Q847 207 775 123T615 4T420 -30Q297 -30 213 13T86 135T43 323Q43 429 74 521T164 689T300
818T472 902T669 931Q779 931 846 904T943 831T973 727Q973 677 956 629T906 539Q842 515 769 493T617 452T459 415T301 384L305 478Q403 510 470 536T580 585T645 631T675 681T683 741Q683 765 677 781T658 805T625 814ZM598 1031L798 1361H1132L1117 1311L724
1031H598Z" />
<glyph unicode="&#xea;" horiz-adv-x="978" d="M625 814Q593 814 561 793T500 733T449 641T413 523T400 385Q400 281 442 238T566 194Q622 194 667 209T754 260T835 358H909Q847 207 775 123T615 4T420 -30Q297 -30 213 13T86 135T43 323Q43 429 74 521T164 689T300
818T472 902T669 931Q779 931 846 904T943 831T973 727Q973 677 956 629T906 539Q842 515 769 493T617 452T459 415T301 384L305 478Q403 510 470 536T580 585T645 631T675 681T683 741Q683 765 677 781T658 805T625 814ZM328 1031L644 1361H873L987 1031H859L678
1233H794L481 1031H328Z" />
<glyph unicode="&#xeb;" horiz-adv-x="978" d="M625 814Q593 814 561 793T500 733T449 641T413 523T400 385Q400 281 442 238T566 194Q622 194 667 209T754 260T835 358H909Q847 207 775 123T615 4T420 -30Q297 -30 213 13T86 135T43 323Q43 429 74 521T164 689T300
818T472 902T669 931Q779 931 846 904T943 831T973 727Q973 677 956 629T906 539Q842 515 769 493T617 452T459 415T301 384L305 478Q403 510 470 536T580 585T645 631T675 681T683 741Q683 765 677 781T658 805T625 814ZM482 1053Q419 1053 380 1092T341 1188Q341
1229 360 1263T413 1318T496 1339Q560 1339 598 1300T637 1202Q637 1162 619 1128T567 1074T482 1053ZM918 1053Q855 1053 816 1092T777 1188Q777 1229 796 1263T849 1318T932 1339Q996 1339 1034 1300T1073 1202Q1073 1162 1055 1128T1003 1074T918 1053Z" />
<glyph unicode="&#xec;" horiz-adv-x="733" d="M77 136L335 808L406 733Q342 735 291 721T191 673T81 579L32 628Q116 737 201 803T370 900T536 931Q645 931 677 891T676 764L418 76L344 169Q409 167 459 180T559 225T665 307L712 255Q627 156 543 93T375 0T209
-30Q108 -30 75 9T77 136ZM607 1031H505L258 1311L273 1361H555L607 1031Z" />
<glyph unicode="&#xed;" horiz-adv-x="733" d="M77 136L335 808L406 733Q342 735 291 721T191 673T81 579L32 628Q116 737 201 803T370 900T536 931Q645 931 677 891T676 764L418 76L344 169Q409 167 459 180T559 225T665 307L712 255Q627 156 543 93T375 0T209
-30Q108 -30 75 9T77 136ZM488 1031L688 1361H1022L1007 1311L614 1031H488Z" />
<glyph unicode="&#xee;" horiz-adv-x="733" d="M77 136L335 808L406 733Q342 735 291 721T191 673T81 579L32 628Q116 737 201 803T370 900T536 931Q645 931 677 891T676 764L418 76L344 169Q409 167 459 180T559 225T665 307L712 255Q627 156 543 93T375 0T209
-30Q108 -30 75 9T77 136ZM218 1031L534 1361H763L877 1031H749L568 1233H684L371 1031H218Z" />
<glyph unicode="&#xef;" horiz-adv-x="733" d="M77 136L335 808L406 733Q342 735 291 721T191 673T81 579L32 628Q116 737 201 803T370 900T536 931Q645 931 677 891T676 764L418 76L344 169Q409 167 459 180T559 225T665 307L712 255Q627 156 543 93T375 0T209
-30Q108 -30 75 9T77 136ZM372 1053Q309 1053 270 1092T231 1188Q231 1229 250 1263T303 1318T386 1339Q450 1339 488 1300T527 1202Q527 1162 509 1128T457 1074T372 1053ZM808 1053Q745 1053 706 1092T667 1188Q667 1229 686 1263T739 1318T822 1339Q886 1339
924 1300T963 1202Q963 1162 945 1128T893 1074T808 1053Z" />
<glyph unicode="&#xf0;" horiz-adv-x="1099" d="M797 710L746 678Q763 816 755 923T704 1108T576 1241T356 1328L386 1440Q618 1403 761 1315T976 1106T1063 844T1055 560Q1035 424 982 315T850 129T668 11T447 -30Q312 -30 223 16T91 146T47 337Q47 461 90 566T209
749T382 870T588 913Q660 913 705 888T773 818T797 710ZM451 102Q485 102 521 137T591 231T650 366T692 521T707 676Q707 742 691 765T641 789Q606 789 570 754T501 659T441 524T400 369T384 214Q384 148 401 125T451 102ZM423 967L375 1059L1041 1440L1087 1348L423
967Z" />
<glyph unicode="&#xf1;" horiz-adv-x="1328" d="M86 536L29 558Q73 701 132 782T268 896T441 929Q483 929 514 928T578 922T652 911L499 369V390Q569 552 636 657T766 822T893 906T1022 931Q1138 931 1189 880T1240 749Q1240 709 1229 656T1192 534L1016 76L951
171Q1006 171 1054 185T1153 234T1271 324L1316 273Q1229 165 1145 99T978 1T811 -30Q715 -30 681 8T676 123L830 519Q850 572 857 598T864 641Q864 662 854 674T819 686Q787 686 750 660T671 576T585 421T497 183L440 0H90L306 710Q302 710 299 710T291 710Q246
710 215 699T155 651T86 536ZM1222 1349Q1169 1220 1127 1152T1044 1059T957 1034Q923 1034 895 1053T842 1097T795 1141T749 1160Q728 1160 710 1150T673 1115T629 1042H518Q571 1171 613 1239T696 1332T784 1357Q818 1357 846 1338T898 1295T945 1251T991 1231Q1013
1231 1030 1241T1067 1277T1111 1349H1222Z" />
<glyph unicode="&#xf2;" horiz-adv-x="1092" d="M643 931Q779 931 868 884T1000 752T1044 557Q1044 434 1000 328T874 141T685 15T449 -30Q313 -30 224 17T91 149T47 343Q47 467 92 573T217 760T406 886T643 931ZM451 102Q485 102 521 137T591 233T651 370T692
527T708 684Q708 751 691 774T641 798Q607 798 571 763T501 667T441 531T400 374T384 217Q384 149 401 126T451 102ZM776 1031H674L427 1311L442 1361H724L776 1031Z" />
<glyph unicode="&#xf3;" horiz-adv-x="1092" d="M643 931Q779 931 868 884T1000 752T1044 557Q1044 434 1000 328T874 141T685 15T449 -30Q313 -30 224 17T91 149T47 343Q47 467 92 573T217 760T406 886T643 931ZM451 102Q485 102 521 137T591 233T651 370T692
527T708 684Q708 751 691 774T641 798Q607 798 571 763T501 667T441 531T400 374T384 217Q384 149 401 126T451 102ZM657 1031L857 1361H1191L1176 1311L783 1031H657Z" />
<glyph unicode="&#xf4;" horiz-adv-x="1092" d="M643 931Q779 931 868 884T1000 752T1044 557Q1044 434 1000 328T874 141T685 15T449 -30Q313 -30 224 17T91 149T47 343Q47 467 92 573T217 760T406 886T643 931ZM451 102Q485 102 521 137T591 233T651 370T692
527T708 684Q708 751 691 774T641 798Q607 798 571 763T501 667T441 531T400 374T384 217Q384 149 401 126T451 102ZM387 1031L703 1361H932L1046 1031H918L737 1233H853L540 1031H387Z" />
<glyph unicode="&#xf5;" horiz-adv-x="1092" d="M643 931Q779 931 868 884T1000 752T1044 557Q1044 434 1000 328T874 141T685 15T449 -30Q313 -30 224 17T91 149T47 343Q47 467 92 573T217 760T406 886T643 931ZM451 102Q485 102 521 137T591 233T651 370T692
527T708 684Q708 751 691 774T641 798Q607 798 571 763T501 667T441 531T400 374T384 217Q384 149 401 126T451 102ZM1119 1349Q1066 1220 1024 1152T941 1059T854 1034Q820 1034 792 1053T739 1097T692 1141T646 1160Q625 1160 607 1150T570 1115T526 1042H415Q468
1171 510 1239T593 1332T681 1357Q715 1357 743 1338T795 1295T842 1251T888 1231Q910 1231 927 1241T964 1277T1008 1349H1119Z" />
<glyph unicode="&#xf6;" horiz-adv-x="1092" d="M643 931Q779 931 868 884T1000 752T1044 557Q1044 434 1000 328T874 141T685 15T449 -30Q313 -30 224 17T91 149T47 343Q47 467 92 573T217 760T406 886T643 931ZM451 102Q485 102 521 137T591 233T651 370T692
527T708 684Q708 751 691 774T641 798Q607 798 571 763T501 667T441 531T400 374T384 217Q384 149 401 126T451 102ZM541 1053Q478 1053 439 1092T400 1188Q400 1229 419 1263T472 1318T555 1339Q619 1339 657 1300T696 1202Q696 1162 678 1128T626 1074T541 1053ZM977
1053Q914 1053 875 1092T836 1188Q836 1229 855 1263T908 1318T991 1339Q1055 1339 1093 1300T1132 1202Q1132 1162 1114 1128T1062 1074T977 1053Z" />
<glyph unicode="&#xf7;" horiz-adv-x="1033" d="M147 533H937L887 368H96L147 533ZM623 917Q686 917 724 877T762 780Q762 718 720 673T609 628Q546 628 507 668T468 765Q468 827 511 872T623 917ZM426 273Q489 273 527 233T565 135Q565 74 523 29T412 -17Q349
-17 310 23T271 121Q271 183 314 228T426 273Z" />
<glyph unicode="&#xf8;" horiz-adv-x="1123" d="M659 931Q795 931 884 884T1016 752T1060 557Q1060 434 1016 328T890 141T701 15T465 -30Q329 -30 240 17T107 149T63 343Q63 467 108 573T233 760T422 886T659 931ZM467 102Q501 102 537 137T607 233T667 370T708
527T724 684Q724 751 707 774T657 798Q623 798 587 763T517 667T457 531T416 374T400 217Q400 149 417 126T467 102ZM1030 901H1219L942 679L851 637L345 179L251 126L94 0H-95L182 222L273 263L779 722L872 775L1030 901Z" />
<glyph unicode="&#xf9;" horiz-adv-x="1263" d="M686 106L804 513L824 490Q764 355 707 257T591 95T466 1T322 -30Q212 -30 163 21T113 152Q113 191 125 244T162 367L323 825L390 734Q326 735 275 720T177 670T74 579L24 626Q101 734 183 801T349 899T517 931Q621
931 652 890T653 764L517 380Q499 327 491 301T483 257Q483 238 496 226T533 213Q560 213 589 233T647 295T707 405T767 567L871 901H1221L966 72L904 172Q956 174 1004 190T1101 239T1210 329L1259 280Q1144 125 1021 48T803 -30Q722 -30 693 0T686 106ZM835 1031H733L486
1311L501 1361H783L835 1031Z" />
<glyph unicode="&#xfa;" horiz-adv-x="1263" d="M686 106L804 513L824 490Q764 355 707 257T591 95T466 1T322 -30Q212 -30 163 21T113 152Q113 191 125 244T162 367L323 825L390 734Q326 735 275 720T177 670T74 579L24 626Q101 734 183 801T349 899T517 931Q621
931 652 890T653 764L517 380Q499 327 491 301T483 257Q483 238 496 226T533 213Q560 213 589 233T647 295T707 405T767 567L871 901H1221L966 72L904 172Q956 174 1004 190T1101 239T1210 329L1259 280Q1144 125 1021 48T803 -30Q722 -30 693 0T686 106ZM716 1031L916
1361H1250L1235 1311L842 1031H716Z" />
<glyph unicode="&#xfb;" horiz-adv-x="1263" d="M686 106L804 513L824 490Q764 355 707 257T591 95T466 1T322 -30Q212 -30 163 21T113 152Q113 191 125 244T162 367L323 825L390 734Q326 735 275 720T177 670T74 579L24 626Q101 734 183 801T349 899T517 931Q621
931 652 890T653 764L517 380Q499 327 491 301T483 257Q483 238 496 226T533 213Q560 213 589 233T647 295T707 405T767 567L871 901H1221L966 72L904 172Q956 174 1004 190T1101 239T1210 329L1259 280Q1144 125 1021 48T803 -30Q722 -30 693 0T686 106ZM446 1031L762
1361H991L1105 1031H977L796 1233H912L599 1031H446Z" />
<glyph unicode="&#xfc;" horiz-adv-x="1263" d="M686 106L804 513L824 490Q764 355 707 257T591 95T466 1T322 -30Q212 -30 163 21T113 152Q113 191 125 244T162 367L323 825L390 734Q326 735 275 720T177 670T74 579L24 626Q101 734 183 801T349 899T517 931Q621
931 652 890T653 764L517 380Q499 327 491 301T483 257Q483 238 496 226T533 213Q560 213 589 233T647 295T707 405T767 567L871 901H1221L966 72L904 172Q956 174 1004 190T1101 239T1210 329L1259 280Q1144 125 1021 48T803 -30Q722 -30 693 0T686 106ZM600 1053Q537
1053 498 1092T459 1188Q459 1229 478 1263T531 1318T614 1339Q678 1339 716 1300T755 1202Q755 1162 737 1128T685 1074T600 1053ZM1036 1053Q973 1053 934 1092T895 1188Q895 1229 914 1263T967 1318T1050 1339Q1114 1339 1152 1300T1191 1202Q1191 1162 1173
1128T1121 1074T1036 1053Z" />
<glyph unicode="&#xfd;" horiz-adv-x="1102" d="M103 473L20 481Q52 601 89 686T172 826T272 906T395 931Q435 931 464 915T517 862T564 760Q587 697 612 600T664 369T721 59L474 -294Q448 -150 425 -34T382 175T344 345T308 489Q285 577 272 618T250 670T231
682Q212 682 191 663T147 598T103 473ZM571 -27L607 -39Q673 62 720 167T798 387T843 628T858 901Q889 909 945 915T1053 921Q1087 921 1102 909T1117 869Q1117 819 1102 748T1057 590T984 404T884 202T758 -5Q640 -182 528 -295T311 -464T108 -519Q1 -519 -47
-472T-95 -352Q-95 -285 -50 -242T58 -199Q70 -199 87 -213T130 -261Q155 -294 181 -311T229 -328Q278 -328 336 -295T454 -196T571 -27ZM629 1031L829 1361H1163L1148 1311L755 1031H629Z" />
<glyph unicode="&#xfe;" horiz-adv-x="1153" d="M412 317Q402 279 398 249T393 195Q393 140 415 114T478 87Q511 87 547 114T616 188T677 298T721 432T737 576Q737 633 722 662T664 691Q640 691 612 673T556 622T502 549T457 461T425 369L412 317ZM439 522L419
514Q488 661 557 752T701 887T860 931Q973 931 1048 853T1124 637Q1124 538 1096 442T1015 260T889 110T724 7T528 -30Q404 -30 323 3T215 103H380L236 -386L359 -436L341 -489H-260L-244 -437L-123 -386L344 1172Q328 1194 306 1214T260 1254T207 1294L226 1360L722
1440H766L439 522Z" />
<glyph unicode="&#xff;" horiz-adv-x="1102" d="M103 473L20 481Q52 601 89 686T172 826T272 906T395 931Q435 931 464 915T517 862T564 760Q587 697 612 600T664 369T721 59L474 -294Q448 -150 425 -34T382 175T344 345T308 489Q285 577 272 618T250 670T231
682Q212 682 191 663T147 598T103 473ZM571 -27L607 -39Q673 62 720 167T798 387T843 628T858 901Q889 909 945 915T1053 921Q1087 921 1102 909T1117 869Q1117 819 1102 748T1057 590T984 404T884 202T758 -5Q640 -182 528 -295T311 -464T108 -519Q1 -519 -47
-472T-95 -352Q-95 -285 -50 -242T58 -199Q70 -199 87 -213T130 -261Q155 -294 181 -311T229 -328Q278 -328 336 -295T454 -196T571 -27ZM513 1053Q450 1053 411 1092T372 1188Q372 1229 391 1263T444 1318T527 1339Q591 1339 629 1300T668 1202Q668 1162 650 1128T598
1074T513 1053ZM949 1053Q886 1053 847 1092T808 1188Q808 1229 827 1263T880 1318T963 1339Q1027 1339 1065 1300T1104 1202Q1104 1162 1086 1128T1034 1074T949 1053Z" />
<glyph unicode="&#x2013;" horiz-adv-x="949" d="M107 527H889L848 391H66L107 527Z" />
<glyph unicode="&#x2014;" horiz-adv-x="1263" d="M107 527H1203L1161 391H66L107 527Z" />
<glyph unicode="&#x2018;" horiz-adv-x="534" d="M709 1282Q616 1243 564 1210T491 1149T470 1094Q470 1065 489 1044T534 1007T579 976T599 944Q599 894 572 849T496 776T382 747Q300 747 257 789T213 908Q213 1000 252 1081T392 1236T671 1377L709 1282Z" />
<glyph unicode="&#x2019;" horiz-adv-x="530" d="M194 842Q288 882 340 914T412 975T433 1030Q433 1059 414 1080T369 1117T324 1149T304 1180Q304 1231 331 1275T407 1348T521 1377Q604 1377 647 1335T690 1216Q690 1124 651 1043T512 888T232 747L194 842Z" />
<glyph unicode="&#x201a;" horiz-adv-x="536" d="M-105 -171Q-11 -132 40 -99T113 -38T134 17Q134 46 115 67T70 104T25 135T5 166Q5 217 32 262T108 335T222 364Q305 364 348 322T391 202Q391 111 351 29T212 -126T-68 -267L-105 -171Z" />
<glyph unicode="&#x201c;" horiz-adv-x="1023" d="M709 1282Q616 1243 564 1210T491 1149T470 1094Q470 1065 489 1044T534 1007T579 976T599 944Q599 894 572 849T496 776T382 747Q300 747 257 789T213 908Q213 1000 252 1081T392 1236T671 1377L709 1282ZM1197
1282Q1104 1243 1052 1210T979 1149T958 1094Q958 1065 977 1044T1022 1007T1067 976T1087 944Q1087 894 1060 849T984 776T870 747Q788 747 745 789T701 908Q701 1000 740 1081T880 1236T1159 1377L1197 1282Z" />
<glyph unicode="&#x201d;" horiz-adv-x="1018" d="M194 842Q288 882 340 914T412 975T433 1030Q433 1059 414 1080T369 1117T324 1149T304 1180Q304 1231 331 1275T407 1348T521 1377Q604 1377 647 1335T690 1216Q690 1124 651 1043T512 888T232 747L194 842ZM682
842Q776 882 828 914T900 975T921 1030Q921 1059 902 1080T857 1117T812 1149T792 1180Q792 1231 819 1275T895 1348T1009 1377Q1092 1377 1135 1335T1178 1216Q1178 1124 1139 1043T1000 888T720 747L682 842Z" />
<glyph unicode="&#x201e;" horiz-adv-x="1024" d="M-105 -171Q-11 -132 40 -99T113 -38T134 17Q134 46 115 67T70 104T25 135T5 166Q5 217 32 262T108 335T222 364Q305 364 348 322T391 202Q391 111 351 29T212 -126T-68 -267L-105 -171ZM383 -171Q477 -132 528
-99T601 -38T622 17Q622 46 603 67T558 104T513 135T493 166Q493 217 520 262T596 335T710 364Q793 364 836 322T879 202Q879 111 839 29T700 -126T420 -267L383 -171Z" />
<glyph unicode="&#x2022;" horiz-adv-x="875" d="M440 743Q526 743 591 705T694 603T731 459Q731 379 694 315T592 212T440 174Q355 174 290 212T187 314T149 459Q149 539 186 603T289 705T440 743Z" />
<glyph unicode="&#x2039;" horiz-adv-x="610" d="M334 480L425 43L329 -5L31 387L70 514L594 906L666 830L298 362L334 480Z" />
<glyph unicode="&#x203a;" horiz-adv-x="653" d="M292 421L201 858L297 906L595 514L556 387L32 -5L-40 71L328 539L292 421Z" />
</font>
</defs>
</svg>
