<?xml version="1.0" standalone="no"?>
<!DOCTYPE svg PUBLIC "-//W3C//DTD SVG 1.1//EN" "http://www.w3.org/Graphics/SVG/1.1/DTD/svg11.dtd">
<svg xmlns="http://www.w3.org/2000/svg">
<defs >
<font id="Newsreader" horiz-adv-x="1087" ><font-face
    font-family="Newsreader 16pt 16pt SemiBold"
    units-per-em="2000"
    panose-1="2 0 0 0 0 0 0 0 0 0"
    ascent="1470"
    descent="-530"
    alphabetic="0" />
<glyph unicode=" " horiz-adv-x="438" />
<glyph unicode="!" horiz-adv-x="568" d="M434 1290L432 1193Q431 1166 427 1128T416 1038T400 923T379 786T355 628T328 448H242Q228 543 215 627T191 786T170 923T153 1037T142 1127T137 1193L135 1290Q135 1319 154 1338T207 1366T285 1376Q328 1376 362 1367T415
1338T434 1290ZM285 288Q355 288 399 245T443 135Q443 69 399 25T285 -19Q215 -19 171 25T126 135Q126 201 170 244T285 288Z" />
<glyph unicode="&quot;" horiz-adv-x="783" d="M155 833L86 1299V1352H337V1299L265 833H155ZM516 833L447 1299V1352H698V1299L626 833H516Z" />
<glyph unicode="#" horiz-adv-x="1222" d="M942 0H837L1138 1353H1243L942 0ZM608 0H504L804 1353H910L608 0ZM1327 569V469H324V569H1327ZM1407 890V789H406V890H1407Z" />
<glyph unicode="$" horiz-adv-x="1222" d="M456 -199V1551H551V-199H456ZM685 -199V1551H780V-199H685ZM531 -24Q433 -24 360 -11T237 27T164 85T139 157Q139 205 169 235T244 266Q282 266 312 239T377 177T458 114T576 87Q663 87 729 113T833 190T870 317Q870
387 839 435T732 521T524 591Q392 625 315 679T206 807T173 977Q173 1100 233 1189T407 1328T682 1377Q809 1377 891 1352T1012 1287T1051 1197Q1051 1149 1021 1119T948 1089Q909 1089 879 1116T816 1178T740 1241T630 1268Q501 1268 431 1215T360 1065Q360 1010
383 965T476 883T684 811Q823 776 906 721T1026 588T1064 412Q1064 271 1000 174T816 27T531 -24Z" />
<glyph unicode="%" horiz-adv-x="1675" d="M302 0L1243 1352H1373L432 0H302ZM398 690Q464 690 496 760T529 961Q529 1064 513 1132T467 1233T391 1267Q325 1267 292 1197T259 996Q259 893 275 825T322 724T398 690ZM395 589Q295 589 221 637T105 772T63 977Q63
1096 104 1183T220 1319T395 1367Q495 1367 569 1320T684 1185T725 979Q725 861 684 774T569 638T395 589ZM1284 86Q1350 86 1382 156T1415 357Q1415 460 1399 528T1353 629T1277 663Q1211 663 1178 593T1145 392Q1145 289 1161 221T1208 120T1284 86ZM1281 -15Q1181
-15 1107 33T991 168T949 373Q949 492 990 579T1106 715T1281 763Q1381 763 1455 716T1570 581T1611 375Q1611 257 1570 170T1455 34T1281 -15Z" />
<glyph unicode="&amp;" horiz-adv-x="1485" d="M646 763L505 696Q445 658 408 615T354 521T337 412Q337 322 370 260T467 165T627 132Q713 132 788 165T928 276L971 325Q1014 390 1047 487T1107 722L965 768V822H1434V768L1288 722Q1223 553 1161 436T1032 232L992
195Q923 116 848 68T689 -2T513 -24Q369 -24 276 21T138 147T93 331Q93 420 129 497T248 639T471 756L600 825Q703 889 744 956T785 1104Q785 1185 749 1229T635 1274Q564 1274 521 1236T478 1123Q478 1083 490 1047T531 968T611 867L1283 112L1458 54V0H1048L406
734Q346 803 312 858T264 961T250 1060Q250 1152 294 1223T427 1336T647 1377Q764 1377 840 1342T954 1249T992 1117Q992 1065 975 1019T919 930T813 846T646 763Z" />
<glyph unicode="&apos;" horiz-adv-x="422" d="M155 833L86 1299V1352H337V1299L265 833H155Z" />
<glyph unicode="(" horiz-adv-x="593" d="M285 581Q285 481 296 387T336 198T415 1T544 -219L480 -272Q358 -136 280 -27T157 179T95 374T77 581Q77 691 95 788T157 983T279 1189T480 1434L544 1381Q466 1264 416 1162T337 964T297 775T285 581Z" />
<glyph unicode=")" horiz-adv-x="593" d="M308 581Q308 681 297 775T257 964T179 1161T50 1381L114 1434Q235 1299 313 1190T436 983T498 789T516 581Q516 471 499 374T437 180T314 -27T114 -272L50 -219Q128 -102 178 1T257 198T296 387T308 581Z" />
<glyph unicode="*" horiz-adv-x="865" d="M601 725L527 694L407 919L196 776L145 837L321 1021L120 1177L162 1244L391 1133L477 1373L554 1354L519 1101L774 1095L780 1015L529 969L601 725Z" />
<glyph unicode="+" horiz-adv-x="1023" d="M449 832H574V68H449V832ZM894 513V387H129V513H894Z" />
<glyph unicode="," horiz-adv-x="506" d="M61 -300Q154 -222 193 -160T233 -47Q233 -10 211 15T160 58T109 94T87 132Q87 200 130 244T247 289Q322 289 366 241T411 104Q411 48 397 -6T351 -117T262 -235T121 -365L61 -300Z" />
<glyph unicode="-" horiz-adv-x="723" d="M117 539H606V369H117V539Z" />
<glyph unicode="." horiz-adv-x="494" d="M247 292Q317 292 361 248T405 137Q405 70 361 26T247 -19Q178 -19 134 25T89 137Q89 203 133 247T247 292Z" />
<glyph unicode="/" horiz-adv-x="810" d="M50 0L617 1352H760L193 0H50Z" />
<glyph unicode="0" horiz-adv-x="1222" d="M615 97Q697 97 753 158T838 339T867 638Q867 793 851 909T801 1101T720 1216T607 1255Q525 1255 469 1195T383 1014T354 715Q354 560 371 444T420 251T502 136T615 97ZM613 1377Q778 1377 897 1293T1081 1053T1145 682Q1145
464 1081 306T897 62T609 -24Q444 -24 325 60T141 300T77 670Q77 888 141 1046T325 1291T613 1377Z" />
<glyph unicode="1" horiz-adv-x="1222" d="M558 118V1224L621 1148L187 1015L158 1092L690 1364H822V118L1090 58V0H273V58L558 118Z" />
<glyph unicode="2" horiz-adv-x="1222" d="M825 150L1046 444H1110L1029 -42H984L873 0H127V52L496 467Q590 572 643 652T718 796T741 920Q741 1031 679 1097T506 1163Q433 1163 372 1138T266 1054T192 897L101 916Q149 1147 282 1262T611 1377Q731 1377 822 1331T964
1201T1015 1004Q1015 938 997 878T935 753T814 610T618 428L312 147L333 238H1001L825 150Z" />
<glyph unicode="3" horiz-adv-x="1222" d="M405 625L380 725Q518 763 594 806T700 902T730 1016Q730 1095 681 1147T536 1199Q432 1199 361 1144T256 964L163 991Q190 1113 250 1199T401 1331T613 1377Q729 1377 806 1341T923 1241T962 1094Q962 1012 919 945T799
832T618 763L635 774Q772 788 870 753T1022 639T1075 449Q1075 318 996 211T771 40T423 -24Q315 -24 250 -4T156 50T127 128Q127 175 157 205T235 235Q262 235 287 220T339 184T395 140T457 102T530 87Q609 87 673 123T777 231T816 404Q816 502 774 563T656 645T475
641L405 625Z" />
<glyph unicode="4" horiz-adv-x="1222" d="M874 1362V107L1052 52V0H418V52L609 107V1189L712 1225L172 519L142 577H996L1186 605L1132 390H32V504L662 1362H874Z" />
<glyph unicode="5" horiz-adv-x="1222" d="M409 -24Q301 -24 237 -4T144 51T115 128Q115 178 146 208T221 238Q248 238 273 223T324 187T379 144T440 107T512 92Q596 92 664 125T774 221T816 378Q816 437 792 487T705 578T525 645T220 681L408 1352H823L1096 1391L1009
1119H418L512 1229L367 817L341 912Q509 898 628 869T824 798T946 703T1008 590T1026 461Q1026 356 982 268T857 114T662 12T409 -24Z" />
<glyph unicode="6" horiz-adv-x="1222" d="M973 1400L1019 1317Q876 1272 771 1218T593 1098T476 950T413 768T393 544Q393 397 420 296T502 143T639 91Q714 91 764 124T841 219T867 371Q867 514 811 584T647 654Q606 654 566 647T486 624T412 585T347 532L285
548Q367 625 430 676T545 756T647 797T751 810Q860 810 943 766T1074 639T1122 435Q1122 295 1059 192T884 33T629 -24Q462 -24 350 48T181 246T124 530Q124 643 148 748T230 947T385 1123T627 1275T973 1400Z" />
<glyph unicode="7" horiz-adv-x="1222" d="M216 1117L394 1208L199 908H134L183 1396H222L346 1352H1128V1326L651 0H372L1000 1230L992 1117H216Z" />
<glyph unicode="8" horiz-adv-x="1222" d="M632 1377Q766 1377 858 1338T999 1229T1047 1064Q1047 939 948 859T663 745L609 773Q727 817 785 882T844 1047Q844 1111 819 1159T742 1235T613 1263Q498 1263 439 1207T379 1071Q379 997 418 951T523 876T666 821T822
766T964 690T1069 569T1109 383Q1109 254 1043 163T862 24T603 -24Q459 -24 349 16T176 133T113 320Q113 401 144 462T234 568T373 645T551 701L586 666Q489 630 432 586T351 482T326 344Q326 262 360 205T459 119T611 90Q702 90 763 118T857 197T889 316Q889 392
850 439T747 518T605 574T451 629T309 704T205 820T166 999Q166 1112 223 1197T386 1329T632 1377Z" />
<glyph unicode="9" horiz-adv-x="1222" d="M289 -48L242 35Q376 90 474 147T640 271T748 416T807 592T825 808Q825 956 798 1057T715 1211T579 1263Q505 1263 455 1230T380 1137T354 993Q354 894 382 832T460 742T576 714Q614 714 653 720T730 740T804 775T872
827L934 811Q851 735 787 685T671 607T570 568T471 556Q361 556 276 601T144 730T97 933Q97 1071 160 1170T336 1323T593 1377Q762 1377 873 1304T1039 1106T1094 822Q1094 713 1070 613T991 421T844 247T614 90T289 -48Z" />
<glyph unicode=":" horiz-adv-x="537" d="M269 290Q338 290 382 246T427 136Q427 70 383 26T269 -19Q200 -19 155 25T110 136Q110 202 155 246T269 290ZM269 906Q338 906 382 862T427 752Q427 686 383 642T269 598Q200 598 155 642T110 752Q110 818 155 862T269 906Z" />
<glyph unicode=";" horiz-adv-x="556" d="M93 -300Q186 -222 225 -160T265 -47Q265 -10 243 15T193 58T142 94T120 132Q120 200 163 244T279 289Q354 289 398 241T443 104Q443 48 429 -6T383 -117T294 -235T154 -365L93 -300ZM271 906Q341 906 385 862T429 752Q429
686 385 642T271 598Q202 598 158 642T113 752Q113 818 157 862T271 906Z" />
<glyph unicode="&lt;" horiz-adv-x="1023" d="M152 416V484L955 124V-17L53 396V504L955 916V776L152 416Z" />
<glyph unicode="=" horiz-adv-x="1023" d="M129 689H894V563H129V689ZM129 337H894V211H129V337Z" />
<glyph unicode="&gt;" horiz-adv-x="1023" d="M872 416L68 776V916L970 504V396L68 -17V124L872 484V416Z" />
<glyph unicode="?" horiz-adv-x="966" d="M355 1377Q478 1377 576 1348T742 1263T847 1130T883 955Q883 851 839 776T692 661T413 623L483 756L463 446H385L305 815Q446 809 532 833T657 908T697 1031Q697 1097 672 1144T597 1218T476 1244Q422 1244 383 1226T311
1183T245 1140T172 1121Q139 1121 113 1135T71 1176T55 1234Q55 1275 85 1307T182 1358T355 1377ZM428 291Q498 291 542 248T587 139Q587 73 543 29T428 -15Q358 -15 314 29T269 139Q269 204 313 247T428 291Z" />
<glyph unicode="@" horiz-adv-x="1791" d="M1246 185Q1137 185 1071 229T1004 370Q1004 393 1007 419T1019 472L1044 559H1066Q1001 446 946 374T844 262T752 206T664 190Q568 190 518 242T467 389Q467 464 492 548T565 714T675 862T815 968T977 1008Q1042 1008
1087 980T1171 892L1129 832Q1117 862 1097 882T1037 902Q990 902 944 869T856 780T783 661T733 533T715 419Q715 380 732 363T781 345Q807 345 842 367T915 431T987 528T1045 653L1130 895L1189 995H1386L1239 506Q1225 460 1220 431T1214 378Q1215 324 1240 302T1304
280Q1376 280 1444 335T1555 492T1599 735Q1599 863 1559 968T1443 1150T1256 1268T1005 1310Q829 1310 688 1252T445 1086T289 829T235 496Q235 349 278 230T409 24T627 -108T933 -154Q1026 -154 1122 -138T1315 -86T1504 10L1550 -70Q1460 -130 1359 -172T1145
-236T903 -259Q703 -259 549 -207T289 -58T129 178T75 488Q75 681 142 848T333 1140T629 1335T1008 1405Q1182 1405 1318 1359T1550 1228T1696 1024T1746 761Q1746 633 1709 528T1604 346T1445 227T1246 185Z" />
<glyph unicode="A" horiz-adv-x="1512" d="M361 458V583H1044V458H361ZM1375 112L1529 55V0H913V55L1082 109L647 1160H696L288 109L448 55V0H-14V55L142 109L652 1364H843L1375 112Z" />
<glyph unicode="B" horiz-adv-x="1378" d="M385 1225L392 1352H786Q941 1352 1036 1311T1176 1197T1220 1034Q1220 907 1137 822T906 723L908 739Q1091 729 1195 636T1299 396Q1299 281 1247 192T1081 51T786 0H393L384 127H717Q811 127 877 155T978 243T1013
400Q1013 476 983 533T890 622T725 655H383L385 779H715Q823 779 884 836T946 1010Q946 1076 919 1124T836 1198T694 1225H385ZM80 0V55L234 109V1243L80 1297V1352H507V0H80Z" />
<glyph unicode="C" horiz-adv-x="1432" d="M914 106Q985 106 1051 118T1191 160L1111 100L1278 404H1349L1308 54Q1223 18 1108 -3T862 -24Q680 -24 537 21T292 154T139 370T86 664Q86 879 182 1039T458 1288T893 1377Q963 1377 1030 1368T1186 1337L1111 1323L1238
1421H1286L1341 922L1265 912L1085 1239L1162 1154Q1080 1206 1009 1225T856 1244Q736 1244 646 1212T494 1117T402 960T370 743Q369 584 408 465T521 267T694 147T914 106Z" />
<glyph unicode="D" horiz-adv-x="1570" d="M1196 693Q1196 966 1054 1094T656 1223H371L353 1352H707Q967 1352 1139 1282T1397 1070T1483 714Q1483 487 1383 328T1107 84T708 0H353L371 130H680Q837 130 953 187T1132 369T1196 693ZM79 0V55L234 109V1243L79
1297V1352H508V0H79Z" />
<glyph unicode="E" horiz-adv-x="1341" d="M961 969V708V448H861L840 647H362V771H840L861 969H961ZM1241 963L1168 953L984 1277L1063 1225H362V1352H1021L1137 1416H1178L1241 963ZM1005 75L1214 424L1281 414L1200 -71H1153L1036 0H362V127H1068L1005 75ZM79
0V55L234 109V1243L79 1298V1352H508V0H79Z" />
<glyph unicode="F" horiz-adv-x="1241" d="M956 929V666V402H856L835 604H365V728H835L856 929H956ZM1108 1416H1148L1211 958L1138 948L954 1277L1071 1225H348V1352H992L1108 1416ZM508 1352V109L663 55V0H79V55L234 109V1243L79 1298V1352H508Z" />
<glyph unicode="G" horiz-adv-x="1540" d="M1367 187L1411 107V83Q1334 49 1245 25T1058 -11T858 -24Q675 -24 532 22T289 157T137 373T85 664Q86 879 181 1039T457 1288T893 1377Q968 1377 1038 1368T1193 1336L1113 1322L1241 1421H1290L1345 924L1268 914L1083
1250L1189 1139Q1111 1194 1033 1219T857 1244Q736 1244 645 1212T493 1116T401 956T370 735Q369 528 435 388T618 178T886 107Q947 107 1005 117T1113 149T1200 199L1094 46V500L922 559V612H1501V559L1367 503V187Z" />
<glyph unicode="H" horiz-adv-x="1670" d="M508 109L663 55V0H79V55L234 109V1243L79 1297V1352H663V1298L508 1243V109ZM1436 109L1591 55V0H1007V55L1162 109V1243L1007 1297V1352H1591V1298L1436 1243V109ZM354 625V755H1316V625H354Z" />
<glyph unicode="I" horiz-adv-x="742" d="M663 55V0H79V55L234 109V1243L79 1297V1352H663V1298L508 1243V109L663 55Z" />
<glyph unicode="J" horiz-adv-x="951" d="M749 446Q749 340 711 254T604 105T440 10T232 -23Q159 -23 109 -6T34 44T8 119Q8 161 34 191T107 221Q125 221 148 204T199 166T256 127T319 110Q390 110 432 163T474 345V1243L314 1298V1352H903V1298L748 1243L749 446Z" />
<glyph unicode="K" horiz-adv-x="1545" d="M1417 112L1564 55V0H964V50L1081 98L634 636H413V763H659L1135 1249L980 1298V1352H1455V1298L1305 1247L755 704L820 826L1417 112ZM508 1243V109L659 55V0H79V55L234 109V1243L79 1297V1352H663V1298L508 1243Z" />
<glyph unicode="L" horiz-adv-x="1274" d="M1151 -75H1099L975 0H362L363 130H1051L942 80L1173 456L1244 446L1151 -75ZM508 1243V0H79V55L234 109V1243L79 1298V1352H663V1298L508 1243Z" />
<glyph unicode="M" horiz-adv-x="2047" d="M1847 112L2005 55V0H1413V55L1570 106L1494 1166L1508 1164L1042 -9H863L388 1158L401 1160L339 112L496 55V0H45V55L205 112L283 1233L115 1298V1352H607L1039 270H1017L1446 1352H1917V1298L1760 1241L1847 112Z" />
<glyph unicode="N" horiz-adv-x="1562" d="M237 109V1227L70 1300V1352H538L1283 284L1215 216V1243L1046 1298V1352H1498V1298L1343 1243V-9H1157L315 1209L365 1241V109L534 55V0H82V55L237 109Z" />
<glyph unicode="O" horiz-adv-x="1579" d="M799 1377Q955 1377 1082 1327T1302 1184T1443 964T1493 678Q1493 522 1442 393T1295 171T1069 27T780 -24Q624 -24 497 26T277 168T136 389T86 674Q86 831 137 959T284 1181T510 1326T799 1377ZM798 112Q923 112 1014
171T1156 345T1207 628Q1207 829 1154 965T1005 1170T781 1240Q657 1240 565 1181T423 1007T372 724Q372 524 425 388T574 182T798 112Z" />
<glyph unicode="P" horiz-adv-x="1301" d="M987 955Q987 1041 954 1101T846 1192T644 1223H331L325 1352H739Q927 1352 1041 1301T1208 1162T1261 963Q1261 852 1208 760T1041 614T745 559H323L331 688H713Q794 688 855 718T952 807T987 955ZM508 1352V109L663
55V0H79V55L234 109V1243L79 1298V1352H508Z" />
<glyph unicode="Q" horiz-adv-x="1578" d="M767 -231L373 85Q274 163 210 251T116 443T86 674Q86 831 137 959T284 1181T510 1326T799 1377Q955 1377 1082 1327T1302 1184T1443 964T1493 678Q1493 521 1437 390T1278 168T1037 34T735 10L703 64L1081 -164Q1152
-206 1204 -233T1303 -276T1401 -295T1522 -294V-368Q1484 -378 1441 -387T1344 -401T1220 -407Q1146 -407 1091 -400T987 -374T887 -320T767 -231ZM798 113Q923 113 1014 172T1156 346T1207 628Q1207 829 1154 965T1005 1170T781 1240Q657 1240 565 1181T423 1007T372
724Q372 525 425 389T574 183T798 113Z" />
<glyph unicode="R" horiz-adv-x="1400" d="M710 740Q824 740 895 801T966 981Q966 1058 935 1112T834 1194T646 1223H300L332 1352H772Q940 1352 1043 1307T1192 1185T1239 1013Q1239 922 1199 851T1077 733T874 672V677Q964 673 1016 650T1099 582T1151 463L1228
222Q1249 157 1269 128T1317 91T1390 83V-2Q1265 -11 1187 -8T1063 16T993 76T950 183L881 427Q860 502 838 542T782 599T688 616H326L294 740H710ZM508 1352V109L661 55V0H79V55L234 109V1243L79 1298V1352H508Z" />
<glyph unicode="S" horiz-adv-x="1172" d="M960 1295L806 1322L928 1421H975L1036 955L960 945L776 1254L838 1182Q785 1220 726 1238T600 1256Q472 1256 408 1207T343 1069Q343 1009 371 970T449 903T562 855T694 813Q763 791 832 762T958 689T1049 577T1084
407Q1084 264 1015 169T822 25T538 -24Q429 -24 344 -12T166 34L86 414H164L430 37L212 180Q294 138 359 120T503 102Q616 102 690 127T800 201T837 326Q837 395 802 440T710 513T585 563T449 606Q382 629 321 658T213 729T139 835T112 988Q112 1109 172 1196T345
1330T612 1377Q709 1377 791 1358T960 1295Z" />
<glyph unicode="T" horiz-adv-x="1399" d="M560 1289H834V109L991 55V0H403V55L560 109V1289ZM1216 1223H164L274 1261L115 945L39 954L86 1427H132L282 1329L171 1352H1209L1117 1329L1267 1427H1313L1360 954L1284 945L1126 1261L1216 1223Z" />
<glyph unicode="U" horiz-adv-x="1567" d="M1237 523V1243L1075 1298V1352H1520V1298L1365 1243V531Q1365 350 1300 226T1109 39T801 -24Q605 -24 472 38T270 226T201 541V1243L46 1298V1352H630V1298L475 1243V541Q475 413 517 329T643 202T854 160Q978 160 1063
201T1192 323T1237 523Z" />
<glyph unicode="V" horiz-adv-x="1457" d="M133 1241L-21 1298V1352H600V1298L429 1244L850 192H798L1173 1243L1011 1298V1352H1466V1298L1314 1244L843 -12H652L133 1241Z" />
<glyph unicode="W" horiz-adv-x="2056" d="M1071 1117L663 -10H470L143 1241L-11 1298V1352H599V1298L432 1244L685 229L624 228L1016 1362H1200L1624 206L1540 186L1773 1243L1609 1298V1352H2060V1298L1912 1244L1604 -10H1414L1000 1101L1071 1117Z" />
<glyph unicode="X" horiz-adv-x="1517" d="M739 635L318 109L473 55V0H12V55L164 110L668 720L764 769L1135 1243L981 1298V1352H1439V1298L1287 1242L833 683L739 635ZM1042 110L673 603L640 637L184 1240L33 1298V1352H689V1298L521 1242L836 818L871 781L1379
112L1530 55V0H875V55L1042 110Z" />
<glyph unicode="Y" horiz-adv-x="1446" d="M132 1242L-14 1298V1352H624V1298L460 1243L872 659L796 660L1140 1243L981 1298V1352H1436V1298L1292 1243L883 592V109L1038 55V0H454V55L610 109V587L132 1242Z" />
<glyph unicode="Z" horiz-adv-x="1307" d="M1200 1352V1288L399 80L298 130H1029L1195 401L1261 392L1190 -63H1147L1029 0H94V65L889 1273L1009 1223H318L137 937L71 948L141 1420H184L313 1352H1200Z" />
<glyph unicode="[" horiz-adv-x="656" d="M178 -249V1410H622V1313H368V-152H622V-249H178Z" />
<glyph unicode="\" horiz-adv-x="810" d="M760 0H617L50 1352H193L760 0Z" />
<glyph unicode="]" horiz-adv-x="657" d="M479 1410V-248H35V-152H289V1314H35V1410H479Z" />
<glyph unicode="^" horiz-adv-x="1023" d="M482 1252H539L257 601H121L452 1352H570L902 601H767L482 1252Z" />
<glyph unicode="_" horiz-adv-x="821" d="M0 -189H821V-306H0V-189Z" />
<glyph unicode="`" horiz-adv-x="1000" d="M562 1031H470L147 1326V1361H416L562 1031Z" />
<glyph unicode="a" horiz-adv-x="980" d="M631 561L634 469Q533 449 470 427T372 379T325 326T312 263Q312 197 344 166T432 134Q472 134 504 153T556 205T575 275V648Q575 718 540 757T422 796Q388 796 353 790T287 770L331 834Q325 788 318 755T303 698T283
661Q267 639 239 628T175 617Q131 617 108 634T84 680Q84 719 120 759T218 833T358 888T522 909Q634 909 699 876T792 781T820 636V193Q820 165 828 147T853 119T893 110Q913 110 937 116T985 137V70Q936 26 879 2T772 -23Q708 -23 667 2T605 76T582 191L591 197Q574
125 536 76T444 1T325 -24Q211 -24 141 35T71 211Q71 269 94 317T179 407T349 486T631 561Z" />
<glyph unicode="b" horiz-adv-x="1137" d="M252 86H346L176 -18L106 -4L140 219V1186Q125 1203 103 1219T49 1253T-21 1288V1335L365 1434H402L386 1230V286Q386 226 408 182T474 113T581 88Q652 88 702 126T780 242T807 440Q807 547 778 618T694 725T564 761Q521
761 479 754T398 733T325 695L297 770Q356 807 408 833T507 877T594 904T674 913Q803 913 890 860T1022 711T1067 488Q1067 365 1028 270T919 109T761 9T572 -25Q514 -25 462 -14T358 21T252 86Z" />
<glyph unicode="c" horiz-adv-x="922" d="M600 913Q700 913 759 892T845 839T872 770Q872 735 856 708T813 666T752 651Q723 651 697 666T645 705T596 751T548 789T498 805Q445 805 401 776T329 686T301 526Q301 404 338 322T444 197T611 155Q675 155 732 173T848
232L874 176Q811 107 750 63T626 -3T498 -24Q368 -24 271 33T121 191T68 422Q68 525 103 614T206 771T373 875T600 913Z" />
<glyph unicode="d" horiz-adv-x="1157" d="M751 612Q751 697 705 750T564 803Q490 803 437 765T357 651T329 458Q329 347 359 274T443 164T573 128Q632 128 691 145T806 200V122Q735 77 685 48T596 3T526 -18T461 -24Q333 -24 246 29T114 179T70 401Q70 524 111
619T223 779T386 879T578 913Q633 913 683 905T785 880T900 832L751 800V1203Q737 1219 715 1234T664 1263T603 1292V1338L977 1434H1012L997 1229V177Q1007 167 1023 156T1058 133T1096 114T1133 99V59L817 -22H785L751 146V612Z" />
<glyph unicode="e" horiz-adv-x="963" d="M513 913Q632 913 714 864T842 721T898 490H245L246 580L760 602L657 552Q653 638 635 695T581 780T494 809Q437 809 394 778T326 680T302 500Q302 388 341 311T454 194T629 154Q674 154 714 162T794 187T872 230L898
175Q839 113 778 69T651 0T512 -24Q379 -24 279 34T124 195T68 431Q68 566 120 675T272 849T513 913Z" />
<glyph unicode="f" horiz-adv-x="756" d="M259 759L205 729L28 780V825L221 902L322 889H740L724 759H259ZM451 102L607 50V0H70V50L205 99V893Q205 1034 249 1136T370 1304T549 1402T764 1434Q830 1434 876 1425T950 1398T992 1358T1005 1308Q1005 1259 972 1228T890
1196Q857 1196 831 1214T780 1257T723 1300T647 1319Q592 1319 548 1295T477 1217T451 1074V102Z" />
<glyph unicode="g" horiz-adv-x="1039" d="M469 -519Q355 -519 271 -504T133 -459T51 -389T24 -296Q24 -257 43 -223T106 -161T226 -110T416 -68H495L496 -89Q389 -104 332 -129T252 -188T230 -264Q230 -313 259 -348T349 -403T505 -422Q601 -422 669 -400T774
-339T810 -256Q810 -223 794 -200T738 -160T628 -134T449 -117Q340 -111 271 -92T164 -43T112 24T97 102Q99 183 166 235T364 305L393 275Q335 269 310 248T284 191Q284 169 294 153T335 124T424 104T584 91Q689 86 767 70T897 22T974 -57T1000 -172Q1000 -269
938 -347T757 -472T469 -519ZM472 257Q351 257 261 298T123 414T74 584Q74 685 125 759T266 873T473 913Q568 913 641 887T766 814T844 709T871 586Q871 486 820 412T679 297T472 257ZM480 352Q548 352 588 405T628 570Q628 698 585 758T466 819Q398 819 358 767T317
602Q317 475 361 414T480 352ZM611 831L584 898Q660 889 719 890T826 897T912 910T983 916Q1015 916 1032 897T1049 836Q1049 783 1024 756T967 729Q938 729 910 746T845 785T753 821T611 831Z" />
<glyph unicode="h" horiz-adv-x="1176" d="M650 50L772 94V573Q772 622 754 655T698 704T603 721Q538 721 481 702T391 652L355 696Q422 763 474 806T571 872T658 904T751 913Q887 913 952 833T1018 587V99L1155 50V0H650V50ZM544 0H33V50L168 99V1186Q153 1203
131 1219T77 1253T7 1288V1335L394 1434H430L413 1230V98L544 50V0Z" />
<glyph unicode="i" horiz-adv-x="607" d="M307 1138Q235 1138 192 1179T149 1287Q149 1351 192 1392T307 1434Q380 1434 423 1393T466 1287Q466 1221 423 1180T307 1138ZM448 913L437 706V99L573 50V0H56V50L191 99V685Q179 700 156 716T106 749T49 778V821L403 913H448Z" />
<glyph unicode="j" horiz-adv-x="554" d="M288 1138Q216 1138 173 1179T130 1287Q130 1351 173 1392T288 1434Q360 1434 403 1393T447 1287Q447 1221 404 1180T288 1138ZM172 685Q159 700 137 716T87 749T30 778V821L384 913H429L418 706V-23Q418 -88 411 -136T384
-226T323 -308T215 -400T46 -519L-9 -453Q53 -388 89 -343T143 -263T166 -191T172 -104V685Z" />
<glyph unicode="k" horiz-adv-x="1159" d="M592 477L677 598L1057 99L1171 49V0H696V49L776 87L507 438H336V549H538L803 795L675 835V889H1094V835L958 794L592 477ZM413 97L542 50V0H33V50L168 99V1186Q153 1203 131 1219T77 1253T7 1288V1335L394 1434H430L413
1230V97Z" />
<glyph unicode="l" horiz-adv-x="584" d="M415 99L551 50V0H34V50L169 99V1186Q155 1203 132 1219T78 1253T8 1288V1335L395 1434H431L415 1230V99Z" />
<glyph unicode="m" horiz-adv-x="1735" d="M436 712V94L549 50V0H55V50L191 99V670Q171 695 138 716T48 762V800L351 914H385L436 712ZM1006 636V94L1118 50V0H647V50L760 94V588Q760 635 743 665T691 709T606 724Q548 724 495 707T412 661L377 707Q441 771 490
811T582 874T665 904T752 913Q841 913 897 879T979 783T1006 636ZM1575 607V99L1712 50V0H1217V50L1330 94V588Q1330 636 1312 665T1260 709T1175 724Q1117 724 1064 707T981 661L946 707Q1010 771 1059 811T1151 874T1235 904T1322 913Q1454 913 1514 835T1575
607Z" />
<glyph unicode="n" horiz-adv-x="1199" d="M436 712V94L558 50V0H55V50L191 99V670Q171 695 138 716T48 762V800L351 914H385L436 712ZM673 50L795 94V573Q795 622 777 655T721 704T626 721Q561 721 504 702T414 652L378 696Q445 763 497 806T593 872T681 904T774
913Q910 913 975 833T1041 587V99L1177 50V0H673V50Z" />
<glyph unicode="o" horiz-adv-x="1083" d="M545 86Q608 86 655 118T729 222T756 410Q756 540 731 627T657 758T539 803Q475 803 428 771T354 667T327 479Q327 350 352 263T426 131T545 86ZM535 -24Q391 -24 287 33T125 194T68 434Q68 575 129 683T298 852T549
913Q693 913 797 856T958 696T1015 455Q1015 314 954 206T785 37T535 -24Z" />
<glyph unicode="p" horiz-adv-x="1168" d="M838 435Q838 597 773 678T595 759Q553 759 511 752T431 730T358 693L344 771Q402 808 453 834T548 878T632 904T708 913Q835 913 922 859T1053 710T1098 491Q1098 330 1032 215T855 38T613 -24Q554 -24 503 -11T403
28T304 90H417V-393L572 -445V-495H35V-445L171 -396V674Q157 690 137 704T89 734T29 765V804L342 917H376L417 778V282Q417 224 440 180T507 112T612 88Q683 88 733 126T811 241T838 435Z" />
<glyph unicode="q" horiz-adv-x="1134" d="M329 458Q329 348 359 274T443 164T573 128Q637 128 698 144T811 195V117Q749 77 699 50T607 6T531 -17T461 -24Q333 -24 246 29T114 179T70 401Q70 560 139 675T325 851T588 913Q642 913 692 905T795 877T908 825L803
827L990 912L1028 893L997 682V-396L1132 -445V-495H595V-445L751 -393V611Q751 696 702 749T560 803Q488 803 436 765T357 651T329 458Z" />
<glyph unicode="r" horiz-adv-x="860" d="M726 905Q786 905 813 873T841 792Q841 729 805 695T722 661Q684 661 654 668T596 683T532 690Q508 690 484 685T437 669T393 641L369 688Q430 747 480 788T574 855T654 893T726 905ZM436 712V102L584 50V0H55V50L191
99V670Q176 688 155 703T108 733T49 762V800L371 914H405L436 712Z" />
<glyph unicode="s" horiz-adv-x="823" d="M443 913Q517 913 574 902T696 864L711 620H639L522 861L612 771Q569 796 529 808T448 821Q368 821 326 793T283 712Q283 670 306 643T377 595T499 550Q555 533 601 510T680 454T732 376T751 269Q751 173 703 108T568
10T367 -24Q295 -24 230 -13T111 19L74 276H145L287 18L152 104Q188 90 219 82T280 72T337 69Q435 69 489 102T543 203Q543 240 527 264T479 306T404 339T306 372Q234 396 186 431T114 518T89 641Q89 729 135 789T262 881T443 913Z" />
<glyph unicode="t" horiz-adv-x="762" d="M408 272Q408 210 449 178T570 146Q608 146 653 154T750 178V112Q679 62 622 33T519 -9T432 -22Q352 -22 292 5T197 88T163 229V719L28 813V854Q57 871 89 891T154 932T221 977T286 1022T346 1067H408V863V272ZM309 759L310
889H719L703 759H309Z" />
<glyph unicode="u" horiz-adv-x="1143" d="M406 306Q406 255 421 225T470 182T562 169Q620 169 673 186T757 232L793 183Q729 119 680 78T589 15T507 -15T420 -24Q288 -24 225 54T161 288V759L23 825V880L420 905L406 773V306ZM760 -19L729 177V766L612 826V881L988
904L975 768V177Q985 167 1001 156T1036 133T1074 114T1112 99V59L791 -19H760Z" />
<glyph unicode="v" horiz-adv-x="1101" d="M974 796L642 -12H484L115 786L-9 835V889H503V834L382 795L664 162L609 161L849 796L731 834V889H1077V834L974 796Z" />
<glyph unicode="w" horiz-adv-x="1564" d="M1322 799L1205 834V889H1544V834L1443 798L1199 -12H1039L756 689L817 708L536 -12H375L123 786L-1 835V889H494V834L375 795L558 181L505 183L778 901H929L1211 181L1157 182L1322 799Z" />
<glyph unicode="x" horiz-adv-x="1066" d="M954 99L1064 53V0H578V53L679 90L466 369L444 396L135 790L25 836V889H514V836L410 799L603 544L628 516L954 99ZM532 418L263 89L381 53V0H17V53L126 91L458 474L531 496L777 800L662 836V889H1020V836L913 798L604
440L532 418Z" />
<glyph unicode="y" horiz-adv-x="1106" d="M684 172L553 -92L124 786L0 835V889H514V834L393 795L684 172ZM255 -519Q186 -519 144 -485T102 -389Q102 -357 115 -334T147 -297T183 -283Q202 -283 222 -291T268 -307T326 -315Q359 -315 385 -304T434 -263T481 -179L586
59L633 170L862 799L747 834V889H1094V834L992 798L588 -196Q536 -323 487 -393T383 -491T255 -519Z" />
<glyph unicode="z" horiz-adv-x="920" d="M67 0V48L589 845L697 788L144 776L279 861L130 594H62L109 913H151L228 889H849V841L321 41L219 101L727 114L638 38L819 309H886L811 0H67Z" />
<glyph unicode="{" horiz-adv-x="645" d="M36 534V625L108 627Q178 631 208 660T239 756Q239 824 226 888T198 1013T184 1132Q184 1203 219 1264T324 1368T494 1420L595 1430L604 1345L542 1336Q457 1325 425 1277T392 1155Q392 1078 405 991T418 803Q418 720
369 657T210 568V591Q319 566 368 503T418 356Q418 256 405 169T392 5Q392 -69 424 -117T542 -177L604 -186L595 -271L494 -261Q393 -251 324 -209T220 -105T184 27Q184 86 198 146T225 271T239 404Q239 469 209 499T108 532L36 534Z" />
<glyph unicode="|" horiz-adv-x="492" d="M179 -519V1481H313V-519H179Z" />
<glyph unicode="}" horiz-adv-x="645" d="M609 625V535L537 532Q467 529 437 500T406 404Q406 335 420 271T447 147T461 27Q461 -43 426 -105T322 -209T151 -261L51 -271L41 -185L103 -177Q188 -166 221 -118T254 5Q254 81 241 168T227 356Q227 439 277 503T436
592V568Q327 593 277 656T227 803Q227 904 240 991T254 1155Q254 1229 221 1277T103 1336L41 1345L51 1430L151 1420Q253 1410 322 1368T426 1265T461 1132Q461 1074 448 1013T420 888T406 756Q406 690 436 661T537 628L609 625Z" />
<glyph unicode="~" horiz-adv-x="1023" d="M128 327Q129 420 156 475T231 555T345 580Q405 580 448 560T527 512T595 465T667 444Q720 444 742 473T769 573H896Q896 480 869 424T794 344T680 319Q620 319 577 339T498 387T429 434T358 455Q306 455 283 426T256 327H128Z" />
<glyph unicode="&#xa0;" horiz-adv-x="438" />
<glyph unicode="&#xa1;" horiz-adv-x="535" d="M118 -407L120 -310Q120 -284 124 -245T136 -155T152 -40T173 97T198 255T224 435H310Q324 340 337 256T361 97T382 -40T398 -154T409 -245T414 -310L417 -407Q417 -436 398 -455T344 -483T267 -493Q224 -493 190
-484T137 -455T118 -407ZM267 595Q197 595 153 639T109 748Q109 814 153 858T267 902Q338 902 382 858T426 748Q426 683 382 639T267 595Z" />
<glyph unicode="&#xa2;" horiz-adv-x="1222" d="M393 0L850 1352H948L491 0H393ZM742 1139Q833 1139 893 1120T983 1069T1014 996Q1014 963 998 936T955 893T894 877Q865 877 838 892T787 931T738 977T690 1015T640 1031Q588 1031 544 1002T472 912T445 752Q445
630 482 548T588 423T755 381Q819 381 876 399T992 458L1018 402Q955 333 893 289T769 223T642 202Q512 202 415 259T265 417T212 648Q212 751 247 840T350 997T516 1101T742 1139Z" />
<glyph unicode="&#xa3;" horiz-adv-x="1222" d="M983 920Q952 1055 881 1119T698 1184Q575 1184 512 1124T449 967Q449 919 465 876T504 795T550 720T588 646T604 569Q604 514 574 450T483 314T333 165L340 238H1028L846 146L1081 444H1143L1050 -42H1006L897
0H143V47Q227 137 279 202T359 312T397 391T408 450Q408 510 384 557T325 647T253 738T193 846T169 989Q169 1066 200 1135T290 1259T438 1345T640 1377Q765 1377 857 1330T1006 1185T1081 940L983 920ZM907 730V628H75V730H907Z" />
<glyph unicode="&#xa4;" horiz-adv-x="931" d="M204 798L328 674L241 587L117 712L204 798ZM117 188L241 312L327 225L204 101L117 188ZM466 744Q552 744 619 707T724 603T762 450Q762 364 724 298T619 193T466 155Q379 155 312 193T207 297T169 450Q169 537 207
603T312 706T466 744ZM466 266Q545 266 595 316T645 450Q645 532 595 582T466 633Q386 633 336 583T286 450Q286 367 336 317T466 266ZM814 712L689 586L602 673L727 798L814 712ZM814 188L727 101L605 223L692 310L814 188Z" />
<glyph unicode="&#xa5;" horiz-adv-x="1222" d="M1348 587V486H426V587H1348ZM1348 873V771H426V873H1348ZM1021 858V105L1199 52V0H577V52L757 105V855L338 1246L190 1299V1352H802V1299L663 1253L1004 911L948 916L1254 1254L1115 1299V1352H1537V1299L1393
1251L1021 858Z" />
<glyph unicode="&#xa6;" horiz-adv-x="492" d="M313 699H179V1481H313V699ZM179 -519V309H313V-519H179Z" />
<glyph unicode="&#xa7;" horiz-adv-x="1152" d="M518 -273Q386 -273 309 -250T199 -189T165 -110Q165 -63 196 -36T273 -8Q310 -8 337 -32T392 -89T460 -146T563 -171Q660 -171 708 -133T756 -32Q756 24 720 59T623 118T491 161T347 204T215 264T119 358T82 504Q82
629 167 712T424 826L490 767Q386 746 339 700T292 587Q292 530 328 495T424 436T554 393T697 351T828 291T924 198T960 53Q960 -42 911 -116T763 -231T518 -273ZM859 526Q859 583 823 618T727 676T596 717T454 759T323 818T227 911T191 1055Q191 1150 241 1222T392
1336T642 1377Q774 1377 851 1353T961 1292T994 1213Q994 1166 964 1139T886 1111Q849 1111 823 1135T768 1192T699 1249T596 1274Q495 1274 445 1236T395 1135Q395 1081 431 1047T528 991T660 950T804 908T936 848T1032 754T1069 609Q1069 474 978 395T726 285L654
344Q760 365 809 411T859 526Z" />
<glyph unicode="&#xa8;" horiz-adv-x="1000" d="M299 1072Q240 1072 205 1107T170 1196Q170 1250 205 1285T299 1320Q357 1320 391 1285T426 1196Q426 1143 392 1108T299 1072ZM702 1072Q643 1072 609 1107T574 1196Q574 1250 608 1285T702 1320Q761 1320 795
1285T830 1196Q830 1143 796 1108T702 1072Z" />
<glyph unicode="&#xa9;" horiz-adv-x="1633" d="M816 1377Q973 1377 1102 1327T1326 1183T1472 961T1524 676Q1524 520 1473 392T1327 170T1103 26T816 -24Q659 -24 530 26T306 169T161 391T109 676Q109 832 160 960T306 1182T529 1326T816 1377ZM816 1278Q641
1278 507 1203T297 992T221 676Q221 496 297 361T507 150T816 74Q992 74 1126 149T1336 360T1412 676Q1412 856 1336 991T1126 1202T816 1278ZM907 378Q943 378 977 384T1049 409L975 344L1096 546H1145L1104 322Q1049 305 991 297T869 288Q733 288 635 333T483
466T430 678Q430 797 483 886T637 1025T880 1075Q922 1075 960 1070T1048 1051L992 1040L1070 1100H1100L1133 803L1083 794L971 1003L1032 940Q992 964 956 974T878 984Q767 984 708 916T648 709Q648 605 681 531T773 418T907 378Z" />
<glyph unicode="&#xaa;" horiz-adv-x="920" d="M126 457V574H813V457H126ZM558 1040Q486 1026 440 1011T369 978T335 942T325 898Q325 852 349 830T412 808Q456 808 483 839T511 912V1174Q511 1224 485 1252T397 1281Q372 1281 344 1276T289 1260L327 1317Q320
1263 311 1233T286 1184Q271 1167 251 1159T203 1151Q170 1151 152 1164T134 1199Q134 1240 184 1280T313 1346T477 1373Q568 1373 619 1349T691 1280T713 1170V849Q713 819 724 806T759 792Q773 792 788 795T820 804V746Q778 716 741 703T667 689Q594 689 558
734T520 853L527 854Q507 774 453 731T325 688Q236 688 182 731T128 861Q128 905 146 940T210 1006T339 1065T552 1121L558 1040Z" />
<glyph unicode="&#xab;" horiz-adv-x="1056" d="M275 519L543 70L478 16L58 406V490L478 880L543 826L275 377V519ZM713 519L981 70L917 16L497 406V490L917 880L981 826L713 377V519Z" />
<glyph unicode="&#xac;" horiz-adv-x="1023" d="M122 686H890V561H122V686ZM890 636V213H765V636H890Z" />
<glyph unicode="&#xad;" horiz-adv-x="723" d="M117 539H606V369H117V539Z" />
<glyph unicode="&#xae;" horiz-adv-x="1103" d="M549 1377Q681 1377 781 1322T939 1170T996 942Q996 814 939 716T782 562T549 507Q419 507 319 562T163 715T107 942Q107 1072 163 1169T319 1322T549 1377ZM549 1297Q444 1297 364 1253T240 1129T195 942Q195 837
239 757T364 633T549 588Q657 588 737 632T863 757T908 942Q908 1049 863 1128T738 1252T549 1297ZM446 976H567Q601 976 619 993T637 1048Q637 1082 619 1099T555 1116H449L440 1175H596Q684 1175 719 1145T755 1064Q755 1021 723 988T620 951L621 956Q671 954
694 938T726 884L748 812Q756 782 765 774T794 766V728Q732 723 699 726T651 747T629 801L612 867Q604 897 592 907T550 918H445L446 976ZM391 1125L339 1142V1175H508V779L556 761V727H339V761L391 779V1125Z" />
<glyph unicode="&#xaf;" horiz-adv-x="1000" d="M226 1132V1260H774V1132H226Z" />
<glyph unicode="&#xb0;" horiz-adv-x="756" d="M378 1368Q511 1368 596 1283T682 1065Q682 932 597 847T378 762Q245 762 159 847T73 1065Q73 1198 159 1283T378 1368ZM378 857Q467 857 524 914T582 1065Q582 1159 525 1216T378 1273Q289 1273 231 1216T173 1065Q173
972 231 915T378 857Z" />
<glyph unicode="&#xb1;" horiz-adv-x="1023" d="M449 890H574V126H449V890ZM129 570H894V445H129V570ZM129 125H894V0H129V125Z" />
<glyph unicode="&#xb2;" horiz-adv-x="729" d="M482 690L634 881H676L624 575H597L528 604H74V657L264 853Q321 910 353 953T400 1032T414 1106Q414 1154 380 1184T287 1215Q227 1215 185 1183T119 1076L55 1095Q89 1235 167 1302T365 1369Q479 1369 547 1314T616
1163Q616 1111 593 1065T514 964T358 830L222 718L218 773H623L482 690Z" />
<glyph unicode="&#xb3;" horiz-adv-x="690" d="M250 588Q139 588 96 620T52 691Q52 721 71 739T121 758Q144 758 162 745T200 715T244 685T304 672Q362 672 404 709T446 826Q446 878 425 909T363 949T259 945L220 936L204 1002Q316 1032 353 1067T390 1153Q390
1192 365 1217T291 1243Q234 1243 195 1213T136 1121L74 1143Q105 1254 172 1313T358 1372Q461 1372 513 1329T566 1216Q566 1144 509 1095T356 1033L362 1039Q451 1053 512 1035T606 973T638 867Q638 789 593 726T461 625T250 588Z" />
<glyph unicode="&#xb4;" horiz-adv-x="1000" d="M438 1031L584 1361H853V1326L530 1031H438Z" />
<glyph unicode="&#xb5;" horiz-adv-x="1191" d="M172 889H418V306Q418 255 432 225T481 182T573 169Q631 169 684 186T768 232L804 183Q742 120 695 80T608 17T534 -14T464 -23Q407 -23 365 -5T295 54T256 167L271 171L389 -486L205 -510H172V889ZM986 193Q986
166 994 148T1019 122T1059 113Q1079 113 1102 119T1151 137V71Q1101 27 1045 2T937 -23Q837 -23 789 37T740 200V889H986V193Z" />
<glyph unicode="&#xb6;" horiz-adv-x="1263" d="M696 1352V648H452Q314 648 226 692T96 814T54 994Q54 1093 95 1174T224 1304T456 1352H696ZM743 -247H622V1352H930V1242H743V-247ZM1018 -247H897V1352H1188V1299L1018 1250V-247Z" />
<glyph unicode="&#xb7;" horiz-adv-x="520" d="M260 609Q330 609 374 565T418 454Q418 387 374 343T260 298Q191 298 147 342T102 454Q102 520 146 564T260 609Z" />
<glyph unicode="&#xb8;" horiz-adv-x="1000" d="M398 -519Q319 -519 284 -493T249 -431Q249 -405 265 -389T306 -373Q332 -373 351 -389T392 -422T449 -439Q492 -439 518 -418T545 -357Q545 -327 526 -305T458 -266T315 -235V-217L510 47H604L415 -214V-108Q516
-126 571 -154T648 -219T670 -298Q670 -360 635 -410T537 -490T398 -519Z" />
<glyph unicode="&#xb9;" horiz-adv-x="569" d="M226 679V1293L272 1215L51 1151L31 1208L307 1355H417V679L527 648V604H108V648L226 679Z" />
<glyph unicode="&#xba;" horiz-adv-x="937" d="M139 455V576H797V455H139ZM472 790Q539 790 579 840T620 1008Q620 1137 580 1203T466 1270Q399 1270 359 1220T318 1051Q318 923 358 857T472 790ZM464 688Q354 688 275 729T152 846T108 1022Q108 1126 154 1205T282
1328T475 1373Q584 1373 663 1332T786 1215T829 1037Q829 933 783 855T655 732T464 688Z" />
<glyph unicode="&#xbb;" horiz-adv-x="1094" d="M356 378L88 827L153 881L573 491V407L153 17L88 70L356 520V378ZM795 378L527 827L591 881L1011 491V407L591 17L527 70L795 520V378Z" />
<glyph unicode="&#xbc;" horiz-adv-x="1582" d="M254 679V1293L300 1215L79 1151L59 1208L335 1355H445V679L555 648V604H136V648L254 679ZM274 0L1215 1352H1345L404 0H274ZM1139 648L1190 666L886 291L873 339H1398L1527 359L1488 210H805V293L1166 751H1331V75L1440
44V0H1021V44L1139 75V648Z" />
<glyph unicode="&#xbd;" horiz-adv-x="1629" d="M272 0L1213 1352H1343L402 0H272ZM1371 86L1523 277H1565L1513 -29H1486L1417 0H963V53L1153 249Q1210 306 1242 349T1289 428T1303 502Q1303 550 1269 580T1176 611Q1116 611 1074 579T1008 472L944 491Q978 631
1056 698T1254 765Q1368 765 1436 710T1505 559Q1505 507 1482 461T1403 360T1247 226L1111 114L1107 169H1512L1371 86ZM251 679V1293L297 1215L76 1151L56 1208L332 1355H442V679L552 648V604H133V648L251 679Z" />
<glyph unicode="&#xbe;" horiz-adv-x="1580" d="M272 0L1213 1352H1343L402 0H272ZM274 588Q163 588 120 620T76 691Q76 721 95 739T145 758Q168 758 186 745T224 715T268 685T328 672Q386 672 428 709T470 826Q470 878 449 909T387 949T283 945L244 936L228 1002Q340
1032 377 1067T414 1153Q414 1192 389 1217T315 1243Q258 1243 219 1213T160 1121L98 1143Q129 1254 196 1313T382 1372Q485 1372 537 1329T590 1216Q590 1144 533 1095T380 1033L386 1039Q475 1053 536 1035T630 973T662 867Q662 789 617 726T485 625T274 588ZM1137
648L1188 666L884 291L871 339H1396L1525 359L1486 210H803V293L1164 751H1329V75L1438 44V0H1019V44L1137 75V648Z" />
<glyph unicode="&#xbf;" horiz-adv-x="966" d="M629 -490Q506 -490 408 -461T242 -376T138 -243T102 -69Q102 36 146 111T293 226T572 264L501 131L522 440H600L679 72Q539 78 453 54T327 -21T287 -145Q287 -210 313 -258T388 -331T509 -357Q563 -357 602 -339T674
-296T739 -253T813 -234Q846 -234 872 -249T914 -289T929 -348Q929 -388 899 -420T803 -471T629 -490ZM557 595Q487 595 443 639T398 748Q398 814 442 858T557 902Q627 902 671 858T715 748Q715 683 671 639T557 595Z" />
<glyph unicode="&#xc0;" horiz-adv-x="1512" d="M361 458V583H1044V458H361ZM1375 112L1529 55V0H913V55L1082 109L647 1160H696L288 109L448 55V0H-14V55L142 109L652 1364H843L1375 112ZM791 1487H694L399 1708V1742H673L791 1487Z" />
<glyph unicode="&#xc1;" horiz-adv-x="1512" d="M361 458V583H1044V458H361ZM1375 112L1529 55V0H913V55L1082 109L647 1160H696L288 109L448 55V0H-14V55L142 109L652 1364H843L1375 112ZM689 1487L807 1742H1081V1708L786 1487H689Z" />
<glyph unicode="&#xc2;" horiz-adv-x="1512" d="M361 458V583H1044V458H361ZM1375 112L1529 55V0H913V55L1082 109L647 1160H696L288 109L448 55V0H-14V55L142 109L652 1364H843L1375 112ZM717 1625H763L544 1487H418L636 1742H844L1062 1487H936L717 1625Z" />
<glyph unicode="&#xc3;" horiz-adv-x="1512" d="M361 458V583H1044V458H361ZM1375 112L1529 55V0H913V55L1082 109L647 1160H696L288 109L448 55V0H-14V55L142 109L652 1364H843L1375 112ZM1042 1740Q1023 1634 999 1579T942 1502T861 1481Q822 1481 789 1497T726
1535T668 1573T616 1590Q597 1590 583 1583T557 1554T533 1489H436Q457 1595 480 1651T537 1727T618 1748Q657 1748 690 1732T753 1694T810 1656T863 1639Q882 1639 896 1646T923 1676T946 1740H1042Z" />
<glyph unicode="&#xc4;" horiz-adv-x="1512" d="M361 458V583H1044V458H361ZM1375 112L1529 55V0H913V55L1082 109L647 1160H696L288 109L448 55V0H-14V55L142 109L652 1364H843L1375 112ZM528 1491Q469 1491 434 1526T399 1615Q399 1668 434 1703T528 1738Q587
1738 621 1703T656 1615Q656 1562 622 1527T528 1491ZM953 1491Q894 1491 859 1526T824 1615Q824 1668 859 1703T953 1738Q1011 1738 1046 1703T1081 1615Q1081 1562 1046 1527T953 1491Z" />
<glyph unicode="&#xc5;" horiz-adv-x="1512" d="M361 458V583H1044V458H361ZM1375 112L1529 55V0H913V55L1082 109L647 1160H696L288 109L448 55V0H-14V55L142 109L652 1364H843L1375 112ZM739 1798Q821 1798 873 1747T925 1615Q925 1536 873 1485T739 1433Q659
1433 607 1484T555 1615Q555 1695 607 1746T739 1798ZM740 1500Q790 1500 821 1532T853 1615Q853 1668 822 1700T740 1733Q689 1733 658 1701T626 1615Q626 1564 657 1532T740 1500Z" />
<glyph unicode="&#xc6;" horiz-adv-x="2079" d="M462 461V586H1063V461H462ZM900 1352H1004V1276L285 109L445 55V0H-25V55L134 109L900 1352ZM660 1298V1352H946L878 1219L660 1298ZM1699 969V708V448H1599L1577 647H1100V771H1577L1599 969H1699ZM1979 963L1906
953L1722 1277L1801 1225H1100V1352H1758L1874 1416H1916L1979 963ZM1742 75L1951 424L2019 414L1938 -71H1891L1773 0H1100V127H1806L1742 75ZM817 0V55L972 109V1352H1245V0H817Z" />
<glyph unicode="&#xc7;" horiz-adv-x="1432" d="M914 106Q985 106 1051 118T1191 160L1111 100L1278 404H1349L1308 54Q1223 18 1108 -3T862 -24Q680 -24 537 21T292 154T139 370T86 664Q86 879 182 1039T458 1288T893 1377Q963 1377 1030 1368T1186 1337L1111
1323L1238 1421H1286L1341 922L1265 912L1085 1239L1162 1154Q1080 1206 1009 1225T856 1244Q736 1244 646 1212T494 1117T402 960T370 743Q369 584 408 465T521 267T694 147T914 106ZM702 -519Q623 -519 588 -493T553 -431Q553 -405 569 -389T610 -373Q636 -373
655 -389T697 -422T753 -439Q797 -439 823 -418T849 -357Q849 -327 830 -305T762 -266T619 -235V-217L814 47H908L719 -214V-108Q821 -126 876 -154T952 -219T974 -298Q974 -360 939 -410T842 -490T702 -519Z" />
<glyph unicode="&#xc8;" horiz-adv-x="1341" d="M961 969V708V448H861L840 647H362V771H840L861 969H961ZM1241 963L1168 953L984 1277L1063 1225H362V1352H1021L1137 1416H1178L1241 963ZM1005 75L1214 424L1281 414L1200 -71H1153L1036 0H362V127H1068L1005
75ZM79 0V55L234 109V1243L79 1298V1352H508V0H79ZM729 1487H632L337 1708V1742H611L729 1487Z" />
<glyph unicode="&#xc9;" horiz-adv-x="1341" d="M961 969V708V448H861L840 647H362V771H840L861 969H961ZM1241 963L1168 953L984 1277L1063 1225H362V1352H1021L1137 1416H1178L1241 963ZM1005 75L1214 424L1281 414L1200 -71H1153L1036 0H362V127H1068L1005
75ZM79 0V55L234 109V1243L79 1298V1352H508V0H79ZM627 1487L745 1742H1019V1708L724 1487H627Z" />
<glyph unicode="&#xca;" horiz-adv-x="1341" d="M961 969V708V448H861L840 647H362V771H840L861 969H961ZM1241 963L1168 953L984 1277L1063 1225H362V1352H1021L1137 1416H1178L1241 963ZM1005 75L1214 424L1281 414L1200 -71H1153L1036 0H362V127H1068L1005
75ZM79 0V55L234 109V1243L79 1298V1352H508V0H79ZM655 1625H701L482 1487H356L574 1742H782L1000 1487H874L655 1625Z" />
<glyph unicode="&#xcb;" horiz-adv-x="1341" d="M961 969V708V448H861L840 647H362V771H840L861 969H961ZM1241 963L1168 953L984 1277L1063 1225H362V1352H1021L1137 1416H1178L1241 963ZM1005 75L1214 424L1281 414L1200 -71H1153L1036 0H362V127H1068L1005
75ZM79 0V55L234 109V1243L79 1298V1352H508V0H79ZM466 1491Q407 1491 372 1526T337 1615Q337 1668 372 1703T466 1738Q525 1738 559 1703T594 1615Q594 1562 560 1527T466 1491ZM891 1491Q832 1491 797 1526T762 1615Q762 1668 797 1703T891 1738Q949 1738 984
1703T1019 1615Q1019 1562 984 1527T891 1491Z" />
<glyph unicode="&#xcc;" horiz-adv-x="742" d="M663 55V0H79V55L234 109V1243L79 1297V1352H663V1298L508 1243V109L663 55ZM422 1487H325L30 1708V1742H304L422 1487Z" />
<glyph unicode="&#xcd;" horiz-adv-x="742" d="M663 55V0H79V55L234 109V1243L79 1297V1352H663V1298L508 1243V109L663 55ZM320 1487L438 1742H712V1708L417 1487H320Z" />
<glyph unicode="&#xce;" horiz-adv-x="742" d="M663 55V0H79V55L234 109V1243L79 1297V1352H663V1298L508 1243V109L663 55ZM348 1625H394L175 1487H49L267 1742H475L693 1487H567L348 1625Z" />
<glyph unicode="&#xcf;" horiz-adv-x="742" d="M663 55V0H79V55L234 109V1243L79 1297V1352H663V1298L508 1243V109L663 55ZM159 1491Q100 1491 65 1526T30 1615Q30 1668 65 1703T159 1738Q218 1738 252 1703T287 1615Q287 1562 253 1527T159 1491ZM584 1491Q525
1491 490 1526T455 1615Q455 1668 490 1703T584 1738Q642 1738 677 1703T712 1615Q712 1562 677 1527T584 1491Z" />
<glyph unicode="&#xd0;" horiz-adv-x="1573" d="M82 626V745H799V626H82ZM1199 693Q1199 966 1058 1094T659 1223H374L356 1352H710Q970 1352 1142 1282T1400 1070T1486 714Q1486 487 1386 328T1110 84T711 0H356L374 130H683Q840 130 956 187T1135 369T1199 693ZM82
0V55L237 109V1243L82 1297V1352H511V0H82Z" />
<glyph unicode="&#xd1;" horiz-adv-x="1562" d="M237 109V1227L70 1300V1352H538L1283 284L1215 216V1243L1046 1298V1352H1498V1298L1343 1243V-9H1157L315 1209L365 1241V109L534 55V0H82V55L237 109ZM1110 1740Q1091 1634 1067 1579T1010 1502T929 1481Q890
1481 857 1497T794 1535T736 1573T684 1590Q665 1590 651 1583T625 1554T601 1489H504Q525 1595 548 1651T605 1727T686 1748Q725 1748 758 1732T821 1694T878 1656T931 1639Q950 1639 964 1646T991 1676T1014 1740H1110Z" />
<glyph unicode="&#xd2;" horiz-adv-x="1579" d="M799 1377Q955 1377 1082 1327T1302 1184T1443 964T1493 678Q1493 522 1442 393T1295 171T1069 27T780 -24Q624 -24 497 26T277 168T136 389T86 674Q86 831 137 959T284 1181T510 1326T799 1377ZM798 112Q923 112
1014 171T1156 345T1207 628Q1207 829 1154 965T1005 1170T781 1240Q657 1240 565 1181T423 1007T372 724Q372 524 425 388T574 182T798 112ZM840 1487H743L448 1708V1742H722L840 1487Z" />
<glyph unicode="&#xd3;" horiz-adv-x="1579" d="M799 1377Q955 1377 1082 1327T1302 1184T1443 964T1493 678Q1493 522 1442 393T1295 171T1069 27T780 -24Q624 -24 497 26T277 168T136 389T86 674Q86 831 137 959T284 1181T510 1326T799 1377ZM798 112Q923 112
1014 171T1156 345T1207 628Q1207 829 1154 965T1005 1170T781 1240Q657 1240 565 1181T423 1007T372 724Q372 524 425 388T574 182T798 112ZM738 1487L856 1742H1130V1708L835 1487H738Z" />
<glyph unicode="&#xd4;" horiz-adv-x="1579" d="M799 1377Q955 1377 1082 1327T1302 1184T1443 964T1493 678Q1493 522 1442 393T1295 171T1069 27T780 -24Q624 -24 497 26T277 168T136 389T86 674Q86 831 137 959T284 1181T510 1326T799 1377ZM798 112Q923 112
1014 171T1156 345T1207 628Q1207 829 1154 965T1005 1170T781 1240Q657 1240 565 1181T423 1007T372 724Q372 524 425 388T574 182T798 112ZM766 1625H812L593 1487H467L685 1742H893L1111 1487H985L766 1625Z" />
<glyph unicode="&#xd5;" horiz-adv-x="1579" d="M799 1377Q955 1377 1082 1327T1302 1184T1443 964T1493 678Q1493 522 1442 393T1295 171T1069 27T780 -24Q624 -24 497 26T277 168T136 389T86 674Q86 831 137 959T284 1181T510 1326T799 1377ZM798 112Q923 112
1014 171T1156 345T1207 628Q1207 829 1154 965T1005 1170T781 1240Q657 1240 565 1181T423 1007T372 724Q372 524 425 388T574 182T798 112ZM1091 1740Q1072 1634 1048 1579T991 1502T910 1481Q871 1481 838 1497T775 1535T717 1573T665 1590Q646 1590 632 1583T606
1554T582 1489H485Q506 1595 529 1651T586 1727T667 1748Q706 1748 739 1732T802 1694T859 1656T912 1639Q931 1639 945 1646T972 1676T995 1740H1091Z" />
<glyph unicode="&#xd6;" horiz-adv-x="1579" d="M799 1377Q955 1377 1082 1327T1302 1184T1443 964T1493 678Q1493 522 1442 393T1295 171T1069 27T780 -24Q624 -24 497 26T277 168T136 389T86 674Q86 831 137 959T284 1181T510 1326T799 1377ZM798 112Q923 112
1014 171T1156 345T1207 628Q1207 829 1154 965T1005 1170T781 1240Q657 1240 565 1181T423 1007T372 724Q372 524 425 388T574 182T798 112ZM577 1491Q518 1491 483 1526T448 1615Q448 1668 483 1703T577 1738Q636 1738 670 1703T705 1615Q705 1562 671 1527T577
1491ZM1002 1491Q943 1491 908 1526T873 1615Q873 1668 908 1703T1002 1738Q1060 1738 1095 1703T1130 1615Q1130 1562 1095 1527T1002 1491Z" />
<glyph unicode="&#xd7;" horiz-adv-x="1023" d="M168 194L767 794L856 706L256 106L168 194ZM168 706L256 794L856 194L767 106L168 706Z" />
<glyph unicode="&#xd8;" horiz-adv-x="1605" d="M395 309L1139 1137L1199 1194L1346 1352H1516L1286 1105L1214 1043L470 214L410 158L264 0H94L324 247L395 309ZM812 1377Q968 1377 1095 1327T1315 1184T1456 964T1506 678Q1506 522 1455 393T1308 171T1083 27T794
-24Q638 -24 510 26T290 168T149 389T99 674Q99 831 150 959T297 1181T523 1326T812 1377ZM811 112Q936 112 1027 171T1169 345T1220 628Q1220 829 1167 965T1019 1170T794 1240Q670 1240 578 1181T436 1007T385 724Q385 524 438 388T587 182T811 112Z" />
<glyph unicode="&#xd9;" horiz-adv-x="1567" d="M1237 523V1243L1075 1298V1352H1520V1298L1365 1243V531Q1365 350 1300 226T1109 39T801 -24Q605 -24 472 38T270 226T201 541V1243L46 1298V1352H630V1298L475 1243V541Q475 413 517 329T643 202T854 160Q978
160 1063 201T1192 323T1237 523ZM886 1487H789L494 1708V1742H768L886 1487Z" />
<glyph unicode="&#xda;" horiz-adv-x="1567" d="M1237 523V1243L1075 1298V1352H1520V1298L1365 1243V531Q1365 350 1300 226T1109 39T801 -24Q605 -24 472 38T270 226T201 541V1243L46 1298V1352H630V1298L475 1243V541Q475 413 517 329T643 202T854 160Q978
160 1063 201T1192 323T1237 523ZM784 1487L902 1742H1176V1708L881 1487H784Z" />
<glyph unicode="&#xdb;" horiz-adv-x="1567" d="M1237 523V1243L1075 1298V1352H1520V1298L1365 1243V531Q1365 350 1300 226T1109 39T801 -24Q605 -24 472 38T270 226T201 541V1243L46 1298V1352H630V1298L475 1243V541Q475 413 517 329T643 202T854 160Q978
160 1063 201T1192 323T1237 523ZM812 1625H858L639 1487H513L731 1742H939L1157 1487H1031L812 1625Z" />
<glyph unicode="&#xdc;" horiz-adv-x="1567" d="M1237 523V1243L1075 1298V1352H1520V1298L1365 1243V531Q1365 350 1300 226T1109 39T801 -24Q605 -24 472 38T270 226T201 541V1243L46 1298V1352H630V1298L475 1243V541Q475 413 517 329T643 202T854 160Q978
160 1063 201T1192 323T1237 523ZM623 1491Q564 1491 529 1526T494 1615Q494 1668 529 1703T623 1738Q682 1738 716 1703T751 1615Q751 1562 717 1527T623 1491ZM1048 1491Q989 1491 954 1526T919 1615Q919 1668 954 1703T1048 1738Q1106 1738 1141 1703T1176 1615Q1176
1562 1141 1527T1048 1491Z" />
<glyph unicode="&#xdd;" horiz-adv-x="1446" d="M132 1242L-14 1298V1352H624V1298L460 1243L872 659L796 660L1140 1243L981 1298V1352H1436V1298L1292 1243L883 592V109L1038 55V0H454V55L610 109V587L132 1242ZM723 1487L841 1742H1115V1708L820 1487H723Z" />
<glyph unicode="&#xde;" horiz-adv-x="1331" d="M987 694Q987 780 954 839T846 930T644 962H336L331 1091H739Q927 1091 1041 1040T1208 901T1261 702Q1261 590 1208 499T1041 353T745 298H329L336 426H713Q794 426 855 456T952 546T987 694ZM663 55V0H79V55L234
109V1243L79 1298V1352H663V1298L508 1243V109L663 55Z" />
<glyph unicode="&#xdf;" horiz-adv-x="1335" d="M205 893Q205 1032 247 1134T364 1302T539 1401T757 1434Q859 1434 933 1415T1056 1362T1128 1283T1152 1185Q1152 1119 1123 1074T1049 994T961 930T887 865T857 780Q857 735 887 708T964 658T1065 611T1166 549T1244
453T1274 302Q1274 201 1227 128T1095 16T902 -24Q836 -24 774 -14T658 16L623 276H694L833 18L689 104Q743 81 787 75T873 69Q970 69 1022 108T1075 226Q1075 287 1045 323T969 384T869 430T770 482T694 560T664 685Q664 754 692 803T761 890T844 964T914 1044T942
1149Q942 1199 917 1239T843 1304T719 1329Q631 1329 572 1297T482 1197T451 1026V100L554 50V0H70V50L205 99V893ZM221 902L205 729L28 780V825L221 902Z" />
<glyph unicode="&#xe0;" horiz-adv-x="980" d="M631 561L634 469Q533 449 470 427T372 379T325 326T312 263Q312 197 344 166T432 134Q472 134 504 153T556 205T575 275V648Q575 718 540 757T422 796Q388 796 353 790T287 770L331 834Q325 788 318 755T303 698T283
661Q267 639 239 628T175 617Q131 617 108 634T84 680Q84 719 120 759T218 833T358 888T522 909Q634 909 699 876T792 781T820 636V193Q820 165 828 147T853 119T893 110Q913 110 937 116T985 137V70Q936 26 879 2T772 -23Q708 -23 667 2T605 76T582 191L591 197Q574
125 536 76T444 1T325 -24Q211 -24 141 35T71 211Q71 269 94 317T179 407T349 486T631 561ZM525 1031H433L110 1326V1361H379L525 1031Z" />
<glyph unicode="&#xe1;" horiz-adv-x="980" d="M631 561L634 469Q533 449 470 427T372 379T325 326T312 263Q312 197 344 166T432 134Q472 134 504 153T556 205T575 275V648Q575 718 540 757T422 796Q388 796 353 790T287 770L331 834Q325 788 318 755T303 698T283
661Q267 639 239 628T175 617Q131 617 108 634T84 680Q84 719 120 759T218 833T358 888T522 909Q634 909 699 876T792 781T820 636V193Q820 165 828 147T853 119T893 110Q913 110 937 116T985 137V70Q936 26 879 2T772 -23Q708 -23 667 2T605 76T582 191L591 197Q574
125 536 76T444 1T325 -24Q211 -24 141 35T71 211Q71 269 94 317T179 407T349 486T631 561ZM401 1031L547 1361H816V1326L493 1031H401Z" />
<glyph unicode="&#xe2;" horiz-adv-x="980" d="M631 561L634 469Q533 449 470 427T372 379T325 326T312 263Q312 197 344 166T432 134Q472 134 504 153T556 205T575 275V648Q575 718 540 757T422 796Q388 796 353 790T287 770L331 834Q325 788 318 755T303 698T283
661Q267 639 239 628T175 617Q131 617 108 634T84 680Q84 719 120 759T218 833T358 888T522 909Q634 909 699 876T792 781T820 636V193Q820 165 828 147T853 119T893 110Q913 110 937 116T985 137V70Q936 26 879 2T772 -23Q708 -23 667 2T605 76T582 191L591 197Q574
125 536 76T444 1T325 -24Q211 -24 141 35T71 211Q71 269 94 317T179 407T349 486T631 561ZM149 1031L364 1361H562L777 1031H667L428 1236H498L259 1031H149Z" />
<glyph unicode="&#xe3;" horiz-adv-x="980" d="M631 561L634 469Q533 449 470 427T372 379T325 326T312 263Q312 197 344 166T432 134Q472 134 504 153T556 205T575 275V648Q575 718 540 757T422 796Q388 796 353 790T287 770L331 834Q325 788 318 755T303 698T283
661Q267 639 239 628T175 617Q131 617 108 634T84 680Q84 719 120 759T218 833T358 888T522 909Q634 909 699 876T792 781T820 636V193Q820 165 828 147T853 119T893 110Q913 110 937 116T985 137V70Q936 26 879 2T772 -23Q708 -23 667 2T605 76T582 191L591 197Q574
125 536 76T444 1T325 -24Q211 -24 141 35T71 211Q71 269 94 317T179 407T349 486T631 561ZM764 1348Q745 1227 723 1159T667 1063T582 1035Q541 1035 507 1057T445 1110T389 1163T334 1186Q316 1186 302 1175T276 1133T252 1043H161Q180 1164 203 1232T259 1328T342
1357Q384 1357 418 1334T480 1281T536 1228T591 1205Q610 1205 624 1216T649 1259T673 1348H764Z" />
<glyph unicode="&#xe4;" horiz-adv-x="980" d="M631 561L634 469Q533 449 470 427T372 379T325 326T312 263Q312 197 344 166T432 134Q472 134 504 153T556 205T575 275V648Q575 718 540 757T422 796Q388 796 353 790T287 770L331 834Q325 788 318 755T303 698T283
661Q267 639 239 628T175 617Q131 617 108 634T84 680Q84 719 120 759T218 833T358 888T522 909Q634 909 699 876T792 781T820 636V193Q820 165 828 147T853 119T893 110Q913 110 937 116T985 137V70Q936 26 879 2T772 -23Q708 -23 667 2T605 76T582 191L591 197Q574
125 536 76T444 1T325 -24Q211 -24 141 35T71 211Q71 269 94 317T179 407T349 486T631 561ZM262 1072Q203 1072 168 1107T133 1196Q133 1250 168 1285T262 1320Q320 1320 354 1285T389 1196Q389 1143 355 1108T262 1072ZM665 1072Q606 1072 572 1107T537 1196Q537
1250 571 1285T665 1320Q724 1320 758 1285T793 1196Q793 1143 759 1108T665 1072Z" />
<glyph unicode="&#xe5;" horiz-adv-x="980" d="M631 561L634 469Q533 449 470 427T372 379T325 326T312 263Q312 197 344 166T432 134Q472 134 504 153T556 205T575 275V648Q575 718 540 757T422 796Q388 796 353 790T287 770L331 834Q325 788 318 755T303 698T283
661Q267 639 239 628T175 617Q131 617 108 634T84 680Q84 719 120 759T218 833T358 888T522 909Q634 909 699 876T792 781T820 636V193Q820 165 828 147T853 119T893 110Q913 110 937 116T985 137V70Q936 26 879 2T772 -23Q708 -23 667 2T605 76T582 191L591 197Q574
125 536 76T444 1T325 -24Q211 -24 141 35T71 211Q71 269 94 317T179 407T349 486T631 561ZM462 1379Q544 1379 596 1328T648 1196Q648 1117 596 1066T462 1014Q382 1014 330 1065T278 1196Q278 1277 330 1328T462 1379ZM463 1081Q513 1081 544 1113T576 1196Q576
1249 545 1281T463 1314Q412 1314 381 1282T349 1196Q349 1145 380 1113T463 1081Z" />
<glyph unicode="&#xe6;" horiz-adv-x="1473" d="M436 796Q398 796 359 790T286 770L330 834Q324 788 317 755T302 698T282 661Q266 639 238 628T175 617Q131 617 107 634T83 680Q83 719 120 759T222 833T367 888T535 909Q622 909 678 888T766 829T811 738H696Q742
817 826 865T1022 913Q1144 913 1226 863T1353 715T1407 476H769V566L1276 588L1167 552Q1163 638 1144 695T1091 780T1003 809Q950 809 910 778T848 680T825 500Q825 388 863 311T971 194T1139 154Q1184 154 1224 162T1304 187T1381 230L1407 175Q1348 112 1286
67T1156 -1T1015 -24Q904 -24 818 13T675 120T592 288H628Q618 178 576 109T471 8T328 -24Q213 -24 142 35T70 211Q70 267 92 313T175 401T349 480T644 558L647 469Q536 447 469 423T367 374T322 322T311 263Q311 197 343 166T431 134Q477 134 512 152T568 208T588
302V648Q588 718 553 757T436 796Z" />
<glyph unicode="&#xe7;" horiz-adv-x="922" d="M600 913Q700 913 759 892T845 839T872 770Q872 735 856 708T813 666T752 651Q723 651 697 666T645 705T596 751T548 789T498 805Q446 805 401 776T329 686T301 526Q301 404 338 322T444 197T611 155Q675 155 732
173T848 232L874 176Q811 107 750 63T626 -3T498 -24Q368 -24 271 33T121 191T68 422Q68 525 103 614T207 771T374 875T600 913ZM397 -519Q318 -519 284 -493T249 -431Q249 -405 264 -389T305 -373Q331 -373 350 -389T392 -422T448 -439Q492 -439 518 -418T544
-357Q544 -327 525 -305T457 -266T314 -235V-217L509 47H603L414 -214L415 -108Q516 -126 571 -154T647 -219T669 -298Q669 -360 634 -410T537 -490T397 -519Z" />
<glyph unicode="&#xe8;" horiz-adv-x="963" d="M513 913Q632 913 714 864T842 721T898 490H245L246 580L760 602L657 552Q653 638 635 695T581 780T494 809Q437 809 394 778T326 680T302 500Q302 388 341 311T454 194T629 154Q674 154 714 162T794 187T872 230L898
175Q839 113 778 69T651 0T512 -24Q379 -24 279 34T124 195T68 431Q68 566 120 675T272 849T513 913ZM557 1031H465L142 1326V1361H411L557 1031Z" />
<glyph unicode="&#xe9;" horiz-adv-x="963" d="M513 913Q632 913 714 864T842 721T898 490H245L246 580L760 602L657 552Q653 638 635 695T581 780T494 809Q437 809 394 778T326 680T302 500Q302 388 341 311T454 194T629 154Q674 154 714 162T794 187T872 230L898
175Q839 113 778 69T651 0T512 -24Q379 -24 279 34T124 195T68 431Q68 566 120 675T272 849T513 913ZM433 1031L579 1361H848V1326L525 1031H433Z" />
<glyph unicode="&#xea;" horiz-adv-x="963" d="M513 913Q632 913 714 864T842 721T898 490H245L246 580L760 602L657 552Q653 638 635 695T581 780T494 809Q437 809 394 778T326 680T302 500Q302 388 341 311T454 194T629 154Q674 154 714 162T794 187T872 230L898
175Q839 113 778 69T651 0T512 -24Q379 -24 279 34T124 195T68 431Q68 566 120 675T272 849T513 913ZM181 1031L396 1361H594L809 1031H699L460 1236H530L291 1031H181Z" />
<glyph unicode="&#xeb;" horiz-adv-x="963" d="M513 913Q632 913 714 864T842 721T898 490H245L246 580L760 602L657 552Q653 638 635 695T581 780T494 809Q437 809 394 778T326 680T302 500Q302 388 341 311T454 194T629 154Q674 154 714 162T794 187T872 230L898
175Q839 113 778 69T651 0T512 -24Q379 -24 279 34T124 195T68 431Q68 566 120 675T272 849T513 913ZM294 1072Q235 1072 200 1107T165 1196Q165 1250 200 1285T294 1320Q352 1320 386 1285T421 1196Q421 1143 387 1108T294 1072ZM697 1072Q638 1072 604 1107T569
1196Q569 1250 603 1285T697 1320Q756 1320 790 1285T825 1196Q825 1143 791 1108T697 1072Z" />
<glyph unicode="&#xec;" horiz-adv-x="607" d="M448 913L437 706V99L573 50V0H56V50L191 99V685Q179 700 156 716T106 749T49 778V821L403 913H448ZM366 1031H274L-49 1326V1361H220L366 1031Z" />
<glyph unicode="&#xed;" horiz-adv-x="607" d="M448 913L437 706V99L573 50V0H56V50L191 99V685Q179 700 156 716T106 749T49 778V821L403 913H448ZM242 1031L388 1361H657V1326L334 1031H242Z" />
<glyph unicode="&#xee;" horiz-adv-x="607" d="M448 913L437 706V99L573 50V0H56V50L191 99V685Q179 700 156 716T106 749T49 778V821L403 913H448ZM-10 1031L205 1361H403L618 1031H508L269 1236H339L100 1031H-10Z" />
<glyph unicode="&#xef;" horiz-adv-x="607" d="M448 913L437 706V99L573 50V0H56V50L191 99V685Q179 700 156 716T106 749T49 778V821L403 913H448ZM103 1072Q44 1072 9 1107T-26 1196Q-26 1250 9 1285T103 1320Q161 1320 195 1285T230 1196Q230 1143 196 1108T103
1072ZM506 1072Q447 1072 413 1107T378 1196Q378 1250 412 1285T506 1320Q565 1320 599 1285T634 1196Q634 1143 600 1108T506 1072Z" />
<glyph unicode="&#xf0;" horiz-adv-x="1104" d="M535 -24Q392 -24 287 33T126 192T69 430Q69 570 128 676T290 843T524 903Q578 903 624 889T709 847T774 783T815 698L773 679Q766 826 730 933T622 1116T437 1246T163 1342L192 1433Q390 1397 531 1338T767 1197T915
1015T993 792T1016 532Q1016 342 956 219T788 36T535 -24ZM545 85Q609 85 656 117T730 220T756 406Q756 535 731 621T658 752T539 796Q476 796 428 764T354 662T328 475Q328 347 353 260T427 129T545 85ZM364 971L307 1052L849 1436L907 1355L364 971Z" />
<glyph unicode="&#xf1;" horiz-adv-x="1199" d="M436 712V94L558 50V0H55V50L191 99V670Q171 695 138 716T48 762V800L351 914H385L436 712ZM673 50L795 94V573Q795 622 777 655T721 704T626 721Q561 721 504 702T414 652L378 696Q445 763 497 806T593 872T681
904T774 913Q910 913 975 833T1041 587V99L1177 50V0H673V50ZM915 1348Q896 1227 874 1159T818 1063T733 1035Q692 1035 658 1057T596 1110T540 1163T485 1186Q467 1186 453 1175T427 1133T403 1043H312Q331 1164 354 1232T410 1328T493 1357Q535 1357 569 1334T631
1281T687 1228T742 1205Q761 1205 775 1216T800 1259T824 1348H915Z" />
<glyph unicode="&#xf2;" horiz-adv-x="1083" d="M545 86Q608 86 655 118T729 222T756 410Q756 540 731 627T657 758T539 803Q475 803 428 771T354 667T327 479Q327 350 352 263T426 131T545 86ZM535 -24Q391 -24 287 33T125 194T68 434Q68 575 129 683T298 852T549
913Q693 913 797 856T958 696T1015 455Q1015 314 954 206T785 37T535 -24ZM604 1031H512L189 1326V1361H458L604 1031Z" />
<glyph unicode="&#xf3;" horiz-adv-x="1083" d="M545 86Q608 86 655 118T729 222T756 410Q756 540 731 627T657 758T539 803Q475 803 428 771T354 667T327 479Q327 350 352 263T426 131T545 86ZM535 -24Q391 -24 287 33T125 194T68 434Q68 575 129 683T298 852T549
913Q693 913 797 856T958 696T1015 455Q1015 314 954 206T785 37T535 -24ZM480 1031L626 1361H895V1326L572 1031H480Z" />
<glyph unicode="&#xf4;" horiz-adv-x="1083" d="M545 86Q608 86 655 118T729 222T756 410Q756 540 731 627T657 758T539 803Q475 803 428 771T354 667T327 479Q327 350 352 263T426 131T545 86ZM535 -24Q391 -24 287 33T125 194T68 434Q68 575 129 683T298 852T549
913Q693 913 797 856T958 696T1015 455Q1015 314 954 206T785 37T535 -24ZM228 1031L443 1361H641L856 1031H746L507 1236H577L338 1031H228Z" />
<glyph unicode="&#xf5;" horiz-adv-x="1083" d="M545 86Q608 86 655 118T729 222T756 410Q756 540 731 627T657 758T539 803Q475 803 428 771T354 667T327 479Q327 350 352 263T426 131T545 86ZM535 -24Q391 -24 287 33T125 194T68 434Q68 575 129 683T298 852T549
913Q693 913 797 856T958 696T1015 455Q1015 314 954 206T785 37T535 -24ZM843 1348Q824 1227 802 1159T746 1063T661 1035Q620 1035 586 1057T524 1110T468 1163T413 1186Q395 1186 381 1175T355 1133T331 1043H240Q259 1164 282 1232T338 1328T421 1357Q463 1357
497 1334T559 1281T615 1228T670 1205Q689 1205 703 1216T728 1259T752 1348H843Z" />
<glyph unicode="&#xf6;" horiz-adv-x="1083" d="M545 86Q608 86 655 118T729 222T756 410Q756 540 731 627T657 758T539 803Q475 803 428 771T354 667T327 479Q327 350 352 263T426 131T545 86ZM535 -24Q391 -24 287 33T125 194T68 434Q68 575 129 683T298 852T549
913Q693 913 797 856T958 696T1015 455Q1015 314 954 206T785 37T535 -24ZM341 1072Q282 1072 247 1107T212 1196Q212 1250 247 1285T341 1320Q399 1320 433 1285T468 1196Q468 1143 434 1108T341 1072ZM744 1072Q685 1072 651 1107T616 1196Q616 1250 650 1285T744
1320Q803 1320 837 1285T872 1196Q872 1143 838 1108T744 1072Z" />
<glyph unicode="&#xf7;" horiz-adv-x="1023" d="M512 255Q569 255 604 219T640 129Q640 75 605 39T512 2Q455 2 419 38T383 129Q383 183 419 219T512 255ZM512 897Q569 897 604 861T640 771Q640 717 605 681T512 645Q455 645 419 681T383 771Q383 825 419 861T512
897ZM129 513H894V387H129V513Z" />
<glyph unicode="&#xf8;" horiz-adv-x="1117" d="M60 0L237 184L284 208L763 746L809 781L913 889H1058L884 708L837 684L356 145L310 109L206 0H60ZM562 86Q626 86 673 118T747 222T773 410Q773 540 748 627T675 758T556 803Q492 803 445 771T371 667T345 479Q345
350 370 263T444 131T562 86ZM552 -24Q409 -24 304 33T143 194T86 434Q86 575 146 683T315 852T566 913Q710 913 814 856T976 696T1033 455Q1033 314 972 206T803 37T552 -24Z" />
<glyph unicode="&#xf9;" horiz-adv-x="1143" d="M406 306Q406 255 421 225T470 182T562 169Q620 169 673 186T757 232L793 183Q729 119 680 78T589 15T507 -15T420 -24Q288 -24 225 54T161 288V759L23 825V880L420 905L406 773V306ZM760 -19L729 177V766L612 826V881L988
904L975 768V177Q985 167 1001 156T1036 133T1074 114T1112 99V59L791 -19H760ZM608 1031H516L193 1326V1361H462L608 1031Z" />
<glyph unicode="&#xfa;" horiz-adv-x="1143" d="M406 306Q406 255 421 225T470 182T562 169Q620 169 673 186T757 232L793 183Q729 119 680 78T589 15T507 -15T420 -24Q288 -24 225 54T161 288V759L23 825V880L420 905L406 773V306ZM760 -19L729 177V766L612 826V881L988
904L975 768V177Q985 167 1001 156T1036 133T1074 114T1112 99V59L791 -19H760ZM484 1031L630 1361H899V1326L576 1031H484Z" />
<glyph unicode="&#xfb;" horiz-adv-x="1143" d="M406 306Q406 255 421 225T470 182T562 169Q620 169 673 186T757 232L793 183Q729 119 680 78T589 15T507 -15T420 -24Q288 -24 225 54T161 288V759L23 825V880L420 905L406 773V306ZM760 -19L729 177V766L612 826V881L988
904L975 768V177Q985 167 1001 156T1036 133T1074 114T1112 99V59L791 -19H760ZM232 1031L447 1361H645L860 1031H750L511 1236H581L342 1031H232Z" />
<glyph unicode="&#xfc;" horiz-adv-x="1143" d="M406 306Q406 255 421 225T470 182T562 169Q620 169 673 186T757 232L793 183Q729 119 680 78T589 15T507 -15T420 -24Q288 -24 225 54T161 288V759L23 825V880L420 905L406 773V306ZM760 -19L729 177V766L612 826V881L988
904L975 768V177Q985 167 1001 156T1036 133T1074 114T1112 99V59L791 -19H760ZM345 1072Q286 1072 251 1107T216 1196Q216 1250 251 1285T345 1320Q403 1320 437 1285T472 1196Q472 1143 438 1108T345 1072ZM748 1072Q689 1072 655 1107T620 1196Q620 1250 654
1285T748 1320Q807 1320 841 1285T876 1196Q876 1143 842 1108T748 1072Z" />
<glyph unicode="&#xfd;" horiz-adv-x="1106" d="M684 172L553 -92L124 786L0 835V889H514V834L393 795L684 172ZM255 -519Q186 -519 144 -485T102 -389Q102 -357 115 -334T147 -297T183 -283Q202 -283 222 -291T268 -307T326 -315Q359 -315 385 -304T434 -263T481
-179L586 59L633 170L862 799L747 834V889H1094V834L992 798L588 -196Q536 -323 487 -393T383 -491T255 -519ZM537 1031L683 1361H952V1326L629 1031H537Z" />
<glyph unicode="&#xfe;" horiz-adv-x="1131" d="M134 1186Q119 1203 97 1219T43 1253T-27 1288V1335L360 1434H396L380 1230V282Q380 224 403 180T470 112T575 88Q646 88 696 126T774 241T801 435Q801 597 736 678T558 759Q516 759 474 752T394 730T320 693L307
771Q365 808 416 834T511 878T595 904T671 913Q798 913 885 859T1016 710T1061 491Q1061 330 995 215T818 38T576 -24Q517 -24 466 -11T365 28T266 90H379V-393L535 -445V-495H-2V-445L134 -396V1186Z" />
<glyph unicode="&#xff;" horiz-adv-x="1106" d="M684 172L553 -92L124 786L0 835V889H514V834L393 795L684 172ZM255 -519Q186 -519 144 -485T102 -389Q102 -357 115 -334T147 -297T183 -283Q202 -283 222 -291T268 -307T326 -315Q359 -315 385 -304T434 -263T481
-179L586 59L633 170L862 799L747 834V889H1094V834L992 798L588 -196Q536 -323 487 -393T383 -491T255 -519ZM398 1072Q339 1072 304 1107T269 1196Q269 1250 304 1285T398 1320Q456 1320 490 1285T525 1196Q525 1143 491 1108T398 1072ZM801 1072Q742 1072 708
1107T673 1196Q673 1250 707 1285T801 1320Q860 1320 894 1285T929 1196Q929 1143 895 1108T801 1072Z" />
<glyph unicode="&#x2013;" horiz-adv-x="1019" d="M99 512H920V395H99V512Z" />
<glyph unicode="&#x2014;" horiz-adv-x="1349" d="M99 512H1250V395H99V512Z" />
<glyph unicode="&#x2018;" horiz-adv-x="500" d="M423 1292Q324 1248 290 1206T255 1122Q255 1091 277 1069T329 1031T380 1000T403 968Q403 904 360 860T244 815Q169 815 123 862T77 994Q77 1077 106 1143T202 1265T385 1371L423 1292Z" />
<glyph unicode="&#x2019;" horiz-adv-x="500" d="M88 892Q187 936 221 978T256 1062Q256 1094 234 1115T182 1153T130 1185T108 1216Q108 1281 151 1325T267 1369Q342 1369 388 1322T434 1190Q434 1107 405 1041T309 920T126 813L88 892Z" />
<glyph unicode="&#x201a;" horiz-adv-x="507" d="M67 -188Q166 -143 200 -101T235 -17Q235 14 213 35T161 74T109 105T87 136Q87 201 130 245T246 289Q321 289 367 242T413 110Q413 28 384 -38T288 -160T105 -267L67 -188Z" />
<glyph unicode="&#x201c;" horiz-adv-x="909" d="M423 1292Q324 1248 290 1206T255 1122Q255 1091 277 1069T329 1031T380 1000T403 968Q403 904 360 860T244 815Q169 815 123 862T77 994Q77 1077 106 1143T202 1265T385 1371L423 1292ZM832 1292Q733 1248 699
1206T664 1122Q664 1091 686 1069T738 1031T789 1000T812 968Q812 904 769 860T653 815Q578 815 532 862T486 994Q486 1077 515 1143T611 1265T794 1371L832 1292Z" />
<glyph unicode="&#x201d;" horiz-adv-x="909" d="M88 892Q187 936 221 978T256 1062Q256 1094 234 1115T182 1153T130 1185T108 1216Q108 1281 151 1325T267 1369Q342 1369 388 1322T434 1190Q434 1107 405 1041T309 920T126 813L88 892ZM497 892Q596 936 630
978T665 1062Q665 1094 643 1115T591 1153T539 1185T517 1216Q517 1281 560 1325T676 1369Q751 1369 797 1322T843 1190Q843 1107 814 1041T718 920T535 813L497 892Z" />
<glyph unicode="&#x201e;" horiz-adv-x="916" d="M67 -188Q166 -143 200 -101T235 -17Q235 14 213 35T161 74T109 105T87 136Q87 201 130 245T246 289Q321 289 367 242T413 110Q413 28 384 -38T288 -160T105 -267L67 -188ZM476 -188Q575 -143 609 -101T644 -17Q644
14 622 35T570 74T518 105T496 136Q496 201 539 245T655 289Q730 289 776 242T822 110Q822 28 793 -38T697 -160T514 -267L476 -188Z" />
<glyph unicode="&#x2022;" horiz-adv-x="839" d="M419 714Q498 714 558 680T652 587T686 454Q686 380 652 321T558 228T420 193Q342 193 282 227T187 321T153 454Q153 528 187 587T281 680T419 714Z" />
<glyph unicode="&#x2039;" horiz-adv-x="618" d="M275 519L543 70L478 16L58 406V490L478 880L543 826L275 377V519Z" />
<glyph unicode="&#x203a;" horiz-adv-x="656" d="M356 378L88 827L153 881L573 491V407L153 17L88 70L356 520V378Z" />
</font>
</defs>
</svg>
