<?xml version="1.0" standalone="no"?>
<!DOCTYPE svg PUBLIC "-//W3C//DTD SVG 1.1//EN" "http://www.w3.org/Graphics/SVG/1.1/DTD/svg11.dtd">
<svg xmlns="http://www.w3.org/2000/svg">
<defs >
<font id="Newsreader" horiz-adv-x="1087" ><font-face
    font-family="Newsreader 16pt 16pt Medium"
    units-per-em="2000"
    panose-1="2 0 0 0 0 0 0 0 0 0"
    ascent="1470"
    descent="-530"
    alphabetic="0" />
<glyph unicode=" " horiz-adv-x="449" />
<glyph unicode="!" horiz-adv-x="553" d="M395 1311L392 1186Q392 1158 388 1115T379 1015T366 892T350 749T334 592T316 424H238Q231 510 222 591T205 748T190 891T176 1015T167 1114T162 1186L160 1311Q160 1332 175 1346T217 1367T277 1374Q311 1374 338 1367T380
1346T395 1311ZM276 260Q339 260 378 221T418 122Q418 63 379 24T276 -16Q214 -16 174 23T134 122Q134 182 174 221T276 260Z" />
<glyph unicode="&quot;" horiz-adv-x="743" d="M154 851L95 1303V1352H315V1303L253 851H154ZM488 851L429 1303V1352H649V1303L587 851H488Z" />
<glyph unicode="#" horiz-adv-x="1175" d="M907 0H815L1116 1354H1209L907 0ZM592 0H500L801 1354H893L592 0ZM1292 568V478H322V568H1292ZM1364 882V791H396V882H1364Z" />
<glyph unicode="$" horiz-adv-x="1175" d="M437 -198V1550H525V-198H437ZM666 -198V1550H754V-198H666ZM519 -22Q424 -22 351 -9T227 29T151 84T125 153Q125 197 153 225T223 254Q260 254 289 228T351 166T430 104T549 77Q638 77 707 104T817 186T857 326Q857
399 826 450T720 541T514 616Q384 651 308 704T200 830T168 993Q168 1112 227 1197T396 1328T654 1374Q780 1374 861 1350T981 1286T1021 1199Q1021 1156 992 1129T924 1101Q886 1101 859 1127T801 1188T728 1249T614 1276Q480 1276 403 1219T326 1057Q326 1000
349 953T442 866T651 789Q789 753 870 698T988 569T1024 399Q1024 263 962 169T786 27T519 -22Z" />
<glyph unicode="%" horiz-adv-x="1615" d="M277 0L1217 1352H1338L398 0H277ZM638 681Q707 681 742 755T778 963Q778 1064 762 1134T713 1240T633 1276Q564 1276 528 1202T492 995Q492 893 509 823T559 717T638 681ZM636 592Q542 592 471 639T362 774T323 977Q323
1095 361 1182T471 1317T637 1365Q731 1365 801 1318T910 1184T949 980Q949 862 911 775T802 640T636 592ZM1237 77Q1306 77 1341 151T1377 359Q1377 460 1361 530T1312 636T1232 672Q1163 672 1127 598T1091 391Q1091 289 1108 219T1158 113T1237 77ZM1235 -12Q1141
-12 1070 35T961 170T922 373Q922 491 960 578T1070 713T1236 761Q1330 761 1400 714T1509 580T1548 376Q1548 258 1510 171T1401 36T1235 -12Z" />
<glyph unicode="&amp;" horiz-adv-x="1458" d="M613 744L511 696Q437 655 393 608T328 507T308 387Q308 299 341 239T437 147T594 115Q684 115 765 153T918 281L953 324Q998 393 1036 491T1105 725L957 771V822H1411V771L1256 725Q1196 562 1137 444T1013 240L981
206Q913 123 840 73T686 1T515 -22Q378 -22 288 24T153 150T108 333Q108 420 144 496T261 639T477 763L571 810Q688 878 735 948T783 1102Q783 1184 742 1231T616 1279Q537 1279 489 1238T440 1116Q440 1075 451 1039T491 962T570 863L1241 108L1428 51V0H1069L422
738Q358 812 322 868T272 972T257 1071Q257 1161 300 1229T425 1335T625 1374Q736 1374 808 1339T917 1245T953 1114Q953 1064 937 1018T881 926T777 835T613 744Z" />
<glyph unicode="&apos;" horiz-adv-x="408" d="M154 851L95 1303V1352H315V1303L253 851H154Z" />
<glyph unicode="(" horiz-adv-x="581" d="M267 581Q267 482 278 387T317 196T396 -3T526 -224L469 -271Q355 -140 281 -33T163 172T101 369T83 581Q83 693 101 792T162 988T280 1193T469 1432L526 1386Q447 1268 397 1165T318 966T278 774T267 581Z" />
<glyph unicode=")" horiz-adv-x="581" d="M314 581Q314 679 303 774T263 965T185 1165T55 1386L112 1432Q226 1301 300 1194T418 989T480 792T498 581Q498 468 480 370T419 173T301 -32T112 -271L55 -224Q134 -107 184 -4T263 196T302 387T314 581Z" />
<glyph unicode="*" horiz-adv-x="868" d="M599 726L532 698L411 926L198 781L152 836L331 1022L126 1180L164 1241L397 1127L483 1371L553 1354L517 1097L775 1091L781 1019L526 973L599 726Z" />
<glyph unicode="+" horiz-adv-x="1023" d="M457 825H567V74H457V825ZM887 505V395H136V505H887Z" />
<glyph unicode="," horiz-adv-x="491" d="M59 -298Q152 -222 193 -159T234 -44Q234 -11 213 11T165 49T117 81T96 118Q96 180 134 220T239 261Q307 261 348 217T389 88Q389 34 376 -18T331 -124T246 -235T114 -358L59 -298Z" />
<glyph unicode="-" horiz-adv-x="715" d="M122 528H593V376H122V528Z" />
<glyph unicode="." horiz-adv-x="476" d="M238 262Q300 262 340 223T380 123Q380 64 340 24T238 -16Q176 -16 136 24T96 123Q96 183 136 222T238 262Z" />
<glyph unicode="/" horiz-adv-x="806" d="M53 0L619 1352H752L186 0H53Z" />
<glyph unicode="0" horiz-adv-x="1175" d="M591 85Q682 85 745 149T842 337T876 642Q876 795 857 912T801 1107T709 1226T584 1267Q493 1267 429 1203T332 1015T298 710Q298 558 317 441T374 245T466 126T591 85ZM589 1374Q746 1374 860 1289T1037 1049T1100 682Q1100
468 1038 310T861 65T586 -22Q430 -22 316 63T138 303T75 670Q75 884 137 1042T315 1287T589 1374Z" />
<glyph unicode="1" horiz-adv-x="1175" d="M560 112V1243L616 1167L187 1040L164 1107L683 1368H770V112L1043 55V0H271V55L560 112Z" />
<glyph unicode="2" horiz-adv-x="1175" d="M829 138L1010 409H1067L995 -35H956L848 0H123V48L503 482Q599 590 653 672T729 821T752 946Q752 1063 686 1131T506 1200Q430 1200 366 1174T254 1087T178 919L98 934Q144 1153 271 1263T585 1374Q700 1374 787 1329T923
1201T972 1007Q972 944 956 885T901 762T790 619T609 437L267 103L292 193H941L829 138Z" />
<glyph unicode="3" horiz-adv-x="1175" d="M391 635L367 722Q509 762 587 808T698 909T730 1029Q730 1112 679 1168T528 1224Q421 1224 348 1166T240 975L160 994Q186 1116 243 1200T387 1329T587 1374Q697 1374 771 1339T884 1240T922 1095Q922 1017 884 952T772
837T597 758L609 768Q741 781 834 745T978 631T1028 441Q1028 311 950 207T731 40T401 -22Q302 -22 242 -4T154 47T127 118Q127 161 155 188T227 216Q251 216 275 202T325 168T380 127T442 92T516 78Q597 78 666 115T777 226T819 407Q819 509 776 573T654 658T466
654L391 635Z" />
<glyph unicode="4" horiz-adv-x="1175" d="M825 1366V103L1000 50V0H427V50L615 103V1205L709 1241L161 515L134 564H954L1144 592L1090 401H24V484L662 1366H825Z" />
<glyph unicode="5" horiz-adv-x="1175" d="M383 -22Q284 -22 225 -3T139 49T112 118Q112 165 141 192T209 220Q232 220 256 206T305 173T359 133T420 99T492 85Q580 85 653 121T770 227T814 399Q814 462 790 517T702 617T521 689T218 725L393 1352H787L1054 1391L982
1161H397L474 1233L340 819L319 919Q479 907 594 879T785 808T905 713T967 597T986 463Q986 358 942 269T818 115T627 14T383 -22Z" />
<glyph unicode="6" horiz-adv-x="1175" d="M930 1400L973 1327Q834 1283 730 1229T551 1107T431 956T363 770T341 544Q341 402 371 298T462 137T616 80Q699 80 756 115T842 215T872 373Q872 516 811 589T631 663Q586 663 542 654T456 628T377 584T308 525L253
542Q325 616 385 665T498 744T602 786T709 799Q814 799 896 757T1025 632T1073 429Q1073 296 1014 195T851 36T607 -22Q451 -22 344 51T183 249T128 529Q128 644 152 749T231 947T379 1122T608 1274T930 1400Z" />
<glyph unicode="7" horiz-adv-x="1175" d="M224 1160L336 1221L191 949H134L162 1387H196L313 1352H1085V1330L600 0H369L961 1231L967 1160H224Z" />
<glyph unicode="8" horiz-adv-x="1175" d="M607 1374Q733 1374 821 1335T957 1224T1004 1059Q1004 937 909 852T640 729L588 760Q709 804 770 871T831 1044Q831 1111 804 1162T724 1244T592 1274Q475 1274 410 1214T345 1066Q345 988 384 940T486 859T627 801T780
745T920 669T1023 551T1062 368Q1062 246 998 159T825 25T585 -22Q448 -22 341 18T172 136T111 323Q111 404 143 466T231 574T364 653T528 710L560 671Q466 636 408 591T324 484T298 338Q298 256 333 198T433 109T589 78Q683 78 747 109T845 194T879 320Q879 399
841 449T739 533T600 594T448 651T308 725T206 838T167 1011Q167 1118 221 1199T375 1327T607 1374Z" />
<glyph unicode="9" horiz-adv-x="1175" d="M270 -48L227 25Q361 84 461 144T633 272T748 418T812 593T832 808Q832 952 802 1056T710 1218T556 1275Q475 1275 419 1240T333 1142T304 991Q304 893 335 831T422 739T549 710Q589 710 631 718T714 741T794 781T864
839L921 822Q848 748 787 700T672 624T569 584T470 572Q361 572 278 616T148 744T101 945Q101 1075 160 1171T325 1321T571 1374Q729 1374 835 1301T993 1103T1046 823Q1046 715 1022 616T943 427T799 255T578 98T270 -48Z" />
<glyph unicode=":" horiz-adv-x="521" d="M260 261Q323 261 362 222T402 123Q402 63 363 24T260 -16Q199 -16 159 23T119 123Q119 182 159 221T260 261ZM260 899Q323 899 362 860T402 760Q402 701 363 661T260 621Q199 621 159 661T119 760Q119 820 159 859T260 899Z" />
<glyph unicode=";" horiz-adv-x="546" d="M95 -298Q189 -222 229 -159T270 -44Q270 -11 250 11T202 49T153 81T132 118Q132 180 171 220T276 261Q343 261 384 217T426 88Q426 34 412 -18T367 -124T282 -235T150 -358L95 -298ZM265 899Q328 899 367 860T407 760Q407
701 368 661T265 621Q203 621 164 661T124 760Q124 820 163 859T265 899Z" />
<glyph unicode="&lt;" horiz-adv-x="1023" d="M151 426V474L954 112V-12L55 401V498L954 912V788L151 426Z" />
<glyph unicode="=" horiz-adv-x="1023" d="M136 680H887V570H136V680ZM136 330H887V220H136V330Z" />
<glyph unicode="&gt;" horiz-adv-x="1023" d="M872 426L69 788V912L969 498V401L69 -12V112L872 474V426Z" />
<glyph unicode="?" horiz-adv-x="921" d="M339 1374Q448 1374 539 1346T698 1263T801 1131T838 955Q838 854 795 779T651 664T374 626L440 746L429 423H361L289 787Q430 780 517 805T646 883T687 1013Q687 1087 658 1141T575 1224T444 1253Q390 1253 354 1236T289
1196T232 1156T166 1139Q135 1139 111 1152T72 1188T57 1241Q57 1280 86 1310T178 1357T339 1374ZM401 262Q464 262 503 223T543 124Q543 65 504 25T401 -15Q339 -15 299 25T259 124Q259 184 299 223T401 262Z" />
<glyph unicode="@" horiz-adv-x="1786" d="M1244 192Q1138 192 1075 237T1011 377Q1011 400 1015 427T1027 482L1049 555H1073Q1008 446 953 376T850 267T759 211T676 195Q586 195 536 243T486 388Q485 460 510 543T583 709T694 858T836 966T1000 1007Q1062 1007
1102 980T1178 902L1140 849Q1128 878 1107 897T1046 917Q994 917 943 883T847 791T769 666T715 531T696 409Q696 369 715 349T770 329Q799 329 839 354T921 424T1001 531T1064 665L1144 902L1190 998H1362L1216 528Q1200 475 1194 443T1188 386Q1188 327 1216
302T1288 277Q1364 277 1434 332T1548 490T1592 741Q1592 870 1552 977T1435 1161T1249 1281T1000 1323Q823 1323 682 1264T441 1096T288 837T235 505Q235 351 280 228T414 19T632 -113T932 -159Q1025 -159 1121 -142T1312 -88T1498 9L1544 -66Q1454 -126 1355
-168T1143 -233T903 -256Q710 -256 558 -206T299 -59T136 177T80 493Q80 688 146 855T335 1148T628 1344T1005 1414Q1177 1414 1312 1368T1542 1235T1686 1031T1736 769Q1736 641 1699 535T1594 353T1437 234T1244 192Z" />
<glyph unicode="A" horiz-adv-x="1464" d="M364 478V590H1040V478H364ZM1323 107L1478 52V0H917V52L1089 105L640 1191H697L276 105L440 52V0H-11V52L145 105L657 1368H791L1323 107Z" />
<glyph unicode="B" horiz-adv-x="1330" d="M367 1237L370 1352H740Q892 1352 986 1311T1123 1197T1166 1034Q1166 907 1084 822T858 723L860 739Q1039 729 1141 637T1244 402Q1244 285 1192 194T1029 52T740 0H371L367 115H702Q801 115 870 144T977 235T1014 397Q1014
475 983 534T884 627T711 660H366L367 774H700Q815 774 881 833T948 1014Q948 1082 919 1132T830 1209T677 1237H367ZM85 0V52L244 105V1247L85 1300V1352H463V0H85Z" />
<glyph unicode="C" horiz-adv-x="1420" d="M888 93Q964 93 1036 106T1182 148L1111 93L1263 386H1332L1295 57Q1218 22 1104 0T859 -22Q683 -22 541 23T299 157T146 373T93 664Q93 880 187 1040T460 1287T890 1374Q959 1374 1025 1365T1178 1335L1113 1324L1235
1417H1276L1328 933L1258 925L1095 1238L1154 1174Q1070 1221 1001 1239T851 1257Q719 1257 620 1223T455 1121T356 957T322 735Q321 578 362 459T480 258T660 135T888 93Z" />
<glyph unicode="D" horiz-adv-x="1547" d="M1221 694Q1221 971 1065 1103T626 1236H343L335 1352H677Q937 1352 1109 1282T1367 1070T1453 714Q1453 487 1353 328T1077 84T678 0H335L343 116H651Q825 116 953 175T1151 362T1221 694ZM84 0V52L244 105V1247L84
1300V1352H463V0H84Z" />
<glyph unicode="E" horiz-adv-x="1308" d="M934 969V708V448H843L822 652H339V766H822L843 969H934ZM1204 969L1137 961L970 1278L1039 1237H339V1352H999L1110 1410H1146L1204 969ZM987 72L1179 406L1240 396L1164 -66H1124L1014 0H339V115H1043L987 72ZM84 0V52L244
105V1247L84 1300V1352H463V0H84Z" />
<glyph unicode="F" horiz-adv-x="1211" d="M934 931V668V405H842L821 611H343V725H821L842 931H934ZM1080 1410H1114L1172 965L1105 956L938 1278L1060 1237H319V1352H970L1080 1410ZM463 1352V105L623 52V0H84V52L244 105V1247L84 1300V1352H463Z" />
<glyph unicode="G" horiz-adv-x="1520" d="M1340 185L1380 106V85Q1309 52 1225 28T1047 -9T857 -22Q681 -22 540 24T298 158T145 374T92 664Q93 880 186 1040T457 1287T884 1374Q960 1374 1028 1365T1179 1334L1107 1322L1231 1417H1272L1324 936L1254 927L1082
1254L1181 1153Q1101 1207 1023 1232T845 1257Q715 1257 617 1223T454 1121T355 956T322 732Q321 524 391 382T584 167T868 94Q933 94 996 105T1113 138T1202 191L1121 51V503L937 560V612H1473V560L1340 507V185Z" />
<glyph unicode="H" horiz-adv-x="1633" d="M463 105L623 52V0H84V52L244 105V1247L84 1300V1352H623V1300L463 1247V105ZM1388 105L1548 52V0H1010V52L1170 105V1247L1010 1300V1352H1548V1300L1388 1247V105ZM336 631V748H1297V631H336Z" />
<glyph unicode="I" horiz-adv-x="707" d="M623 52V0H84V52L244 105V1247L84 1300V1352H623V1300L463 1247V105L623 52Z" />
<glyph unicode="J" horiz-adv-x="920" d="M706 434Q706 329 670 245T569 101T414 10T220 -21Q153 -21 107 -5T36 40T12 108Q12 148 36 175T105 203Q124 203 146 188T194 152T251 115T317 99Q392 99 439 155T486 347V1247L323 1300V1352H864V1300L704 1247L706 434Z" />
<glyph unicode="K" horiz-adv-x="1500" d="M1361 107L1512 52V0H963V46L1085 96L599 642H388V756H617L1099 1253L943 1300V1352H1405V1300L1252 1249L697 700L744 792L1361 107ZM463 1247V105L621 52V0H84V52L244 105V1247L84 1300V1352H623V1300L463 1247Z" />
<glyph unicode="L" horiz-adv-x="1238" d="M1115 -68H1070L956 0H339L340 116H1049L928 73L1138 436L1202 426L1115 -68ZM463 1247V0H84V52L244 105V1247L84 1300V1352H623V1300L463 1247Z" />
<glyph unicode="M" horiz-adv-x="2000" d="M1789 106L1949 52V0H1410V52L1570 103L1493 1189L1507 1186L1011 -13H886L385 1177L398 1180L332 106L492 52V0H53V52L213 106L295 1239L125 1300V1352H550L1015 231H993L1457 1352H1863V1300L1703 1245L1789 106Z" />
<glyph unicode="N" horiz-adv-x="1551" d="M246 105V1233L79 1301V1352H482L1263 252L1204 176V1247L1031 1300V1352H1481V1300L1322 1247V-13H1190L322 1210L364 1241V105L537 52V0H87V52L246 105Z" />
<glyph unicode="O" horiz-adv-x="1565" d="M786 1374Q939 1374 1065 1324T1282 1181T1423 961T1473 678Q1473 523 1423 395T1280 174T1060 29T779 -22Q627 -22 501 28T283 171T142 392T92 674Q92 829 142 957T286 1179T506 1323T786 1374ZM791 97Q930 97 1031
161T1186 346T1241 638Q1241 837 1183 974T1020 1183T774 1255Q635 1255 534 1191T379 1006T324 715Q324 517 382 379T546 169T791 97Z" />
<glyph unicode="P" horiz-adv-x="1257" d="M986 961Q986 1050 950 1111T832 1204T608 1236H300L303 1352H696Q881 1352 994 1302T1158 1166T1210 971Q1210 860 1158 769T993 624T702 570H302L300 686H697Q782 686 847 717T949 809T986 961ZM463 1352V105L623 52V0H84V52L244
105V1247L84 1300V1352H463Z" />
<glyph unicode="Q" horiz-adv-x="1565" d="M810 -242L394 78Q286 159 220 249T123 443T92 674Q92 829 142 957T286 1179T506 1323T786 1374Q939 1374 1065 1324T1282 1181T1423 961T1473 678Q1473 520 1417 388T1258 164T1017 31T712 13L679 58L1061 -177Q1131
-220 1182 -247T1280 -288T1377 -306T1499 -306V-367Q1463 -377 1422 -386T1330 -400T1218 -406Q1155 -406 1108 -400T1018 -376T926 -326T810 -242ZM791 98Q930 98 1031 162T1186 347T1241 638Q1241 837 1183 974T1020 1183T774 1255Q635 1255 534 1191T379 1006T324
715Q324 517 382 379T546 170T791 98Z" />
<glyph unicode="R" horiz-adv-x="1342" d="M679 737Q799 737 875 800T952 987Q952 1067 918 1122T806 1207T596 1236H295L311 1352H707Q876 1352 978 1307T1128 1185T1175 1013Q1175 923 1136 853T1020 736T827 674V681Q906 676 953 654T1031 587T1085 466L1168
214Q1190 149 1211 119T1260 82T1333 74V-1Q1225 -8 1158 -6T1052 16T990 73T948 177L870 426Q846 503 824 546T766 606T670 624H309L292 737H679ZM463 1352V105L622 52V0H84V52L244 105V1247L84 1300V1352H463Z" />
<glyph unicode="S" horiz-adv-x="1139" d="M933 1292L783 1324L902 1417H942L998 958L929 950L760 1258L810 1198Q756 1236 699 1252T575 1269Q445 1269 376 1215T307 1064Q307 1001 335 959T412 887T523 836T654 792Q723 770 791 742T917 671T1008 561T1043 395Q1043
257 977 165T795 25T524 -22Q420 -22 338 -10T169 37L87 404H163L407 39L213 168Q294 126 358 108T501 89Q614 89 691 115T807 195T847 331Q847 404 813 451T721 529T595 582T459 627Q391 650 331 679T224 749T151 852T124 1000Q124 1116 180 1200T343 1329T594
1374Q688 1374 768 1355T933 1292Z" />
<glyph unicode="T" horiz-adv-x="1368" d="M573 1290H792V105L955 52V0H411V52L573 105V1290ZM1199 1236H160L257 1266L112 960L43 969L89 1426H129L269 1332L167 1352H1192L1099 1332L1239 1426H1279L1325 969L1256 960L1111 1266L1199 1236Z" />
<glyph unicode="U" horiz-adv-x="1550" d="M1219 506V1247L1056 1300V1352H1497V1300L1337 1247V520Q1337 345 1273 224T1087 41T789 -22Q602 -22 473 40T278 228T212 540V1247L52 1300V1352H590V1300L430 1247V536Q430 401 474 312T606 178T825 134Q953 134 1040
176T1173 302T1219 506Z" />
<glyph unicode="V" horiz-adv-x="1418" d="M136 1245L-18 1300V1352H545V1300L372 1248L813 161H754L1145 1248L981 1300V1352H1425V1300L1271 1248L794 -16H660L136 1245Z" />
<glyph unicode="W" horiz-adv-x="1991" d="M1033 1154L602 -13H464L147 1246L-7 1300V1352H548V1300L377 1248L628 216L579 215L987 1366H1119L1562 184L1481 158L1721 1248L1552 1300V1352H1992V1300L1843 1248L1540 -13H1405L970 1131L1033 1154Z" />
<glyph unicode="X" horiz-adv-x="1475" d="M730 644L305 105L465 52V0H14V52L168 105L668 718L735 760L1109 1248L950 1300V1352H1399V1300L1245 1247L794 684L730 644ZM1061 105L674 617L645 647L193 1245L42 1300V1352H633V1300L461 1247L797 797L826 766L1329
107L1480 52V0H889V52L1061 105Z" />
<glyph unicode="Y" horiz-adv-x="1404" d="M138 1246L-11 1300V1352H572V1300L405 1248L826 649L759 650L1107 1248L943 1300V1352H1392V1300L1244 1248L834 590V105L994 52V0H456V52L616 105V584L138 1246Z" />
<glyph unicode="Z" horiz-adv-x="1286" d="M1178 1352V1301L354 80L295 116H1019L1169 383L1231 375L1164 -58H1125L1016 0H101V51L919 1273L987 1236H304L137 952L76 962L141 1416H180L300 1352H1178Z" />
<glyph unicode="[" horiz-adv-x="657" d="M186 -250V1410H622V1322H354V-163H622V-250H186Z" />
<glyph unicode="\" horiz-adv-x="806" d="M752 0H619L54 1352H186L752 0Z" />
<glyph unicode="]" horiz-adv-x="658" d="M472 1411V-250H36V-162H304V1323H36V1411H472Z" />
<glyph unicode="^" horiz-adv-x="1023" d="M492 1254H529L251 601H132L458 1352H564L891 601H773L492 1254Z" />
<glyph unicode="_" horiz-adv-x="821" d="M0 -194H821V-304H0V-194Z" />
<glyph unicode="`" horiz-adv-x="1000" d="M562 1031H480L163 1332V1361H407L562 1031Z" />
<glyph unicode="a" horiz-adv-x="948" d="M642 562L646 476Q532 453 460 428T349 376T295 319T280 250Q280 183 317 149T413 115Q459 115 496 137T556 194T578 273V639Q578 714 541 756T416 798Q381 798 343 790T270 767L320 824Q315 786 309 755T294 702T275
664Q259 643 233 634T175 624Q136 624 114 640T92 683Q92 718 125 756T216 827T345 880T495 901Q598 901 660 870T749 782T776 643V191Q776 161 785 141T811 111T855 101Q877 101 902 108T952 130V70Q906 26 855 3T757 -20Q701 -20 662 4T604 74T582 185L590 192Q575
126 538 78T447 4T330 -22Q218 -22 150 37T81 209Q81 268 104 316T189 406T360 486T642 562Z" />
<glyph unicode="b" horiz-adv-x="1113" d="M240 86H336L174 -16L115 -4L147 220V1206Q133 1222 110 1238T55 1271T-16 1304V1342L329 1432H358L344 1247V282Q344 222 370 177T447 106T568 80Q648 80 704 121T791 243T822 440Q822 548 789 622T696 734T554 772Q502
772 454 763T362 737T279 693L266 769Q326 805 378 830T476 873T563 898T641 907Q771 907 859 854T992 707T1038 486Q1038 367 1001 273T896 113T740 13T549 -22Q494 -22 444 -11T343 23T240 86Z" />
<glyph unicode="c" horiz-adv-x="896" d="M585 907Q679 907 735 887T815 835T839 772Q839 740 825 716T786 677T730 663Q703 663 679 677T631 713T585 755T538 790T486 805Q429 805 379 774T297 677T266 510Q266 389 305 304T416 175T588 131Q649 131 706 151T821
213L844 165Q787 101 730 60T613 -2T488 -22Q365 -22 272 34T126 191T74 420Q74 522 108 610T207 765T367 869T585 907Z" />
<glyph unicode="d" horiz-adv-x="1133" d="M769 610Q769 696 716 751T555 806Q471 806 412 765T322 644T291 451Q291 339 324 264T417 151T559 113Q629 113 696 134T827 200V129Q752 81 700 51T608 6T537 -16T470 -22Q341 -22 253 31T120 179T75 399Q75 519 115
613T224 772T383 872T572 907Q626 907 675 899T775 873T886 825L769 780V1227Q756 1241 734 1255T683 1283T623 1310V1346L951 1432H979L966 1246V166Q976 157 992 146T1027 125T1066 107T1103 95V59L825 -19H798L769 146V610Z" />
<glyph unicode="e" horiz-adv-x="942" d="M503 907Q616 907 694 859T817 719T871 495H226V579L751 600L667 556Q662 638 641 694T582 780T487 810Q421 810 372 776T295 670T267 488Q267 373 308 294T427 172T609 130Q653 130 693 139T773 167T849 212L872 165Q817
105 759 63T637 0T505 -22Q377 -22 280 35T129 195T74 429Q74 563 125 671T273 843T503 907Z" />
<glyph unicode="f" horiz-adv-x="721" d="M259 769L212 742L37 783V823L227 893L298 885H700L684 769H259ZM410 97L575 48V0H67V48L212 96V909Q212 1046 255 1145T374 1308T545 1401T745 1432Q807 1432 850 1423T919 1398T957 1361T969 1315Q969 1269 938 1241T863
1212Q831 1212 807 1228T760 1267T707 1306T633 1323Q572 1323 522 1296T441 1208T410 1045V97Z" />
<glyph unicode="g" horiz-adv-x="1014" d="M456 -519Q348 -519 267 -504T132 -458T51 -386T24 -288Q24 -249 44 -214T108 -149T225 -95T404 -54H471V-76Q367 -90 309 -117T227 -181T204 -264Q204 -317 233 -354T324 -410T482 -430Q581 -430 651 -406T760 -340T798
-247Q798 -211 782 -186T726 -144T618 -116T445 -100Q341 -94 275 -76T171 -31T119 32T104 108Q105 181 170 230T359 300L384 275Q327 269 300 246T273 183Q273 160 282 142T320 111T407 89T561 75Q660 69 736 53T863 7T941 -69T968 -182Q968 -275 908 -351T733
-473T456 -519ZM459 257Q347 257 261 298T127 412T79 581Q79 679 128 752T263 866T460 907Q546 907 615 882T735 813T813 709T840 583Q840 485 791 412T656 298T459 257ZM468 343Q546 343 592 400T638 570Q638 693 589 757T453 821Q375 821 328 765T281 594Q281
472 331 408T468 343ZM595 825L563 891Q633 883 691 884T796 890T883 902T954 908Q986 908 1003 890T1020 830Q1020 785 997 758T941 731Q914 731 888 746T825 780T734 813T595 825Z" />
<glyph unicode="h" horiz-adv-x="1148" d="M641 48L781 94V574Q781 627 761 663T698 719T592 738Q520 738 457 715T361 657L325 695Q389 759 439 800T534 864T624 897T719 907Q852 907 915 828T979 582V96L1126 48V0H641V48ZM520 0H33V48L179 96V1206Q165 1222
142 1238T87 1271T16 1304V1342L361 1432H390L376 1247V96L520 48V0Z" />
<glyph unicode="i" horiz-adv-x="582" d="M293 1163Q229 1163 190 1201T151 1298Q151 1357 190 1394T293 1432Q356 1432 395 1395T434 1298Q434 1239 395 1201T293 1163ZM410 907L401 718V96L547 48V0H58V48L203 96V695Q192 708 168 723T115 754T55 781V820L376 907H410Z" />
<glyph unicode="j" horiz-adv-x="522" d="M271 1163Q208 1163 169 1201T130 1298Q130 1357 169 1394T271 1432Q335 1432 374 1395T413 1298Q413 1239 374 1201T271 1163ZM182 695Q170 708 146 723T93 754T34 781V820L354 907H389L379 718V-54Q379 -115 374 -159T350
-242T297 -318T201 -405T52 -519L-1 -457Q61 -392 98 -348T152 -269T176 -199T182 -118V695Z" />
<glyph unicode="k" horiz-adv-x="1118" d="M573 481L622 564L1006 96L1127 48V0H684V48L773 87L481 440H324V540H515L775 794L644 832V885H1048V832L915 794L573 481ZM376 95L519 48V0H33V48L179 96V1206Q165 1222 142 1238T87 1271T16 1304V1342L361 1432H390L376
1247V95Z" />
<glyph unicode="l" horiz-adv-x="560" d="M379 96L525 48V0H36V48L181 96V1206Q167 1222 144 1238T89 1271T18 1304V1342L363 1432H393L379 1247V96Z" />
<glyph unicode="m" horiz-adv-x="1697" d="M399 712V94L530 48V0H56V48L202 96V681Q184 701 150 720T54 765V798L329 907H357L399 712ZM963 645V94L1094 48V0H635V48L766 94V588Q766 640 746 673T686 723T593 740Q530 740 471 719T382 666L348 708Q408 767 455
806T545 866T629 897T718 907Q805 907 859 873T938 779T963 645ZM1527 604V96L1675 48V0H1199V48L1330 94V588Q1330 641 1309 674T1250 723T1156 740Q1093 740 1034 719T945 665L911 707Q971 767 1018 805T1108 866T1192 897T1282 907Q1411 907 1469 829T1527 604Z"
/>
<glyph unicode="n" horiz-adv-x="1171" d="M399 712V94L539 48V0H56V48L202 96V681Q184 701 150 720T54 765V798L329 907H357L399 712ZM664 48L804 94V574Q804 627 784 663T721 719T615 738Q543 738 480 715T384 657L348 695Q412 759 462 800T557 864T647 897T742
907Q875 907 938 828T1002 582V96L1149 48V0H664V48Z" />
<glyph unicode="o" horiz-adv-x="1067" d="M535 77Q608 77 663 112T749 221T780 413Q780 543 750 630T665 762T531 807Q459 807 404 773T318 664T287 471Q287 343 316 255T402 122T535 77ZM528 -22Q391 -22 289 35T130 195T74 433Q74 572 133 679T297 846T539
907Q677 907 778 850T936 690T993 452Q993 313 934 206T770 39T528 -22Z" />
<glyph unicode="p" horiz-adv-x="1147" d="M856 435Q856 600 783 685T587 770Q537 770 489 762T398 736T316 692L309 770Q368 806 420 832T517 874T601 899T676 907Q805 907 893 854T1026 706T1072 487Q1072 329 1006 215T832 40T592 -22Q535 -22 484 -9T384 30T286
91H378V-400L543 -449V-497H35V-449L181 -401V682Q167 697 146 710T96 738T32 767V799L312 909H341L378 774V277Q378 219 405 174T483 105T602 80Q682 80 738 121T825 242T856 435Z" />
<glyph unicode="q" horiz-adv-x="1110" d="M291 451Q291 339 324 264T417 151T559 113Q636 113 705 132T833 193V122Q770 81 719 54T624 10T543 -14T470 -22Q341 -22 253 31T120 179T75 399Q75 554 142 668T323 845T582 907Q632 907 680 898T780 870T888 817L784
819L959 904L995 888L966 677V-401L1112 -449V-497H604V-449L769 -400V609Q769 695 713 750T548 806Q468 806 410 765T322 644T291 451Z" />
<glyph unicode="r" horiz-adv-x="822" d="M693 900Q748 900 774 872T800 798Q800 743 769 712T691 681Q659 681 631 688T575 703T513 710Q490 710 464 705T414 688T367 660L343 700Q405 754 456 792T549 853T627 888T693 900ZM399 712V98L554 48V0H56V48L202 96V681Q188
696 167 709T117 737T54 765V798L347 907H375L399 712Z" />
<glyph unicode="s" horiz-adv-x="794" d="M428 907Q494 907 547 896T666 856L682 614H617L509 857L595 768Q552 795 512 808T430 821Q348 821 304 790T259 703Q259 655 285 626T359 576T472 533Q520 517 563 495T641 442T694 366T714 258Q714 167 669 105T542
11T354 -21Q287 -21 228 -11T118 19L77 272H143L281 16L152 100Q189 84 218 76T275 65T328 62Q430 62 486 98T543 207Q543 248 524 274T470 320T393 354T303 387Q241 410 195 443T124 526T98 649Q98 732 140 789T258 876T428 907Z" />
<glyph unicode="t" horiz-adv-x="720" d="M365 262Q365 195 406 162T527 129Q564 129 608 136T703 159V100Q637 55 586 29T494 -8T415 -19Q341 -19 286 6T199 84T168 215V731L39 813V847Q68 863 96 881T153 918T208 958T262 1000T315 1044H365V856V262ZM286 769L287
885H674L660 769H286Z" />
<glyph unicode="u" horiz-adv-x="1106" d="M367 299Q367 243 383 210T437 162T542 147Q604 147 663 168T754 221L789 178Q729 118 682 79T593 18T511 -13T422 -22Q293 -22 232 55T170 287V765L26 829V881L379 900L367 775V299ZM762 -18L734 171V769L601 830V881L945
899L932 773V166Q942 157 958 146T993 125T1032 107T1069 95V59L789 -18H762Z" />
<glyph unicode="v" horiz-adv-x="1076" d="M940 794L608 -16H496L122 784L-4 832V885H466V832L337 791L625 163L590 162L832 794L705 832V885H1047V832L940 794Z" />
<glyph unicode="w" horiz-adv-x="1523" d="M1287 795L1161 832V885H1498V832L1393 795L1144 -16H1030L739 704L791 714L501 -16H387L131 784L4 832V885H462V832L335 791L527 169L480 170L765 901H868L1159 172H1112L1287 795Z" />
<glyph unicode="x" horiz-adv-x="1038" d="M910 99L1028 52V0H576V52L689 91L469 378L446 405L150 786L32 833V885H486V833L371 793L570 531L594 504L910 99ZM519 410L252 88L372 52V0H22V52L130 89L459 468L516 498L762 797L646 833V885H991V833L883 796L576
440L519 410Z" />
<glyph unicode="y" horiz-adv-x="1075" d="M644 158L536 -61L133 784L7 832V885H478V832L350 791L644 158ZM244 -519Q181 -519 143 -487T104 -398Q104 -369 115 -347T145 -313T181 -300Q200 -300 220 -308T263 -325T314 -333Q343 -333 366 -322T411 -281T456 -201L560
50L605 162L839 795L713 832V885H1057V832L952 795L553 -205Q504 -327 459 -395T362 -491T244 -519Z" />
<glyph unicode="z" horiz-adv-x="889" d="M68 0V39L600 841L676 790L150 784L274 857L130 599H70L113 907H155L226 885H818V845L281 41L216 95L694 101L619 35L787 296H848L777 0H68Z" />
<glyph unicode="{" horiz-adv-x="645" d="M35 537V620L115 623Q186 626 219 656T252 751Q252 825 239 889T213 1011T199 1129Q199 1198 233 1260T334 1365T500 1417L594 1426L603 1349L539 1341Q448 1329 415 1278T381 1153Q381 1074 395 987T410 799Q410 721
361 657T204 567V591Q312 565 361 501T410 358Q410 259 396 171T381 4Q381 -69 414 -120T539 -184L603 -192L594 -269L500 -260Q401 -250 335 -208T234 -103T199 28Q199 87 212 145T239 268T252 406Q252 471 219 501T115 534L35 537Z" />
<glyph unicode="|" horiz-adv-x="499" d="M187 -519V1481H312V-519H187Z" />
<glyph unicode="}" horiz-adv-x="645" d="M610 620V537L529 534Q459 532 426 502T393 406Q393 332 406 268T432 146T446 28Q446 -40 412 -102T311 -207T145 -260L51 -269L42 -192L106 -184Q197 -172 230 -121T264 5Q264 83 249 171T234 358Q234 436 283 500T441
591V567Q333 593 284 657T234 799Q234 899 249 986T264 1153Q264 1227 231 1278T106 1341L42 1349L51 1426L145 1417Q244 1408 310 1365T411 1261T446 1129Q446 1070 433 1012T406 889T393 751Q393 686 426 656T529 623L610 620Z" />
<glyph unicode="~" horiz-adv-x="1023" d="M135 334Q136 424 163 476T238 550T345 573Q405 573 448 553T526 505T594 457T668 436Q725 436 749 466T777 565H890Q889 475 862 423T787 349T680 326Q620 326 577 347T499 395T431 442T357 463Q300 463 276 433T248 334H135Z" />
<glyph unicode="&#xa0;" horiz-adv-x="449" />
<glyph unicode="&#xa1;" horiz-adv-x="514" d="M139 -431L141 -306Q142 -278 145 -235T154 -135T168 -11T184 131T201 288T217 456H295Q304 370 312 289T329 132T344 -11T357 -134T366 -234T371 -306L374 -431Q375 -452 360 -466T317 -487T256 -494Q222 -494 196
-487T154 -466T139 -431ZM257 620Q195 620 155 659T115 758Q115 818 155 857T257 896Q320 896 359 857T399 758Q399 699 360 660T257 620Z" />
<glyph unicode="&#xa2;" horiz-adv-x="1175" d="M366 0L824 1352H915L457 0H366ZM716 1136Q798 1136 854 1119T940 1071T970 1002Q970 973 957 948T919 908T861 893Q834 893 810 907T762 942T715 985T668 1020T617 1035Q560 1035 511 1003T431 906T400 740Q400
618 438 534T549 405T721 360Q783 360 840 381T954 442L977 395Q921 331 864 290T746 228T622 208Q498 208 405 264T259 420T207 649Q207 752 241 840T339 995T499 1099T716 1136Z" />
<glyph unicode="&#xa3;" horiz-adv-x="1175" d="M953 932Q922 1079 847 1150T648 1221Q514 1221 449 1156T384 990Q384 935 403 888T449 798T504 716T551 636T570 551Q570 497 537 428T443 282T301 129L300 193H957L836 133L1037 409H1091L1003 -35H965L860 0H141V43Q225
136 277 203T356 318T394 399T405 458Q405 516 381 562T321 651T251 742T191 850T167 991Q167 1067 196 1135T281 1258T421 1343T611 1374Q733 1374 822 1329T966 1190T1037 947L953 932ZM861 726V633H80V726H861Z" />
<glyph unicode="&#xa4;" horiz-adv-x="925" d="M201 787L316 672L240 596L125 711L201 787ZM125 188L239 302L315 226L201 112L125 188ZM463 736Q547 736 612 700T714 599T751 450Q751 366 714 301T612 200T463 163Q378 163 313 199T211 301T174 450Q174 534 211
599T313 700T463 736ZM463 261Q544 261 596 313T648 450Q648 534 596 586T463 638Q381 638 330 586T278 450Q278 365 329 313T463 261ZM801 711L685 595L609 672L725 787L801 711ZM801 188L725 112L612 224L688 301L801 188Z" />
<glyph unicode="&#xa5;" horiz-adv-x="1175" d="M1304 586V494H418V586H1304ZM1304 864V771H418V864H1304ZM969 851V100L1143 50V0H582V50L759 100V846L342 1251L190 1302V1352H750V1302L604 1256L960 892L902 900L1212 1256L1068 1302V1352H1489V1302L1339 1255L969
851Z" />
<glyph unicode="&#xa6;" horiz-adv-x="499" d="M312 688H187V1481H312V688ZM187 -519V295H312V-519H187Z" />
<glyph unicode="&#xa7;" horiz-adv-x="1097" d="M501 -271Q372 -271 297 -248T189 -190T157 -115Q157 -72 186 -46T258 -19Q293 -19 318 -43T370 -99T435 -155T535 -180Q633 -180 685 -138T738 -24Q738 35 703 73T609 136T481 181T341 226T212 286T119 378T83
519Q83 642 168 726T428 842L482 784Q362 762 309 708T255 580Q255 519 290 481T383 419T510 375T649 332T777 273T870 182T906 40Q906 -51 859 -121T722 -231T501 -271ZM841 537Q841 598 806 635T713 696T586 739T447 780T319 838T226 928T190 1070Q190 1162 239
1230T381 1336T607 1374Q737 1374 812 1351T919 1293T951 1218Q951 1175 922 1149T850 1122Q815 1122 790 1146T738 1202T673 1258T573 1282Q468 1282 413 1240T358 1127Q358 1070 393 1035T487 976T615 933T755 889T884 829T977 738T1013 597Q1013 461 921 382T668
272L604 330Q727 351 784 404T841 537Z" />
<glyph unicode="&#xa8;" horiz-adv-x="1000" d="M306 1079Q251 1079 218 1112T185 1196Q185 1246 218 1279T306 1313Q360 1313 393 1280T426 1196Q426 1146 393 1113T306 1079ZM695 1079Q640 1079 607 1112T574 1196Q574 1246 607 1279T695 1313Q750 1313 782
1280T815 1196Q815 1146 783 1113T695 1079Z" />
<glyph unicode="&#xa9;" horiz-adv-x="1636" d="M817 1374Q973 1374 1102 1324T1326 1181T1471 960T1523 676Q1523 521 1472 393T1326 171T1103 28T817 -22Q662 -22 533 28T309 171T164 392T113 676Q113 832 164 960T309 1181T532 1324T817 1374ZM817 1279Q643
1279 508 1204T297 992T221 676Q221 496 297 360T508 149T817 73Q994 73 1128 148T1339 360T1415 676Q1415 856 1339 992T1129 1203T817 1279ZM895 377Q934 377 971 383T1050 408L978 345L1089 547H1137L1100 324Q1046 306 986 297T864 288Q732 288 635 334T485
467T432 676Q432 796 484 885T637 1025T878 1075Q919 1075 957 1070T1045 1051L993 1043L1071 1101H1095L1129 808L1082 800L974 1004L1035 943Q992 967 955 976T876 985Q747 985 681 913T614 705Q614 602 650 529T750 416T895 377Z" />
<glyph unicode="&#xaa;" horiz-adv-x="908" d="M124 465V571H797V465H124ZM578 1048Q494 1031 442 1014T360 978T321 937T310 889Q310 842 337 818T409 794Q459 794 490 829T522 912V1173Q522 1227 494 1257T401 1288Q375 1288 344 1282T283 1264L326 1315Q319
1263 311 1235T288 1189Q273 1173 254 1165T208 1157Q178 1157 161 1170T144 1204Q144 1242 192 1281T314 1346T468 1373Q550 1373 598 1351T668 1285T690 1179V850Q690 816 702 801T740 786Q755 786 771 789T804 800V746Q764 716 733 705T667 693Q602 693 567
734T531 848H537Q516 773 463 732T337 691Q249 691 195 734T141 863Q141 906 159 942T223 1008T353 1067T569 1125L578 1048Z" />
<glyph unicode="&#xab;" horiz-adv-x="1032" d="M251 523L532 71L476 24L63 414V480L476 870L532 823L251 371V523ZM670 523L951 71L895 24L482 414V480L895 870L951 823L670 371V523Z" />
<glyph unicode="&#xac;" horiz-adv-x="1023" d="M130 679H884V568H130V679ZM884 630V220H774V630H884Z" />
<glyph unicode="&#xad;" horiz-adv-x="715" d="M122 528H593V376H122V528Z" />
<glyph unicode="&#xae;" horiz-adv-x="1101" d="M548 1374Q678 1374 778 1320T934 1170T990 944Q990 817 934 720T778 568T548 513Q419 513 320 568T166 720T111 944Q111 1073 166 1169T320 1320T548 1374ZM548 1298Q442 1298 363 1254T239 1131T194 944Q194 839
238 759T362 635T548 590Q655 590 735 634T861 759T906 944Q906 1051 861 1130T736 1254T548 1298ZM438 977H564Q598 977 617 994T637 1049Q637 1083 617 1101T544 1119H435L428 1176H585Q673 1176 709 1145T745 1064Q745 1022 714 989T611 951V957Q661 956 682
942T713 893L740 815Q749 784 759 776T789 768V730Q732 727 702 730T657 748T634 797L614 868Q604 901 592 911T551 922H436L438 977ZM397 1127L344 1144V1176H502V781L552 763V730H344V763L397 781V1127Z" />
<glyph unicode="&#xaf;" horiz-adv-x="1000" d="M233 1137V1255H767V1137H233Z" />
<glyph unicode="&#xb0;" horiz-adv-x="763" d="M382 1366Q514 1366 599 1282T684 1065Q684 933 599 849T382 764Q249 764 164 848T79 1065Q79 1198 164 1282T382 1366ZM382 853Q472 853 531 911T590 1065Q590 1161 531 1219T382 1277Q291 1277 232 1219T173 1065Q173
970 232 912T382 853Z" />
<glyph unicode="&#xb1;" horiz-adv-x="1023" d="M457 886H567V135H457V886ZM136 565H887V455H136V565ZM136 110H887V0H136V110Z" />
<glyph unicode="&#xb2;" horiz-adv-x="713" d="M480 686L615 867H654L605 577H581L515 604H78V645L275 856Q331 915 363 958T410 1040T424 1117Q424 1166 389 1198T292 1231Q230 1231 185 1198T117 1088L61 1103Q92 1237 167 1302T357 1368Q465 1368 532 1314T599
1164Q599 1114 577 1069T502 968T355 832L209 703L205 756H596L480 686Z" />
<glyph unicode="&#xb3;" horiz-adv-x="674" d="M238 589Q139 589 99 619T59 686Q59 715 77 732T124 749Q146 749 163 737T199 709T241 681T301 669Q359 669 404 706T450 827Q450 880 428 912T362 955T257 951L217 942L202 1003Q317 1035 356 1072T396 1159Q396
1201 369 1227T291 1254Q233 1254 194 1224T134 1129L79 1149Q107 1254 171 1311T345 1369Q445 1369 496 1326T547 1213Q547 1142 493 1094T347 1030L352 1036Q436 1048 494 1030T584 970T615 866Q615 788 570 725T441 626T238 589Z" />
<glyph unicode="&#xb4;" horiz-adv-x="1000" d="M438 1031L593 1361H837V1332L520 1031H438Z" />
<glyph unicode="&#xb5;" horiz-adv-x="1158" d="M180 885H378V299Q378 243 394 210T448 162T552 147Q615 147 674 168T764 221L799 178Q740 118 694 79T609 18T534 -12T460 -21Q405 -21 363 -4T294 54T256 163L271 168L377 -489L204 -510H180V885ZM943 191Q943
163 952 144T978 115T1022 106Q1043 106 1068 113T1119 130V70Q1073 26 1021 3T924 -20Q836 -20 790 36T744 189V885H943V191Z" />
<glyph unicode="&#xb6;" horiz-adv-x="1233" d="M682 1352V668H442Q308 668 223 711T96 830T55 1005Q55 1101 95 1180T221 1305T448 1352H682ZM719 -248H608V1352H904V1249H719V-248ZM984 -248H873V1352H1152V1303L984 1256V-248Z" />
<glyph unicode="&#xb7;" horiz-adv-x="506" d="M253 591Q315 591 355 552T395 452Q395 393 355 353T253 313Q191 313 151 353T111 452Q111 512 151 551T253 591Z" />
<glyph unicode="&#xb8;" horiz-adv-x="1000" d="M401 -519Q324 -519 291 -493T257 -433Q257 -408 273 -393T312 -378Q338 -378 356 -394T396 -426T451 -443Q497 -443 524 -420T552 -354Q552 -322 532 -299T462 -260T321 -230V-212L517 46H605L415 -213L413 -115Q511
-132 566 -160T642 -223T664 -302Q664 -366 629 -415T533 -491T401 -519Z" />
<glyph unicode="&#xb9;" horiz-adv-x="553" d="M229 676V1294L271 1224L56 1161L38 1212L307 1356H395V676L506 645V604H110V645L229 676Z" />
<glyph unicode="&#xba;" horiz-adv-x="922" d="M145 462V575H776V462H145ZM464 786Q539 786 585 840T632 1013Q632 1142 586 1209T459 1276Q385 1276 339 1222T292 1048Q292 921 337 854T464 786ZM458 691Q354 691 277 732T158 849T115 1023Q115 1127 159 1205T283
1328T466 1373Q570 1373 646 1331T765 1214T807 1037Q807 935 763 857T640 735T458 691Z" />
<glyph unicode="&#xbb;" horiz-adv-x="1068" d="M374 372L93 824L149 871L562 481V414L149 25L93 72L374 523V372ZM793 372L512 824L568 871L981 481V414L568 25L512 72L793 523V372Z" />
<glyph unicode="&#xbc;" horiz-adv-x="1539" d="M253 676V1294L295 1224L80 1161L62 1212L331 1356H419V676L530 645V604H134V645L253 676ZM265 0L1205 1352H1326L386 0H265ZM1122 653L1172 671L867 290L856 332H1351L1481 354L1441 213H790V286L1151 752H1287V72L1398
41V0H1003V41L1122 72V653Z" />
<glyph unicode="&#xbd;" horiz-adv-x="1601" d="M263 0L1203 1352H1324L384 0H263ZM1361 82L1496 263H1535L1486 -27H1462L1396 0H959V41L1156 252Q1212 311 1244 354T1291 436T1305 513Q1305 562 1270 594T1173 627Q1111 627 1066 594T998 484L942 499Q973 633
1048 698T1238 764Q1346 764 1413 710T1480 560Q1480 510 1458 465T1383 364T1236 228L1090 99L1086 152H1477L1361 82ZM250 676V1294L292 1224L77 1161L59 1212L328 1356H416V676L527 645V604H131V645L250 676Z" />
<glyph unicode="&#xbe;" horiz-adv-x="1530" d="M256 0L1196 1352H1317L377 0H256ZM258 589Q159 589 119 619T79 686Q79 715 97 732T144 749Q166 749 183 737T219 709T261 681T321 669Q379 669 424 706T470 827Q470 880 448 912T382 955T277 951L237 942L222 1003Q337
1035 376 1072T416 1159Q416 1201 389 1227T311 1254Q253 1254 214 1224T154 1129L99 1149Q127 1254 191 1311T365 1369Q465 1369 516 1326T567 1213Q567 1142 513 1094T367 1030L372 1036Q456 1048 514 1030T604 970T635 866Q635 788 590 725T461 626T258 589ZM1113
653L1163 671L858 290L847 332H1342L1472 354L1432 213H781V286L1142 752H1278V72L1389 41V0H994V41L1113 72V653Z" />
<glyph unicode="&#xbf;" horiz-adv-x="913" d="M593 -493Q484 -493 393 -464T234 -381T131 -250T95 -74Q95 28 137 103T281 218T558 256L492 136L504 459H571L643 95Q503 102 415 77T286 -1T245 -131Q245 -205 274 -259T357 -342T488 -371Q542 -371 579 -354T644
-314T701 -274T766 -257Q798 -257 822 -270T861 -307T875 -359Q875 -397 846 -427T754 -475T593 -493ZM531 620Q469 620 429 659T389 758Q389 818 429 857T531 896Q594 896 633 857T673 758Q673 699 634 660T531 620Z" />
<glyph unicode="&#xc0;" horiz-adv-x="1464" d="M364 478V590H1040V478H364ZM1323 107L1478 52V0H917V52L1089 105L640 1191H697L276 105L440 52V0H-11V52L145 105L657 1368H791L1323 107ZM767 1487H685L400 1714V1742H649L767 1487Z" />
<glyph unicode="&#xc1;" horiz-adv-x="1464" d="M364 478V590H1040V478H364ZM1323 107L1478 52V0H917V52L1089 105L640 1191H697L276 105L440 52V0H-11V52L145 105L657 1368H791L1323 107ZM675 1487L793 1742H1042V1714L757 1487H675Z" />
<glyph unicode="&#xc2;" horiz-adv-x="1464" d="M364 478V590H1040V478H364ZM1323 107L1478 52V0H917V52L1089 105L640 1191H697L276 105L440 52V0H-11V52L145 105L657 1368H791L1323 107ZM703 1629H739L519 1487H412L630 1742H812L1030 1487H923L703 1629Z" />
<glyph unicode="&#xc3;" horiz-adv-x="1464" d="M364 478V590H1040V478H364ZM1323 107L1478 52V0H917V52L1089 105L640 1191H697L276 105L440 52V0H-11V52L145 105L657 1368H791L1323 107ZM1013 1740Q994 1634 972 1579T919 1503T840 1482Q802 1482 769 1499T704
1540T646 1582T594 1600Q576 1600 563 1592T537 1560T513 1489H428Q448 1595 469 1650T522 1726T600 1747Q638 1747 672 1730T737 1689T795 1647T847 1629Q864 1629 878 1637T904 1669T928 1740H1013Z" />
<glyph unicode="&#xc4;" horiz-adv-x="1464" d="M364 478V590H1040V478H364ZM1323 107L1478 52V0H917V52L1089 105L640 1191H697L276 105L440 52V0H-11V52L145 105L657 1368H791L1323 107ZM521 1498Q467 1498 434 1531T401 1615Q401 1665 434 1698T521 1731Q576
1731 609 1698T642 1615Q642 1565 609 1532T521 1498ZM921 1498Q866 1498 833 1531T800 1615Q800 1665 833 1698T921 1731Q976 1731 1008 1698T1041 1615Q1041 1565 1009 1532T921 1498Z" />
<glyph unicode="&#xc5;" horiz-adv-x="1464" d="M364 478V590H1040V478H364ZM1323 107L1478 52V0H917V52L1089 105L640 1191H697L276 105L440 52V0H-11V52L145 105L657 1368H791L1323 107ZM721 1794Q800 1794 851 1744T902 1615Q902 1537 851 1487T721 1436Q642
1436 591 1486T539 1615Q539 1694 590 1744T721 1794ZM721 1500Q771 1500 802 1532T834 1615Q834 1667 803 1699T721 1731Q670 1731 639 1699T607 1615Q607 1564 638 1532T721 1500Z" />
<glyph unicode="&#xc6;" horiz-adv-x="2030" d="M462 481V594H1053V481H462ZM901 1352H1000V1292L272 105L436 52V0H-22V52L135 105L901 1352ZM674 1300V1352H933L879 1232L674 1300ZM1656 969V708V448H1564L1543 652H1061V766H1543L1564 969H1656ZM1926 969L1859
961L1692 1278L1760 1237H1061V1352H1720L1831 1410H1868L1926 969ZM1709 72L1900 406L1962 396L1885 -66H1845L1735 0H1061V115H1764L1709 72ZM806 0V52L966 105V1352H1185V0H806Z" />
<glyph unicode="&#xc7;" horiz-adv-x="1420" d="M888 93Q964 93 1036 106T1182 148L1111 93L1263 386H1332L1295 57Q1218 22 1104 0T859 -22Q683 -22 541 23T299 157T146 373T93 664Q93 880 187 1040T460 1287T890 1374Q959 1374 1025 1365T1178 1335L1113 1324L1235
1417H1276L1328 933L1258 925L1095 1238L1154 1174Q1070 1221 1001 1239T851 1257Q719 1257 620 1223T455 1121T356 957T322 735Q321 578 362 459T480 258T660 135T888 93ZM691 -519Q614 -519 581 -493T547 -433Q547 -408 563 -393T602 -378Q628 -378 646 -394T686
-426T741 -443Q787 -443 814 -420T842 -354Q842 -322 822 -299T752 -260T611 -230V-212L807 46H894L705 -213L703 -115Q801 -132 856 -160T932 -223T954 -302Q954 -366 919 -415T823 -491T691 -519Z" />
<glyph unicode="&#xc8;" horiz-adv-x="1308" d="M934 969V708V448H843L822 652H339V766H822L843 969H934ZM1204 969L1137 961L970 1278L1039 1237H339V1352H999L1110 1410H1146L1204 969ZM987 72L1179 406L1240 396L1164 -66H1124L1014 0H339V115H1043L987 72ZM84
0V52L244 105V1247L84 1300V1352H463V0H84ZM712 1487H630L345 1714V1742H594L712 1487Z" />
<glyph unicode="&#xc9;" horiz-adv-x="1308" d="M934 969V708V448H843L822 652H339V766H822L843 969H934ZM1204 969L1137 961L970 1278L1039 1237H339V1352H999L1110 1410H1146L1204 969ZM987 72L1179 406L1240 396L1164 -66H1124L1014 0H339V115H1043L987 72ZM84
0V52L244 105V1247L84 1300V1352H463V0H84ZM620 1487L738 1742H987V1714L702 1487H620Z" />
<glyph unicode="&#xca;" horiz-adv-x="1308" d="M934 969V708V448H843L822 652H339V766H822L843 969H934ZM1204 969L1137 961L970 1278L1039 1237H339V1352H999L1110 1410H1146L1204 969ZM987 72L1179 406L1240 396L1164 -66H1124L1014 0H339V115H1043L987 72ZM84
0V52L244 105V1247L84 1300V1352H463V0H84ZM648 1629H684L464 1487H357L575 1742H757L975 1487H868L648 1629Z" />
<glyph unicode="&#xcb;" horiz-adv-x="1308" d="M934 969V708V448H843L822 652H339V766H822L843 969H934ZM1204 969L1137 961L970 1278L1039 1237H339V1352H999L1110 1410H1146L1204 969ZM987 72L1179 406L1240 396L1164 -66H1124L1014 0H339V115H1043L987 72ZM84
0V52L244 105V1247L84 1300V1352H463V0H84ZM466 1498Q412 1498 379 1531T346 1615Q346 1665 379 1698T466 1731Q521 1731 554 1698T587 1615Q587 1565 554 1532T466 1498ZM866 1498Q811 1498 778 1531T745 1615Q745 1665 778 1698T866 1731Q921 1731 953 1698T986
1615Q986 1565 954 1532T866 1498Z" />
<glyph unicode="&#xcc;" horiz-adv-x="707" d="M623 52V0H84V52L244 105V1247L84 1300V1352H623V1300L463 1247V105L623 52ZM400 1487H318L33 1714V1742H282L400 1487Z" />
<glyph unicode="&#xcd;" horiz-adv-x="707" d="M623 52V0H84V52L244 105V1247L84 1300V1352H623V1300L463 1247V105L623 52ZM308 1487L426 1742H675V1714L390 1487H308Z" />
<glyph unicode="&#xce;" horiz-adv-x="707" d="M623 52V0H84V52L244 105V1247L84 1300V1352H623V1300L463 1247V105L623 52ZM336 1629H372L152 1487H45L263 1742H445L663 1487H556L336 1629Z" />
<glyph unicode="&#xcf;" horiz-adv-x="707" d="M623 52V0H84V52L244 105V1247L84 1300V1352H623V1300L463 1247V105L623 52ZM154 1498Q100 1498 67 1531T34 1615Q34 1665 67 1698T154 1731Q209 1731 242 1698T275 1615Q275 1565 242 1532T154 1498ZM554 1498Q499
1498 466 1531T433 1615Q433 1665 466 1698T554 1731Q609 1731 641 1698T674 1615Q674 1565 642 1532T554 1498Z" />
<glyph unicode="&#xd0;" horiz-adv-x="1549" d="M87 631V740H773V631H87ZM1224 694Q1224 971 1068 1103T628 1236H346L338 1352H680Q940 1352 1112 1282T1370 1070T1456 714Q1456 487 1356 328T1080 84T680 0H338L346 116H654Q827 116 955 175T1153 362T1224 694ZM87
0V52L247 105V1247L87 1300V1352H466V0H87Z" />
<glyph unicode="&#xd1;" horiz-adv-x="1551" d="M246 105V1233L79 1301V1352H482L1263 252L1204 176V1247L1031 1300V1352H1481V1300L1322 1247V-13H1190L322 1210L364 1241V105L537 52V0H87V52L246 105ZM1091 1740Q1072 1634 1050 1579T997 1503T918 1482Q880
1482 847 1499T782 1540T724 1582T672 1600Q654 1600 641 1592T615 1560T591 1489H506Q526 1595 547 1650T600 1726T678 1747Q716 1747 750 1730T815 1689T873 1647T925 1629Q942 1629 956 1637T982 1669T1006 1740H1091Z" />
<glyph unicode="&#xd2;" horiz-adv-x="1565" d="M786 1374Q939 1374 1065 1324T1282 1181T1423 961T1473 678Q1473 523 1423 395T1280 174T1060 29T779 -22Q627 -22 501 28T283 171T142 392T92 674Q92 829 142 957T286 1179T506 1323T786 1374ZM791 97Q930 97
1031 161T1186 346T1241 638Q1241 837 1183 974T1020 1183T774 1255Q635 1255 534 1191T379 1006T324 715Q324 517 382 379T546 169T791 97ZM828 1487H746L461 1714V1742H710L828 1487Z" />
<glyph unicode="&#xd3;" horiz-adv-x="1565" d="M786 1374Q939 1374 1065 1324T1282 1181T1423 961T1473 678Q1473 523 1423 395T1280 174T1060 29T779 -22Q627 -22 501 28T283 171T142 392T92 674Q92 829 142 957T286 1179T506 1323T786 1374ZM791 97Q930 97
1031 161T1186 346T1241 638Q1241 837 1183 974T1020 1183T774 1255Q635 1255 534 1191T379 1006T324 715Q324 517 382 379T546 169T791 97ZM736 1487L854 1742H1103V1714L818 1487H736Z" />
<glyph unicode="&#xd4;" horiz-adv-x="1565" d="M786 1374Q939 1374 1065 1324T1282 1181T1423 961T1473 678Q1473 523 1423 395T1280 174T1060 29T779 -22Q627 -22 501 28T283 171T142 392T92 674Q92 829 142 957T286 1179T506 1323T786 1374ZM791 97Q930 97
1031 161T1186 346T1241 638Q1241 837 1183 974T1020 1183T774 1255Q635 1255 534 1191T379 1006T324 715Q324 517 382 379T546 169T791 97ZM764 1629H800L580 1487H473L691 1742H873L1091 1487H984L764 1629Z" />
<glyph unicode="&#xd5;" horiz-adv-x="1565" d="M786 1374Q939 1374 1065 1324T1282 1181T1423 961T1473 678Q1473 523 1423 395T1280 174T1060 29T779 -22Q627 -22 501 28T283 171T142 392T92 674Q92 829 142 957T286 1179T506 1323T786 1374ZM791 97Q930 97
1031 161T1186 346T1241 638Q1241 837 1183 974T1020 1183T774 1255Q635 1255 534 1191T379 1006T324 715Q324 517 382 379T546 169T791 97ZM1074 1740Q1055 1634 1033 1579T980 1503T901 1482Q863 1482 830 1499T765 1540T707 1582T655 1600Q637 1600 624 1592T598
1560T574 1489H489Q509 1595 530 1650T583 1726T661 1747Q699 1747 733 1730T798 1689T856 1647T908 1629Q925 1629 939 1637T965 1669T989 1740H1074Z" />
<glyph unicode="&#xd6;" horiz-adv-x="1565" d="M786 1374Q939 1374 1065 1324T1282 1181T1423 961T1473 678Q1473 523 1423 395T1280 174T1060 29T779 -22Q627 -22 501 28T283 171T142 392T92 674Q92 829 142 957T286 1179T506 1323T786 1374ZM791 97Q930 97
1031 161T1186 346T1241 638Q1241 837 1183 974T1020 1183T774 1255Q635 1255 534 1191T379 1006T324 715Q324 517 382 379T546 169T791 97ZM582 1498Q528 1498 495 1531T462 1615Q462 1665 495 1698T582 1731Q637 1731 670 1698T703 1615Q703 1565 670 1532T582
1498ZM982 1498Q927 1498 894 1531T861 1615Q861 1665 894 1698T982 1731Q1037 1731 1069 1698T1102 1615Q1102 1565 1070 1532T982 1498Z" />
<glyph unicode="&#xd7;" horiz-adv-x="1023" d="M177 193L768 784L846 706L255 115L177 193ZM177 706L255 784L846 193L768 115L177 706Z" />
<glyph unicode="&#xd8;" horiz-adv-x="1594" d="M384 291L1151 1150L1196 1198L1337 1352H1492L1275 1115L1215 1061L448 202L404 155L262 0H108L325 237L384 291ZM800 1374Q953 1374 1079 1324T1296 1181T1437 961T1487 678Q1487 523 1437 395T1294 174T1074
29T793 -22Q641 -22 515 28T298 171T156 392T106 674Q106 829 156 957T300 1179T520 1323T800 1374ZM805 97Q945 97 1045 161T1201 346T1256 638Q1256 837 1198 974T1034 1183T788 1255Q649 1255 548 1191T393 1006T338 715Q338 517 396 379T560 169T805 97Z" />
<glyph unicode="&#xd9;" horiz-adv-x="1550" d="M1219 506V1247L1056 1300V1352H1497V1300L1337 1247V520Q1337 345 1273 224T1087 41T789 -22Q602 -22 473 40T278 228T212 540V1247L52 1300V1352H590V1300L430 1247V536Q430 401 474 312T606 178T825 134Q953
134 1040 176T1173 302T1219 506ZM860 1487H778L493 1714V1742H742L860 1487Z" />
<glyph unicode="&#xda;" horiz-adv-x="1550" d="M1219 506V1247L1056 1300V1352H1497V1300L1337 1247V520Q1337 345 1273 224T1087 41T789 -22Q602 -22 473 40T278 228T212 540V1247L52 1300V1352H590V1300L430 1247V536Q430 401 474 312T606 178T825 134Q953
134 1040 176T1173 302T1219 506ZM768 1487L886 1742H1135V1714L850 1487H768Z" />
<glyph unicode="&#xdb;" horiz-adv-x="1550" d="M1219 506V1247L1056 1300V1352H1497V1300L1337 1247V520Q1337 345 1273 224T1087 41T789 -22Q602 -22 473 40T278 228T212 540V1247L52 1300V1352H590V1300L430 1247V536Q430 401 474 312T606 178T825 134Q953
134 1040 176T1173 302T1219 506ZM796 1629H832L612 1487H505L723 1742H905L1123 1487H1016L796 1629Z" />
<glyph unicode="&#xdc;" horiz-adv-x="1550" d="M1219 506V1247L1056 1300V1352H1497V1300L1337 1247V520Q1337 345 1273 224T1087 41T789 -22Q602 -22 473 40T278 228T212 540V1247L52 1300V1352H590V1300L430 1247V536Q430 401 474 312T606 178T825 134Q953
134 1040 176T1173 302T1219 506ZM614 1498Q560 1498 527 1531T494 1615Q494 1665 527 1698T614 1731Q669 1731 702 1698T735 1615Q735 1565 702 1532T614 1498ZM1014 1498Q959 1498 926 1531T893 1615Q893 1665 926 1698T1014 1731Q1069 1731 1101 1698T1134 1615Q1134
1565 1102 1532T1014 1498Z" />
<glyph unicode="&#xdd;" horiz-adv-x="1404" d="M138 1246L-11 1300V1352H572V1300L405 1248L826 649L759 650L1107 1248L943 1300V1352H1392V1300L1244 1248L834 590V105L994 52V0H456V52L616 105V584L138 1246ZM690 1487L808 1742H1057V1714L772 1487H690Z" />
<glyph unicode="&#xde;" horiz-adv-x="1286" d="M986 695Q986 783 950 844T832 937T608 969H308L311 1086H696Q881 1086 994 1036T1158 900T1210 704Q1210 594 1158 503T993 357T702 303H310L308 419H697Q782 419 847 450T949 542T986 695ZM623 52V0H84V52L244
105V1247L84 1300V1352H623V1300L463 1247V105L623 52Z" />
<glyph unicode="&#xdf;" horiz-adv-x="1287" d="M212 909Q212 1044 253 1142T366 1305T533 1400T735 1432Q825 1432 894 1414T1009 1362T1078 1284T1102 1187Q1102 1123 1072 1077T998 996T909 927T834 857T804 767Q804 721 834 692T912 639T1013 591T1113 529T1191
435T1221 289Q1221 192 1176 123T1052 16T869 -21Q804 -21 745 -12T635 18L594 272H661L794 16L662 100Q719 74 761 68T844 62Q944 62 1000 104T1056 230Q1056 293 1026 332T949 396T847 445T746 498T668 575T638 698Q638 764 666 811T737 897T821 971T891 1052T920
1156Q920 1205 895 1245T820 1310T695 1335Q602 1335 539 1299T443 1189T410 1006V96L522 48V0H67V48L212 96V909ZM227 893L212 742L37 783V823L227 893Z" />
<glyph unicode="&#xe0;" horiz-adv-x="948" d="M642 562L646 476Q532 453 460 428T349 376T295 319T280 250Q280 183 317 149T413 115Q459 115 496 137T556 194T578 273V639Q578 714 541 756T416 798Q381 798 343 790T270 767L320 824Q315 786 309 755T294 702T275
664Q259 643 233 634T175 624Q136 624 114 640T92 683Q92 718 125 756T216 827T345 880T495 901Q598 901 660 870T749 782T776 643V191Q776 161 785 141T811 111T855 101Q877 101 902 108T952 130V70Q906 26 855 3T757 -20Q701 -20 662 4T604 74T582 185L590 192Q575
126 538 78T447 4T330 -22Q218 -22 150 37T81 209Q81 268 104 316T189 406T360 486T642 562ZM508 1031H426L109 1332V1361H353L508 1031Z" />
<glyph unicode="&#xe1;" horiz-adv-x="948" d="M642 562L646 476Q532 453 460 428T349 376T295 319T280 250Q280 183 317 149T413 115Q459 115 496 137T556 194T578 273V639Q578 714 541 756T416 798Q381 798 343 790T270 767L320 824Q315 786 309 755T294 702T275
664Q259 643 233 634T175 624Q136 624 114 640T92 683Q92 718 125 756T216 827T345 880T495 901Q598 901 660 870T749 782T776 643V191Q776 161 785 141T811 111T855 101Q877 101 902 108T952 130V70Q906 26 855 3T757 -20Q701 -20 662 4T604 74T582 185L590 192Q575
126 538 78T447 4T330 -22Q218 -22 150 37T81 209Q81 268 104 316T189 406T360 486T642 562ZM384 1031L539 1361H783V1332L466 1031H384Z" />
<glyph unicode="&#xe2;" horiz-adv-x="948" d="M642 562L646 476Q532 453 460 428T349 376T295 319T280 250Q280 183 317 149T413 115Q459 115 496 137T556 194T578 273V639Q578 714 541 756T416 798Q381 798 343 790T270 767L320 824Q315 786 309 755T294 702T275
664Q259 643 233 634T175 624Q136 624 114 640T92 683Q92 718 125 756T216 827T345 880T495 901Q598 901 660 870T749 782T776 643V191Q776 161 785 141T811 111T855 101Q877 101 902 108T952 130V70Q906 26 855 3T757 -20Q701 -20 662 4T604 74T582 185L590 192Q575
126 538 78T447 4T330 -22Q218 -22 150 37T81 209Q81 268 104 316T189 406T360 486T642 562ZM145 1031L355 1361H537L747 1031H652L421 1237H471L240 1031H145Z" />
<glyph unicode="&#xe3;" horiz-adv-x="948" d="M642 562L646 476Q532 453 460 428T349 376T295 319T280 250Q280 183 317 149T413 115Q459 115 496 137T556 194T578 273V639Q578 714 541 756T416 798Q381 798 343 790T270 767L320 824Q315 786 309 755T294 702T275
664Q259 643 233 634T175 624Q136 624 114 640T92 683Q92 718 125 756T216 827T345 880T495 901Q598 901 660 870T749 782T776 643V191Q776 161 785 141T811 111T855 101Q877 101 902 108T952 130V70Q906 26 855 3T757 -20Q701 -20 662 4T604 74T582 185L590 192Q575
126 538 78T447 4T330 -22Q218 -22 150 37T81 209Q81 268 104 316T189 406T360 486T642 562ZM736 1347Q717 1230 697 1162T646 1065T565 1035Q522 1035 488 1059T426 1116T371 1174T316 1199Q300 1199 287 1187T262 1142T237 1044H155Q173 1162 193 1230T245 1327T325
1356Q369 1356 403 1332T465 1275T519 1217T574 1192Q591 1192 604 1204T629 1249T654 1347H736Z" />
<glyph unicode="&#xe4;" horiz-adv-x="948" d="M642 562L646 476Q532 453 460 428T349 376T295 319T280 250Q280 183 317 149T413 115Q459 115 496 137T556 194T578 273V639Q578 714 541 756T416 798Q381 798 343 790T270 767L320 824Q315 786 309 755T294 702T275
664Q259 643 233 634T175 624Q136 624 114 640T92 683Q92 718 125 756T216 827T345 880T495 901Q598 901 660 870T749 782T776 643V191Q776 161 785 141T811 111T855 101Q877 101 902 108T952 130V70Q906 26 855 3T757 -20Q701 -20 662 4T604 74T582 185L590 192Q575
126 538 78T447 4T330 -22Q218 -22 150 37T81 209Q81 268 104 316T189 406T360 486T642 562ZM252 1079Q197 1079 164 1112T131 1196Q131 1246 164 1279T252 1313Q306 1313 339 1280T372 1196Q372 1146 339 1113T252 1079ZM641 1079Q586 1079 553 1112T520 1196Q520
1246 553 1279T641 1313Q696 1313 728 1280T761 1196Q761 1146 729 1113T641 1079Z" />
<glyph unicode="&#xe5;" horiz-adv-x="948" d="M642 562L646 476Q532 453 460 428T349 376T295 319T280 250Q280 183 317 149T413 115Q459 115 496 137T556 194T578 273V639Q578 714 541 756T416 798Q381 798 343 790T270 767L320 824Q315 786 309 755T294 702T275
664Q259 643 233 634T175 624Q136 624 114 640T92 683Q92 718 125 756T216 827T345 880T495 901Q598 901 660 870T749 782T776 643V191Q776 161 785 141T811 111T855 101Q877 101 902 108T952 130V70Q906 26 855 3T757 -20Q701 -20 662 4T604 74T582 185L590 192Q575
126 538 78T447 4T330 -22Q218 -22 150 37T81 209Q81 268 104 316T189 406T360 486T642 562ZM446 1376Q525 1376 576 1326T627 1196Q627 1118 576 1068T446 1017Q367 1017 316 1067T264 1196Q264 1275 315 1325T446 1376ZM446 1081Q496 1081 527 1113T559 1196Q559
1248 528 1280T446 1313Q395 1313 364 1281T332 1196Q332 1146 363 1114T446 1081Z" />
<glyph unicode="&#xe6;" horiz-adv-x="1445" d="M435 798Q396 798 352 791T269 767L319 824Q314 786 308 755T293 702T273 664Q257 643 231 634T174 624Q134 624 112 640T90 683Q90 718 125 756T221 827T357 880T514 901Q597 901 650 880T732 820T773 725H683Q727
808 813 857T1006 907Q1123 907 1201 857T1322 711T1374 476H749V560L1257 581L1170 556Q1165 638 1144 694T1085 780T990 810Q930 810 885 776T815 670T790 488Q790 373 829 294T940 172T1113 130Q1156 130 1196 139T1276 167T1352 212L1375 165Q1319 103 1259
61T1135 -1T999 -22Q899 -22 819 14T684 118T600 279H632Q621 175 580 109T477 10T334 -22Q221 -22 150 37T79 209Q79 264 101 310T184 398T360 478T661 558L665 476Q536 450 459 423T342 369T291 313T278 250Q278 183 315 149T412 115Q465 115 507 136T573 198T597
301V639Q597 714 560 756T435 798Z" />
<glyph unicode="&#xe7;" horiz-adv-x="896" d="M585 907Q679 907 735 887T815 835T839 772Q839 740 825 716T786 677T730 663Q703 663 679 677T631 713T585 755T538 790T486 805Q430 805 380 774T298 677T266 510Q266 389 305 304T416 175T588 131Q649 131 706
151T821 213L844 165Q787 101 730 60T613 -2T488 -22Q365 -22 272 34T126 191T74 420Q74 522 108 610T207 765T368 869T585 907ZM388 -519Q310 -519 277 -493T243 -433Q243 -408 259 -393T299 -378Q324 -378 342 -394T382 -426T437 -443Q483 -443 510 -420T538
-354Q538 -322 518 -299T448 -260T308 -230V-212L503 46H591L401 -213L399 -115Q498 -132 552 -160T628 -223T650 -302Q650 -366 615 -415T520 -491T388 -519Z" />
<glyph unicode="&#xe8;" horiz-adv-x="942" d="M503 907Q616 907 694 859T817 719T871 495H226V579L751 600L667 556Q662 638 641 694T582 780T487 810Q421 810 372 776T295 670T267 488Q267 373 308 294T427 172T609 130Q653 130 693 139T773 167T849 212L872
165Q817 105 759 63T637 0T505 -22Q377 -22 280 35T129 195T74 429Q74 563 125 671T273 843T503 907ZM553 1031H471L154 1332V1361H398L553 1031Z" />
<glyph unicode="&#xe9;" horiz-adv-x="942" d="M503 907Q616 907 694 859T817 719T871 495H226V579L751 600L667 556Q662 638 641 694T582 780T487 810Q421 810 372 776T295 670T267 488Q267 373 308 294T427 172T609 130Q653 130 693 139T773 167T849 212L872
165Q817 105 759 63T637 0T505 -22Q377 -22 280 35T129 195T74 429Q74 563 125 671T273 843T503 907ZM429 1031L584 1361H828V1332L511 1031H429Z" />
<glyph unicode="&#xea;" horiz-adv-x="942" d="M503 907Q616 907 694 859T817 719T871 495H226V579L751 600L667 556Q662 638 641 694T582 780T487 810Q421 810 372 776T295 670T267 488Q267 373 308 294T427 172T609 130Q653 130 693 139T773 167T849 212L872
165Q817 105 759 63T637 0T505 -22Q377 -22 280 35T129 195T74 429Q74 563 125 671T273 843T503 907ZM190 1031L400 1361H582L792 1031H697L466 1237H516L285 1031H190Z" />
<glyph unicode="&#xeb;" horiz-adv-x="942" d="M503 907Q616 907 694 859T817 719T871 495H226V579L751 600L667 556Q662 638 641 694T582 780T487 810Q421 810 372 776T295 670T267 488Q267 373 308 294T427 172T609 130Q653 130 693 139T773 167T849 212L872
165Q817 105 759 63T637 0T505 -22Q377 -22 280 35T129 195T74 429Q74 563 125 671T273 843T503 907ZM297 1079Q242 1079 209 1112T176 1196Q176 1246 209 1279T297 1313Q351 1313 384 1280T417 1196Q417 1146 384 1113T297 1079ZM686 1079Q631 1079 598 1112T565
1196Q565 1246 598 1279T686 1313Q741 1313 773 1280T806 1196Q806 1146 774 1113T686 1079Z" />
<glyph unicode="&#xec;" horiz-adv-x="582" d="M410 907L401 718V96L547 48V0H58V48L203 96V695Q192 708 168 723T115 754T55 781V820L376 907H410ZM356 1031H274L-43 1332V1361H201L356 1031Z" />
<glyph unicode="&#xed;" horiz-adv-x="582" d="M410 907L401 718V96L547 48V0H58V48L203 96V695Q192 708 168 723T115 754T55 781V820L376 907H410ZM232 1031L387 1361H631V1332L314 1031H232Z" />
<glyph unicode="&#xee;" horiz-adv-x="582" d="M410 907L401 718V96L547 48V0H58V48L203 96V695Q192 708 168 723T115 754T55 781V820L376 907H410ZM-7 1031L203 1361H385L595 1031H500L269 1237H319L88 1031H-7Z" />
<glyph unicode="&#xef;" horiz-adv-x="582" d="M410 907L401 718V96L547 48V0H58V48L203 96V695Q192 708 168 723T115 754T55 781V820L376 907H410ZM100 1079Q45 1079 12 1112T-21 1196Q-21 1246 12 1279T100 1313Q154 1313 187 1280T220 1196Q220 1146 187 1113T100
1079ZM489 1079Q434 1079 401 1112T368 1196Q368 1246 401 1279T489 1313Q544 1313 576 1280T609 1196Q609 1146 577 1113T489 1079Z" />
<glyph unicode="&#xf0;" horiz-adv-x="1088" d="M528 -22Q391 -22 289 35T130 194T74 430Q74 568 132 673T291 839T517 899Q570 899 617 885T704 844T773 780T820 694L790 669Q784 822 747 932T637 1120T450 1253T172 1349L197 1431Q386 1395 522 1338T749 1201T894
1020T970 797T993 530Q993 345 935 223T772 39T528 -22ZM536 77Q608 77 663 111T749 219T780 410Q780 539 751 626T666 757T532 802Q459 802 404 768T318 659T287 468Q287 340 316 253T402 122T536 77ZM377 978L323 1053L850 1433L904 1357L377 978Z" />
<glyph unicode="&#xf1;" horiz-adv-x="1171" d="M399 712V94L539 48V0H56V48L202 96V681Q184 701 150 720T54 765V798L329 907H357L399 712ZM664 48L804 94V574Q804 627 784 663T721 719T615 738Q543 738 480 715T384 657L348 695Q412 759 462 800T557 864T647
897T742 907Q875 907 938 828T1002 582V96L1149 48V0H664V48ZM895 1347Q876 1230 856 1162T805 1065T724 1035Q681 1035 647 1059T585 1116T530 1174T475 1199Q459 1199 446 1187T421 1142T396 1044H314Q332 1162 352 1230T404 1327T484 1356Q528 1356 562 1332T624
1275T678 1217T733 1192Q750 1192 763 1204T788 1249T813 1347H895Z" />
<glyph unicode="&#xf2;" horiz-adv-x="1067" d="M535 77Q608 77 663 112T749 221T780 413Q780 543 750 630T665 762T531 807Q459 807 404 773T318 664T287 471Q287 343 316 255T402 122T535 77ZM528 -22Q391 -22 289 35T130 195T74 433Q74 572 133 679T297 846T539
907Q677 907 778 850T936 690T993 452Q993 313 934 206T770 39T528 -22ZM596 1031H514L197 1332V1361H441L596 1031Z" />
<glyph unicode="&#xf3;" horiz-adv-x="1067" d="M535 77Q608 77 663 112T749 221T780 413Q780 543 750 630T665 762T531 807Q459 807 404 773T318 664T287 471Q287 343 316 255T402 122T535 77ZM528 -22Q391 -22 289 35T130 195T74 433Q74 572 133 679T297 846T539
907Q677 907 778 850T936 690T993 452Q993 313 934 206T770 39T528 -22ZM472 1031L627 1361H871V1332L554 1031H472Z" />
<glyph unicode="&#xf4;" horiz-adv-x="1067" d="M535 77Q608 77 663 112T749 221T780 413Q780 543 750 630T665 762T531 807Q459 807 404 773T318 664T287 471Q287 343 316 255T402 122T535 77ZM528 -22Q391 -22 289 35T130 195T74 433Q74 572 133 679T297 846T539
907Q677 907 778 850T936 690T993 452Q993 313 934 206T770 39T528 -22ZM233 1031L443 1361H625L835 1031H740L509 1237H559L328 1031H233Z" />
<glyph unicode="&#xf5;" horiz-adv-x="1067" d="M535 77Q608 77 663 112T749 221T780 413Q780 543 750 630T665 762T531 807Q459 807 404 773T318 664T287 471Q287 343 316 255T402 122T535 77ZM528 -22Q391 -22 289 35T130 195T74 433Q74 572 133 679T297 846T539
907Q677 907 778 850T936 690T993 452Q993 313 934 206T770 39T528 -22ZM824 1347Q805 1230 785 1162T734 1065T653 1035Q610 1035 576 1059T514 1116T459 1174T404 1199Q388 1199 375 1187T350 1142T325 1044H243Q261 1162 281 1230T333 1327T413 1356Q457 1356
491 1332T553 1275T607 1217T662 1192Q679 1192 692 1204T717 1249T742 1347H824Z" />
<glyph unicode="&#xf6;" horiz-adv-x="1067" d="M535 77Q608 77 663 112T749 221T780 413Q780 543 750 630T665 762T531 807Q459 807 404 773T318 664T287 471Q287 343 316 255T402 122T535 77ZM528 -22Q391 -22 289 35T130 195T74 433Q74 572 133 679T297 846T539
907Q677 907 778 850T936 690T993 452Q993 313 934 206T770 39T528 -22ZM340 1079Q285 1079 252 1112T219 1196Q219 1246 252 1279T340 1313Q394 1313 427 1280T460 1196Q460 1146 427 1113T340 1079ZM729 1079Q674 1079 641 1112T608 1196Q608 1246 641 1279T729
1313Q784 1313 816 1280T849 1196Q849 1146 817 1113T729 1079Z" />
<glyph unicode="&#xf7;" horiz-adv-x="1023" d="M512 248Q565 248 599 214T633 129Q633 78 599 44T512 9Q458 9 424 43T390 129Q390 180 424 214T512 248ZM512 890Q565 890 599 856T633 770Q633 720 599 686T512 651Q458 651 424 685T390 770Q390 821 424 855T512
890ZM136 505H887V395H136V505Z" />
<glyph unicode="&#xf8;" horiz-adv-x="1104" d="M66 0L235 179L275 204L765 744L804 779L903 885H1040L874 710L834 684L343 143L304 108L202 0H66ZM555 77Q628 77 683 112T768 221T799 413Q799 543 770 630T685 762T551 807Q478 807 423 773T337 664T306 471Q306
343 336 255T421 122T555 77ZM548 -22Q410 -22 308 35T150 195T94 433Q94 572 153 679T317 846T558 907Q696 907 798 850T956 690T1012 452Q1012 313 953 206T789 39T548 -22Z" />
<glyph unicode="&#xf9;" horiz-adv-x="1106" d="M367 299Q367 243 383 210T437 162T542 147Q604 147 663 168T754 221L789 178Q729 118 682 79T593 18T511 -13T422 -22Q293 -22 232 55T170 287V765L26 829V881L379 900L367 775V299ZM762 -18L734 171V769L601 830V881L945
899L932 773V166Q942 157 958 146T993 125T1032 107T1069 95V59L789 -18H762ZM593 1031H511L194 1332V1361H438L593 1031Z" />
<glyph unicode="&#xfa;" horiz-adv-x="1106" d="M367 299Q367 243 383 210T437 162T542 147Q604 147 663 168T754 221L789 178Q729 118 682 79T593 18T511 -13T422 -22Q293 -22 232 55T170 287V765L26 829V881L379 900L367 775V299ZM762 -18L734 171V769L601 830V881L945
899L932 773V166Q942 157 958 146T993 125T1032 107T1069 95V59L789 -18H762ZM469 1031L624 1361H868V1332L551 1031H469Z" />
<glyph unicode="&#xfb;" horiz-adv-x="1106" d="M367 299Q367 243 383 210T437 162T542 147Q604 147 663 168T754 221L789 178Q729 118 682 79T593 18T511 -13T422 -22Q293 -22 232 55T170 287V765L26 829V881L379 900L367 775V299ZM762 -18L734 171V769L601 830V881L945
899L932 773V166Q942 157 958 146T993 125T1032 107T1069 95V59L789 -18H762ZM230 1031L440 1361H622L832 1031H737L506 1237H556L325 1031H230Z" />
<glyph unicode="&#xfc;" horiz-adv-x="1106" d="M367 299Q367 243 383 210T437 162T542 147Q604 147 663 168T754 221L789 178Q729 118 682 79T593 18T511 -13T422 -22Q293 -22 232 55T170 287V765L26 829V881L379 900L367 775V299ZM762 -18L734 171V769L601 830V881L945
899L932 773V166Q942 157 958 146T993 125T1032 107T1069 95V59L789 -18H762ZM337 1079Q282 1079 249 1112T216 1196Q216 1246 249 1279T337 1313Q391 1313 424 1280T457 1196Q457 1146 424 1113T337 1079ZM726 1079Q671 1079 638 1112T605 1196Q605 1246 638 1279T726
1313Q781 1313 813 1280T846 1196Q846 1146 814 1113T726 1079Z" />
<glyph unicode="&#xfd;" horiz-adv-x="1075" d="M644 158L536 -61L133 784L7 832V885H478V832L350 791L644 158ZM244 -519Q181 -519 143 -487T104 -398Q104 -369 115 -347T145 -313T181 -300Q200 -300 220 -308T263 -325T314 -333Q343 -333 366 -322T411 -281T456
-201L560 50L605 162L839 795L713 832V885H1057V832L952 795L553 -205Q504 -327 459 -395T362 -491T244 -519ZM512 1031L667 1361H911V1332L594 1031H512Z" />
<glyph unicode="&#xfe;" horiz-adv-x="1107" d="M141 1206Q127 1222 104 1238T49 1271T-22 1304V1342L323 1432H353L339 1247V277Q339 219 366 174T444 105T562 80Q642 80 698 121T785 242T816 435Q816 600 743 685T548 770Q497 770 449 762T358 736T276 692L270
770Q329 806 380 832T477 874T562 899T636 907Q765 907 853 854T986 706T1032 487Q1032 329 967 215T792 40T552 -22Q495 -22 444 -9T344 30T247 91H339V-400L504 -449V-497H-5V-449L141 -401V1206Z" />
<glyph unicode="&#xff;" horiz-adv-x="1075" d="M644 158L536 -61L133 784L7 832V885H478V832L350 791L644 158ZM244 -519Q181 -519 143 -487T104 -398Q104 -369 115 -347T145 -313T181 -300Q200 -300 220 -308T263 -325T314 -333Q343 -333 366 -322T411 -281T456
-201L560 50L605 162L839 795L713 832V885H1057V832L952 795L553 -205Q504 -327 459 -395T362 -491T244 -519ZM380 1079Q325 1079 292 1112T259 1196Q259 1246 292 1279T380 1313Q434 1313 467 1280T500 1196Q500 1146 467 1113T380 1079ZM769 1079Q714 1079 681
1112T648 1196Q648 1246 681 1279T769 1313Q824 1313 856 1280T889 1196Q889 1146 857 1113T769 1079Z" />
<glyph unicode="&#x2013;" horiz-adv-x="1030" d="M105 507H926V397H105V507Z" />
<glyph unicode="&#x2014;" horiz-adv-x="1360" d="M105 507H1256V397H105V507Z" />
<glyph unicode="&#x2018;" horiz-adv-x="485" d="M407 1296Q309 1254 274 1212T238 1126Q238 1097 259 1076T308 1038T357 1008T378 978Q378 920 340 881T235 841Q169 841 126 885T83 1009Q83 1089 110 1152T201 1268T371 1369L407 1296Z" />
<glyph unicode="&#x2019;" horiz-adv-x="486" d="M90 911Q188 954 223 995T259 1081Q259 1111 238 1132T189 1169T140 1199T118 1229Q118 1288 157 1327T262 1366Q329 1366 371 1322T414 1198Q414 1119 387 1056T297 940T126 839L90 911Z" />
<glyph unicode="&#x201a;" horiz-adv-x="492" d="M67 -194Q165 -151 200 -110T236 -24Q236 6 215 27T166 64T117 94T95 124Q95 182 134 221T238 261Q306 261 348 217T391 93Q391 14 364 -49T274 -165T103 -267L67 -194Z" />
<glyph unicode="&#x201c;" horiz-adv-x="862" d="M407 1296Q309 1254 274 1212T238 1126Q238 1097 259 1076T308 1038T357 1008T378 978Q378 920 340 881T235 841Q169 841 126 885T83 1009Q83 1089 110 1152T201 1268T371 1369L407 1296ZM785 1296Q687 1254 652
1212T616 1126Q616 1097 637 1076T686 1038T735 1008T756 978Q756 920 718 881T613 841Q547 841 504 885T461 1009Q461 1089 488 1152T579 1268T749 1369L785 1296Z" />
<glyph unicode="&#x201d;" horiz-adv-x="864" d="M90 911Q188 954 223 995T259 1081Q259 1111 238 1132T189 1169T140 1199T118 1229Q118 1288 157 1327T262 1366Q329 1366 371 1322T414 1198Q414 1119 387 1056T297 940T126 839L90 911ZM468 911Q566 954 601
995T637 1081Q637 1111 616 1132T567 1169T518 1199T496 1229Q496 1288 535 1327T640 1366Q707 1366 749 1322T792 1198Q792 1119 765 1056T675 940T504 839L468 911Z" />
<glyph unicode="&#x201e;" horiz-adv-x="869" d="M67 -194Q165 -151 200 -110T236 -24Q236 6 215 27T166 64T117 94T95 124Q95 182 134 221T238 261Q306 261 348 217T391 93Q391 14 364 -49T274 -165T103 -267L67 -194ZM445 -194Q543 -151 578 -110T614 -24Q614
6 593 27T544 64T495 94T473 124Q473 182 512 221T616 261Q684 261 726 217T769 93Q769 14 742 -49T652 -165T481 -267L445 -194Z" />
<glyph unicode="&#x2022;" horiz-adv-x="832" d="M416 703Q491 703 549 670T640 581T673 452Q673 381 640 324T549 234T416 201Q341 201 283 234T192 324T159 452Q159 524 192 580T283 670T416 703Z" />
<glyph unicode="&#x2039;" horiz-adv-x="613" d="M251 523L532 71L476 24L63 414V480L476 870L532 823L251 371V523Z" />
<glyph unicode="&#x203a;" horiz-adv-x="649" d="M374 372L93 824L149 871L562 481V414L149 25L93 72L374 523V372Z" />
</font>
</defs>
</svg>
