<?xml version="1.0" standalone="no"?>
<!DOCTYPE svg PUBLIC "-//W3C//DTD SVG 1.1//EN" "http://www.w3.org/Graphics/SVG/1.1/DTD/svg11.dtd">
<svg xmlns="http://www.w3.org/2000/svg">
<defs >
<font id="Newsreader" horiz-adv-x="1042" ><font-face
    font-family="Newsreader 16pt 16pt Light"
    units-per-em="2000"
    panose-1="2 0 0 0 0 0 0 0 0 0"
    ascent="1470"
    descent="-530"
    alphabetic="0" />
<glyph unicode=" " horiz-adv-x="473" />
<glyph unicode="!" horiz-adv-x="511" d="M586 1332L563 1259Q557 1241 540 1193T499 1075T445 922T384 748T322 568T265 399H218Q241 479 265 568T312 747T358 921T398 1074T429 1192T448 1259L469 1333Q473 1346 480 1352T500 1362T533 1365Q554 1365 567 1362T585
1352T586 1332ZM165 181Q202 181 223 160T245 104Q245 72 231 45T190 2T128 -15Q91 -15 70 6T48 62Q48 94 63 121T104 165T165 181Z" />
<glyph unicode="&quot;" horiz-adv-x="589" d="M282 915L367 1312L379 1352H503L491 1312L330 915H282ZM534 915L619 1312L631 1352H755L743 1312L582 915H534Z" />
<glyph unicode="#" horiz-adv-x="1133" d="M1135 1352L436 0H369L1068 1352H1135ZM1438 1352L738 0H671L1371 1352H1438ZM1439 811H508L527 872H1458L1439 811ZM1271 488H337L356 550H1289L1271 488Z" />
<glyph unicode="$" horiz-adv-x="1133" d="M454 -197L988 1550H1052L519 -197H454ZM226 -197L759 1550H824L290 -197H226ZM440 34Q574 34 668 78T813 202T863 390Q862 473 825 524T730 610T607 675T483 743T389 839T352 991Q352 1069 382 1138T471 1260T616 1342T815
1372Q930 1372 1005 1348T1117 1289T1154 1217Q1154 1189 1137 1170T1089 1151Q1067 1151 1049 1167T1011 1209T963 1259T894 1301T789 1318Q673 1318 595 1279T478 1172T438 1020Q438 942 475 893T570 811T694 747T818 678T914 579T952 423Q952 322 914 241T805
101T638 11T423 -20Q298 -20 220 2T104 58T67 129Q67 149 75 165T97 190T132 199Q154 199 172 183T211 142T260 92T332 51T440 34Z" />
<glyph unicode="%" horiz-adv-x="1533" d="M140 0L1446 1352H1527L221 0H140ZM669 641Q722 641 770 674T857 762T926 885T971 1024T987 1158Q987 1242 956 1279T874 1316Q821 1316 774 1284T687 1196T618 1072T573 933T557 799Q557 715 587 678T669 641ZM878 1363Q940
1363 983 1337T1050 1260T1073 1139Q1073 1051 1044 956T961 779T833 646T666 594Q604 594 561 620T494 697T470 819Q470 906 499 1001T582 1178T711 1311T878 1363ZM1059 37Q1112 37 1160 70T1247 158T1316 281T1361 420T1377 554Q1377 638 1346 675T1264 712Q1211
712 1164 680T1077 592T1008 468T963 329T947 195Q947 111 977 74T1059 37ZM1268 759Q1330 759 1373 733T1440 656T1463 535Q1463 447 1434 352T1351 175T1223 42T1056 -10Q994 -10 951 16T884 93T860 215Q860 302 889 397T972 574T1101 707T1268 759Z" />
<glyph unicode="&amp;" horiz-adv-x="1343" d="M922 196L891 169Q817 97 743 56T595 -3T448 -20Q333 -20 256 20T139 133T100 298Q100 366 120 429T190 550T329 663T554 766L605 786Q738 844 813 903T918 1026T949 1158Q949 1232 906 1276T774 1320Q693 1320 636
1289T549 1203T518 1076Q518 1014 536 952T598 815L1021 73L1211 34L1202 0H951L531 742Q494 807 473 859T442 956T432 1042Q432 1141 474 1215T594 1330T780 1372Q866 1372 923 1344T1008 1266T1037 1154Q1037 1077 999 1009T870 875T622 743L565 723Q421 666
342 603T231 469T199 320Q199 198 272 128T486 58Q575 58 670 88T861 208L890 234Q941 287 988 360T1081 531T1166 755L1016 787L1027 822H1418L1408 787L1251 755Q1171 558 1088 422T922 196Z" />
<glyph unicode="&apos;" horiz-adv-x="337" d="M282 915L367 1312L379 1352H503L491 1312L330 915H282Z" />
<glyph unicode="(" horiz-adv-x="533" d="M761 1397Q607 1243 497 1096T318 802T216 504T183 191Q183 121 191 49T216 -98T258 -252L215 -270Q173 -159 147 -63T108 118T95 280Q95 380 110 480T164 686T274 906T458 1151T731 1430L761 1397Z" />
<glyph unicode=")" horiz-adv-x="533" d="M-144 -237Q10 -83 120 64T299 358T402 656T435 969Q435 1040 427 1112T402 1259T359 1412L403 1430Q445 1319 471 1223T510 1043T522 881Q522 780 508 680T454 475T343 254T160 10T-114 -270L-144 -237Z" />
<glyph unicode="*" horiz-adv-x="802" d="M719 773L676 755L567 985L359 837L330 873L516 1047L309 1198L334 1237L558 1115L638 1357L683 1346L635 1095L891 1094L894 1048L641 1015L719 773Z" />
<glyph unicode="+" horiz-adv-x="1033" d="M374 82L598 816H664L440 82H374ZM162 479H895L875 415H142L162 479Z" />
<glyph unicode="," horiz-adv-x="388" d="M-149 -279Q-60 -222 -11 -176T57 -92T77 -22Q77 1 67 16T44 42T21 63T10 84Q10 108 23 130T61 166T118 180Q155 180 178 157T202 88Q202 46 186 0T133 -97T32 -203T-127 -318L-149 -279Z" />
<glyph unicode="-" horiz-adv-x="627" d="M139 497H522L494 403H111L139 497Z" />
<glyph unicode="." horiz-adv-x="405" d="M135 181Q173 181 194 160T216 104Q216 72 201 45T160 2T98 -15Q62 -15 40 6T18 62Q18 94 33 121T74 165T135 181Z" />
<glyph unicode="/" horiz-adv-x="789" d="M-49 0L896 1352H982L36 0H-49Z" />
<glyph unicode="0" horiz-adv-x="1133" d="M239 377Q239 203 297 121T469 38Q553 38 628 80T766 196T880 364T966 564T1020 775T1039 975Q1039 1149 980 1232T809 1315Q724 1315 650 1273T512 1156T398 988T312 788T258 578T239 377ZM814 1372Q920 1372 993 1324T1105
1184T1144 960Q1144 834 1113 698T1022 434T880 204T691 41T464 -20Q358 -20 284 28T172 169T134 393Q134 519 165 655T256 918T398 1148T586 1311T814 1372Z" />
<glyph unicode="1" horiz-adv-x="1133" d="M478 71L848 1281L876 1243L425 1109L414 1147L947 1372H977L579 70L820 34L809 0H189L199 34L478 71Z" />
<glyph unicode="2" horiz-adv-x="1133" d="M333 954L290 964Q351 1169 473 1270T757 1372Q855 1372 925 1335T1032 1232T1069 1079Q1069 1008 1048 943T975 807T834 649T607 446L135 48L149 93H769L723 78L944 339H979L801 -28H774L713 0H39L49 31L577 502Q697
608 771 689T886 832T941 946T956 1046Q956 1152 895 1216T720 1281Q600 1281 499 1210T333 954Z" />
<glyph unicode="3" horiz-adv-x="1133" d="M432 37Q518 37 594 69T728 160T819 301T852 482Q852 605 776 660T550 684L471 666L466 713Q640 762 743 817T890 941T935 1095Q935 1181 883 1236T727 1292Q617 1292 529 1229T386 1013L345 1025Q381 1140 440 1217T580
1333T758 1372Q850 1372 912 1340T1007 1251T1039 1121Q1039 1033 999 964T876 842T668 746L667 756Q765 761 831 729T930 636T964 496Q964 391 922 298T802 133T619 21T387 -20Q288 -20 218 -3T112 44T75 110Q75 140 94 158T145 176Q168 176 186 162T223 128T269
86T334 51T432 37Z" />
<glyph unicode="4" horiz-adv-x="1133" d="M915 1253L953 1255L138 482L144 526H957L1117 554L1032 440H48L60 479L993 1371H1052L654 68L825 34L814 0H341L352 34L553 69L915 1253Z" />
<glyph unicode="5" horiz-adv-x="1133" d="M612 1259L661 1301L426 845L438 900Q574 870 668 829T820 736T904 623T930 492Q930 387 889 294T772 131T587 20T345 -20Q215 -20 144 15T72 100Q72 130 91 149T141 168Q162 168 180 155T217 123T260 84T318 51T400
38Q499 38 579 70T715 159T802 292T833 457Q833 520 809 573T730 671T582 750T354 812L620 1352H963L1216 1391L1136 1259H612Z" />
<glyph unicode="6" horiz-adv-x="1133" d="M1176 1400L1187 1352Q964 1290 805 1207T541 1026T376 824T291 617T266 417Q266 215 336 125T532 35Q637 35 723 91T861 245T913 467Q913 576 854 642T670 709Q618 709 557 694T423 641T265 533L246 558Q332 627 399
671T522 741T626 777T724 788Q824 788 888 751T985 649T1017 503Q1017 392 978 297T871 130T716 20T529 -20Q410 -20 330 29T208 173T167 402Q167 518 195 632T290 855T472 1063T761 1248T1176 1400Z" />
<glyph unicode="7" horiz-adv-x="1300" d="M561 1259L628 1281L441 1005L408 1008L538 1380H558L625 1352H1355L1349 1333L489 0H365L1261 1290L1262 1259H561Z" />
<glyph unicode="8" horiz-adv-x="1133" d="M678 709L654 736Q854 787 941 882T1029 1099Q1029 1195 969 1256T780 1317Q681 1317 607 1282T493 1184T452 1042Q452 968 485 915T572 818T691 733Q740 702 789 669T879 594T946 499T971 375Q971 260 914 171T750 31T498
-20Q370 -20 282 18T147 125T101 288Q101 379 147 462T303 611T597 719L620 690Q458 650 368 590T241 457T204 306Q204 225 235 164T334 70T505 36Q610 36 693 73T824 179T872 347Q872 423 836 477T743 575T621 661Q573 693 527 726T444 800T385 892T363 1010Q363
1110 413 1192T558 1323T791 1373Q902 1373 976 1335T1087 1235T1125 1095Q1125 1001 1075 925T926 795T678 709Z" />
<glyph unicode="9" horiz-adv-x="1133" d="M111 -48L99 1Q319 62 475 144T735 324T898 526T981 733T1006 933Q1006 1068 970 1152T871 1277T722 1317Q624 1317 545 1270T420 1138T374 940Q374 813 439 739T629 663Q690 663 748 677T871 727T1012 826L1031 801Q955
740 895 699T782 632T682 597T581 586Q482 586 414 627T310 742T274 908Q274 1011 309 1096T406 1243T549 1338T724 1372Q846 1372 931 1321T1061 1174T1106 947Q1106 832 1078 717T984 494T805 286T520 103T111 -48Z" />
<glyph unicode=":" horiz-adv-x="463" d="M143 181Q181 181 202 160T224 104Q224 72 209 45T168 2T107 -15Q70 -15 48 6T26 62Q26 94 41 121T82 165T143 181ZM355 893Q393 893 414 871T435 815Q435 783 421 757T380 714T318 697Q282 697 260 718T238 774Q238 806
253 833T294 876T355 893Z" />
<glyph unicode=";" horiz-adv-x="496" d="M-111 -279Q-22 -222 27 -176T95 -92T114 -22Q114 1 104 16T81 42T58 63T48 84Q48 108 61 130T98 166T156 180Q193 180 216 157T239 88Q239 46 223 0T170 -97T69 -203T-89 -318L-111 -279ZM378 893Q415 893 436 871T458
815Q458 783 444 757T403 714T341 697Q304 697 283 718T261 774Q261 806 275 833T316 876T378 893Z" />
<glyph unicode="&lt;" horiz-adv-x="1033" d="M127 431L134 453L841 66L821 0L59 420L75 476L1095 898L1070 818L127 431Z" />
<glyph unicode="=" horiz-adv-x="1033" d="M215 653H948L928 589H195L215 653ZM110 311H843L823 247H90L110 311Z" />
<glyph unicode="&gt;" horiz-adv-x="1033" d="M911 467L904 445L197 832L217 898L979 477L963 421L-57 0L-32 80L911 467Z" />
<glyph unicode="?" horiz-adv-x="883" d="M286 181Q323 181 344 160T366 104Q366 72 352 45T311 2T249 -15Q212 -15 191 6T169 62Q169 94 184 121T225 165T286 181ZM517 1372Q603 1372 677 1342T806 1259T893 1134T925 982Q925 872 878 792T717 672T409 646L477
719L368 398H330L401 739Q572 725 671 753T814 847T857 1006Q857 1089 823 1154T731 1258T605 1297Q554 1297 520 1287T463 1262T420 1237T379 1226Q349 1226 333 1241T316 1280Q316 1305 333 1326T393 1359T517 1372Z" />
<glyph unicode="@" horiz-adv-x="1826" d="M1322 254Q1406 254 1480 296T1612 415T1702 597T1735 828Q1735 941 1698 1038T1587 1208T1406 1322T1155 1363Q980 1363 834 1312T573 1170T380 957T260 694T219 400Q219 217 293 85T509 -120T851 -192Q955 -192 1059
-174T1268 -116T1473 -16L1497 -60Q1402 -119 1297 -162T1076 -229T834 -253Q619 -253 458 -178T208 42T119 393Q119 555 167 706T305 988T524 1215T812 1367T1161 1421Q1372 1421 1519 1348T1743 1145T1821 849Q1821 710 1781 592T1670 387T1507 252T1311 203Q1207
203 1156 249T1104 377Q1104 402 1108 431T1122 492L1140 557H1151Q1085 453 1029 384T925 275T834 218T753 201Q665 201 623 251T580 391Q580 465 607 549T684 716T797 865T937 972T1093 1012Q1154 1012 1195 986T1268 909L1246 879Q1220 922 1185 941T1105 961Q1043
961 983 923T871 822T779 685T717 535T695 398Q695 339 720 308T797 277Q834 277 886 307T994 396T1103 542T1193 743L1249 914L1280 999H1380L1234 556Q1215 499 1206 454T1197 376Q1197 310 1231 282T1322 254Z" />
<glyph unicode="A" horiz-adv-x="1337" d="M398 531L419 594H1008L987 531H398ZM1081 68L1232 34L1221 0H786L797 34L976 68L881 1259H918L134 67L289 34L278 0H-126L-116 34L55 68L920 1370H971L1081 68Z" />
<glyph unicode="B" horiz-adv-x="1177" d="M571 1287L590 1352H832Q957 1352 1032 1317T1140 1223T1174 1093Q1174 997 1131 917T1001 784T788 715V727Q929 712 998 638T1067 454Q1067 326 1004 223T815 60T499 0H177L199 65H469Q634 65 742 112T903 248T957 459Q957
563 889 625T656 687H386L410 752H680Q807 752 894 795T1026 914T1071 1087Q1071 1152 1042 1196T953 1264T799 1287H571ZM507 1282L350 1318L360 1352H634L221 0H-48L-38 35L136 70L507 1282Z" />
<glyph unicode="C" horiz-adv-x="1338" d="M1069 116L992 57L1201 336H1243L1122 48Q1037 17 929 -1T727 -20Q549 -20 423 42T231 221T164 506Q164 653 205 783T324 1021T511 1208T756 1329T1048 1372Q1108 1372 1162 1366T1268 1348T1370 1315L1312 1318L1414
1404H1435L1365 954H1324L1289 1270L1344 1203Q1270 1261 1189 1283T1012 1306Q875 1306 760 1266T557 1153T406 982T312 768T280 525Q280 364 334 257T490 97T728 43Q814 43 903 59T1069 116Z" />
<glyph unicode="D" horiz-adv-x="1430" d="M475 65Q645 65 778 105T1008 217T1168 387T1262 599T1293 839Q1293 989 1237 1088T1064 1237T760 1287H534L565 1352H803Q1011 1352 1144 1294T1343 1122T1408 846Q1408 665 1348 511T1170 242T883 64T493 0H151L164
65H475ZM508 1285L349 1318L359 1352H634L221 0H-47L-36 34L136 68L508 1285Z" />
<glyph unicode="E" horiz-adv-x="1213" d="M508 1285L349 1318L359 1352H634L221 0H-47L-36 34L136 68L508 1285ZM1189 1311L1231 1287H532L554 1352H1214L1304 1399H1324L1254 999L1213 998L1189 1311ZM898 -54L835 0H140L162 65H896L819 39L1096 367L1131 354L921
-54H898ZM828 444H781L814 671L378 676L398 738L836 745L942 971H990L902 707L828 444Z" />
<glyph unicode="F" horiz-adv-x="1094" d="M979 936L891 672L817 409H770L803 636L370 641L390 704L825 710L931 936H979ZM1207 997H1166L1143 1311L1184 1287H532L554 1352H1167L1257 1399H1278L1207 997ZM242 68L401 34L390 0H-47L-36 34L136 68L508 1285L349
1318L359 1352H634L242 68Z" />
<glyph unicode="G" horiz-adv-x="1424" d="M728 43Q785 43 848 52T974 82T1087 133L1022 57L1170 544L977 577L988 612H1425L1414 577L1276 543L1151 133L1194 81L1190 69Q1122 42 1046 22T890 -9T728 -20Q550 -20 424 42T231 221T164 506Q164 653 205 783T323
1021T510 1208T754 1329T1046 1372Q1105 1372 1158 1366T1262 1348T1362 1315L1303 1318L1406 1404H1426L1356 954H1315L1281 1270L1335 1203Q1262 1260 1183 1283T1009 1306Q873 1306 759 1266T555 1153T405 982T312 768T280 526Q280 365 335 258T491 97T728 43Z"
/>
<glyph unicode="H" horiz-adv-x="1475" d="M351 661L371 726H1278L1258 661H351ZM508 1285L349 1318L359 1352H796L786 1318L613 1284L242 68L401 34L390 0H-47L-36 34L136 68L508 1285ZM1377 1285L1218 1318L1229 1352H1666L1655 1318L1483 1284L1111 68L1270
34L1260 0H823L833 34L1006 68L1377 1285Z" />
<glyph unicode="I" horiz-adv-x="606" d="M508 1285L349 1318L359 1352H796L786 1318L613 1284L242 68L401 34L390 0H-47L-36 34L136 68L508 1285Z" />
<glyph unicode="J" horiz-adv-x="733" d="M495 382Q465 283 419 208T315 83T190 8T46 -17Q-19 -17 -53 5T-88 63Q-88 90 -71 107T-25 125Q-12 125 2 115T33 91T73 68T127 58Q200 58 262 115T365 304L664 1285L505 1318L516 1352H953L942 1318L770 1284L495 382Z" />
<glyph unicode="K" horiz-adv-x="1325" d="M1062 67L1213 35L1203 0H780L790 32L942 65L573 673H393L414 737H589L1258 1285L1108 1318L1118 1352H1523L1513 1318L1349 1283L620 689L639 755L1062 67ZM508 1285L349 1318L359 1352H796L786 1318L613 1284L242 68L401
34L390 0H-47L-36 34L136 68L508 1285Z" />
<glyph unicode="L" horiz-adv-x="1109" d="M613 1284L221 0H-47L-36 34L136 68L508 1285L349 1318L359 1352H796L786 1318L613 1284ZM755 39L1013 366L1048 353L856 -54H833L771 0H153L175 65H832L755 39Z" />
<glyph unicode="M" horiz-adv-x="1819" d="M616 1275L172 69L330 34L319 0H-76L-65 34L107 70L553 1275L393 1318L404 1352H690L807 82L760 79L1659 1352H1720L1714 1326L763 -16H714L595 1261L616 1275ZM1682 1352H1951L1940 1318L1765 1281L1483 69L1640 34L1630
0H1195L1205 34L1378 70L1682 1352Z" />
<glyph unicode="N" horiz-adv-x="1446" d="M1080 115L1048 105L1410 1285L1251 1318L1261 1352H1659L1649 1318L1477 1284L1078 -19H1025L545 1280L576 1281L204 68L363 34L352 0H-45L-35 34L137 68L506 1274L345 1317L356 1352H626L1080 115Z" />
<glyph unicode="O" horiz-adv-x="1478" d="M275 486Q275 278 375 161T674 43Q773 43 861 75T1025 164T1159 298T1261 468T1325 661T1347 867Q1347 1074 1247 1191T948 1309Q849 1309 760 1278T597 1189T463 1054T361 885T297 692T275 486ZM1459 855Q1459 719 1422
591T1314 352T1147 158T929 27T670 -20Q504 -20 391 45T221 226T163 498Q163 633 200 761T307 1000T474 1195T692 1325T952 1372Q1118 1372 1231 1307T1401 1126T1459 855Z" />
<glyph unicode="P" horiz-adv-x="1133" d="M652 659Q774 659 863 688T1011 770T1098 895T1127 1052Q1127 1127 1094 1179T987 1259T790 1287H536L561 1352H837Q981 1352 1068 1315T1196 1212T1236 1060Q1236 965 1201 881T1094 732T917 631T668 594H329L346 659H652ZM242
68L401 34L390 0H-47L-36 34L136 68L508 1285L349 1318L359 1352H634L242 68Z" />
<glyph unicode="Q" horiz-adv-x="1477" d="M784 -258L353 69Q291 116 249 179T185 323T163 498Q163 633 200 761T307 1000T474 1195T692 1325T952 1372Q1118 1372 1231 1307T1401 1126T1459 855Q1459 708 1416 571T1292 320T1100 125T850 9T556 -2L536 29L922
-231Q989 -277 1039 -302T1132 -337T1214 -346T1302 -340L1292 -375Q1260 -384 1230 -390T1169 -400T1105 -404Q1057 -404 1015 -393T919 -350T784 -258ZM275 486Q275 278 375 161T674 43Q773 43 861 75T1025 164T1159 298T1261 468T1325 661T1347 867Q1347 1074
1247 1191T948 1309Q849 1309 760 1278T597 1189T463 1054T361 885T297 692T275 486Z" />
<glyph unicode="R" horiz-adv-x="1214" d="M673 720Q794 720 880 765T1013 890T1060 1073Q1060 1176 994 1231T782 1287H524L530 1352H800Q936 1352 1018 1320T1136 1228T1172 1082Q1172 971 1120 884T971 743T741 678V684Q804 680 838 658T890 591T923 473L981
193Q995 124 1012 92T1057 51T1136 42L1124 0Q1055 -4 1013 -1T947 18T908 68T882 161L820 472Q803 552 785 591T739 642T662 654H345L357 720H673ZM242 68L401 34L390 0H-47L-36 34L136 68L508 1285L349 1318L359 1352H634L242 68Z" />
<glyph unicode="S" horiz-adv-x="1033" d="M1012 1195Q944 1261 877 1288T726 1315Q616 1315 543 1279T435 1180T399 1039Q399 963 434 914T525 831T646 760Q711 726 772 684T872 579T911 415Q911 284 847 186T666 34T391 -20Q297 -20 229 -8T91 34L79 376H119L226
32L160 93Q214 62 273 52T396 41Q529 41 623 83T766 203T815 382Q815 454 790 503T722 586T631 647T535 698Q472 732 420 771T338 865T307 1004Q307 1105 357 1188T506 1322T752 1372Q834 1372 901 1358T1031 1313L973 1316L1074 1404H1096L1029 961H989L952 1277L1012
1195Z" />
<glyph unicode="T" horiz-adv-x="1232" d="M1351 1285H386L470 1301L258 982L221 994L386 1420H410L475 1339L422 1352H1360L1299 1339L1410 1420H1434L1351 987H1311L1297 1301L1351 1285ZM829 1320H934L552 68L711 34L701 0H264L274 34L447 68L829 1320Z" />
<glyph unicode="U" horiz-adv-x="1435" d="M361 540Q312 377 327 271T421 114T643 62Q769 62 868 104T1042 242T1164 496L1406 1285L1247 1318L1257 1352H1655L1645 1318L1472 1284L1224 471Q1171 294 1086 186T885 29T623 -20Q458 -20 356 39T226 226T261 555L484
1285L325 1318L335 1352H772L761 1318L589 1284L361 540Z" />
<glyph unicode="V" horiz-adv-x="1310" d="M400 1283L249 1318L259 1352H693L682 1318L504 1284L587 94H550L1319 1284L1162 1318L1172 1352H1578L1568 1318L1398 1284L549 -18H499L400 1283Z" />
<glyph unicode="W" horiz-adv-x="1809" d="M1818 1283L1661 1318L1672 1352H2074L2064 1318L1896 1283L1197 -17H1145L1126 1223L1162 1231L370 -17H319L412 1282L262 1318L272 1352H707L697 1318L517 1283L431 127L387 122L1174 1369H1226L1248 114L1189 98L1818 1283Z" />
<glyph unicode="X" horiz-adv-x="1343" d="M751 669L140 68L295 34L284 0H-122L-112 34L54 70L721 718L757 742L1303 1284L1148 1318L1159 1352H1565L1554 1318L1388 1283L786 691L751 669ZM956 68L719 664L711 684L470 1284L318 1318L329 1352H769L758 1318L581
1284L792 753L801 733L1066 69L1220 34L1209 0H769L780 34L956 68Z" />
<glyph unicode="Y" horiz-adv-x="1292" d="M1284 1286L1128 1318L1139 1352H1543L1533 1318L1364 1285L753 589L594 68L753 34L743 0H306L316 34L488 68L647 586L411 1284L259 1318L269 1352H708L698 1318L522 1284L742 619H706L1284 1286Z" />
<glyph unicode="Z" horiz-adv-x="1197" d="M1362 1352L1354 1324L128 42L116 65H826L1055 351L1093 343L914 -47H891L820 0H-21L-12 28L1210 1309L1237 1287H524L289 982L255 993L432 1410H455L525 1352H1362Z" />
<glyph unicode="[" horiz-adv-x="575" d="M-11 -250L496 1410H831L814 1354H573L100 -194H341L323 -250H-11Z" />
<glyph unicode="\" horiz-adv-x="734" d="M539 0H469L339 1352H409L539 0Z" />
<glyph unicode="]" horiz-adv-x="576" d="M672 1411L165 -250H-170L-152 -193H89L562 1354H321L338 1411H672Z" />
<glyph unicode="^" horiz-adv-x="1033" d="M780 1295H797L284 601H207L769 1352H828L934 601H869L780 1295Z" />
<glyph unicode="_" horiz-adv-x="780" d="M-200 -215H579L558 -284H-221L-200 -215Z" />
<glyph unicode="`" horiz-adv-x="1000" d="M722 1031H679L507 1344V1361H633L722 1031Z" />
<glyph unicode="a" horiz-adv-x="955" d="M538 59L655 395H667Q605 294 544 217T426 87T315 8T214 -19Q152 -19 111 4T50 71T29 179Q29 263 60 359T146 549T276 719T438 842T620 888Q694 888 736 855T808 765L774 726Q755 778 720 807T626 837Q548 837 476 793T341
676T233 518T161 349T135 200Q135 133 165 100T255 67Q309 67 374 108T503 219T621 378T703 561L780 810L843 881H897L622 41L600 72Q634 68 678 77T778 115T903 204L925 176Q813 64 732 22T593 -20Q547 -20 535 -2T538 59Z" />
<glyph unicode="b" horiz-adv-x="922" d="M193 299Q183 266 178 236T173 178Q173 108 208 69T313 30Q378 30 443 66T566 163T670 304T742 469T769 640Q769 722 736 766T636 810Q588 810 536 785T435 715T342 617T268 504T220 391L193 299ZM402 1313Q383 1321 358
1329T304 1346T246 1362L252 1385L507 1430H529L253 521L246 532Q321 657 395 738T540 860T680 901Q781 901 830 837T879 672Q879 567 846 466T756 277T626 122T473 18T312 -20Q200 -20 142 39T84 197Q84 225 89 254T103 314L402 1313Z" />
<glyph unicode="c" horiz-adv-x="732" d="M517 844Q453 844 391 799T277 676T195 496T164 279Q164 162 202 113T316 64Q365 64 412 84T506 153T601 288H644Q589 171 534 104T419 8T288 -20Q185 -20 124 43T63 241Q63 390 108 511T226 720T389 854T567 901Q655
901 698 869T742 792Q742 764 725 747T678 729Q667 729 653 747T618 788Q597 811 573 827T517 844Z" />
<glyph unicode="d" horiz-adv-x="965" d="M777 730Q758 781 723 810T630 840Q551 840 478 796T343 679T234 520T162 351T135 202Q135 135 165 101T255 67Q300 67 352 94T457 170T558 281T645 414T705 557L932 1313Q914 1321 889 1329T835 1346T778 1363L784 1385L1039
1430H1061L636 41L614 72Q648 68 692 77T793 115T918 204L940 176Q828 64 747 22T608 -20Q561 -20 551 -2T553 59L665 403H676Q613 301 551 222T430 90T317 9T214 -19Q152 -19 111 4T50 72T29 180Q29 265 60 361T147 552T278 722T441 845T623 891Q698 891 740 858T811
768L777 730Z" />
<glyph unicode="e" horiz-adv-x="771" d="M541 846Q483 846 428 816T324 732T240 607T184 452T163 279Q163 159 208 112T327 64Q375 64 422 82T518 149T617 288H662Q602 165 545 98T427 6T296 -20Q228 -20 175 7T91 92T61 241Q61 355 89 455T168 637T283 778T421
869T569 901Q635 901 676 879T737 819T757 735Q757 694 743 653T703 579Q645 556 582 533T450 488T308 445T158 402L161 451Q288 487 374 517T515 573T599 621T641 668T658 716Q661 753 651 781T615 828T541 846Z" />
<glyph unicode="f" horiz-adv-x="586" d="M117 819L126 881H695L685 819H117ZM281 115Q244 -64 195 -186T87 -381T-42 -486T-190 -519Q-275 -519 -317 -488T-359 -415Q-359 -387 -338 -368T-283 -348Q-273 -356 -261 -374T-227 -415Q-206 -437 -183 -446T-132
-456Q-86 -456 -45 -434T34 -357T104 -209T167 28L352 923Q389 1100 459 1212T628 1377T844 1430Q910 1430 953 1415T1017 1376T1038 1323Q1038 1294 1017 1276T958 1258Q945 1266 930 1289T891 1333Q869 1354 844 1363T783 1373Q708 1373 646 1336T539 1218T467
1011L281 115Z" />
<glyph unicode="g" horiz-adv-x="782" d="M840 782Q824 782 810 788T777 803T732 821T668 837T573 845L539 886Q629 875 690 878T794 887T869 893Q886 893 896 885T906 858Q906 843 901 830T886 806T865 789T840 782ZM320 302Q365 302 406 323T483 383T543 472T583
579T598 696Q598 778 570 816T482 855Q437 855 396 833T319 773T259 684T219 577T204 461Q204 378 233 340T320 302ZM487 901Q557 901 602 874T670 799T693 687Q693 608 666 531T587 392T467 293T315 256Q246 256 200 282T132 357T109 469Q109 549 136 625T215
764T335 863T487 901ZM242 -519Q154 -519 84 -505T-35 -462T-110 -394T-136 -300Q-136 -234 -97 -182T28 -93T251 -41L313 -37L334 -60Q239 -64 169 -82T54 -131T-14 -201T-37 -286Q-37 -343 -5 -384T90 -449T246 -472Q357 -472 431 -443T544 -367T582 -268Q582
-235 569 -209T524 -159T440 -114T308 -69Q214 -42 166 -14T100 44T83 106Q83 148 105 182T172 241T283 283L306 266Q229 249 197 219T165 156Q165 135 175 117T210 82T277 47T384 9Q494 -25 557 -62T645 -141T671 -235Q671 -295 642 -347T556 -437T421 -497T242
-519Z" />
<glyph unicode="h" horiz-adv-x="964" d="M199 261L120 0H25L416 1313Q398 1321 373 1329T319 1346T261 1363L267 1385L523 1430H545L242 440H234Q295 560 356 647T478 790T598 873T715 900Q797 900 832 865T868 769Q868 736 858 695T828 606L604 41L589 72Q624
70 667 79T765 118T889 205L912 178Q837 102 775 59T663 -2T574 -20Q522 -20 511 -1T519 69L742 630Q755 665 762 693T770 742Q770 779 749 797T681 815Q617 815 547 771T410 650T288 473T199 261Z" />
<glyph unicode="i" horiz-adv-x="543" d="M97 57L371 833L398 808Q363 810 318 798T217 751T90 650L66 677Q144 765 207 814T321 882T409 901Q454 901 465 883T462 824L187 41L163 72Q197 69 241 78T341 116T466 204L488 176Q414 101 353 58T242 -2T154 -20Q105
-20 94 -3T97 57ZM428 1331Q428 1358 440 1379T475 1413T526 1425Q569 1425 593 1400T618 1337Q618 1309 607 1288T573 1254T521 1241Q479 1241 454 1266T428 1331Z" />
<glyph unicode="j" horiz-adv-x="487" d="M416 1331Q416 1358 428 1379T462 1413T513 1425Q556 1425 580 1400T605 1337Q605 1309 594 1288T560 1254T508 1241Q466 1241 441 1266T416 1331ZM208 30Q151 -159 69 -281T-108 -461T-297 -519Q-355 -519 -384 -495T-413
-439Q-413 -408 -395 -388T-353 -368Q-346 -368 -334 -378T-302 -406Q-282 -423 -261 -432T-218 -441Q-178 -441 -138 -422T-57 -355T22 -224T100 -15L358 833L375 808Q342 809 298 795T200 747T78 648L55 675Q129 760 191 809T305 880T396 901Q426 901 440 894T455
869T449 824L208 30Z" />
<glyph unicode="k" horiz-adv-x="893" d="M544 1430L118 0H25L416 1313Q398 1321 373 1329T319 1346T261 1363L268 1386L522 1430H544ZM261 497L264 508Q371 622 454 697T604 817T726 881T829 900Q881 900 906 877T932 820Q932 793 919 772T886 740T843 729Q831
729 821 741T797 773Q784 792 770 802T741 812Q712 812 666 790T562 726T442 629T319 504L334 550Q392 398 434 302T505 153T557 80T599 60Q620 60 649 75T718 125T812 217L839 191Q769 108 719 63T632 0T561 -18Q532 -18 505 2T444 78T367 234T261 497Z" />
<glyph unicode="l" horiz-adv-x="491" d="M429 1313Q411 1321 386 1329T332 1346T274 1363L281 1385L536 1430H558L144 44L122 72Q157 69 201 78T300 116T423 204L446 176Q373 101 312 58T202 -2T114 -20Q67 -20 55 -3T55 58L429 1313Z" />
<glyph unicode="m" horiz-adv-x="1466" d="M1106 41L1091 72Q1125 70 1168 79T1267 118T1391 205L1413 178Q1338 102 1276 59T1164 -2T1075 -20Q1022 -20 1012 -1T1021 69L1245 634Q1258 667 1264 693T1270 741Q1270 778 1251 797T1191 816Q1134 816 1071 772T947
652T834 479T746 276L656 0H560L768 630Q776 653 781 672T788 709T790 740Q790 779 770 797T710 816Q655 816 594 772T473 652T363 475T277 262L198 0H102L346 808Q341 810 333 810T313 811Q270 811 232 792T157 734T86 634L60 645Q103 745 150 799T250 876T361
898Q378 898 395 896T427 891T455 884L316 440H307Q375 572 434 661T547 802T649 878T746 901Q819 901 850 869T882 780Q882 747 873 707T847 617L792 455H784Q849 581 908 667T1023 804T1131 878T1233 901Q1304 901 1337 867T1370 775Q1370 744 1361 705T1333
618L1106 41Z" />
<glyph unicode="n" d="M86 634L60 645Q103 745 150 799T250 876T361 898Q378 898 395 896T427 891T455 884L314 432H307Q369 554 431 642T554 788T675 872T793 900Q875 900 910 865T945 769Q945 736 935 695T905 606L682 41L667 72Q702 70 745 79T843 118T967
205L990 178Q915 102 853 59T741 -2T651 -20Q600 -20 589 -1T597 69L820 630Q833 665 840 693T847 742Q847 779 826 797T759 815Q695 815 625 771T489 651T367 474T277 262L198 0H102L346 808Q341 810 333 810T313 811Q270 811 232 792T157 734T86 634Z" />
<glyph unicode="o" horiz-adv-x="875" d="M554 901Q636 901 693 867T779 769T809 614Q809 494 773 381T671 178T516 34T321 -20Q239 -20 183 13T97 111T67 267Q67 387 103 500T204 703T359 847T554 901ZM320 31Q387 31 446 67T553 164T637 303T691 465T710 631Q710
745 672 797T555 849Q488 849 430 814T323 717T239 578T185 416T166 250Q166 136 204 84T320 31Z" />
<glyph unicode="p" horiz-adv-x="1011" d="M284 243Q278 220 276 204T274 175Q274 116 313 73T431 29Q490 29 549 61T662 151T758 284T824 445T849 620Q849 716 814 764T711 813Q659 813 609 786T513 713T428 609T360 487T316 362L284 243ZM198 105L249 111L102
-432L278 -465L267 -499H-156L-145 -465L6 -432L343 808Q339 810 332 810T312 811Q270 811 232 792T157 734T86 634L60 645Q103 745 150 800T249 876T358 898Q383 898 408 895T451 885L346 500L339 518Q408 658 480 741T621 863T750 901Q855 901 906 835T958 662Q958
557 930 457T851 271T733 119T587 17T423 -20Q338 -20 277 13T198 105Z" />
<glyph unicode="q" horiz-adv-x="902" d="M406 -432L657 394H668Q607 293 547 216T428 87T316 8T214 -19Q152 -19 111 4T50 71T29 179Q29 263 60 360T148 551T278 722T441 846T622 893Q697 893 736 859T804 766L776 732Q757 783 722 812T629 842Q551 842 478 797T343
679T234 520T161 350T135 201Q135 134 165 101T255 67Q310 67 375 107T504 216T620 371T700 551L772 792L802 881H893L501 -432L643 -465L632 -499H209L220 -465L406 -432Z" />
<glyph unicode="r" horiz-adv-x="738" d="M346 808Q341 810 333 810T313 811Q270 811 232 792T157 734T86 634L60 645Q103 745 150 799T250 876T361 898Q378 898 395 896T428 891T455 884L328 479H324Q392 617 462 710T602 852T740 900Q788 900 809 879T831 824Q831
798 819 779T788 749T751 738Q744 738 734 745T709 767Q697 780 683 790T653 800Q623 800 584 773T504 698T422 587T347 451T290 302L198 0H102L346 808Z" />
<glyph unicode="s" horiz-adv-x="659" d="M90 165Q102 156 113 136T146 87Q167 59 192 46T250 33Q307 33 350 54T418 114T443 202Q443 235 433 267T394 337T313 425Q261 474 232 513T192 587T180 656Q180 730 215 784T313 870T460 901Q524 901 566 885T630 842T651
785Q651 766 643 752T619 729T579 720Q570 728 559 747T527 792Q507 819 480 833T420 847Q346 847 302 809T257 699Q257 672 268 644T307 581T386 497Q437 449 466 407T508 325T521 245Q521 172 482 112T373 16T209 -20Q141 -20 98 -4T34 40T13 96Q13 116 22 131T48
156T90 165Z" />
<glyph unicode="t" horiz-adv-x="600" d="M140 819L153 881H633L623 819H140ZM242 230Q235 203 230 181T222 143T219 113Q219 87 228 77T256 67Q283 67 322 91T409 162T505 274L536 250Q490 182 446 132T362 48T285 -2T216 -19Q173 -19 149 4T124 84Q124 110 130
145T149 225L387 1061H481L242 230Z" />
<glyph unicode="u" horiz-adv-x="1007" d="M597 53L720 443H727Q655 306 593 216T476 75T370 2T270 -20Q196 -20 159 13T122 107Q122 135 130 170T155 250L373 839L397 808Q361 811 315 799T212 751T84 650L60 676Q137 764 201 813T317 881T407 901Q442 901 459
882T461 824L240 223Q230 197 225 175T220 134Q220 98 241 81T305 63Q360 63 423 104T548 219T664 392T754 606L840 881H936L680 44L663 72Q697 68 741 77T841 115T966 204L988 176Q877 63 795 22T656 -20Q608 -20 596 -4T597 53Z" />
<glyph unicode="v" horiz-adv-x="917" d="M867 738Q867 628 835 519T748 314T622 143T474 25T319 -18Q238 -18 189 21T140 138Q140 188 162 250L354 808Q349 810 341 810T321 811Q279 811 240 792T165 734T94 634L68 645Q101 720 136 769T209 846T289 886T376
898Q393 898 411 896T445 891T473 884L253 246Q244 219 240 196T235 154Q235 105 263 82T343 58Q410 58 475 94T596 192T696 328T764 481T789 628Q789 674 775 705T741 758T707 794T692 820Q692 859 717 880T776 901Q820 901 843 863T867 738Z" />
<glyph unicode="w" horiz-adv-x="1257" d="M755 881H848L666 238Q658 209 654 185T650 142Q650 98 673 78T742 58Q802 58 857 94T960 190T1042 324T1096 478T1116 629Q1116 674 1102 705T1068 757T1035 793T1020 820Q1020 858 1045 879T1103 901Q1133 901 1153
884T1183 829T1194 733Q1194 622 1168 514T1095 310T988 140T859 24T722 -18Q650 -18 611 14T572 119Q572 144 577 174T592 240L626 359H639Q599 255 554 183T461 67T366 3T275 -18Q214 -18 175 17T136 124Q136 180 161 254L353 808Q347 810 339 810T319 811Q277
811 239 792T164 734T92 634L67 645Q99 720 134 769T208 846T287 886T374 898Q391 898 409 896T443 891T471 884L249 238Q239 209 235 186T230 143Q230 101 251 80T312 58Q372 58 434 110T552 256T641 472L755 881Z" />
<glyph unicode="x" horiz-adv-x="936" d="M488 435L453 408L284 174Q230 99 187 57T105 -2T25 -19Q-19 -19 -41 2T-63 56Q-63 81 -52 99T-24 128T9 139Q18 139 27 131T47 113Q57 103 68 97T91 91Q113 91 141 106T210 163T306 281L443 470L481 497L632 696Q697
780 741 824T822 884T896 901Q942 901 963 879T985 824Q985 801 974 782T946 753T912 742Q906 742 898 747T877 765Q865 778 854 784T830 790Q811 790 786 776T720 721T612 594L488 435ZM880 300Q821 178 768 109T666 10T572 -20Q553 -20 541 -14T520 7T507 49L357
781Q353 802 349 807T337 813Q297 813 249 764T143 578L106 584Q147 704 191 773T280 872T371 901Q390 901 402 895T423 873T436 830L583 111Q589 84 593 77T608 69Q635 69 670 90T748 163T845 307L880 300Z" />
<glyph unicode="y" horiz-adv-x="930" d="M93 536L55 539Q82 645 112 714T176 825T246 883T320 901Q342 901 357 891T385 851T414 756Q430 694 448 580T484 303T521 -73L433 -165Q420 -13 407 115T381 347T356 529T334 657Q321 724 313 754T297 793T279 802Q251
802 220 777T157 693T93 536ZM457 -94L490 -52Q565 60 621 173T714 403T770 639T788 881Q809 887 826 889T859 891Q881 891 890 883T900 854Q898 792 883 716T840 551T771 367T678 171T561 -32Q454 -202 353 -309T157 -468T-21 -519Q-84 -519 -114 -493T-144 -426Q-144
-392 -125 -371T-81 -349Q-73 -349 -62 -359T-32 -388Q-12 -406 10 -418T55 -430Q104 -430 170 -391T310 -278T457 -94Z" />
<glyph unicode="z" horiz-adv-x="816" d="M2 14L792 907L832 871L43 -20L2 14ZM135 613L102 628Q153 725 192 782T268 865T343 893T430 882L734 795L658 713L403 787Q365 799 336 800T278 785T216 727T135 613ZM393 0L123 115L204 197L413 100Q451 82 482 77T546
86T619 138T713 247L742 227Q679 134 633 79T549 1T474 -20T393 0Z" />
<glyph unicode="{" horiz-adv-x="591" d="M81 552L96 603L178 606Q227 608 261 623T318 672T357 761Q376 830 382 896T395 1026T420 1151Q448 1249 526 1325T740 1415L824 1423L820 1375L746 1367Q655 1357 605 1308T530 1172Q513 1114 504 1051T484 921T454 789Q428
700 371 640T208 564L216 586Q260 577 287 557T326 507T339 444Q339 394 316 323T261 174T207 24T183 -99Q183 -147 207 -178T285 -218L330 -225L315 -267L258 -259Q173 -247 133 -193T92 -69Q92 -16 118 56T178 204T238 350T264 468Q264 506 241 526T168 548L81
552Z" />
<glyph unicode="|" horiz-adv-x="476" d="M-82 -519L506 1481H582L-7 -519H-82Z" />
<glyph unicode="}" horiz-adv-x="590" d="M594 604L578 552L496 549Q447 548 413 533T357 484T318 394Q299 326 292 260T279 129T255 4Q226 -94 148 -170T-66 -259L-150 -267L-145 -219L-72 -212Q20 -202 70 -152T145 -17Q162 42 171 105T191 235T220 367Q246
455 303 516T466 592L459 570Q415 579 388 599T349 648T336 712Q336 762 359 833T413 982T467 1131T491 1254Q491 1303 467 1334T389 1374L345 1381L359 1423L417 1415Q502 1403 542 1349T582 1225Q582 1171 556 1100T496 952T436 806T410 688Q410 650 433 630T506
607L594 604Z" />
<glyph unicode="~" horiz-adv-x="1033" d="M920 554Q892 474 854 427T770 358T670 337Q613 337 576 361T508 417T444 473T357 497Q297 497 255 460T183 344H119Q147 424 184 471T268 539T368 560Q426 560 463 536T530 481T594 425T681 401Q742 401 783 438T856 554H920Z" />
<glyph unicode="&#xa0;" horiz-adv-x="473" />
<glyph unicode="&#xa1;" horiz-adv-x="439" d="M-113 -456L-90 -383Q-84 -364 -68 -316T-26 -199T28 -45T89 129T150 309T208 478H254Q232 398 208 309T160 130T114 -44T74 -198T44 -316T25 -383L4 -456Q0 -468 -7 -475T-27 -485T-61 -488Q-81 -488 -94 -485T-112
-475T-113 -456ZM308 696Q271 696 249 717T227 773Q227 805 242 832T283 875T345 892Q382 892 403 870T425 814Q425 782 410 756T369 713T308 696Z" />
<glyph unicode="&#xa2;" horiz-adv-x="1133" d="M209 0L1054 1352H1121L275 0H209ZM779 1077Q714 1077 652 1032T538 909T457 728T426 512Q426 395 463 346T577 297Q626 297 673 317T767 386T862 521H905Q850 404 795 337T680 242T549 213Q446 213 385 276T324
474Q324 623 369 744T487 953T650 1086T828 1133Q916 1133 959 1102T1003 1025Q1003 996 986 979T939 962Q928 962 914 980T879 1021Q859 1043 835 1060T779 1077Z" />
<glyph unicode="&#xa3;" horiz-adv-x="1133" d="M899 711L880 649H185L204 711H899ZM173 93H804L746 78L968 339H1003L824 -28H797L736 0H66L75 29Q192 140 265 220T377 358T432 462T447 549Q447 596 430 641T392 733T354 835T337 957Q337 1073 386 1166T532 1316T767
1372Q883 1372 958 1325T1071 1183T1112 947L1068 946Q1055 1116 985 1204T769 1292Q662 1292 590 1251T480 1139T443 979Q443 892 467 825T515 699T539 577Q539 533 519 481T456 367T343 228T172 59L173 93Z" />
<glyph unicode="&#xa4;" horiz-adv-x="877" d="M212 723L263 761L336 654L284 616L212 723ZM760 739L797 689L668 590L634 638L760 739ZM669 174L617 137L544 243L596 281L669 174ZM83 208L212 308L247 260L121 159L83 208ZM485 723Q557 723 609 695T691 616T720
499Q720 415 679 341T565 221T395 175Q324 175 271 203T189 282T160 398Q160 484 201 557T315 677T485 723ZM403 233Q478 233 535 269T624 364T656 492Q656 571 608 618T477 665Q402 665 345 629T256 534T224 405Q224 327 272 280T403 233Z" />
<glyph unicode="&#xa5;" horiz-adv-x="1133" d="M644 1287L492 1319L501 1352H940L930 1319L759 1287L1001 865L963 869L1411 1287L1261 1319L1271 1352H1676L1666 1319L1496 1287L1008 844L771 68L936 33L926 0H473L483 33L669 68L905 840L644 1287ZM1259 568L1240
506H463L482 568H1259ZM1346 853L1327 791H550L569 853H1346Z" />
<glyph unicode="&#xa6;" horiz-adv-x="476" d="M347 678H271L507 1481H583L347 678ZM-81 -519L155 283H230L-6 -519H-81Z" />
<glyph unicode="&#xa7;" horiz-adv-x="981" d="M555 826Q435 812 359 774T247 680T211 558Q211 492 243 450T328 379T438 324T548 265T632 181T665 53Q665 -40 616 -112T476 -227T258 -270Q161 -270 99 -252T6 -205T-24 -144Q-23 -113 -4 -94T41 -75Q67 -75 86
-96T129 -146T193 -195T299 -217Q385 -217 447 -187T542 -105T575 16Q575 81 543 122T459 193T350 249T241 310T157 395T124 524Q124 653 222 741T529 863L555 826ZM837 555Q837 620 804 661T720 732T610 787T501 846T417 928T384 1055Q384 1146 431 1217T570 1330T792
1372Q895 1372 955 1353T1043 1304T1071 1244Q1071 1214 1051 1196T1004 1177Q977 1177 958 1198T915 1247T854 1297T755 1319Q666 1319 603 1290T506 1209T472 1089Q472 1024 505 982T589 911T698 856T808 796T893 712T926 584Q926 453 826 365T520 247L494 284Q611
299 686 337T799 431T837 555Z" />
<glyph unicode="&#xa8;" horiz-adv-x="1000" d="M555 1106Q515 1106 491 1132T466 1195Q466 1220 477 1240T509 1273T558 1285Q598 1285 622 1260T647 1197Q647 1172 636 1152T604 1119T555 1106ZM903 1106Q862 1106 838 1132T814 1195Q814 1220 825 1240T856
1273T905 1285Q945 1285 969 1260T994 1197Q994 1172 983 1152T952 1119T903 1106Z" />
<glyph unicode="&#xa9;" horiz-adv-x="1675" d="M890 345Q934 345 980 354T1074 386L1007 332L1144 515H1182L1100 328Q1049 309 992 299T874 289Q758 289 677 330T558 452T533 647Q542 739 582 817T690 952T848 1042T1047 1075Q1098 1075 1147 1068T1239 1045L1199
1044L1268 1095H1286L1239 826H1208L1181 1018L1216 963Q1174 991 1127 1002T1022 1014Q937 1014 870 987T753 911T676 796T640 649Q624 503 691 424T890 345ZM834 42Q998 42 1129 102T1355 265T1500 501T1550 777Q1550 933 1484 1054T1292 1243T985 1311Q821 1311
689 1251T463 1087T319 852T269 576Q269 419 335 299T528 111T834 42ZM987 1372Q1189 1372 1331 1297T1547 1089T1622 781Q1622 623 1567 480T1408 224T1159 46T832 -20Q630 -20 488 55T271 263T196 572Q196 729 251 873T410 1129T660 1307T987 1372Z" />
<glyph unicode="&#xaa;" horiz-adv-x="892" d="M178 486L199 555H768L747 486H178ZM638 754L720 984L741 998Q681 900 621 832T506 728T402 692Q333 692 298 730T263 838Q263 916 298 1006T393 1178T531 1311T695 1363Q752 1363 785 1336T839 1263L803 1224Q791
1269 766 1292T700 1316Q646 1316 596 1284T504 1200T429 1087T379 965T361 859Q361 814 380 790T442 765Q477 765 521 793T610 868T694 977T756 1105L823 1304L877 1352H932L719 734L688 761Q737 754 789 772T913 842L929 817Q874 765 829 738T748 701T684 691Q647
691 637 705T638 754Z" />
<glyph unicode="&#xab;" horiz-adv-x="895" d="M185 482L354 79L313 58L70 427L83 470L548 839L577 802L153 380L185 482ZM527 482L696 79L655 58L412 427L425 470L890 839L919 802L495 380L527 482Z" />
<glyph unicode="&#xac;" horiz-adv-x="1033" d="M213 666H946L813 230H747L861 602H193L213 666Z" />
<glyph unicode="&#xad;" horiz-adv-x="627" d="M139 497H522L494 403H111L139 497Z" />
<glyph unicode="&#xae;" horiz-adv-x="1119" d="M897 759L889 730Q846 728 825 730T796 747T783 791L771 879Q765 916 756 925T719 935H595L610 976H725Q785 976 814 1003T844 1076Q844 1106 826 1121T759 1137H655L664 1178H780Q857 1178 889 1152T921 1083Q921
1030 880 995T761 954L757 959Q799 958 815 943T837 887L850 804Q855 773 863 766T897 759ZM716 1178L592 769L650 755L642 730H446L453 755L521 769L634 1140L575 1154L582 1178H716ZM668 571Q801 571 894 631T1038 791T1088 1005Q1088 1102 1049 1172T934 1281T750
1319Q619 1319 525 1259T380 1100T330 886Q330 789 369 719T484 610T668 571ZM756 1372Q945 1372 1046 1274T1148 1011Q1148 882 1090 770T924 588T662 518Q474 518 372 616T270 880Q270 1009 328 1121T494 1302T756 1372Z" />
<glyph unicode="&#xaf;" horiz-adv-x="1000" d="M488 1159L510 1233H974L952 1159H488Z" />
<glyph unicode="&#xb0;" horiz-adv-x="779" d="M611 1364Q733 1364 805 1294T878 1113Q878 1022 835 943T715 815T536 766Q414 766 341 836T268 1017Q268 1108 311 1187T431 1315T611 1364ZM543 823Q628 823 688 864T781 969T814 1104Q814 1199 759 1253T603 1307Q519
1307 458 1266T365 1161T333 1026Q333 931 388 877T543 823Z" />
<glyph unicode="&#xb1;" horiz-adv-x="1033" d="M618 881H684L460 147H393L618 881ZM182 544H915L895 480H162L182 544ZM35 64H768L748 0H15L35 64Z" />
<glyph unicode="&#xb2;" horiz-adv-x="665" d="M545 651L692 818H720L607 585H589L555 604H153L160 627L440 872Q523 944 567 994T628 1085T645 1164Q645 1221 612 1254T518 1287Q443 1287 393 1245T310 1105L275 1113Q299 1197 337 1253T429 1338T556 1367Q640
1367 692 1322T745 1201Q745 1164 735 1130T699 1058T622 971T491 855L237 647L252 688H622L545 651Z" />
<glyph unicode="&#xb3;" horiz-adv-x="628" d="M379 960L377 997Q476 1027 529 1058T603 1123T624 1197Q624 1243 596 1270T514 1297Q452 1297 408 1263T334 1150L301 1161Q333 1261 395 1314T552 1367Q630 1367 672 1329T714 1230Q714 1189 695 1151T630 1081T511
1022L514 1031Q597 1037 642 998T687 884Q687 803 641 737T510 630T309 590Q215 590 181 613T146 662Q146 681 158 695T194 709Q210 709 224 699T256 674T296 649T351 638Q406 638 451 656T528 706T578 780T595 869Q595 934 552 964T426 972L379 960Z" />
<glyph unicode="&#xb4;" horiz-adv-x="1000" d="M637 1031L905 1361H1055L1053 1344L686 1031H637Z" />
<glyph unicode="&#xb5;" horiz-adv-x="1065" d="M743 606L830 881H926L669 44L652 72Q686 68 730 77T831 115T956 204L978 176Q867 63 785 22T646 -20Q597 -20 586 -4T586 53L709 443H716Q645 306 586 216T474 75T374 2T277 -20Q230 -20 197 0T151 61T149 161L161
179L21 -499L-86 -509H-99L354 881H450L236 223Q228 194 224 173T220 135Q221 99 243 81T308 63Q363 63 424 104T544 219T655 392T743 606Z" />
<glyph unicode="&#xb6;" horiz-adv-x="1157" d="M460 -250H385L875 1352H1123L1100 1278H927L460 -250ZM688 -250H613L1102 1352H1349L1337 1314L1156 1281L688 -250ZM924 1352L721 687H499Q354 687 290 748T225 917Q225 992 249 1069T328 1210T470 1313T683 1352H924Z" />
<glyph unicode="&#xb7;" horiz-adv-x="447" d="M244 548Q282 548 303 527T325 471Q325 439 310 412T269 369T207 352Q171 352 149 373T127 429Q127 461 142 488T183 532T244 548Z" />
<glyph unicode="&#xb8;" horiz-adv-x="1000" d="M152 -519Q85 -519 58 -500T30 -455Q30 -435 43 -421T77 -406Q98 -406 111 -421T142 -452T196 -468Q262 -468 301 -432T340 -341Q340 -300 299 -269T158 -215L161 -206L363 17H419L235 -186L240 -141Q339 -167 378
-208T418 -298Q418 -359 384 -409T289 -489T152 -519Z" />
<glyph unicode="&#xb9;" horiz-adv-x="504" d="M309 659L501 1285L518 1258L282 1181L276 1214L577 1358H615L400 659L518 633L508 604H160L169 633L309 659Z" />
<glyph unicode="&#xba;" horiz-adv-x="847" d="M158 486L179 555H748L727 486H158ZM699 1372Q799 1372 851 1317T903 1160Q903 1073 875 990T794 839T669 733T510 694Q410 694 358 749T305 905Q305 993 334 1076T415 1226T539 1332T699 1372ZM514 741Q579 741
633 780T727 883T789 1022T811 1170Q811 1251 782 1287T694 1324Q630 1324 576 1285T481 1182T419 1043T397 895Q397 815 426 778T514 741Z" />
<glyph unicode="&#xbb;" horiz-adv-x="927" d="M384 415L215 819L256 839L499 470L486 427L20 58L-8 95L416 517L384 415ZM726 415L557 819L598 839L841 470L828 427L362 58L334 95L758 517L726 415Z" />
<glyph unicode="&#xbc;" horiz-adv-x="1446" d="M331 659L523 1285L540 1258L304 1181L298 1214L599 1358H637L422 659L540 633L530 604H182L191 633L331 659ZM134 0L1440 1352H1521L215 0H134ZM1187 684L1236 689L794 272V310H1252L1349 330L1286 237H725L736
269L1241 757H1300L1085 55L1201 29L1192 0H847L856 29L994 55L1187 684Z" />
<glyph unicode="&#xbd;" horiz-adv-x="1532" d="M133 0L1439 1352H1520L214 0H133ZM1223 47L1370 214H1398L1285 -19H1267L1233 0H831L838 23L1118 268Q1201 340 1245 390T1306 481T1323 560Q1323 617 1290 650T1196 683Q1121 683 1071 641T988 501L953 509Q977
593 1015 649T1107 734T1234 763Q1318 763 1370 718T1423 597Q1423 560 1413 526T1377 454T1300 367T1169 251L915 43L930 84H1300L1223 47ZM330 659L522 1285L539 1258L303 1181L297 1214L598 1358H636L421 659L539 633L529 604H181L190 633L330 659Z" />
<glyph unicode="&#xbe;" horiz-adv-x="1437" d="M123 0L1429 1352H1510L204 0H123ZM394 960L392 997Q491 1027 544 1058T618 1123T639 1197Q639 1243 611 1270T529 1297Q467 1297 423 1263T349 1150L316 1161Q348 1261 410 1314T567 1367Q645 1367 687 1329T729
1230Q729 1189 710 1151T645 1081T526 1022L529 1031Q612 1037 657 998T702 884Q702 803 656 737T525 630T324 590Q230 590 196 613T161 662Q161 681 173 695T209 709Q225 709 239 699T271 674T311 649T366 638Q421 638 466 656T543 706T593 780T610 869Q610 934
567 964T441 972L394 960ZM1179 684L1228 689L786 272V310H1244L1341 330L1278 237H717L728 269L1233 757H1292L1077 55L1193 29L1184 0H839L848 29L986 55L1179 684Z" />
<glyph unicode="&#xbf;" horiz-adv-x="875" d="M606 697Q569 697 548 718T526 774Q526 806 540 833T581 877T643 893Q680 893 701 872T723 816Q723 784 709 757T668 714T606 697ZM375 -494Q289 -494 215 -464T86 -381T-1 -256T-33 -104Q-33 6 14 86T175 207T483
232L415 159L524 480H561L491 139Q320 153 221 125T78 32T35 -128Q35 -210 69 -276T161 -380T287 -419Q338 -419 372 -409T429 -384T471 -359T513 -348Q543 -348 559 -363T576 -402Q576 -426 559 -447T499 -481T375 -494Z" />
<glyph unicode="&#xc0;" horiz-adv-x="1337" d="M398 531L419 594H1008L987 531H398ZM1081 68L1232 34L1221 0H786L797 34L976 68L881 1259H918L134 67L289 34L278 0H-126L-116 34L55 68L920 1370H971L1081 68ZM990 1487H949L772 1725V1742H899L990 1487Z" />
<glyph unicode="&#xc1;" horiz-adv-x="1337" d="M398 531L419 594H1008L987 531H398ZM1081 68L1232 34L1221 0H786L797 34L976 68L881 1259H918L134 67L289 34L278 0H-126L-116 34L55 68L920 1370H971L1081 68ZM928 1487L1158 1742H1308L1305 1725L979 1487H928Z" />
<glyph unicode="&#xc2;" horiz-adv-x="1337" d="M398 531L419 594H1008L987 531H398ZM1081 68L1232 34L1221 0H786L797 34L976 68L881 1259H918L134 67L289 34L278 0H-126L-116 34L55 68L920 1370H971L1081 68ZM703 1487L993 1742H1084L1219 1487H1168L1010 1669H1041L771
1487H703Z" />
<glyph unicode="&#xc3;" horiz-adv-x="1337" d="M398 531L419 594H1008L987 531H398ZM1081 68L1232 34L1221 0H786L797 34L976 68L881 1259H918L134 67L289 34L278 0H-126L-116 34L55 68L920 1370H971L1081 68ZM1280 1729Q1235 1630 1201 1579T1138 1510T1077
1492Q1043 1492 1018 1516T972 1571T929 1625T883 1649Q864 1649 846 1638T807 1594T754 1500H707Q752 1600 786 1650T849 1719T910 1737Q944 1737 969 1713T1015 1658T1058 1604T1104 1580Q1123 1580 1141 1591T1181 1635T1233 1729H1280Z" />
<glyph unicode="&#xc4;" horiz-adv-x="1337" d="M398 531L419 594H1008L987 531H398ZM1081 68L1232 34L1221 0H786L797 34L976 68L881 1259H918L134 67L289 34L278 0H-126L-116 34L55 68L920 1370H971L1081 68ZM809 1525Q768 1525 744 1551T720 1614Q720 1639
731 1659T762 1692T811 1704Q852 1704 876 1679T900 1616Q900 1591 889 1571T858 1538T809 1525ZM1187 1525Q1146 1525 1122 1551T1098 1614Q1098 1639 1109 1659T1141 1692T1189 1704Q1230 1704 1254 1679T1278 1616Q1278 1591 1267 1571T1236 1538T1187 1525Z"
/>
<glyph unicode="&#xc5;" horiz-adv-x="1337" d="M398 531L419 594H1008L987 531H398ZM1081 68L1232 34L1221 0H786L797 34L976 68L881 1259H918L134 67L289 34L278 0H-126L-116 34L55 68L920 1370H971L1081 68ZM1030 1791Q1096 1791 1136 1754T1177 1649Q1177
1562 1121 1501T969 1439Q904 1439 863 1476T822 1581Q822 1668 879 1729T1030 1791ZM977 1487Q1048 1487 1086 1535T1124 1641Q1124 1690 1098 1716T1023 1742Q951 1742 913 1694T875 1589Q875 1539 901 1513T977 1487Z" />
<glyph unicode="&#xc6;" horiz-adv-x="1913" d="M129 68L282 34L271 0H-141L-131 34L42 69L1123 1285L980 1318L990 1352H1334L921 0H654L664 34L836 68L1215 1310L1225 1303L129 68ZM1598 -54L1535 0H840L862 65H1596L1519 39L1796 367L1831 354L1621 -54H1598ZM503
516L524 581H1036L1015 516H503ZM1481 444L1514 671L1078 676L1098 738L1536 745L1642 971H1690L1602 707L1528 444H1481ZM1913 998L1890 1311L1931 1287H1254L1276 1352H1914L2004 1399H2025L1954 999L1913 998Z" />
<glyph unicode="&#xc7;" horiz-adv-x="1338" d="M1069 116L991 57L1201 336H1243L1122 48Q1037 17 929 -1T727 -20Q549 -20 423 42T231 221T164 506Q164 653 205 783T324 1021T511 1208T755 1329T1048 1372Q1108 1372 1162 1366T1268 1348T1370 1315L1311 1318L1414
1404H1434L1364 954H1324L1289 1270L1344 1203Q1269 1261 1189 1283T1012 1306Q874 1306 760 1266T556 1153T406 982T312 768T280 525Q280 364 334 257T490 97T728 43Q814 43 902 59T1069 116ZM510 -468Q575 -468 614 -432T654 -341Q654 -300 613 -269T472 -215L475
-206L677 17H733L548 -186L553 -141Q653 -167 692 -208T732 -298Q732 -359 698 -409T603 -489T465 -519Q399 -519 372 -500T344 -455Q344 -435 357 -421T391 -406Q411 -406 424 -421T456 -452T510 -468Z" />
<glyph unicode="&#xc8;" horiz-adv-x="1213" d="M508 1285L349 1318L359 1352H634L221 0H-47L-36 34L136 68L508 1285ZM1189 1311L1231 1287H532L554 1352H1214L1304 1399H1324L1254 999L1213 998L1189 1311ZM898 -54L835 0H140L162 65H896L819 39L1096 367L1131
354L921 -54H898ZM828 444H781L814 671L378 676L398 738L836 745L942 971H990L902 707L828 444ZM927 1487H886L709 1725V1742H836L927 1487Z" />
<glyph unicode="&#xc9;" horiz-adv-x="1213" d="M508 1285L349 1318L359 1352H634L221 0H-47L-36 34L136 68L508 1285ZM1189 1311L1231 1287H532L554 1352H1214L1304 1399H1324L1254 999L1213 998L1189 1311ZM898 -54L835 0H140L162 65H896L819 39L1096 367L1131
354L921 -54H898ZM828 444H781L814 671L378 676L398 738L836 745L942 971H990L902 707L828 444ZM865 1487L1095 1742H1245L1242 1725L916 1487H865Z" />
<glyph unicode="&#xca;" horiz-adv-x="1213" d="M508 1285L349 1318L359 1352H634L221 0H-47L-36 34L136 68L508 1285ZM1189 1311L1231 1287H532L554 1352H1214L1304 1399H1324L1254 999L1213 998L1189 1311ZM898 -54L835 0H140L162 65H896L819 39L1096 367L1131
354L921 -54H898ZM828 444H781L814 671L378 676L398 738L836 745L942 971H990L902 707L828 444ZM640 1487L930 1742H1021L1156 1487H1105L947 1669H978L708 1487H640Z" />
<glyph unicode="&#xcb;" horiz-adv-x="1213" d="M508 1285L349 1318L359 1352H634L221 0H-47L-36 34L136 68L508 1285ZM1189 1311L1231 1287H532L554 1352H1214L1304 1399H1324L1254 999L1213 998L1189 1311ZM898 -54L835 0H140L162 65H896L819 39L1096 367L1131
354L921 -54H898ZM828 444H781L814 671L378 676L398 738L836 745L942 971H990L902 707L828 444ZM746 1525Q705 1525 681 1551T657 1614Q657 1639 668 1659T699 1692T748 1704Q789 1704 813 1679T837 1616Q837 1591 826 1571T795 1538T746 1525ZM1124 1525Q1083
1525 1059 1551T1035 1614Q1035 1639 1046 1659T1078 1692T1126 1704Q1167 1704 1191 1679T1215 1616Q1215 1591 1204 1571T1173 1538T1124 1525Z" />
<glyph unicode="&#xcc;" horiz-adv-x="606" d="M508 1285L349 1318L359 1352H796L786 1318L613 1284L242 68L401 34L390 0H-47L-36 34L136 68L508 1285ZM640 1487H599L422 1725V1742H549L640 1487Z" />
<glyph unicode="&#xcd;" horiz-adv-x="606" d="M508 1285L349 1318L359 1352H796L786 1318L613 1284L242 68L401 34L390 0H-47L-36 34L136 68L508 1285ZM578 1487L808 1742H958L955 1725L629 1487H578Z" />
<glyph unicode="&#xce;" horiz-adv-x="606" d="M508 1285L349 1318L359 1352H796L786 1318L613 1284L242 68L401 34L390 0H-47L-36 34L136 68L508 1285ZM353 1487L643 1742H734L869 1487H818L660 1669H691L421 1487H353Z" />
<glyph unicode="&#xcf;" horiz-adv-x="606" d="M508 1285L349 1318L359 1352H796L786 1318L613 1284L242 68L401 34L390 0H-47L-36 34L136 68L508 1285ZM459 1525Q418 1525 394 1551T370 1614Q370 1639 381 1659T412 1692T461 1704Q502 1704 526 1679T550 1616Q550
1591 539 1571T508 1538T459 1525ZM837 1525Q796 1525 772 1551T748 1614Q748 1639 759 1659T791 1692T839 1704Q880 1704 904 1679T928 1616Q928 1591 917 1571T886 1538T837 1525Z" />
<glyph unicode="&#xd0;" horiz-adv-x="1433" d="M153 650L175 722H760L738 650H153ZM478 65Q648 65 781 105T1011 217T1171 387T1265 599T1296 839Q1296 989 1241 1088T1067 1237T763 1287H537L568 1352H806Q1014 1352 1148 1294T1347 1122T1412 846Q1412 665
1351 511T1173 242T886 64T496 0H155L167 65H478ZM511 1285L352 1318L362 1352H637L225 0H-43L-33 34L139 68L511 1285Z" />
<glyph unicode="&#xd1;" horiz-adv-x="1446" d="M1080 115L1048 105L1410 1285L1251 1318L1261 1352H1659L1649 1318L1477 1284L1078 -19H1025L545 1280L576 1281L204 68L363 34L352 0H-45L-35 34L137 68L506 1274L345 1317L356 1352H626L1080 115ZM1359 1729Q1314
1630 1280 1579T1217 1510T1156 1492Q1122 1492 1097 1516T1051 1571T1008 1625T962 1649Q943 1649 925 1638T886 1594T833 1500H786Q831 1600 865 1650T928 1719T989 1737Q1023 1737 1048 1713T1094 1658T1137 1604T1183 1580Q1202 1580 1220 1591T1260 1635T1312
1729H1359Z" />
<glyph unicode="&#xd2;" horiz-adv-x="1478" d="M275 486Q275 278 375 161T674 43Q773 43 861 75T1025 164T1159 298T1261 468T1325 661T1347 867Q1347 1074 1247 1191T948 1309Q849 1309 760 1278T597 1189T463 1054T361 885T297 692T275 486ZM1459 855Q1459
719 1422 591T1314 352T1147 158T929 27T670 -20Q504 -20 391 45T221 226T163 498Q163 633 200 761T307 1000T474 1195T692 1325T952 1372Q1118 1372 1231 1307T1401 1126T1459 855ZM1064 1487H1023L846 1725V1742H973L1064 1487Z" />
<glyph unicode="&#xd3;" horiz-adv-x="1478" d="M275 486Q275 278 375 161T674 43Q773 43 861 75T1025 164T1159 298T1261 468T1325 661T1347 867Q1347 1074 1247 1191T948 1309Q849 1309 760 1278T597 1189T463 1054T361 885T297 692T275 486ZM1459 855Q1459
719 1422 591T1314 352T1147 158T929 27T670 -20Q504 -20 391 45T221 226T163 498Q163 633 200 761T307 1000T474 1195T692 1325T952 1372Q1118 1372 1231 1307T1401 1126T1459 855ZM1002 1487L1232 1742H1382L1379 1725L1053 1487H1002Z" />
<glyph unicode="&#xd4;" horiz-adv-x="1478" d="M275 486Q275 278 375 161T674 43Q773 43 861 75T1025 164T1159 298T1261 468T1325 661T1347 867Q1347 1074 1247 1191T948 1309Q849 1309 760 1278T597 1189T463 1054T361 885T297 692T275 486ZM1459 855Q1459
719 1422 591T1314 352T1147 158T929 27T670 -20Q504 -20 391 45T221 226T163 498Q163 633 200 761T307 1000T474 1195T692 1325T952 1372Q1118 1372 1231 1307T1401 1126T1459 855ZM777 1487L1067 1742H1158L1293 1487H1242L1084 1669H1115L845 1487H777Z" />
<glyph unicode="&#xd5;" horiz-adv-x="1478" d="M275 486Q275 278 375 161T674 43Q773 43 861 75T1025 164T1159 298T1261 468T1325 661T1347 867Q1347 1074 1247 1191T948 1309Q849 1309 760 1278T597 1189T463 1054T361 885T297 692T275 486ZM1459 855Q1459
719 1422 591T1314 352T1147 158T929 27T670 -20Q504 -20 391 45T221 226T163 498Q163 633 200 761T307 1000T474 1195T692 1325T952 1372Q1118 1372 1231 1307T1401 1126T1459 855ZM1354 1729Q1309 1630 1275 1579T1212 1510T1151 1492Q1117 1492 1092 1516T1046
1571T1003 1625T957 1649Q938 1649 920 1638T881 1594T828 1500H781Q826 1600 860 1650T923 1719T984 1737Q1018 1737 1043 1713T1089 1658T1132 1604T1178 1580Q1197 1580 1215 1591T1255 1635T1307 1729H1354Z" />
<glyph unicode="&#xd6;" horiz-adv-x="1478" d="M275 486Q275 278 375 161T674 43Q773 43 861 75T1025 164T1159 298T1261 468T1325 661T1347 867Q1347 1074 1247 1191T948 1309Q849 1309 760 1278T597 1189T463 1054T361 885T297 692T275 486ZM1459 855Q1459
719 1422 591T1314 352T1147 158T929 27T670 -20Q504 -20 391 45T221 226T163 498Q163 633 200 761T307 1000T474 1195T692 1325T952 1372Q1118 1372 1231 1307T1401 1126T1459 855ZM883 1525Q842 1525 818 1551T794 1614Q794 1639 805 1659T836 1692T885 1704Q926
1704 950 1679T974 1616Q974 1591 963 1571T932 1538T883 1525ZM1261 1525Q1220 1525 1196 1551T1172 1614Q1172 1639 1183 1659T1215 1692T1263 1704Q1304 1704 1328 1679T1352 1616Q1352 1591 1341 1571T1310 1538T1261 1525Z" />
<glyph unicode="&#xd7;" horiz-adv-x="1033" d="M122 183L881 760L915 711L155 135L122 183ZM296 723L346 760L742 172L690 135L296 723Z" />
<glyph unicode="&#xd8;" horiz-adv-x="1492" d="M1662 1352L1386 1116L1346 1086L320 202L291 175L85 0H-25L250 235L284 262L1312 1147L1344 1175L1551 1352H1662ZM282 486Q282 278 382 161T681 43Q781 43 869 75T1032 164T1166 298T1268 468T1332 661T1354 867Q1354
1074 1254 1191T955 1309Q856 1309 768 1278T604 1189T470 1054T368 885T304 692T282 486ZM1466 855Q1466 719 1429 591T1322 352T1155 158T936 27T677 -20Q511 -20 398 45T228 226T170 498Q170 633 207 761T315 1000T482 1195T700 1325T959 1372Q1125 1372 1238
1307T1408 1126T1466 855Z" />
<glyph unicode="&#xd9;" horiz-adv-x="1435" d="M361 540Q312 377 327 271T421 114T643 62Q769 62 868 104T1042 242T1164 496L1406 1285L1247 1318L1257 1352H1655L1645 1318L1472 1284L1224 471Q1171 294 1086 186T885 29T623 -20Q458 -20 356 39T226 226T261
555L484 1285L325 1318L335 1352H772L761 1318L589 1284L361 540ZM1071 1487H1030L853 1725V1742H980L1071 1487Z" />
<glyph unicode="&#xda;" horiz-adv-x="1435" d="M361 540Q312 377 327 271T421 114T643 62Q769 62 868 104T1042 242T1164 496L1406 1285L1247 1318L1257 1352H1655L1645 1318L1472 1284L1224 471Q1171 294 1086 186T885 29T623 -20Q458 -20 356 39T226 226T261
555L484 1285L325 1318L335 1352H772L761 1318L589 1284L361 540ZM1009 1487L1239 1742H1389L1386 1725L1060 1487H1009Z" />
<glyph unicode="&#xdb;" horiz-adv-x="1435" d="M361 540Q312 377 327 271T421 114T643 62Q769 62 868 104T1042 242T1164 496L1406 1285L1247 1318L1257 1352H1655L1645 1318L1472 1284L1224 471Q1171 294 1086 186T885 29T623 -20Q458 -20 356 39T226 226T261
555L484 1285L325 1318L335 1352H772L761 1318L589 1284L361 540ZM784 1487L1074 1742H1165L1300 1487H1249L1091 1669H1122L852 1487H784Z" />
<glyph unicode="&#xdc;" horiz-adv-x="1435" d="M361 540Q312 377 327 271T421 114T643 62Q769 62 868 104T1042 242T1164 496L1406 1285L1247 1318L1257 1352H1655L1645 1318L1472 1284L1224 471Q1171 294 1086 186T885 29T623 -20Q458 -20 356 39T226 226T261
555L484 1285L325 1318L335 1352H772L761 1318L589 1284L361 540ZM890 1525Q849 1525 825 1551T801 1614Q801 1639 812 1659T843 1692T892 1704Q933 1704 957 1679T981 1616Q981 1591 970 1571T939 1538T890 1525ZM1268 1525Q1227 1525 1203 1551T1179 1614Q1179
1639 1190 1659T1222 1692T1270 1704Q1311 1704 1335 1679T1359 1616Q1359 1591 1348 1571T1317 1538T1268 1525Z" />
<glyph unicode="&#xdd;" horiz-adv-x="1292" d="M1284 1286L1128 1318L1139 1352H1543L1533 1318L1364 1285L753 589L594 68L753 34L743 0H306L316 34L488 68L647 586L411 1284L259 1318L269 1352H708L698 1318L522 1284L742 619H706L1284 1286ZM913 1487L1143
1742H1293L1290 1725L964 1487H913Z" />
<glyph unicode="&#xde;" horiz-adv-x="1153" d="M568 382Q689 382 778 411T926 493T1013 618T1042 776Q1042 851 1009 903T902 983T705 1011H451L476 1076H752Q896 1076 983 1039T1111 936T1151 784Q1151 688 1116 604T1009 456T832 354T584 317H244L262 382H568ZM508
1285L349 1318L359 1352H796L786 1318L613 1284L242 68L401 34L390 0H-47L-36 34L136 68L508 1285Z" />
<glyph unicode="&#xdf;" horiz-adv-x="1105" d="M117 819L126 881H385L375 819H117ZM281 115Q243 -65 194 -187T86 -382T-43 -487T-190 -519Q-275 -519 -317 -488T-359 -415Q-359 -386 -338 -367T-283 -348Q-273 -356 -261 -374T-227 -415Q-206 -437 -183 -446T-132
-456Q-86 -456 -45 -434T34 -357T104 -209T167 28L352 923Q389 1101 457 1212T618 1377T826 1430Q909 1430 965 1402T1052 1327T1082 1220Q1082 1141 1039 1079T891 943Q822 894 786 857T736 787T723 719Q723 690 733 662T768 598T842 513Q915 439 942 380T970
260Q970 176 931 113T822 15T661 -20Q563 -20 517 14T471 92Q471 112 480 126T505 150T546 159Q557 149 568 131T598 85Q618 59 642 46T700 33Q756 33 799 54T866 117T890 219Q890 271 866 320T769 442Q696 514 669 568T642 680Q642 727 659 768T714 852T818 947Q883
999 920 1043T972 1129T988 1217Q988 1287 944 1333T804 1380Q723 1380 657 1342T543 1222T466 1005L281 115Z" />
<glyph unicode="&#xe0;" horiz-adv-x="955" d="M538 59L655 395H667Q605 294 544 217T426 87T315 8T214 -19Q152 -19 111 4T50 71T29 179Q29 263 60 359T146 549T276 719T438 842T620 888Q694 888 736 855T808 765L774 726Q755 778 720 807T626 837Q548 837 476
793T341 676T233 518T161 349T135 200Q135 133 165 100T255 67Q309 67 374 108T503 219T621 378T703 561L780 810L843 881H897L622 41L600 72Q634 68 678 77T778 115T903 204L925 176Q813 64 732 22T593 -20Q547 -20 535 -2T538 59ZM710 1031H667L495 1344V1361H621L710
1031Z" />
<glyph unicode="&#xe1;" horiz-adv-x="955" d="M538 59L655 395H667Q605 294 544 217T426 87T315 8T214 -19Q152 -19 111 4T50 71T29 179Q29 263 60 359T146 549T276 719T438 842T620 888Q694 888 736 855T808 765L774 726Q755 778 720 807T626 837Q548 837 476
793T341 676T233 518T161 349T135 200Q135 133 165 100T255 67Q309 67 374 108T503 219T621 378T703 561L780 810L843 881H897L622 41L600 72Q634 68 678 77T778 115T903 204L925 176Q813 64 732 22T593 -20Q547 -20 535 -2T538 59ZM625 1031L893 1361H1043L1041
1344L674 1031H625Z" />
<glyph unicode="&#xe2;" horiz-adv-x="955" d="M538 59L655 395H667Q605 294 544 217T426 87T315 8T214 -19Q152 -19 111 4T50 71T29 179Q29 263 60 359T146 549T276 719T438 842T620 888Q694 888 736 855T808 765L774 726Q755 778 720 807T626 837Q548 837 476
793T341 676T233 518T161 349T135 200Q135 133 165 100T255 67Q309 67 374 108T503 219T621 378T703 561L780 810L843 881H897L622 41L600 72Q634 68 678 77T778 115T903 204L925 176Q813 64 732 22T593 -20Q547 -20 535 -2T538 59ZM411 1031L724 1361H814L925
1031H877L736 1280H772L475 1031H411Z" />
<glyph unicode="&#xe3;" horiz-adv-x="955" d="M538 59L655 395H667Q605 294 544 217T426 87T315 8T214 -19Q152 -19 111 4T50 71T29 179Q29 263 60 359T146 549T276 719T438 842T620 888Q694 888 736 855T808 765L774 726Q755 778 720 807T626 837Q548 837 476
793T341 676T233 518T161 349T135 200Q135 133 165 100T255 67Q309 67 374 108T503 219T621 378T703 561L780 810L843 881H897L622 41L600 72Q634 68 678 77T778 115T903 204L925 176Q813 64 732 22T593 -20Q547 -20 535 -2T538 59ZM1006 1340Q964 1226 929 1161T862
1068T793 1041Q757 1041 734 1073T693 1146T658 1220T616 1252Q597 1252 577 1236T533 1176T475 1051H427Q469 1166 504 1231T572 1323T640 1350Q676 1350 699 1318T739 1245T775 1172T817 1140Q836 1140 856 1156T900 1215T958 1340H1006Z" />
<glyph unicode="&#xe4;" horiz-adv-x="955" d="M538 59L655 395H667Q605 294 544 217T426 87T315 8T214 -19Q152 -19 111 4T50 71T29 179Q29 263 60 359T146 549T276 719T438 842T620 888Q694 888 736 855T808 765L774 726Q755 778 720 807T626 837Q548 837 476
793T341 676T233 518T161 349T135 200Q135 133 165 100T255 67Q309 67 374 108T503 219T621 378T703 561L780 810L843 881H897L622 41L600 72Q634 68 678 77T778 115T903 204L925 176Q813 64 732 22T593 -20Q547 -20 535 -2T538 59ZM543 1106Q503 1106 479 1132T454
1195Q454 1220 465 1240T497 1273T546 1285Q586 1285 610 1260T635 1197Q635 1172 624 1152T592 1119T543 1106ZM891 1106Q850 1106 826 1132T802 1195Q802 1220 813 1240T844 1273T893 1285Q933 1285 957 1260T982 1197Q982 1172 971 1152T940 1119T891 1106Z"
/>
<glyph unicode="&#xe5;" horiz-adv-x="955" d="M538 59L655 395H667Q605 294 544 217T426 87T315 8T214 -19Q152 -19 111 4T50 71T29 179Q29 263 60 359T146 549T276 719T438 842T620 888Q694 888 736 855T808 765L774 726Q755 778 720 807T626 837Q548 837 476
793T341 676T233 518T161 349T135 200Q135 133 165 100T255 67Q309 67 374 108T503 219T621 378T703 561L780 810L843 881H897L622 41L600 72Q634 68 678 77T778 115T903 204L925 176Q813 64 732 22T593 -20Q547 -20 535 -2T538 59ZM749 1372Q815 1372 855 1335T896
1230Q896 1144 840 1082T688 1020Q623 1020 582 1057T541 1162Q541 1249 597 1310T749 1372ZM695 1069Q767 1069 805 1117T843 1222Q843 1272 817 1298T742 1324Q670 1324 632 1276T594 1170Q594 1121 620 1095T695 1069Z" />
<glyph unicode="&#xe6;" horiz-adv-x="1351" d="M842 713L814 705Q878 792 964 846T1156 901Q1219 901 1259 879T1318 819T1337 735Q1337 694 1323 653T1283 579Q1225 556 1162 533T1030 488T888 445T738 402L741 451Q868 487 955 518T1096 574T1179 623T1221
668T1238 714Q1241 752 1231 781T1195 828T1121 846Q1059 846 1003 817T900 735T817 611T763 455T743 279Q743 159 788 112T907 64Q955 64 1002 82T1098 149T1197 288H1242Q1182 165 1125 98T1007 6T876 -20Q787 -20 728 24T650 161T659 397L663 388Q601 288 541
212T423 84T314 7T214 -19Q152 -19 111 4T50 71T29 179Q29 263 60 359T146 549T276 719T438 842T620 888Q694 888 736 855T808 765L774 726Q755 778 720 807T626 837Q548 837 476 793T341 676T233 518T161 349T135 200Q135 133 165 100T255 67Q309 67 374 108T503
219T621 378T703 561L780 810L841 881H896L842 713Z" />
<glyph unicode="&#xe7;" horiz-adv-x="732" d="M105 -519Q38 -519 11 -500T-16 -455Q-16 -435 -3 -421T31 -406Q51 -406 64 -421T96 -452T149 -468Q215 -468 254 -432T294 -341Q294 -300 253 -269T112 -215L115 -206L316 17H373L188 -186L193 -141Q293 -167 332
-208T372 -298Q372 -359 338 -409T243 -489T105 -519ZM517 844Q453 844 391 799T277 676T195 496T164 279Q164 162 202 113T316 64Q365 64 412 84T506 153T601 288H644Q589 171 534 104T419 8T288 -20Q185 -20 124 43T63 241Q63 390 108 511T226 720T389 854T567
901Q655 901 698 869T742 792Q742 764 725 747T678 729Q667 729 653 747T618 788Q597 811 573 827T517 844Z" />
<glyph unicode="&#xe8;" horiz-adv-x="771" d="M541 846Q483 846 428 816T324 732T240 607T184 452T163 279Q163 159 208 112T327 64Q375 64 422 82T518 149T617 288H662Q602 165 545 98T427 6T296 -20Q228 -20 175 7T91 92T61 241Q61 355 89 455T168 637T283
778T421 869T569 901Q635 901 676 879T737 819T757 735Q757 694 743 653T703 579Q645 556 582 533T450 488T308 445T158 402L161 451Q288 487 374 517T515 573T599 621T641 668T658 716Q661 753 651 781T615 828T541 846ZM602 1031H559L387 1344V1361H513L602 1031Z"
/>
<glyph unicode="&#xe9;" horiz-adv-x="771" d="M541 846Q483 846 428 816T324 732T240 607T184 452T163 279Q163 159 208 112T327 64Q375 64 422 82T518 149T617 288H662Q602 165 545 98T427 6T296 -20Q228 -20 175 7T91 92T61 241Q61 355 89 455T168 637T283
778T421 869T569 901Q635 901 676 879T737 819T757 735Q757 694 743 653T703 579Q645 556 582 533T450 488T308 445T158 402L161 451Q288 487 374 517T515 573T599 621T641 668T658 716Q661 753 651 781T615 828T541 846ZM517 1031L785 1361H935L933 1344L566 1031H517Z"
/>
<glyph unicode="&#xea;" horiz-adv-x="771" d="M541 846Q483 846 428 816T324 732T240 607T184 452T163 279Q163 159 208 112T327 64Q375 64 422 82T518 149T617 288H662Q602 165 545 98T427 6T296 -20Q228 -20 175 7T91 92T61 241Q61 355 89 455T168 637T283
778T421 869T569 901Q635 901 676 879T737 819T757 735Q757 694 743 653T703 579Q645 556 582 533T450 488T308 445T158 402L161 451Q288 487 374 517T515 573T599 621T641 668T658 716Q661 753 651 781T615 828T541 846ZM303 1031L616 1361H706L817 1031H769L628
1280H664L367 1031H303Z" />
<glyph unicode="&#xeb;" horiz-adv-x="771" d="M541 846Q483 846 428 816T324 732T240 607T184 452T163 279Q163 159 208 112T327 64Q375 64 422 82T518 149T617 288H662Q602 165 545 98T427 6T296 -20Q228 -20 175 7T91 92T61 241Q61 355 89 455T168 637T283
778T421 869T569 901Q635 901 676 879T737 819T757 735Q757 694 743 653T703 579Q645 556 582 533T450 488T308 445T158 402L161 451Q288 487 374 517T515 573T599 621T641 668T658 716Q661 753 651 781T615 828T541 846ZM435 1106Q395 1106 371 1132T346 1195Q346
1220 357 1240T389 1273T438 1285Q478 1285 502 1260T527 1197Q527 1172 516 1152T484 1119T435 1106ZM783 1106Q742 1106 718 1132T694 1195Q694 1220 705 1240T736 1273T785 1285Q825 1285 849 1260T874 1197Q874 1172 863 1152T832 1119T783 1106Z" />
<glyph unicode="&#xec;" horiz-adv-x="543" d="M97 57L371 833L398 808Q363 810 318 798T217 751T90 650L66 677Q144 765 207 814T321 882T409 901Q454 901 465 883T462 824L187 41L163 72Q197 69 241 78T341 116T466 204L488 176Q414 101 353 58T242 -2T154 -20Q105
-20 94 -3T97 57ZM491 1031H448L276 1344V1361H402L491 1031Z" />
<glyph unicode="&#xed;" horiz-adv-x="543" d="M97 57L371 833L398 808Q363 810 318 798T217 751T90 650L66 677Q144 765 207 814T321 882T409 901Q454 901 465 883T462 824L187 41L163 72Q197 69 241 78T341 116T466 204L488 176Q414 101 353 58T242 -2T154 -20Q105
-20 94 -3T97 57ZM406 1031L674 1361H824L822 1344L455 1031H406Z" />
<glyph unicode="&#xee;" horiz-adv-x="543" d="M97 57L371 833L398 808Q363 810 318 798T217 751T90 650L66 677Q144 765 207 814T321 882T409 901Q454 901 465 883T462 824L187 41L163 72Q197 69 241 78T341 116T466 204L488 176Q414 101 353 58T242 -2T154 -20Q105
-20 94 -3T97 57ZM192 1031L505 1361H595L706 1031H658L517 1280H553L256 1031H192Z" />
<glyph unicode="&#xef;" horiz-adv-x="543" d="M97 57L371 833L398 808Q363 810 318 798T217 751T90 650L66 677Q144 765 207 814T321 882T409 901Q454 901 465 883T462 824L187 41L163 72Q197 69 241 78T341 116T466 204L488 176Q414 101 353 58T242 -2T154 -20Q105
-20 94 -3T97 57ZM324 1106Q284 1106 260 1132T235 1195Q235 1220 246 1240T278 1273T327 1285Q367 1285 391 1260T416 1197Q416 1172 405 1152T373 1119T324 1106ZM672 1106Q631 1106 607 1132T583 1195Q583 1220 594 1240T625 1273T674 1285Q714 1285 738 1260T763
1197Q763 1172 752 1152T721 1119T672 1106Z" />
<glyph unicode="&#xf0;" horiz-adv-x="893" d="M753 682L730 684Q746 825 729 936T661 1134T531 1283T342 1388L365 1428Q499 1383 590 1314T735 1157T812 968T833 756Q832 587 792 446T681 200T518 38T320 -20Q239 -20 182 13T96 111T66 265Q66 384 102 496T202
699T354 842T546 895Q607 895 652 872T723 802T753 682ZM319 31Q386 31 445 67T552 163T636 301T690 463T709 627Q709 740 671 792T555 844Q488 844 429 809T322 712T238 574T184 413T165 248Q165 136 203 84T319 31ZM387 1022L358 1076L897 1394L927 1340L387
1022Z" />
<glyph unicode="&#xf1;" d="M86 634L60 645Q103 745 150 799T250 876T361 898Q378 898 395 896T427 891T455 884L314 432H307Q369 554 431 642T554 788T675 872T793 900Q875 900 910 865T945 769Q945 736 935 695T905 606L682 41L667 72Q702 70 745 79T843 118T967
205L990 178Q915 102 853 59T741 -2T651 -20Q600 -20 589 -1T597 69L820 630Q833 665 840 693T847 742Q847 779 826 797T759 815Q695 815 625 771T489 651T367 474T277 262L198 0H102L346 808Q341 810 333 810T313 811Q270 811 232 792T157 734T86 634ZM1032 1340Q990
1226 955 1161T888 1068T819 1041Q783 1041 760 1073T719 1146T684 1220T642 1252Q623 1252 603 1236T559 1176T501 1051H453Q495 1166 530 1231T598 1323T666 1350Q702 1350 725 1318T765 1245T801 1172T843 1140Q862 1140 882 1156T926 1215T984 1340H1032Z"
/>
<glyph unicode="&#xf2;" horiz-adv-x="875" d="M554 901Q636 901 693 867T779 769T809 614Q809 494 773 381T671 178T516 34T321 -20Q239 -20 183 13T97 111T67 267Q67 387 103 500T204 703T359 847T554 901ZM320 31Q387 31 446 67T553 164T637 303T691 465T710
631Q710 745 672 797T555 849Q488 849 430 814T323 717T239 578T185 416T166 250Q166 136 204 84T320 31ZM643 1031H600L428 1344V1361H554L643 1031Z" />
<glyph unicode="&#xf3;" horiz-adv-x="875" d="M554 901Q636 901 693 867T779 769T809 614Q809 494 773 381T671 178T516 34T321 -20Q239 -20 183 13T97 111T67 267Q67 387 103 500T204 703T359 847T554 901ZM320 31Q387 31 446 67T553 164T637 303T691 465T710
631Q710 745 672 797T555 849Q488 849 430 814T323 717T239 578T185 416T166 250Q166 136 204 84T320 31ZM558 1031L826 1361H976L974 1344L607 1031H558Z" />
<glyph unicode="&#xf4;" horiz-adv-x="875" d="M554 901Q636 901 693 867T779 769T809 614Q809 494 773 381T671 178T516 34T321 -20Q239 -20 183 13T97 111T67 267Q67 387 103 500T204 703T359 847T554 901ZM320 31Q387 31 446 67T553 164T637 303T691 465T710
631Q710 745 672 797T555 849Q488 849 430 814T323 717T239 578T185 416T166 250Q166 136 204 84T320 31ZM344 1031L657 1361H747L858 1031H810L669 1280H705L408 1031H344Z" />
<glyph unicode="&#xf5;" horiz-adv-x="875" d="M554 901Q636 901 693 867T779 769T809 614Q809 494 773 381T671 178T516 34T321 -20Q239 -20 183 13T97 111T67 267Q67 387 103 500T204 703T359 847T554 901ZM320 31Q387 31 446 67T553 164T637 303T691 465T710
631Q710 745 672 797T555 849Q488 849 430 814T323 717T239 578T185 416T166 250Q166 136 204 84T320 31ZM939 1340Q897 1226 862 1161T795 1068T726 1041Q690 1041 667 1073T626 1146T591 1220T549 1252Q530 1252 510 1236T466 1176T408 1051H360Q402 1166 437
1231T505 1323T573 1350Q609 1350 632 1318T672 1245T708 1172T750 1140Q769 1140 789 1156T833 1215T891 1340H939Z" />
<glyph unicode="&#xf6;" horiz-adv-x="875" d="M554 901Q636 901 693 867T779 769T809 614Q809 494 773 381T671 178T516 34T321 -20Q239 -20 183 13T97 111T67 267Q67 387 103 500T204 703T359 847T554 901ZM320 31Q387 31 446 67T553 164T637 303T691 465T710
631Q710 745 672 797T555 849Q488 849 430 814T323 717T239 578T185 416T166 250Q166 136 204 84T320 31ZM476 1106Q436 1106 412 1132T387 1195Q387 1220 398 1240T430 1273T479 1285Q519 1285 543 1260T568 1197Q568 1172 557 1152T525 1119T476 1106ZM824 1106Q783
1106 759 1132T735 1195Q735 1220 746 1240T777 1273T826 1285Q866 1285 890 1260T915 1197Q915 1172 904 1152T873 1119T824 1106Z" />
<glyph unicode="&#xf7;" horiz-adv-x="1033" d="M162 480H895L875 416H142L162 480ZM617 859Q658 859 684 833T710 766Q710 726 684 699T615 672Q574 672 548 698T522 765Q522 805 548 832T617 859ZM421 220Q462 220 488 194T514 127Q514 87 488 60T420 33Q378
33 352 59T326 125Q326 166 352 193T421 220Z" />
<glyph unicode="&#xf8;" horiz-adv-x="909" d="M571 901Q653 901 710 867T796 769T825 614Q825 494 789 381T688 178T533 34T338 -20Q256 -20 200 13T114 111T84 267Q84 387 120 500T221 703T376 847T571 901ZM337 31Q404 31 462 67T570 164T654 303T708 465T727
631Q727 745 688 797T572 849Q505 849 447 814T340 717T256 578T201 416T182 250Q182 136 221 84T337 31ZM853 881H946L790 727L756 701L188 124L157 99L57 0H-35L119 152L153 178L723 757L754 782L853 881Z" />
<glyph unicode="&#xf9;" horiz-adv-x="1007" d="M597 53L720 443H727Q655 306 593 216T476 75T370 2T270 -20Q196 -20 159 13T122 107Q122 135 130 170T155 250L373 839L397 808Q361 811 315 799T212 751T84 650L60 676Q137 764 201 813T317 881T407 901Q442 901
459 882T461 824L240 223Q230 197 225 175T220 134Q220 98 241 81T305 63Q360 63 423 104T548 219T664 392T754 606L840 881H936L680 44L663 72Q697 68 741 77T841 115T966 204L988 176Q877 63 795 22T656 -20Q608 -20 596 -4T597 53ZM699 1031H656L484 1344V1361H610L699
1031Z" />
<glyph unicode="&#xfa;" horiz-adv-x="1007" d="M597 53L720 443H727Q655 306 593 216T476 75T370 2T270 -20Q196 -20 159 13T122 107Q122 135 130 170T155 250L373 839L397 808Q361 811 315 799T212 751T84 650L60 676Q137 764 201 813T317 881T407 901Q442 901
459 882T461 824L240 223Q230 197 225 175T220 134Q220 98 241 81T305 63Q360 63 423 104T548 219T664 392T754 606L840 881H936L680 44L663 72Q697 68 741 77T841 115T966 204L988 176Q877 63 795 22T656 -20Q608 -20 596 -4T597 53ZM614 1031L882 1361H1032L1030
1344L663 1031H614Z" />
<glyph unicode="&#xfb;" horiz-adv-x="1007" d="M597 53L720 443H727Q655 306 593 216T476 75T370 2T270 -20Q196 -20 159 13T122 107Q122 135 130 170T155 250L373 839L397 808Q361 811 315 799T212 751T84 650L60 676Q137 764 201 813T317 881T407 901Q442 901
459 882T461 824L240 223Q230 197 225 175T220 134Q220 98 241 81T305 63Q360 63 423 104T548 219T664 392T754 606L840 881H936L680 44L663 72Q697 68 741 77T841 115T966 204L988 176Q877 63 795 22T656 -20Q608 -20 596 -4T597 53ZM400 1031L713 1361H803L914
1031H866L725 1280H761L464 1031H400Z" />
<glyph unicode="&#xfc;" horiz-adv-x="1007" d="M597 53L720 443H727Q655 306 593 216T476 75T370 2T270 -20Q196 -20 159 13T122 107Q122 135 130 170T155 250L373 839L397 808Q361 811 315 799T212 751T84 650L60 676Q137 764 201 813T317 881T407 901Q442 901
459 882T461 824L240 223Q230 197 225 175T220 134Q220 98 241 81T305 63Q360 63 423 104T548 219T664 392T754 606L840 881H936L680 44L663 72Q697 68 741 77T841 115T966 204L988 176Q877 63 795 22T656 -20Q608 -20 596 -4T597 53ZM532 1106Q492 1106 468 1132T443
1195Q443 1220 454 1240T486 1273T535 1285Q575 1285 599 1260T624 1197Q624 1172 613 1152T581 1119T532 1106ZM880 1106Q839 1106 815 1132T791 1195Q791 1220 802 1240T833 1273T882 1285Q922 1285 946 1260T971 1197Q971 1172 960 1152T929 1119T880 1106Z"
/>
<glyph unicode="&#xfd;" horiz-adv-x="930" d="M93 536L55 539Q82 645 112 714T176 825T246 883T320 901Q342 901 357 891T385 851T414 756Q430 694 448 580T484 303T521 -73L433 -165Q420 -13 407 115T381 347T356 529T334 657Q321 724 313 754T297 793T279 802Q251
802 220 777T157 693T93 536ZM457 -94L490 -52Q565 60 621 173T714 403T770 639T788 881Q809 887 826 889T859 891Q881 891 890 883T900 854Q898 792 883 716T840 551T771 367T678 171T561 -32Q454 -202 353 -309T157 -468T-21 -519Q-84 -519 -114 -493T-144 -426Q-144
-392 -125 -371T-81 -349Q-73 -349 -62 -359T-32 -388Q-12 -406 10 -418T55 -430Q104 -430 170 -391T310 -278T457 -94ZM553 1031L821 1361H971L969 1344L602 1031H553Z" />
<glyph unicode="&#xfe;" horiz-adv-x="917" d="M191 243Q184 220 183 204T181 175Q181 116 220 73T338 29Q396 29 455 61T569 151T664 284T730 445T755 620Q755 716 721 764T618 813Q566 813 516 786T419 713T334 609T267 487T222 362L191 243ZM253 500L246 518Q315
658 387 741T528 863T656 901Q762 901 813 835T865 662Q865 557 837 457T758 271T640 119T493 17T330 -20Q245 -20 184 13T104 105L155 111L8 -432L184 -465L173 -499H-250L-238 -465L-87 -432L400 1313Q382 1321 357 1329T303 1346T245 1363L251 1385L506 1430H528L253
500Z" />
<glyph unicode="&#xff;" horiz-adv-x="930" d="M93 536L55 539Q82 645 112 714T176 825T246 883T320 901Q342 901 357 891T385 851T414 756Q430 694 448 580T484 303T521 -73L433 -165Q420 -13 407 115T381 347T356 529T334 657Q321 724 313 754T297 793T279 802Q251
802 220 777T157 693T93 536ZM457 -94L490 -52Q565 60 621 173T714 403T770 639T788 881Q809 887 826 889T859 891Q881 891 890 883T900 854Q898 792 883 716T840 551T771 367T678 171T561 -32Q454 -202 353 -309T157 -468T-21 -519Q-84 -519 -114 -493T-144 -426Q-144
-392 -125 -371T-81 -349Q-73 -349 -62 -359T-32 -388Q-12 -406 10 -418T55 -430Q104 -430 170 -391T310 -278T457 -94ZM471 1106Q431 1106 407 1132T382 1195Q382 1220 393 1240T425 1273T474 1285Q514 1285 538 1260T563 1197Q563 1172 552 1152T520 1119T471
1106ZM819 1106Q778 1106 754 1132T730 1195Q730 1220 741 1240T772 1273T821 1285Q861 1285 885 1260T910 1197Q910 1172 899 1152T868 1119T819 1106Z" />
<glyph unicode="&#x2013;" horiz-adv-x="968" d="M108 485H887L866 416H87L108 485Z" />
<glyph unicode="&#x2014;" horiz-adv-x="1282" d="M108 485H1200L1179 416H87L108 485Z" />
<glyph unicode="&#x2018;" horiz-adv-x="421" d="M602 1324Q523 1286 476 1251T407 1183T385 1118Q385 1093 398 1078T428 1053T458 1037T471 1020Q471 995 458 972T419 934T358 919Q321 919 298 944T274 1017Q274 1078 302 1136T398 1251T585 1364L602 1324Z" />
<glyph unicode="&#x2019;" horiz-adv-x="422" d="M247 958Q326 997 373 1031T442 1099T464 1164Q464 1190 451 1205T421 1229T391 1245T378 1263Q378 1289 391 1311T430 1348T491 1363Q528 1363 551 1338T575 1265Q575 1205 547 1147T451 1032T264 918L247 958Z" />
<glyph unicode="&#x201a;" horiz-adv-x="397" d="M-121 -225Q-42 -186 5 -151T74 -83T96 -18Q96 7 83 22T53 46T23 63T10 80Q10 106 23 128T62 165T123 180Q161 180 184 156T207 82Q207 22 179 -36T83 -151T-104 -265L-121 -225Z" />
<glyph unicode="&#x201c;" horiz-adv-x="716" d="M602 1324Q523 1286 476 1251T407 1183T385 1118Q385 1093 398 1078T428 1053T458 1037T471 1020Q471 995 458 972T419 934T358 919Q321 919 298 944T274 1017Q274 1078 302 1136T398 1251T585 1364L602 1324ZM897
1324Q818 1286 771 1251T702 1183T680 1118Q680 1093 693 1078T723 1053T753 1037T766 1020Q766 995 753 972T714 934T653 919Q616 919 593 944T569 1017Q569 1078 597 1136T693 1251T880 1364L897 1324Z" />
<glyph unicode="&#x201d;" horiz-adv-x="717" d="M247 958Q326 997 373 1031T442 1099T464 1164Q464 1190 451 1205T421 1229T391 1245T378 1263Q378 1289 391 1311T430 1348T491 1363Q528 1363 551 1338T575 1265Q575 1205 547 1147T451 1032T264 918L247 958ZM542
958Q621 997 668 1031T737 1099T759 1164Q759 1190 746 1205T716 1229T686 1245T673 1263Q673 1289 686 1311T725 1348T786 1363Q823 1363 846 1338T870 1265Q870 1205 842 1147T746 1032T559 918L542 958Z" />
<glyph unicode="&#x201e;" horiz-adv-x="692" d="M-121 -225Q-42 -186 5 -151T74 -83T96 -18Q96 7 83 22T53 46T23 63T10 80Q10 106 23 128T62 165T123 180Q161 180 184 156T207 82Q207 22 179 -36T83 -151T-104 -265L-121 -225ZM174 -225Q253 -186 300 -151T369
-83T391 -18Q391 7 378 22T348 46T318 63T305 80Q305 106 318 128T357 165T418 180Q456 180 479 156T502 82Q502 22 474 -36T378 -151T191 -265L174 -225Z" />
<glyph unicode="&#x2022;" horiz-adv-x="771" d="M388 652Q448 652 494 626T566 555T593 451Q593 393 567 347T494 275T388 248Q328 248 282 274T210 347T183 451Q183 509 209 554T282 626T388 652Z" />
<glyph unicode="&#x2039;" horiz-adv-x="553" d="M185 482L354 79L313 58L70 427L83 470L548 839L577 802L153 380L185 482Z" />
<glyph unicode="&#x203a;" horiz-adv-x="585" d="M384 415L215 819L256 839L499 470L486 427L20 58L-8 95L416 517L384 415Z" />
</font>
</defs>
</svg>
